<svg width="120" height="48" viewBox="0 0 120 48" fill="none" xmlns="http://www.w3.org/2000/svg">
<path d="M61.7735 14.5077V35.1538H56.6496V14.5077H61.7735Z" fill="black"/>
<path d="M74.6345 14C80.749 14 85.6851 18.7554 85.6851 24.9492C85.6851 31.16 80.7149 36 74.5833 36C68.4517 36 63.4815 31.2108 63.4815 25.0169C63.4815 18.84 68.52 14 74.6345 14ZM74.5833 30.9569C77.8284 30.9569 80.2196 28.1477 80.2196 24.9831C80.2196 21.8185 77.8284 19.0262 74.5833 19.0262C71.3381 19.0262 68.947 21.8185 68.947 24.9831C68.947 28.1477 71.3552 30.9569 74.5833 30.9569Z" fill="black"/>
<path d="M86.3682 28.9938L91.0481 27.8768C91.3897 30.3645 93.183 31.2615 95.0789 31.2615C96.9576 31.2615 97.6408 30.1445 97.6408 29.2815C97.6408 28.5707 97.2309 27.8938 95.8645 27.623L93.0122 27.0307C89.5963 26.3707 87.171 24.2045 87.171 20.8876C87.171 16.9445 90.7577 14.1522 94.8056 14.1522C100.032 14.1522 102.184 17.4353 102.56 20.1599L97.9653 21.463C97.7262 19.7707 96.6844 18.5522 94.7885 18.5522C93.1489 18.5522 92.3803 19.6522 92.3803 20.4645C92.3803 21.1584 92.7048 21.9368 93.9175 22.1738L96.9064 22.7491C100.801 23.5107 102.953 25.8968 102.953 29.0107C102.953 32.3953 100.049 35.6445 95.0789 35.6445C89.8525 35.6615 87.0514 32.9368 86.3682 28.9938Z" fill="black"/>
<path d="M21.5338 35.1538H16L25.1376 14.5077H30.6885L21.5338 35.1538Z" fill="black"/>
<path d="M48.588 24.6108L55.454 14.5077H49.1687L45.4795 20.6169L41.8586 14.5077H35.505L42.4393 24.6108L37.9644 31.1769L30.586 14.5246H25.0522L34.2069 35.1538H41.1413L45.4795 28.6046L49.7494 35.1538H55.4199L48.588 24.6108Z" fill="black"/>
</svg>
