<svg width="24" height="24" viewBox="0 0 24 24" fill="none" xmlns="http://www.w3.org/2000/svg">
<path fill-rule="evenodd" clip-rule="evenodd" d="M7.41525 1.89962C8.63155 0.683313 10.2812 0 12.0013 0C13.7214 0 15.3711 0.683313 16.5874 1.89962C17.0895 2.40171 17.0895 3.21579 16.5874 3.71789C16.0853 4.21999 15.2712 4.21999 14.7691 3.71789C14.0351 2.98382 13.0395 2.57143 12.0013 2.57143C10.9632 2.57143 9.96758 2.98382 9.23353 3.71789C8.49945 4.45197 8.08706 5.44757 8.08706 6.48571V7.49021C9.33774 7.4495 10.6231 7.42853 12.0003 7.42853C13.5666 7.42853 15.0143 7.45565 16.4271 7.50809C19.3215 7.61551 21.7431 9.84903 22.0875 12.7238C22.2034 13.6907 22.2877 14.6911 22.2877 15.7142C22.2877 16.7374 22.2034 17.7377 22.0875 18.7046C21.7431 21.5794 19.3215 23.813 16.4271 23.9205C15.0143 23.9727 13.5666 24 12.0003 24C10.4339 24 8.98631 23.9727 7.57343 23.9205C4.67906 23.813 2.25741 21.5794 1.91306 18.7046C1.79725 17.7377 1.71289 16.7374 1.71289 15.7142C1.71289 14.6911 1.79725 13.6907 1.91306 12.7238C2.17129 10.568 3.59771 8.77281 5.51563 7.96442V6.48571C5.51563 4.76559 6.19895 3.11592 7.41525 1.89962ZM13.286 14.6744C13.286 13.9643 12.7104 13.3887 12.0003 13.3887C11.2902 13.3887 10.7146 13.9643 10.7146 14.6744V16.4571C10.7146 17.1672 11.2902 17.7429 12.0003 17.7429C12.7104 17.7429 13.286 17.1672 13.286 16.4571V14.6744Z" fill="black"/>
</svg>
