<svg width="120" height="48" viewBox="0 0 120 48" fill="none" xmlns="http://www.w3.org/2000/svg">
<path d="M16.5984 21.7865H24.2587V23.9394L21.3781 24.1605C16.7248 24.5092 15.2692 25.7404 15.2692 29.1941V29.8903C15.2692 32.4181 17.0418 33.9422 19.7634 33.9422C21.9163 33.9422 23.1507 33.4355 24.6705 31.8841H24.9233V33.5303H27.9935V18.4309H16.5984V21.7865ZM24.2587 29.0677C23.3108 30.0156 21.8847 30.6476 20.7135 30.6476C19.4496 30.6476 18.9093 30.1725 18.9409 29.1277C18.9725 27.6721 19.5107 27.3235 21.9479 27.1023L24.2587 26.8811V29.0677Z" fill="black" fill-opacity="0.5"/>
<path fill-rule="evenodd" clip-rule="evenodd" d="M34.4495 18.4319H40.3688V21.5022H43.597V33.5303H39.8306V21.8192H34.4495V33.5303H30.6821V13.905H34.4495V18.4319ZM89.5296 24.5092L87.2504 24.2869C85.9864 24.1605 85.6705 23.8445 85.6705 22.8314C85.6705 21.6917 86.1138 21.4063 87.8823 21.4063C89.4622 21.4063 89.9077 21.6602 90.1299 22.7366H93.6752C93.5804 19.1281 92.4724 18.2076 88.0719 18.2076C83.2606 18.2076 82.0577 19.126 82.0577 22.8293C82.0577 26.2165 82.9436 27.1339 86.5215 27.4825L88.3889 27.6721C90.0667 27.8301 90.4775 28.1471 90.4775 29.1603C90.4775 30.3948 89.9709 30.7107 87.9138 30.7107C86.1096 30.7107 85.6346 30.4264 85.5399 29.2551H81.9588C82.0535 32.9899 83.1932 33.94 87.7517 33.94C92.8158 33.94 94.0817 32.9268 94.0817 28.8118C94.087 25.7436 93.1696 24.8568 89.5296 24.5092ZM70.1376 24.7936C70.1376 19.9191 68.4609 18.2097 63.6485 18.2097C58.9004 18.2097 57.0331 20.4215 57.0331 25.9332C57.0331 31.9483 58.6792 33.9379 63.9972 33.9379C67.8278 33.9379 69.4414 32.7667 69.9796 29.4743H66.3396C65.9278 30.4917 65.4854 30.7129 63.9392 30.7129C61.5968 30.7129 60.9953 30.0482 60.869 27.2308H69.8901C70.0411 26.4268 70.1239 25.6115 70.1376 24.7936ZM60.8954 24.2554C60.9269 22.1352 61.7811 21.3442 63.8076 21.3442C65.7382 21.3442 66.5292 22.1352 66.5934 24.2554H60.8954ZM72.3304 19.0955V33.5303H76.0978V21.6601H80.6269V18.4309H76.0978V18.0201C76.1284 17.1333 76.3507 16.8805 77.0785 16.8805H81.1935V13.905H76.7604C73.7544 13.905 72.3304 14.8224 72.3304 19.0955ZM50.1258 33.5303H46.3594V18.4319H55.7291V21.9772H50.1258V33.5303Z" fill="black"/>
</svg>
