<svg width="120" height="48" viewBox="0 0 120 48" fill="none" xmlns="http://www.w3.org/2000/svg">
<g clip-path="url(#clip0_3747_12047)">
<path d="M43.2898 16.3692V31.3846H39.5634V16.3692H43.2898Z" fill="black"/>
<path d="M52.6433 16C57.0902 16 60.6801 19.4585 60.6801 23.9631C60.6801 28.48 57.0654 32 52.606 32C48.1467 32 44.532 28.5169 44.532 24.0123C44.532 19.52 48.1964 16 52.6433 16ZM52.606 28.3323C54.9661 28.3323 56.7051 26.2892 56.7051 23.9877C56.7051 21.6862 54.9661 19.6554 52.606 19.6554C50.2459 19.6554 48.5069 21.6862 48.5069 23.9877C48.5069 26.2892 50.2583 28.3323 52.606 28.3323Z" fill="black"/>
<path d="M61.1769 26.9046L64.5804 26.0923C64.8289 27.9015 66.1331 28.5539 67.5119 28.5539C68.8783 28.5539 69.3752 27.7415 69.3752 27.1139C69.3752 26.5969 69.077 26.1046 68.0833 25.9077L66.0089 25.4769C63.5246 24.9969 61.7607 23.4215 61.7607 21.0092C61.7607 18.1415 64.3693 16.1108 67.3132 16.1108C71.1142 16.1108 72.6793 18.4985 72.9526 20.48L69.6112 21.4277C69.4373 20.1969 68.6795 19.3108 67.3007 19.3108C66.1083 19.3108 65.5493 20.1108 65.5493 20.7015C65.5493 21.2062 65.7853 21.7723 66.6673 21.9446L68.841 22.3631C71.6731 22.9169 73.2383 24.6523 73.2383 26.9169C73.2383 29.3785 71.1266 31.7415 67.5119 31.7415C63.7109 31.7539 61.6738 29.7723 61.1769 26.9046Z" fill="black"/>
<path d="M14.0246 31.3846H10L16.6455 16.3692H20.6826L14.0246 31.3846Z" fill="black"/>
<path d="M33.7004 23.7169L38.6938 16.3692H34.1227L31.4396 20.8123L28.8063 16.3692H24.1854L29.2286 23.7169L25.9742 28.4923L20.608 16.3815H16.5834L23.2414 31.3846H28.2846L31.4396 26.6215L34.545 31.3846H38.669L33.7004 23.7169Z" fill="black"/>
<path fill-rule="evenodd" clip-rule="evenodd" d="M81.2875 25.3785V31.3846H78.1945V16.3692H81.2875V22.3138H88.2684V16.3692H91.3614V31.3846H88.2684V25.3785H81.2875Z" fill="black"/>
<path fill-rule="evenodd" clip-rule="evenodd" d="M105.447 30.1908C104.118 31.1754 102.466 31.7538 100.678 31.7538C96.2927 31.7538 92.7277 28.2215 92.7277 23.8769C92.7277 19.5323 96.2927 16 100.69 16C105.087 16 108.652 19.5323 108.652 23.8769C108.652 25.3908 108.23 26.7938 107.485 27.9877L109 29.5015L106.876 31.5938L105.447 30.1908ZM103.373 28.1231C102.59 28.6031 101.671 28.8862 100.69 28.8862C97.8951 28.8862 95.6219 26.6462 95.6219 23.8769C95.6219 21.1077 97.8951 18.8677 100.69 18.8677C103.485 18.8677 105.758 21.1077 105.758 23.8769C105.758 24.5908 105.609 25.2677 105.336 25.8708L103.969 24.5169L101.845 26.6092L103.373 28.1231Z" fill="black"/>
</g>
<defs>
<clipPath id="clip0_3747_12047">
<rect width="99" height="16" fill="white" transform="translate(10 16)"/>
</clipPath>
</defs>
</svg>
