<svg width="64" height="48" viewBox="0 0 64 48" fill="none" xmlns="http://www.w3.org/2000/svg">
<path d="M63.5673 24.0181C63.5673 23.8502 63.5673 23.6765 63.5673 23.4966C63.5673 23.3049 63.5495 23.119 63.5136 22.9393C63.4897 22.7594 63.4718 22.5796 63.4598 22.3998C63.4478 22.22 63.424 22.0522 63.3881 21.8963H53.4088L50.3808 26.6611H58.0491C57.822 27.4644 57.4936 28.1956 57.0636 28.8548C56.6456 29.5021 56.144 30.0654 55.5587 30.5449V30.5629C54.9495 31.0424 54.2746 31.42 53.5342 31.6958C52.8056 31.9595 52.0291 32.0914 51.205 32.0914C51.1811 32.0914 51.1572 32.0914 51.1333 32.0914C51.1213 32.0914 51.1153 32.0914 51.1153 32.0914C50.0404 32.0914 49.0251 31.8756 48.0696 31.444C47.114 31.0125 46.296 30.437 45.615 29.7178C44.9104 28.9626 44.355 28.0996 43.9488 27.1286C43.5427 26.1577 43.3397 25.1209 43.3397 24.0181C43.3397 24.0061 43.3397 24 43.3397 24C43.3397 23.988 43.3397 23.9701 43.3397 23.9461C43.3397 22.8553 43.5427 21.8304 43.9488 20.8715C44.355 19.9005 44.9163 19.0554 45.633 18.3362C46.3376 17.617 47.1679 17.0416 48.1234 16.61C49.0789 16.1785 50.0942 15.9627 51.1692 15.9627C51.1692 15.9627 51.1753 15.9627 51.1871 15.9627C51.199 15.9627 51.205 15.9627 51.205 15.9627C51.205 15.9627 51.2112 15.9627 51.2229 15.9627C51.2468 15.9627 51.2587 15.9627 51.2587 15.9627C51.7126 15.9627 52.1606 16.0047 52.6025 16.0886C53.0564 16.1605 53.4923 16.2684 53.9104 16.4123L53.8207 16.3763C54.2508 16.5321 54.6509 16.7119 55.0212 16.9157C55.3915 17.1195 55.7378 17.3412 56.0603 17.581V17.563L57.4041 15.4233L58.7478 13.2656C58.2462 12.918 57.7086 12.6063 57.1353 12.3306C56.574 12.0549 55.9887 11.8212 55.3795 11.6294L55.2899 11.5934C54.6928 11.4256 54.0537 11.2937 53.373 11.1978C52.692 11.0899 52.0053 11.036 51.3126 11.036C51.2886 11.036 51.2707 11.036 51.2587 11.036C51.2587 11.036 51.2468 11.036 51.2229 11.036C51.211 11.036 51.193 11.036 51.1692 11.036C51.1572 11.036 51.1393 11.036 51.1153 11.036C50.1957 11.036 49.2999 11.1199 48.4279 11.2877C47.5679 11.4555 46.7318 11.7073 45.9197 12.0429L46.0271 12.0069C45.2388 12.3545 44.5043 12.7561 43.8235 13.2116C43.1427 13.6671 42.5216 14.1766 41.9602 14.74C41.2913 15.4472 40.7239 16.1424 40.258 16.8257C39.8042 17.5329 39.428 18.2222 39.1295 18.8935C38.8308 19.5647 38.5859 20.242 38.3948 20.9252C38.2156 21.5846 38.0544 22.2378 37.9111 22.8851C37.6363 24.1558 37.3497 25.3665 37.0512 26.5172C36.7525 27.668 36.1373 28.7049 35.2057 29.6279C34.8474 29.9995 34.4532 30.3411 34.0232 30.6528C33.6052 30.9525 33.1691 31.2042 32.7153 31.4079L32.6615 31.4439C32.2077 31.6238 31.7299 31.7676 31.2282 31.8755C30.7385 31.9834 30.219 32.0372 29.6695 32.0372C29.6695 32.0372 29.6576 32.0372 29.6337 32.0372C29.6217 32.0372 29.6157 32.0372 29.6157 32.0372C28.505 32.0372 27.4598 31.8215 26.4804 31.39C25.501 30.9585 24.641 30.3711 23.9004 29.6279C23.1838 28.9207 22.6105 28.0756 22.1805 27.0927C21.7505 26.0977 21.5355 25.0428 21.5355 23.928C21.5355 22.8491 21.7445 21.8303 22.1625 20.8713C22.5806 19.9004 23.1539 19.0553 23.8825 18.3361C24.611 17.6049 25.4651 17.0235 26.4445 16.592C27.424 16.1484 28.4691 15.9267 29.58 15.9267C30.0458 15.9267 30.4996 15.9687 30.9416 16.0525C31.3835 16.1244 31.8195 16.2264 32.2495 16.3582H32.1778C32.6078 16.4901 33.002 16.6579 33.3603 16.8617C33.7187 17.0535 34.065 17.2692 34.3994 17.509H34.3636L35.7252 15.3693L37.1048 13.1936C36.615 12.858 36.0835 12.5523 35.5102 12.2766C34.9489 12.0009 34.3577 11.7672 33.7366 11.5754H33.6648C33.0676 11.3836 32.4286 11.2397 31.7478 11.1438C31.0788 11.048 30.3921 11 29.6874 11C29.6755 11 29.6576 11 29.6337 11C29.6217 11 29.6097 11 29.5978 11C29.5978 11 29.5917 11 29.5799 11C29.568 11 29.562 11 29.562 11C28.4511 11 27.3762 11.1379 26.337 11.4136C25.3098 11.6773 24.3424 12.0489 23.4346 12.5283L23.4884 12.5103C22.5925 12.9659 21.7684 13.5232 21.0159 14.1825C20.2634 14.8418 19.5945 15.567 19.0092 16.3582L18.9734 16.3762C18.7345 15.657 18.3881 15.0037 17.9342 14.4163C17.4804 13.8169 16.9428 13.3195 16.3217 12.9239H16.3038C15.6469 12.4924 14.9243 12.1567 14.136 11.917C13.3477 11.6653 12.5235 11.5394 11.6635 11.5394C11.6276 11.5394 11.5979 11.5394 11.5739 11.5394C11.55 11.5394 11.5321 11.5394 11.5202 11.5394H0V36.4605H12.7206C12.7445 36.4605 12.7684 36.4605 12.7923 36.4605C12.8162 36.4605 12.8341 36.4605 12.8461 36.4605C13.6106 36.4605 14.3391 36.3646 15.0319 36.1728C15.7246 35.993 16.3816 35.7353 17.0027 35.3996L16.9489 35.4176C17.5342 35.094 18.0597 34.7104 18.5255 34.2669C19.0033 33.8114 19.4035 33.3079 19.7259 32.7564L19.7617 32.7025C20.3351 33.3618 20.9741 33.9492 21.6787 34.4646C22.3835 34.9801 23.1301 35.4296 23.9183 35.8132L24.008 35.8312C24.7963 36.1908 25.6443 36.4725 26.5521 36.6762C27.4598 36.892 28.4034 36.9999 29.3828 36.9999C29.3828 36.9999 29.389 36.9999 29.4008 36.9999C29.4127 36.9999 29.4247 36.9999 29.4366 36.9999C29.4605 36.9999 29.4784 36.9999 29.4904 36.9999C29.5023 36.9999 29.5202 36.9999 29.5441 36.9999C30.655 36.9999 31.7359 36.8621 32.7869 36.5863C33.8381 36.3226 34.8176 35.939 35.7253 35.4356L35.6715 35.4896C36.6031 34.9981 37.4452 34.4167 38.1977 33.7454C38.9502 33.0622 39.6191 32.307 40.2044 31.4799L40.2223 31.4259C40.7956 32.265 41.4525 33.0262 42.193 33.7095C42.9455 34.3808 43.7578 34.956 44.6296 35.4357L44.6834 35.4716C45.5913 35.9511 46.5706 36.3227 47.6217 36.5864C48.6728 36.8621 49.7657 37 50.9004 37C50.9004 37 50.9065 37 50.9184 37C50.9303 37 50.9482 37 50.9721 37C50.984 37 50.996 37 51.0079 37C51.0199 37 51.0258 37 51.0258 37C51.8977 37 52.7458 36.9101 53.5699 36.7303C54.3942 36.5503 55.1824 36.2928 55.935 35.9571C56.6994 35.6335 57.4161 35.2379 58.0849 34.7704C58.7538 34.2909 59.3689 33.7574 59.9303 33.1701C60.5035 32.5948 61.0112 31.9594 61.4532 31.2642C61.8951 30.5809 62.2714 29.8557 62.5818 29.0884C62.8925 28.3214 63.1313 27.5181 63.2986 26.6791C63.4777 25.8521 63.5673 24.989 63.5673 24.0899C63.5673 24.0779 63.5673 24.0659 63.5673 24.0539C63.5673 24.042 63.5673 24.0301 63.5673 24.0181ZM5.35708 21.6626V16.1425H11.4666C11.4785 16.1425 11.4845 16.1425 11.4845 16.1425C11.8668 16.1425 12.219 16.2145 12.5416 16.3583C12.8641 16.4902 13.1567 16.682 13.4195 16.9337H13.4015C13.6523 17.1854 13.8435 17.4731 13.9749 17.7968C14.1181 18.1204 14.1899 18.468 14.1899 18.8396C14.1899 18.8396 14.1899 18.8458 14.1899 18.8576C14.1899 18.8696 14.1899 18.8756 14.1899 18.8756C14.1899 18.8996 14.1899 18.9116 14.1899 18.9116C14.1899 18.9116 14.1899 18.9236 14.1899 18.9476C14.1899 19.3072 14.1181 19.6549 13.9749 19.9905C13.8435 20.3141 13.6583 20.6018 13.4195 20.8536H13.4015C13.1507 21.1053 12.8641 21.3031 12.5416 21.4469C12.219 21.5908 11.8668 21.6627 11.4845 21.6627C11.4845 21.6627 11.4783 21.6627 11.4666 21.6627L5.35708 21.6626ZM5.35708 31.8576V26.1937H12.649C12.6609 26.1937 12.6669 26.1937 12.6669 26.1937C13.0611 26.1937 13.4314 26.2656 13.7778 26.4094C14.136 26.5533 14.4526 26.7452 14.7273 26.9849C14.99 27.2365 15.1992 27.5362 15.3544 27.8838C15.5097 28.2314 15.5873 28.597 15.5873 28.9806C15.5873 28.9806 15.5873 28.9868 15.5873 28.9986C15.5873 29.4063 15.5096 29.7839 15.3544 30.1315C15.1992 30.4791 14.9841 30.7848 14.7095 31.0484C14.4467 31.3121 14.136 31.516 13.7778 31.6597C13.4314 31.8036 13.0551 31.8756 12.649 31.8756H5.35708V31.8576Z" fill="black"/>
</svg>
