<svg width="120" height="48" viewBox="0 0 120 48" fill="none" xmlns="http://www.w3.org/2000/svg">
<g clip-path="url(#clip0_8286_44952)">
<path d="M30.2 23.2751H8.60001C8.05001 23.2751 7.60001 22.8251 7.60001 22.2751V20.7501C7.60001 19.0251 9.00001 17.6251 10.725 17.6251H28.05C29.775 17.6251 31.175 19.0251 31.175 20.7501V22.2751C31.2 22.8251 30.75 23.2751 30.2 23.2751Z" fill="black"/>
<path d="M25.65 15.9751H13.15C12.6 15.9751 12.125 15.5251 12.125 14.9501C12.125 12.4001 14.2 10.3251 16.75 10.3251H22.05C24.6 10.3251 26.675 12.4001 26.675 14.9501C26.675 15.5251 26.225 15.9751 25.65 15.9751Z" fill="black"/>
<path d="M31.2 24.925H7.60001C6.05001 24.925 4.77501 26.2 4.77501 27.75C4.77501 29.3 6.05001 30.575 7.60001 30.575H15.975C16.275 28.975 17.675 27.75 19.375 27.75C21.075 27.75 22.5 28.975 22.8 30.575H31.175C32.725 30.575 34 29.3 34 27.75C34 26.2 32.75 24.925 31.2 24.925Z" fill="black"/>
<path d="M30.175 32.2251H22.85V37.8751H28.35C29.9 37.8751 31.175 36.6001 31.175 35.0501V33.2501C31.2 32.7001 30.75 32.2251 30.175 32.2251Z" fill="black"/>
<path d="M8.60001 32.2251C8.05001 32.2251 7.57501 32.6751 7.57501 33.2501V35.0501C7.57501 36.6001 8.85001 37.8751 10.4 37.8751H15.9V32.2251C15.925 32.2251 8.60001 32.2251 8.60001 32.2251Z" fill="black"/>
<path d="M56.375 26.0751C56.375 29.1501 54.25 31.1251 51.475 31.1251C50.15 31.1251 49.1 30.7001 48.4 29.8501V30.9751H45.675V17.4501H48.525V22.2251C49.25 21.4251 50.25 21.0251 51.475 21.0251C54.225 21.0251 56.375 23.0001 56.375 26.0751ZM53.475 26.0751C53.475 24.3751 52.4 23.3501 50.975 23.3501C49.55 23.3501 48.475 24.3751 48.475 26.0751C48.475 27.7751 49.55 28.8001 50.975 28.8001C52.4 28.8001 53.475 27.7751 53.475 26.0751Z" fill="black"/>
<path d="M65.675 27.9001L67.2 29.5501C66.3 30.6001 64.925 31.1251 63.15 31.1251C59.75 31.1251 57.55 29.0001 57.55 26.0751C57.55 23.1501 59.775 21.0251 62.8 21.0251C65.575 21.0251 67.85 22.8501 67.875 26.0001L60.6 27.4001C61.025 28.3751 61.925 28.8501 63.2 28.8501C64.25 28.8501 65 28.5501 65.675 27.9001ZM60.325 25.7751L65.1 24.8501C64.825 23.8501 63.975 23.1751 62.775 23.1751C61.375 23.1751 60.375 24.1251 60.325 25.7751Z" fill="black"/>
<path d="M77.175 27.9001L78.7 29.5501C77.8 30.6001 76.425 31.1251 74.65 31.1251C71.25 31.1251 69.05 29.0001 69.05 26.0751C69.05 23.1501 71.275 21.0251 74.3 21.0251C77.075 21.0251 79.35 22.8501 79.375 26.0001L72.125 27.4001C72.55 28.3751 73.45 28.8501 74.725 28.8501C75.75 28.8501 76.5 28.5501 77.175 27.9001ZM71.825 25.7751L76.6 24.8501C76.325 23.8501 75.475 23.1751 74.275 23.1751C72.875 23.1751 71.9 24.1251 71.825 25.7751Z" fill="black"/>
<path d="M91.325 25.3751V31.0001H88.475V25.8001C88.475 24.2251 87.75 23.4751 86.475 23.4751C85.1 23.4751 84.125 24.3251 84.125 26.1251V30.9751H81.275V17.4501H84.125V22.2001C84.9 21.4251 86 21.0251 87.25 21.0251C89.575 21.0251 91.325 22.3751 91.325 25.3751Z" fill="black"/>
<path d="M93.55 18.2001C93.55 17.3001 94.275 16.6001 95.325 16.6001C96.375 16.6001 97.1 17.2501 97.1 18.1251C97.1 19.0751 96.375 19.7751 95.325 19.7751C94.275 19.7751 93.55 19.1001 93.55 18.2001ZM93.9 21.1751H96.75V31.0001H93.9C93.9 30.9751 93.9 21.1751 93.9 21.1751Z" fill="black"/>
<path d="M99.05 18.2001C99.05 17.3001 99.775 16.6001 100.825 16.6001C101.875 16.6001 102.6 17.2501 102.6 18.1251C102.6 19.0751 101.875 19.7751 100.825 19.7751C99.775 19.7751 99.05 19.1001 99.05 18.2001ZM99.4 21.1751H102.25V31.0001H99.4C99.4 30.9751 99.4 21.1751 99.4 21.1751Z" fill="black"/>
<path d="M114.625 21.175L110.475 31H107.525L103.4 21.175H106.35L109.075 27.85L111.875 21.175C111.9 21.175 114.625 21.175 114.625 21.175Z" fill="black"/>
</g>
<defs>
<clipPath id="clip0_8286_44952">
<rect width="109.85" height="27.55" fill="white" transform="translate(4.77501 10.3251)"/>
</clipPath>
</defs>
</svg>
