<svg width="88" height="48" viewBox="0 0 88 48" fill="none" xmlns="http://www.w3.org/2000/svg">
<g clip-path="url(#clip0_9505_27568)">
<path fill-rule="evenodd" clip-rule="evenodd" d="M0 9.29359H5.93801C9.24322 9.29359 10.9669 10.9983 10.9669 13.1007C10.9669 14.5497 10.1524 15.5347 9.01593 16.0461V16.0839C10.4649 16.6048 11.2794 17.7508 11.2794 19.2187C11.2794 21.3117 9.66939 23.1489 6.17477 23.1489H0V9.29359ZM5.7486 14.7865C6.73353 14.7865 7.17865 14.2846 7.17865 13.7258C7.17865 13.167 6.73353 12.6462 5.7486 12.6462H4.00603V14.777H5.7486V14.7865ZM5.80542 19.7964C6.84718 19.7964 7.34912 19.2944 7.34912 18.6504C7.34912 18.0065 6.82824 17.5045 5.82437 17.5045H4.00603V19.7964H5.80542ZM12.1317 17.514V9.29359H16.1756V17.4761C16.1756 19.0198 16.9333 19.8343 18.2307 19.8343C19.5282 19.8343 20.3427 19.0198 20.3427 17.4572V9.29359H24.4055V17.514C24.4055 20.9991 22.0663 23.5088 18.2307 23.5088C14.3952 23.5088 12.1317 20.9991 12.1317 17.514ZM34.7094 9.96599V13.5269C33.8381 12.9113 32.3513 12.4852 31.1485 12.4852C30.0499 12.4852 29.5006 12.8356 29.5006 13.2996C29.5006 13.7637 30.1162 14.0004 31.2053 14.3982C33.0616 15.0517 35.5807 15.9229 35.5807 18.8683C35.5807 21.5011 33.5919 23.452 30.1068 23.452C28.3074 23.452 26.6595 22.9311 25.6367 22.2492V18.4989C26.6406 19.3134 28.1558 19.9669 29.6238 19.9669C30.8644 19.9669 31.4421 19.5028 31.4421 18.9819C31.4421 18.3095 30.4951 18.0159 29.3681 17.6087C27.8812 17.0689 25.5325 16.1029 25.5325 13.4133C25.523 10.9888 27.4361 9 30.8455 9C32.3513 9 33.7056 9.38829 34.7094 9.96599ZM36.613 9.29359H40.6569V23.1489H36.613V9.29359ZM55.0331 23.1584H51.1786L46.1877 15.7241H46.1688V23.1584H42.3332V9.29359H46.1877L51.1786 16.6048H51.1976V9.29359H55.0331V23.1584ZM56.7094 9.29359H66.2841V12.8924H60.7533V14.5592H65.7254V17.8265H60.7533V19.5502H66.2841V23.1489H56.7094V9.29359ZM76.427 9.96599V13.5269C75.5557 12.9113 74.0689 12.4852 72.8661 12.4852C71.7675 12.4852 71.2183 12.8356 71.2183 13.2996C71.2183 13.7637 71.8338 14.0004 72.923 14.3982C74.7792 15.0517 77.2983 15.9229 77.2983 18.8683C77.2983 21.5011 75.3095 23.452 71.8244 23.452C70.025 23.452 68.3771 22.9311 67.3543 22.2492V18.4989C68.3582 19.3134 69.8734 19.9669 71.3414 19.9669C72.582 19.9669 73.1597 19.5028 73.1597 18.9819C73.1597 18.3095 72.2127 18.0159 71.0857 17.6087C69.5988 17.0689 67.2501 16.1029 67.2501 13.4133C67.2406 10.9888 69.1537 9 72.5631 9C74.0689 9 75.4232 9.38829 76.427 9.96599ZM87.1287 9.96599V13.5269C86.2574 12.9113 84.7706 12.4852 83.5678 12.4852C82.4692 12.4852 81.9199 12.8356 81.9199 13.2996C81.9199 13.7637 82.5355 14.0004 83.6246 14.3982C85.4809 15.0517 88 15.9229 88 18.8683C88 21.5011 86.0112 23.452 82.526 23.452C80.7266 23.452 79.0788 22.9311 78.056 22.2492V18.4989C79.0598 19.3134 80.5751 19.9669 82.0431 19.9669C83.2837 19.9669 83.8614 19.5028 83.8614 18.9819C83.8614 18.3095 82.9143 18.0159 81.7873 17.6087C80.3005 17.0689 77.9518 16.1029 77.9518 13.4133C77.9423 10.9888 79.8554 9 83.2647 9C84.7706 9 86.1248 9.38829 87.1287 9.96599ZM8.87387 39.0121H12.9178V25.1567H8.87387V39.0121ZM27.294 25.1567H23.449V32.4679H23.43L18.4391 25.1567H14.5846V39.0121H18.4296V31.5777H18.4486L23.4395 39.0121H27.294V25.1567ZM33.8097 24.8536C30.4003 24.8536 28.4873 26.8424 28.4873 29.2669C28.4873 31.9565 30.8455 32.9225 32.3229 33.4623C33.4593 33.8696 34.3969 34.1632 34.3969 34.8356C34.3969 35.3564 33.8192 35.8205 32.5786 35.8205C31.1106 35.8205 29.5954 35.167 28.5915 34.3526V38.1029C29.6143 38.7848 31.2622 39.3056 33.0616 39.3056C36.5467 39.3056 38.5355 37.3547 38.5355 34.7219C38.5355 31.7766 36.0164 30.8958 34.1601 30.2518C33.0616 29.8635 32.4554 29.6362 32.4554 29.1533C32.4554 28.6703 33.0142 28.3388 34.1033 28.3388C35.3061 28.3388 36.7929 28.765 37.6642 29.3805V25.8196C36.6604 25.2419 35.3061 24.8536 33.8097 24.8536ZM39.4826 39.0121H43.5265V25.1567H39.4826V39.0121ZM49.2372 35.3564H50.0138C52.1068 35.3564 53.461 34.1726 53.461 32.0891C53.461 30.0056 52.1068 28.8028 50.0138 28.8028H49.2372V35.3564ZM57.5523 32.0891C57.5523 36.2656 54.3986 39.0121 49.8717 39.0121H45.1933V25.1567H49.8717C54.3986 25.1567 57.5523 27.9221 57.5523 32.0891ZM58.6414 39.0121H68.2161V35.4133H62.6853V33.6896H67.6573V30.4223H62.6853V28.7555H68.2161V25.1567H58.6414V39.0121ZM74.5803 31.7008C75.6031 31.7008 76.3986 31.2178 76.3986 30.2518C76.3986 29.2858 75.6031 28.8028 74.5613 28.8028H73.709V31.7008H74.5803ZM81.2002 39.0121H76.4365L73.8037 34.7314H73.709V39.0121H69.6651V25.1567H74.5992C78.0654 25.1567 80.4804 26.7004 80.4804 29.9772C80.4804 31.2746 79.9027 33.1687 77.6014 34.1347L81.2002 39.0121Z" fill="black"/>
</g>
<defs>
<clipPath id="clip0_9505_27568">
<rect width="88" height="48" fill="white"/>
</clipPath>
</defs>
</svg>
