<svg width="120" height="48" viewBox="0 0 120 48" fill="none" xmlns="http://www.w3.org/2000/svg">
<path d="M10.8539 24.7631C10.8539 20.2803 14.0953 17.0811 18.5987 17.0811C22.1558 17.0811 24.8493 19.0382 25.5651 22.1952L22.5342 22.9526C22.008 21.0166 20.5771 19.9007 18.5987 19.9007C15.9047 19.9007 14.0736 21.879 14.0736 24.7626C14.0736 27.6461 15.9047 29.6244 18.5987 29.6244C20.6615 29.6244 22.1769 28.4247 22.5765 26.2991L25.6284 27.0148C25.0183 30.4035 22.2608 32.4446 18.5987 32.4446C14.0953 32.4452 10.8539 29.246 10.8539 24.7631Z" fill="black"/>
<path d="M27.0519 16.7654H30.1667V22.0269H30.2089C31.1347 21.1427 32.3978 20.6587 33.871 20.6587C37.0702 20.6587 39.2169 22.742 39.2169 25.7517V32.129H36.1022V26.1735C36.1022 24.4686 35.008 23.4372 33.1981 23.4372C31.3881 23.4372 30.1672 24.5525 30.1672 26.1735V32.1296H27.0525V16.7654H27.0519Z" fill="black"/>
<path d="M40.7283 29.1199C40.7283 27.0571 42.0753 25.9629 45.6319 25.4789C47.7152 25.1844 48.2837 24.8899 48.2837 24.3425C48.2837 23.6056 47.5051 23.1638 46.3054 23.1638C44.8744 23.1638 43.8008 23.9424 43.5274 25.1633L40.5811 24.5531C41.0228 22.238 43.3174 20.6599 46.2215 20.6599C49.4834 20.6599 51.504 22.3225 51.504 25.0377V32.1302H48.7049V30.9093H48.6627C47.9892 31.8562 46.5582 32.4458 44.8955 32.4458C42.4121 32.4452 40.7283 31.0982 40.7283 29.1199ZM48.5365 27.9835V26.6576H48.4943C48.2209 27.0577 47.6313 27.2888 46.1159 27.5628C44.2848 27.8996 43.6324 28.2575 43.6324 28.9099C43.6324 29.5834 44.1798 29.8779 45.3584 29.8779C47.169 29.8773 48.5365 29.0565 48.5365 27.9835Z" fill="black"/>
<path d="M53.1878 20.9749H56.113V22.048H56.1552C56.976 21.2061 58.0913 20.7643 59.4383 20.7643C60.0485 20.7643 60.6381 20.8693 61.2694 21.0588L60.617 23.8579C60.0068 23.6895 59.6067 23.6262 58.9966 23.6262C57.3339 23.6262 56.3025 24.7203 56.3025 27.0354V32.1284H53.1878V20.9749Z" fill="black"/>
<path d="M67.2951 23.6268V28.3414C67.2951 29.036 67.5268 29.2466 68.4315 29.2466H70.4732V32.1302H68.1159C65.2745 32.1302 64.1804 30.9938 64.1804 28.5314V23.6279H61.8613V20.9749H64.1804V18.1758H67.2951V20.9749H70.8938V23.6268H67.2951Z" fill="black"/>
<path d="M72.3402 17.3967H75.5605V23.1633H82.2951V17.3967H85.5154V32.129H82.2951V26.0891H75.5605V32.1296H72.3402V17.3967Z" fill="black"/>
<path d="M86.7277 26.552C86.7277 23.2267 89.3584 20.6593 93.0205 20.6593C96.7038 20.6593 99.3133 23.2272 99.3133 26.552C99.3133 29.8768 96.7038 32.4447 93.0205 32.4447C89.3584 32.4453 86.7277 29.8773 86.7277 26.552ZM96.1986 26.552C96.1986 24.7421 94.9566 23.395 93.0205 23.395C91.0845 23.395 89.8425 24.7421 89.8425 26.552C89.8425 28.3619 91.0845 29.709 93.0205 29.709C94.9572 29.709 96.1986 28.3619 96.1986 26.552Z" fill="black"/>
<path d="M100.409 20.9749H103.397V21.9641H103.44C104.303 21.08 105.607 20.6593 107.038 20.6593C110.342 20.6593 112.826 23.2061 112.826 26.552C112.826 29.9196 110.364 32.4447 107.059 32.4447C105.67 32.4447 104.281 31.9607 103.566 31.266H103.523V36.8642H100.409V20.9749ZM109.711 26.552C109.711 24.6787 108.428 23.4162 106.554 23.4162C104.913 23.4162 103.523 24.5314 103.523 25.8362V27.2461C103.523 28.5931 104.849 29.7084 106.575 29.7084C108.406 29.709 109.711 28.4253 109.711 26.552Z" fill="black"/>
<path d="M19.6625 6.36678C19.7963 5.92148 19.6488 5.48356 19.333 5.38867C19.0172 5.29377 18.6527 5.57783 18.5189 6.02312C18.3851 6.46842 18.5326 6.90634 18.8484 7.00123C19.1642 7.09613 19.5287 6.81207 19.6625 6.36678Z" fill="black"/>
<path d="M26.8824 13.9064C26.6929 14.8339 25.4503 15.6461 23.4412 15.1102C23.0691 15.0109 22.4806 14.8413 21.4498 14.548C20.5314 14.2871 19.5257 14.2066 18.4909 14.2066C16.0474 14.2066 13.7637 14.7871 12.1747 15.9681C10.9475 16.8802 10.468 17.5668 10.1712 17.4036C10.0228 17.3219 10.036 17.0685 10.2471 16.8082C14.8744 11.0976 21.7038 13.2911 23.6855 13.8305C24.2186 13.9755 24.6027 13.9538 24.7648 13.7261C25.0302 13.3522 24.6804 12.9481 24.1558 12.5902C23.5029 12.1433 22.5788 11.7694 22.2295 11.6193C18.984 10.2215 16.5605 10.1758 16.5605 10.1758C16.5605 10.1758 19.0691 9.80653 20.8739 8.91327C21.4007 8.65242 21.6781 8.43553 21.7506 8.38473C22.1547 8.09991 22.6261 7.67754 22.7157 7.24774C22.7392 7.09934 22.7243 6.9869 22.6221 6.79055C22.4772 6.52114 22.3094 6.27286 22.1176 6.04397C19.4675 2.98747 12.1387 3.42354 8.34988 3.75973C7.83276 3.80539 7.10959 3.80996 6.69121 4.10391C6.52854 4.21806 6.50342 4.4692 6.5605 4.5611C6.94749 5.18724 12.0348 5.97833 14.5554 6.44238C15.1644 5.85162 16.3276 5.23062 16.3761 5.2055C16.3567 5.23461 15.8299 6.14101 15.581 7.09763C15.5651 7.15927 15.5468 7.22263 15.5086 7.3305C15.4287 7.55653 15.2928 7.73975 15.0171 7.80025C14.617 7.88701 14.3402 7.94808 14.3231 7.95779C13.5793 8.16155 12.8442 8.41384 12.149 8.75288C10.3727 9.61875 9.55822 10.3122 8.94977 10.7489C8.84475 10.8248 8.61301 10.79 8.47774 10.7095C8.38927 10.657 8.07249 10.4669 7.65011 10.4133C7.1895 10.355 6.61986 10.4749 6.05308 11.0874C5.59246 11.5845 5.14041 12.7786 5.82135 13.7729C6.15011 14.2523 6.38527 14.2358 6.20605 14.6336C6.02682 15.0308 5.53482 16.2985 5.38527 17.9407C5.14155 20.6205 5.61358 21.6421 5.1153 21.6421C5.03424 21.6564 4.9629 21.6079 4.93493 21.5343C4.93093 21.5229 4.92808 21.5132 4.92637 21.5017V21.5012C4.39954 19.0657 4.45947 16.7232 5.15068 14.6022C5.16895 14.5457 5.16096 14.4852 5.12671 14.4372C5.00571 14.266 4.71575 13.8094 4.53367 13.2512C4.25742 12.4036 4.30194 10.9829 5.07077 10.1016C6.41039 8.56681 8.09475 9.23176 8.5194 9.4321C8.58504 9.46292 8.66096 9.45208 8.71689 9.40528C9.53767 8.71464 10.484 8.08907 11.5616 7.5377C11.6136 7.51258 11.6615 7.48576 11.7135 7.46121C11.1438 7.35961 8.83333 6.90471 7.87557 6.71121C7.43493 6.62217 6.54338 6.47833 6.11986 6.29226C4.50514 5.58621 4.21632 3.71121 5.67351 2.66498C6.41552 2.1313 7.32077 2.05139 8.19064 1.97548C9.65411 1.83678 11.1273 1.72548 12.6119 1.71863C15.6261 1.7055 18.8219 1.85391 21.5634 3.31167C22.641 3.89158 23.6381 4.84192 24.2003 5.96407C25.1193 7.72719 23.7694 9.19352 22.3236 10.0577C22.3236 10.0577 22.3242 10.0582 22.3271 10.0594C22.4715 10.1125 27.2831 11.9532 26.8824 13.9064Z" fill="black"/>
</svg>
