<svg width="120" height="48" viewBox="0 0 120 48" fill="none" xmlns="http://www.w3.org/2000/svg">
<g clip-path="url(#clip0_8087_15158)">
<path d="M48.5505 19.1412C47.3238 17.9744 45.5575 17.3155 43.2812 17.4969C42.0786 17.5931 40.919 18.2326 40.4528 18.7522V11L35.7565 11.8416V34.4696H40.457V26.0983C40.3658 22.7602 41.5831 21.9564 43.4142 21.9564C45.2066 21.9564 46.1966 23.202 46.1966 25.8736V34.4544H50.7011V25.0709C50.7021 22.3173 49.9228 20.4462 48.5505 19.1412ZM28.059 30.2757C29.3402 30.2152 30.5815 29.7979 31.6511 29.068L32.4483 28.5279L34.5079 32.1685L33.8133 32.6611C31.9217 34.0016 29.6796 34.7174 27.3844 34.7137C25.601 34.7124 23.8427 34.2793 22.2512 33.4494C20.6597 32.6195 19.2794 31.4158 18.2214 29.9352C17.1633 28.4547 16.4571 26.7386 16.1596 24.9252C15.8621 23.1118 15.9816 21.2518 16.5085 19.4947C17.0353 17.7376 17.9549 16.1326 19.1931 14.809C20.4312 13.4853 21.9535 12.4799 23.6372 11.8737C25.321 11.2674 27.1192 11.0774 28.8873 11.3187C30.6553 11.5601 32.3436 12.2261 33.8165 13.2632L34.5079 13.7537L32.4483 17.4008L31.6511 16.8606C30.5815 16.1308 29.3402 15.7134 28.059 15.6529C26.7778 15.5925 25.5047 15.8911 24.375 16.5172C23.2452 17.1433 22.3011 18.0734 21.643 19.2086C20.9848 20.3438 20.6373 21.6417 20.6373 22.9643C20.6373 24.2869 20.9848 25.5848 21.643 26.72C22.3011 27.8552 23.2452 28.7853 24.375 29.4114C25.5047 30.0375 26.7778 30.3362 28.059 30.2757ZM97.4664 18.6972L97.4414 18.816L97.3514 18.7382C96.3036 17.8438 94.9368 17.4095 93.1736 17.4095C88.7591 17.4095 85.1682 21.2272 85.1682 25.9201C85.1682 30.6129 88.7591 34.4307 93.1736 34.4307C94.2709 34.4349 95.3559 34.1966 96.3564 33.7318L96.5059 33.6626L96.4536 33.8225C95.8955 35.5186 94.3982 36.6129 92.5432 36.6745H92.3168C91.2523 36.7025 90.2173 36.3117 89.4223 35.5812L89.2127 35.3954L86.6527 38.3922L86.8368 38.5801C88.4659 40.2427 90.9341 40.9989 92.5377 40.9989C97.5586 40.9989 101.203 37.2514 101.203 32.0875V17.4527H97.7223L97.4664 18.6972ZM93.5391 29.9863C91.4932 29.9863 89.83 28.1606 89.83 25.9168C89.83 23.673 91.4932 21.8473 93.5391 21.8473C95.585 21.8473 97.2495 23.673 97.2495 25.9168C97.2495 28.1606 95.5864 29.9863 93.5391 29.9863ZM80.5536 18.6972L80.5273 18.8214L80.4323 18.7404C79.3846 17.847 78.0227 17.4127 76.2577 17.4127C71.8441 17.4127 68.2541 21.2294 68.2541 25.9201C68.2541 30.6108 71.8441 34.4275 76.2577 34.4275C77.3536 34.4315 78.4382 34.1936 79.4377 33.7296L79.595 33.6561L79.5405 33.8236C78.9855 35.524 77.4886 36.6194 75.6341 36.6821H75.4091C74.3432 36.7107 73.3073 36.3193 72.5114 35.5877L72.3073 35.4041L69.7509 38.3965L69.9332 38.5823C71.5614 40.2438 74.0282 41 75.6323 41C80.6509 41 84.2936 37.2536 84.2936 32.0919V17.4559H80.8105L80.5536 18.6972ZM76.6282 29.9896C74.5805 29.9896 72.9145 28.1628 72.9145 25.9168C72.9145 23.6709 74.5805 21.8441 76.6282 21.8441C78.6764 21.8441 80.3418 23.6709 80.3418 25.9168C80.3418 28.1628 78.6764 29.9896 76.6282 29.9896ZM51.5968 26.0832C51.5968 21.1894 55.0632 17.3565 59.4881 17.3565C63.8955 17.3565 67.3459 21.1894 67.3459 26.0821C67.3441 26.7057 67.3032 27.3284 67.2245 27.9467H56.3192L56.3664 28.1109C56.5873 28.8592 57.0559 29.5039 57.6905 29.9323C58.3101 30.3585 59.0293 30.6055 59.773 30.6475C61.4564 30.7425 62.7264 30.2499 63.7536 29.0951L66.5414 31.0774C66.1673 31.677 63.9855 34.8099 59.7773 34.8099C55.2633 34.8099 51.5968 30.8948 51.5968 26.0832ZM55.918 24.6529L55.9044 24.7933H63.3841L63.3768 24.6583C63.2509 22.2935 61.335 21.0177 59.5971 21.0177C58.697 21.027 57.833 21.3835 57.1751 22.0169C56.4539 22.7046 56.006 23.644 55.918 24.6529Z" fill="black"/>
</g>
<defs>
<clipPath id="clip0_8087_15158">
<rect width="85" height="30" fill="white" transform="translate(16 11)"/>
</clipPath>
</defs>
</svg>
