<svg width="120" height="48" viewBox="0 0 120 48" fill="none" xmlns="http://www.w3.org/2000/svg">
<path d="M35.1992 43.5874C35.0338 43.5874 34.8995 43.4531 34.8995 43.2858L34.9069 38.9135C34.9032 38.6928 34.8848 38.4759 34.8536 38.2626C34.8223 38.0493 34.7561 37.8581 34.6568 37.6889C34.5575 37.5216 34.4178 37.3874 34.2395 37.2899C34.0593 37.1925 33.8202 37.1428 33.5187 37.1428C33.2172 37.1428 32.9818 37.198 32.774 37.3083C32.5681 37.4186 32.4026 37.5639 32.2776 37.7422C32.1526 37.9224 32.0606 38.1247 32.0018 38.3508C31.943 38.577 31.9117 38.805 31.9062 39.0367L31.9117 43.2877C31.9117 43.4531 31.7775 43.5874 31.612 43.5874H29.8138C29.6483 43.5874 29.5141 43.4531 29.5141 43.2877L29.5086 39.0348C29.503 38.4097 29.367 37.9353 29.1004 37.6098C28.8356 37.2862 28.4697 37.1226 28.0064 37.1226C27.486 37.1226 27.0815 37.2826 26.7965 37.6007C26.5115 37.9187 26.3663 38.3968 26.3626 39.0348L26.3681 43.2858C26.3681 43.4513 26.2339 43.5855 26.0684 43.5855H24.2187C24.0532 43.5855 23.919 43.4513 23.919 43.2858V35.2692C23.919 35.1037 24.0514 34.9695 24.2187 34.9695H25.9213C26.0574 34.9695 26.1751 35.0596 26.2118 35.192L26.4012 35.8907C26.6439 35.4972 26.9546 35.2196 27.3316 35.0559C27.7085 34.8941 28.1001 34.8132 28.5046 34.8132C29.1059 34.8132 29.6115 34.9346 30.0197 35.1773C30.4279 35.42 30.7221 35.7969 30.9059 36.3062C31.2461 35.808 31.6451 35.4402 32.1011 35.203C32.5571 34.9658 33.1087 34.8463 33.7577 34.8463C34.4417 34.8463 35.0099 34.9364 35.464 35.1148C35.9182 35.295 36.2804 35.5542 36.5488 35.8962C36.8173 36.2382 37.0066 36.6556 37.117 37.1465C37.2273 37.6393 37.2806 38.2037 37.2769 38.8399L37.2806 43.2821C37.2806 43.4476 37.1464 43.5818 36.9809 43.5818H35.2011L35.1992 43.5874Z" fill="black"/>
<path d="M116.805 43.5874C116.639 43.5874 116.505 43.4531 116.505 43.2858L116.513 38.9135C116.509 38.6928 116.49 38.4759 116.459 38.2626C116.428 38.0493 116.362 37.8581 116.262 37.6889C116.163 37.5216 116.023 37.3874 115.845 37.2899C115.665 37.1925 115.426 37.1428 115.124 37.1428C114.823 37.1428 114.587 37.198 114.38 37.3083C114.174 37.4186 114.008 37.5639 113.883 37.7422C113.758 37.9224 113.666 38.1247 113.607 38.3508C113.549 38.577 113.517 38.805 113.512 39.0367L113.517 43.2877C113.517 43.4531 113.383 43.5874 113.218 43.5874H111.419C111.254 43.5874 111.12 43.4531 111.12 43.2877L111.114 39.0348C111.109 38.4097 110.973 37.9353 110.706 37.6098C110.441 37.2862 110.075 37.1226 109.612 37.1226C109.092 37.1226 108.687 37.2826 108.402 37.6007C108.117 37.9187 107.972 38.3968 107.968 39.0348L107.974 43.2858C107.974 43.4513 107.84 43.5855 107.674 43.5855H105.824C105.659 43.5855 105.525 43.4513 105.525 43.2858V35.2692C105.525 35.1037 105.657 34.9695 105.824 34.9695H107.527C107.663 34.9695 107.781 35.0596 107.817 35.192L108.007 35.8907C108.25 35.4972 108.56 35.2196 108.937 35.0559C109.314 34.8941 109.706 34.8132 110.11 34.8132C110.712 34.8132 111.217 34.9346 111.625 35.1773C112.034 35.42 112.328 35.7969 112.512 36.3062C112.852 35.808 113.251 35.4402 113.707 35.203C114.163 34.9658 114.714 34.8463 115.363 34.8463C116.047 34.8463 116.615 34.9364 117.07 35.1148C117.524 35.295 117.886 35.5542 118.154 35.8962C118.423 36.2382 118.612 36.6556 118.723 37.1465C118.833 37.6393 118.886 38.2037 118.883 38.8399L118.886 43.2821C118.886 43.4476 118.752 43.5818 118.587 43.5818H116.807L116.805 43.5874Z" fill="black"/>
<path d="M41.3496 35.2159L41.4746 36.2382C41.8405 35.8208 42.2634 35.4862 42.7396 35.2306C43.2158 34.9769 43.7895 34.8481 44.4624 34.8481C45.5748 34.8481 46.4868 35.1589 47.1984 35.7785C47.91 36.3981 48.3641 37.2697 48.5627 38.3931C48.7079 39.215 48.7153 39.9633 48.5847 40.6344C48.4542 41.3055 48.1986 41.8792 47.8199 42.3536C47.4411 42.828 46.9391 43.1939 46.3195 43.4476C45.698 43.7032 44.9644 43.83 44.1205 43.83C43.6792 43.83 43.2232 43.7491 42.7488 43.5873C42.2744 43.4255 41.8295 43.124 41.4176 42.6846L41.4139 47.1966C41.4139 47.3621 41.2797 47.4963 41.1142 47.4963H39.3859C39.2204 47.4963 39.0862 47.3621 39.0862 47.1966V35.2527C39.0862 35.0872 39.2222 34.9529 39.3877 34.9529H41.0572C41.208 34.9529 41.3367 35.0669 41.3551 35.2159H41.3496ZM43.8888 41.6586C44.2823 41.6586 44.6298 41.5924 44.9313 41.4582C45.2328 41.3258 45.4774 41.1401 45.6668 40.9029C45.8562 40.6657 45.9885 40.3789 46.0621 40.0424C46.1356 39.7059 46.1375 39.3363 46.0658 38.93C45.9683 38.3747 45.7385 37.9463 45.3781 37.6448C45.0177 37.3432 44.5489 37.1924 43.9697 37.1924C43.5523 37.1924 43.1956 37.2715 42.8996 37.4278C42.6036 37.5841 42.3627 37.7863 42.1807 38.0364C41.9986 38.2865 41.8773 38.5641 41.8148 38.8712C41.7523 39.1782 41.7486 39.4816 41.8019 39.7831C41.8423 40.0148 41.9177 40.2428 42.0262 40.469C42.1347 40.6951 42.2744 40.8955 42.4454 41.0684C42.6164 41.2412 42.8187 41.3846 43.0595 41.4949C43.2986 41.6053 43.5744 41.6604 43.8888 41.6604V41.6586Z" fill="black"/>
<path d="M57.2835 43.3298L57.1823 42.6146C56.8955 42.8922 56.6308 43.1128 56.3862 43.2746C56.1417 43.4364 55.8971 43.5578 55.6507 43.6387C55.4044 43.7196 55.1488 43.7692 54.8859 43.7858C54.6229 43.8023 54.3343 43.8115 54.0217 43.8115C53.4995 43.8115 53.0123 43.7251 52.5599 43.5504C52.1058 43.3776 51.7031 43.1275 51.3501 42.8039C50.9971 42.4803 50.7029 42.0887 50.4657 41.6309C50.2285 41.173 50.0612 40.6674 49.9637 40.1103C49.8405 39.4153 49.8442 38.7552 49.9711 38.13C50.098 37.5049 50.3425 36.9478 50.7029 36.4624C51.0633 35.9751 51.5284 35.5798 52.1003 35.2728C52.6721 34.9657 53.3414 34.7947 54.1118 34.7598C54.7149 34.7598 55.2701 34.8241 55.7794 34.951C56.2888 35.0779 56.7521 35.3794 57.1732 35.8538L57.2614 35.0999C57.2706 35.0245 57.335 34.9675 57.4103 34.9675H59.146C59.3115 34.9675 59.4457 35.1018 59.4457 35.2672L59.4494 43.2838C59.4494 43.4493 59.3152 43.5835 59.1497 43.5835H57.5795C57.4306 43.5835 57.3037 43.4732 57.2816 43.3243L57.2835 43.3298ZM54.7553 37.0195C54.349 37.0195 53.9867 37.0949 53.665 37.2456C53.3432 37.3964 53.0748 37.5968 52.8578 37.8451C52.6408 38.0951 52.4901 38.3875 52.4037 38.7221C52.3172 39.0586 52.308 39.4116 52.3742 39.7812C52.4717 40.3364 52.7125 40.7943 53.0932 41.1547C53.4756 41.5132 53.9794 41.6934 54.6045 41.6934C54.987 41.6934 55.3326 41.6364 55.6434 41.5205C55.9523 41.4047 56.217 41.2429 56.4359 41.0333C56.6547 40.8255 56.8256 40.5792 56.9488 40.2942C57.072 40.011 57.1345 39.7058 57.1364 39.3822C57.1437 38.6982 56.9396 38.1337 56.5241 37.6888C56.1086 37.2438 55.5202 37.0195 54.7553 37.0195Z" fill="black"/>
<path d="M101.553 43.3298L101.452 42.6146C101.165 42.8922 100.9 43.1128 100.656 43.2746C100.411 43.4364 100.167 43.5578 99.9204 43.6387C99.674 43.7196 99.4184 43.7692 99.1555 43.7858C98.8925 43.8023 98.6039 43.8115 98.2913 43.8115C97.7691 43.8115 97.2819 43.7251 96.8296 43.5504C96.3754 43.3776 95.9727 43.1275 95.6197 42.8039C95.2667 42.4803 94.9725 42.0887 94.7353 41.6309C94.4981 41.173 94.3308 40.6674 94.2334 40.1103C94.1102 39.4153 94.1138 38.7552 94.2407 38.13C94.3676 37.5049 94.6121 36.9478 94.9725 36.4624C95.3329 35.9751 95.7981 35.5798 96.3699 35.2728C96.9417 34.9657 97.611 34.7947 98.3814 34.7598C98.9845 34.7598 99.5398 34.8241 100.049 34.951C100.558 35.0779 101.022 35.3794 101.443 35.8538L101.531 35.0999C101.54 35.0245 101.605 34.9675 101.68 34.9675H103.416C103.581 34.9675 103.715 35.1018 103.715 35.2672L103.719 43.2838C103.719 43.4493 103.585 43.5835 103.419 43.5835H101.849C101.7 43.5835 101.573 43.4732 101.551 43.3243L101.553 43.3298ZM99.0249 37.0195C98.6186 37.0195 98.2564 37.0949 97.9346 37.2456C97.6128 37.3964 97.3444 37.5968 97.1274 37.8451C96.9105 38.0951 96.7597 38.3875 96.6733 38.7221C96.5869 39.0586 96.5777 39.4116 96.6438 39.7812C96.7413 40.3364 96.9822 40.7943 97.3628 41.1547C97.7452 41.5132 98.249 41.6934 98.8742 41.6934C99.2566 41.6934 99.6023 41.6364 99.913 41.5205C100.222 41.4047 100.487 41.2429 100.705 41.0333C100.924 40.8255 101.095 40.5792 101.218 40.2942C101.342 40.011 101.404 39.7058 101.406 39.3822C101.413 38.6982 101.209 38.1337 100.794 37.6888C100.378 37.2438 99.7898 37.0195 99.0249 37.0195Z" fill="black"/>
<path d="M67.5708 43.5873C67.4053 43.5873 67.2711 43.4531 67.2711 43.2876V39.0532C67.2619 38.8215 67.2454 38.5898 67.216 38.3582C67.1865 38.1265 67.1148 37.9187 67.0008 37.733C66.8868 37.5473 66.7177 37.3965 66.4952 37.2807C66.2727 37.1649 65.9693 37.106 65.5869 37.106C64.9948 37.095 64.5186 37.277 64.1638 37.654C63.8071 38.0309 63.6287 38.5494 63.6306 39.2095L63.6232 43.2876C63.6232 43.4531 63.489 43.5873 63.3235 43.5873H61.5602C61.3947 43.5873 61.2605 43.4531 61.2605 43.2876L61.2532 35.2527C61.2532 35.0872 61.3874 34.9529 61.5529 34.9529H63.1543C63.2978 34.9529 63.4209 35.0541 63.4485 35.1957L63.5754 35.8392C63.9781 35.4347 64.401 35.1681 64.8422 35.0394C65.2835 34.9125 65.6715 34.8481 66.008 34.8481C66.5982 34.8481 67.1222 34.9235 67.5763 35.0743C68.0305 35.2251 68.4148 35.4659 68.7292 35.7951C69.0418 36.126 69.2808 36.5563 69.4444 37.0895C69.6081 37.6227 69.6871 38.2717 69.6834 39.0348L69.689 43.2858C69.689 43.4513 69.5547 43.5855 69.3893 43.5855H67.5745L67.5708 43.5873Z" fill="black"/>
<path d="M79.8164 34.9529C79.9818 34.9529 80.1161 35.0871 80.1161 35.2526L80.1216 43.5523C80.1179 44.3871 80.0076 45.0876 79.7888 45.6539C79.57 46.2221 79.2666 46.6799 78.875 47.0274C78.4852 47.3749 78.0273 47.6231 77.5033 47.7739C76.9793 47.9247 76.4111 48.0001 75.797 48.0001C75.1829 48.0001 74.6552 47.9339 74.1459 47.7997C73.6366 47.6654 73.1916 47.4577 72.811 47.1745C72.4304 46.8914 72.1252 46.5199 71.8935 46.0621C71.7023 45.6833 71.5828 45.2402 71.535 44.7328C71.5184 44.5562 71.6563 44.4036 71.8347 44.4036H73.6292C73.7763 44.4036 73.8977 44.5103 73.9253 44.6537C73.9933 45.003 74.1625 45.266 74.4346 45.4462C74.7692 45.6668 75.1958 45.7771 75.718 45.7771C76.3082 45.7771 76.8083 45.5914 77.2183 45.2218C77.6283 44.8504 77.8324 44.3062 77.8343 43.5891L77.8398 42.633C77.5051 43.0393 77.1411 43.3133 76.7421 43.4586C76.3449 43.6038 75.8559 43.6755 75.2767 43.6755C74.7674 43.6755 74.282 43.6057 73.8241 43.4678C73.3645 43.328 72.9655 43.0945 72.6235 42.7635C72.2815 42.4326 72.0094 41.9895 71.8071 41.4342C71.6049 40.8789 71.5001 40.1894 71.4945 39.3675L71.4872 35.2544C71.4872 35.0889 71.6214 34.9529 71.7869 34.9529H73.5778C73.7432 34.9529 73.8775 35.0871 73.8775 35.2526L73.8738 39.3657C73.8738 39.6323 73.8922 39.8934 73.9253 40.1471C73.9584 40.4027 74.0411 40.627 74.1753 40.8256C74.3077 41.0223 74.5081 41.1841 74.7729 41.3128C75.0395 41.4397 75.4035 41.5041 75.8669 41.5041C76.4994 41.4802 76.9627 41.2614 77.2532 40.844C77.5438 40.4266 77.6927 39.9063 77.6982 39.2811L77.7056 35.2544C77.7056 35.0889 77.8398 34.9547 78.0053 34.9547H79.8145L79.8164 34.9529Z" fill="black"/>
<path d="M1 37.4701C1 33.9858 3.68813 31.1653 7.47579 31.1653C9.0405 31.1653 10.4581 31.6544 11.5319 32.513C11.6661 32.6197 11.679 32.8201 11.5631 32.947L10.3368 34.2892C10.232 34.4032 10.0573 34.4197 9.93409 34.326C9.1692 33.7449 8.38961 33.5703 7.6284 33.5703C5.39442 33.5703 3.76536 35.3115 3.76536 37.4701C3.76536 39.6287 5.3558 41.4269 7.53279 41.4269C8.56428 41.4269 9.51671 41.0684 10.2503 40.3789C10.3735 40.263 10.5684 40.2704 10.6806 40.3972L11.9199 41.7928C12.0302 41.916 12.0191 42.1054 11.8959 42.2157C10.7468 43.2306 9.23723 43.8319 7.47579 43.8319C3.68997 43.8319 1 41.0114 1 37.4701Z" fill="black"/>
<path d="M82.0669 37.4703C82.0669 33.986 84.755 31.1655 88.5427 31.1655C90.1074 31.1655 91.525 31.6546 92.5988 32.5133C92.733 32.6199 92.7459 32.8203 92.63 32.9472L91.4036 34.2894C91.2988 34.4034 91.1241 34.42 91.001 34.3262C90.2361 33.7452 89.4565 33.5705 88.6953 33.5705C86.4613 33.5705 84.8322 35.3117 84.8322 37.4703C84.8322 39.6289 86.4227 41.4271 88.5997 41.4271C89.6311 41.4271 90.5836 41.0686 91.3172 40.3791C91.4404 40.2633 91.6353 40.2706 91.7475 40.3975L92.9867 41.793C93.097 41.9162 93.086 42.1056 92.9628 42.2159C91.8136 43.2309 90.3041 43.8321 88.5427 43.8321C84.7568 43.8321 82.0669 41.0116 82.0669 37.4703Z" fill="black"/>
<path d="M13.0764 39.2776C13.0764 36.7494 15.1338 34.7434 17.7319 34.7434C20.3299 34.7434 22.4058 36.7494 22.4058 39.2776C22.4058 41.8057 20.3483 43.8117 17.7319 43.8117C15.1155 43.8117 13.0764 41.8057 13.0764 39.2776ZM20.0173 39.2776C20.0173 37.9169 19.041 36.9057 17.7337 36.9057C16.4264 36.9057 15.4501 37.9169 15.4501 39.2776C15.4501 40.6382 16.4264 41.6494 17.7337 41.6494C19.041 41.6494 20.0173 40.6547 20.0173 39.2776Z" fill="black"/>
<path d="M64.5002 13.0231H67.4697V19.0282C67.4697 19.3444 67.2123 19.6018 66.896 19.6018H61.5198L63.7354 16.3694C64.4267 15.3619 64.6749 14.1649 64.4984 13.0249L64.5002 13.0231Z" fill="black"/>
<path fill-rule="evenodd" clip-rule="evenodd" d="M57.0849 11.2193C57.7983 10.4214 58.8224 9.96352 59.8925 9.96352C60.9626 9.96352 61.9868 10.4214 62.7002 11.2193C63.8622 12.5174 63.9854 14.426 62.9999 15.8638L59.8907 20.3998L56.7815 15.8638C55.7978 14.4278 55.921 12.5174 57.0812 11.2193H57.0849ZM59.8631 16.1561C60.5159 16.1561 61.1667 15.9079 61.6632 15.4115C61.8379 15.2368 61.8379 14.9555 61.6632 14.7808C61.4885 14.6061 61.2072 14.6061 61.0325 14.7808C60.3872 15.4262 59.3373 15.4262 58.6919 14.7808C58.0465 14.1354 58.0465 13.0856 58.6919 12.4402C59.3373 11.7948 60.3872 11.7948 61.0325 12.4402C61.2072 12.6149 61.4885 12.6149 61.6632 12.4402C61.8379 12.2655 61.8379 11.9842 61.6632 11.8095C60.6703 10.8166 59.0541 10.8166 58.0631 11.8095C57.0702 12.8024 57.0702 14.4186 58.0631 15.4096C58.5595 15.9061 59.2122 16.1543 59.8631 16.1543V16.1561Z" fill="black"/>
<path fill-rule="evenodd" clip-rule="evenodd" d="M53.6484 1H66.0649C69.5856 1 72.4396 3.85403 72.4396 7.37466V19.7912C72.4396 23.3118 69.5856 26.1659 66.0649 26.1659H53.6484C50.1278 26.1659 47.2738 23.3118 47.2738 19.7912V7.37466C47.2738 3.85403 50.1278 1 53.6484 1ZM67.9165 11.1384C68.1629 11.1384 68.3614 10.938 68.3614 10.6935V9.29425C68.3614 8.48707 67.7051 7.82883 66.896 7.82883H64.1564C63.9321 7.82883 63.7262 7.69645 63.6342 7.49235L63.1562 6.43328C62.919 5.90926 62.395 5.57094 61.8213 5.57094H57.9436C57.3791 5.57094 56.8587 5.90007 56.6197 6.41122L56.1067 7.49971C56.013 7.70012 55.8089 7.82883 55.5882 7.82883H52.8891C52.0819 7.82883 51.4236 8.48523 51.4236 9.29425V12.5781C51.4236 12.8245 51.6241 13.0231 51.8686 13.0231H55.2848C55.1083 14.163 55.3566 15.36 56.0479 16.3676L58.2635 19.6H52.8909C52.5746 19.6 52.3172 19.3426 52.3172 19.0263V14.7054C52.3172 14.4591 52.1168 14.2605 51.8723 14.2605C51.6277 14.2605 51.4273 14.4609 51.4273 14.7054V19.0263C51.4273 19.8335 52.0837 20.4917 52.8927 20.4917H58.8758L59.5248 21.4387C59.6075 21.56 59.7455 21.6317 59.8925 21.6317C60.0396 21.6317 60.1775 21.56 60.2603 21.4387L60.9093 20.4917H66.896C67.7032 20.4917 68.3614 19.8353 68.3614 19.0263V12.5763C68.3614 12.3299 68.161 12.1313 67.9165 12.1313H64.2686C64.07 11.5889 63.7703 11.0778 63.3658 10.6254C62.4832 9.63992 61.2164 9.07361 59.8925 9.07361C58.5687 9.07361 57.3037 9.63992 56.4193 10.6254C56.0148 11.0778 55.7169 11.5889 55.5165 12.1313H52.3136V9.29241C52.3136 8.97616 52.571 8.71874 52.8872 8.71874H55.5864C56.1509 8.71874 56.6712 8.38962 56.9102 7.87847L57.4232 6.78998C57.517 6.58957 57.7211 6.46086 57.9417 6.46086H61.8195C62.0438 6.46086 62.2497 6.59324 62.3417 6.79918L62.8197 7.85825C63.0569 8.38227 63.5809 8.72058 64.1546 8.72058H66.8942C67.2104 8.72058 67.4679 8.978 67.4679 9.29425V10.6935C67.4679 10.9399 67.6683 11.1384 67.9128 11.1384H67.9165Z" fill="black"/>
</svg>
