<svg width="212" height="121" viewBox="0 0 212 121" fill="none" xmlns="http://www.w3.org/2000/svg">
<g clip-path="url(#clip0_10142_27985)">
<path d="M12.5737 54.8554C20.1814 54.8554 24.4608 52.9014 24.4608 49.4277C24.4608 45.954 20.1814 44 12.5737 44C4.96587 44 0.686486 45.954 0.686486 49.4277C0.686486 52.9014 4.96587 54.8554 12.5737 54.8554Z" fill="url(#paint0_linear_10142_27985)"/>
<path d="M12.5737 57.4745C16.5356 57.4745 19.9417 56.9756 22.4581 55.8267C23.3865 55.4027 24.2414 54.861 24.9565 54.1986C25.0845 55.6886 25.1496 57.1372 25.1473 58.5813C23.6366 58.4935 21.5906 59.0773 19.3333 61.3346C18.4739 62.194 17.7628 62.9757 17.1773 63.678C15.8318 63.9011 14.3035 64.0357 12.5739 64.0357C7.25933 64.0357 3.84517 62.7647 1.79583 61.5626C1.03822 61.1182 0.459631 60.6789 0.0352965 60.3078C-0.0442631 58.2852 0.0119552 56.2825 0.190996 54.1987C0.906154 54.8611 1.76082 55.4028 2.68931 55.8267C5.20557 56.9756 8.61177 57.4745 12.5737 57.4745Z" fill="url(#paint1_linear_10142_27985)"/>
<path d="M15.1729 66.5557C14.3526 66.6201 13.4869 66.6549 12.5739 66.6549C6.82031 66.6549 2.94439 65.2728 0.470694 63.8217C0.411712 63.7871 0.353547 63.7525 0.2962 63.7179C0.412382 64.7461 0.56364 65.7931 0.751565 66.8709C0.942193 67.9642 1.37556 69.1721 2.3577 70.0532C3.90686 71.4428 7.04819 73.3333 12.5735 73.3333C13.3133 73.3333 14.0104 73.2994 14.6667 73.2374V68C14.6667 67.7469 14.8013 67.2631 15.1729 66.5557Z" fill="url(#paint2_linear_10142_27985)"/>
<path fill-rule="evenodd" clip-rule="evenodd" d="M26.6488 61.9563C25.5056 61.1239 23.9544 61.1239 22.8112 61.9563C20.3238 63.7676 19.0183 65.3353 17.502 67.813C17.3896 67.9967 17.3314 68.2085 17.3341 68.4239L17.3855 72.5232C17.386 72.5611 17.3883 72.5989 17.3925 72.6366C17.56 74.128 18.7444 75.309 20.2304 75.4814C21.1314 75.5856 22.0671 75.6576 23.0159 75.6967V71.797C23.0159 70.8502 23.7834 70.0827 24.7302 70.0827C25.677 70.0827 26.4445 70.8502 26.4445 71.797V75.6967C27.3931 75.6574 28.3287 75.5856 29.2296 75.4814C30.7156 75.309 31.9 74.128 32.0673 72.6366C32.0717 72.5989 32.074 72.5611 32.0744 72.5232L32.1258 68.4239C32.1286 68.2085 32.0703 67.9967 31.9581 67.813C30.4417 65.3353 29.1362 63.7676 26.6488 61.9563Z" fill="url(#paint3_linear_10142_27985)"/>
</g>
<path d="M37 59H73" stroke="white" stroke-width="2" stroke-linecap="round" stroke-dasharray="4 6"/>
<g filter="url(#filter0_dddd_10142_27985)">
<path d="M45 60C45 54.4772 49.4772 50 55 50V50C60.5228 50 65 54.4772 65 60V60C65 65.5228 60.5228 70 55 70V70C49.4772 70 45 65.5228 45 60V60Z" fill="white"/>
<path fill-rule="evenodd" clip-rule="evenodd" d="M54.1981 56.9627C54.2643 57.6697 53.7449 58.2966 53.038 58.3628C52.0415 58.4562 51.4187 58.6482 51.0641 58.898C50.8084 59.0781 50.6007 59.3438 50.6007 60.0018C50.6007 60.6599 50.8084 60.9254 51.0641 61.1058C51.4187 61.3556 52.0415 61.5476 53.038 61.641C53.7449 61.7072 54.2643 62.3341 54.1981 63.041C54.1318 63.748 53.505 64.2674 52.798 64.2011C51.6797 64.0964 50.5011 63.8548 49.5829 63.2077C48.5657 62.4908 48.0293 61.396 48.0293 60.0018C48.0293 58.6077 48.5657 57.5128 49.5829 56.7961C50.5011 56.149 51.6797 55.9074 52.798 55.8026C53.505 55.7363 54.1318 56.2557 54.1981 56.9627ZM56.9631 58.3628C56.2562 58.2966 55.7367 57.6697 55.8031 56.9627C55.8694 56.2557 56.4962 55.7363 57.2031 55.8026C58.3214 55.9074 59.5001 56.149 60.4183 56.7961C61.4354 57.5128 61.9719 58.6077 61.9719 60.0018C61.9719 61.396 61.4354 62.4908 60.4183 63.2077C59.5001 63.8548 58.3214 64.0964 57.2031 64.2011C56.4962 64.2674 55.8694 63.748 55.8031 63.041C55.7367 62.3341 56.2562 61.7072 56.9631 61.641C57.9596 61.5476 58.5824 61.3556 58.937 61.1058C59.1927 60.9254 59.4005 60.6599 59.4005 60.0018C59.4005 59.3438 59.1927 59.0781 58.937 58.898C58.5824 58.6482 57.9596 58.4562 56.9631 58.3628ZM53.726 58.7181C53.0159 58.7181 52.4402 59.2938 52.4402 60.0038C52.4402 60.7139 53.0159 61.2896 53.726 61.2896H56.2754C56.9854 61.2896 57.5611 60.7139 57.5611 60.0038C57.5611 59.2938 56.9854 58.7181 56.2754 58.7181H53.726Z" fill="black"/>
</g>
<path d="M105 33C100.027 33 95.3674 34.3446 91.366 36.69C90.56 37.1625 90.2065 38.2126 90.8911 38.8484C91.4934 39.4079 92.3004 39.75 93.1873 39.75H116.812C117.699 39.75 118.506 39.4079 119.108 38.8484C119.793 38.2126 119.439 37.1625 118.633 36.69C114.632 34.3446 109.973 33 105 33Z" fill="url(#paint4_linear_10142_27985)"/>
<path d="M131.999 60C131.999 58.136 130.488 56.625 128.624 56.625H81.375C79.511 56.625 78 58.136 78 60C78 61.864 79.511 63.375 81.375 63.375H128.624C130.488 63.375 131.999 61.864 131.999 60Z" fill="url(#paint5_linear_10142_27985)"/>
<path d="M119.108 81.1516C119.793 81.7874 119.439 82.8375 118.633 83.31C114.632 85.6554 109.973 87 105 87C100.027 87 95.3674 85.6554 91.366 83.31C90.56 82.8375 90.2065 81.7874 90.8911 81.1516C91.4934 80.5921 92.3004 80.25 93.1873 80.25H116.812C117.699 80.25 118.506 80.5921 119.108 81.1516Z" fill="url(#paint6_linear_10142_27985)"/>
<path d="M81.375 48.1875C81.375 46.3235 82.8859 44.8125 84.7499 44.8125H125.249C127.113 44.8125 128.624 46.3235 128.624 48.1875C128.624 50.0515 127.113 51.5625 125.249 51.5625H84.7499C82.8859 51.5625 81.375 50.0515 81.375 48.1875Z" fill="url(#paint7_linear_10142_27985)"/>
<path d="M81.375 71.8125C81.375 69.9485 82.8859 68.4375 84.7499 68.4375H125.249C127.113 68.4375 128.624 69.9485 128.624 71.8125C128.624 73.6765 127.113 75.1875 125.249 75.1875H84.7499C82.8859 75.1875 81.375 73.6765 81.375 71.8125Z" fill="url(#paint8_linear_10142_27985)"/>
<path d="M137 59H173" stroke="white" stroke-width="2" stroke-linecap="round" stroke-dasharray="4 6"/>
<g filter="url(#filter1_dddd_10142_27985)">
<path d="M145 60C145 54.4772 149.477 50 155 50V50C160.523 50 165 54.4772 165 60V60C165 65.5228 160.523 70 155 70V70C149.477 70 145 65.5228 145 60V60Z" fill="white"/>
<path fill-rule="evenodd" clip-rule="evenodd" d="M154.198 56.9627C154.264 57.6697 153.745 58.2966 153.038 58.3628C152.042 58.4562 151.419 58.6482 151.064 58.898C150.808 59.0781 150.601 59.3438 150.601 60.0018C150.601 60.6599 150.808 60.9254 151.064 61.1058C151.419 61.3556 152.042 61.5476 153.038 61.641C153.745 61.7072 154.264 62.3341 154.198 63.041C154.132 63.748 153.505 64.2674 152.798 64.2011C151.68 64.0964 150.501 63.8548 149.583 63.2077C148.566 62.4908 148.029 61.396 148.029 60.0018C148.029 58.6077 148.566 57.5128 149.583 56.7961C150.501 56.149 151.68 55.9074 152.798 55.8026C153.505 55.7363 154.132 56.2557 154.198 56.9627ZM156.963 58.3628C156.256 58.2966 155.737 57.6697 155.803 56.9627C155.869 56.2557 156.496 55.7363 157.203 55.8026C158.321 55.9074 159.5 56.149 160.418 56.7961C161.435 57.5128 161.972 58.6077 161.972 60.0018C161.972 61.396 161.435 62.4908 160.418 63.2077C159.5 63.8548 158.321 64.0964 157.203 64.2011C156.496 64.2674 155.869 63.748 155.803 63.041C155.737 62.3341 156.256 61.7072 156.963 61.641C157.96 61.5476 158.582 61.3556 158.937 61.1058C159.193 60.9254 159.4 60.6599 159.4 60.0018C159.4 59.3438 159.193 59.0781 158.937 58.898C158.582 58.6482 157.96 58.4562 156.963 58.3628ZM153.726 58.7181C153.016 58.7181 152.44 59.2938 152.44 60.0038C152.44 60.7139 153.016 61.2896 153.726 61.2896H156.275C156.985 61.2896 157.561 60.7139 157.561 60.0038C157.561 59.2938 156.985 58.7181 156.275 58.7181H153.726Z" fill="black"/>
</g>
<g clip-path="url(#clip1_10142_27985)">
<path fill-rule="evenodd" clip-rule="evenodd" d="M191.214 44C186.969 44 183.478 45.5 181.14 48.4929C180.557 49.239 180.69 50.3163 181.436 50.8992C182.182 51.4819 183.259 51.3495 183.842 50.6034C185.418 48.5866 187.827 47.4286 191.214 47.4286C192.778 47.4286 194.125 47.6778 195.266 48.1287C196.147 48.4767 197.143 48.0449 197.49 47.1644C197.838 46.2839 197.407 45.288 196.526 44.9401C194.925 44.3073 193.142 44 191.214 44ZM202.247 49.919C201.774 49.099 200.725 48.8178 199.905 49.291C199.085 49.7643 198.804 50.8126 199.277 51.6327C199.874 52.6664 200.335 53.9145 200.63 55.3882C200.815 56.3166 201.718 56.9187 202.647 56.7331C203.575 56.5475 204.177 55.6445 203.992 54.716C203.636 52.9355 203.058 51.3248 202.247 49.919ZM181.499 57.5915C181.573 56.6477 180.868 55.8225 179.924 55.7485C178.98 55.6745 178.155 56.3796 178.081 57.3235C178.027 58.0102 178 58.7184 178 59.4473C178 66.4555 180.526 71.7435 185.745 73.8914C186.621 74.2519 187.623 73.8341 187.983 72.9586C188.343 72.083 187.926 71.0811 187.05 70.7209C183.622 69.3104 181.429 65.7107 181.429 59.4473C181.429 58.8024 181.452 58.1837 181.499 57.5915ZM192.948 58.051C193.125 57.1211 192.516 56.2231 191.586 56.0454C190.656 55.8677 189.758 56.4775 189.58 57.4074C189.454 58.0656 189.394 58.7635 189.394 59.4936C189.394 60.3479 189.476 61.1591 189.65 61.9143C189.863 62.8369 190.783 63.4125 191.706 63.1999C192.629 62.9872 193.204 62.067 192.991 61.1444C192.885 60.6802 192.823 60.1316 192.823 59.4936C192.823 58.9492 192.868 58.4692 192.948 58.051ZM190.02 51.5959C190.392 52.4664 189.988 53.4739 189.117 53.846C188.012 54.3184 187.169 55.2836 186.752 56.9768C186.526 57.8961 185.597 58.4579 184.678 58.2316C183.758 58.0053 183.196 57.0766 183.423 56.1572C184.045 53.6292 185.49 51.6678 187.77 50.6935C188.64 50.3213 189.647 50.7253 190.02 51.5959ZM192.409 51.5959C192.781 50.7253 193.789 50.3213 194.659 50.6935C196.939 51.6678 198.384 53.6293 199.006 56.1572C199.233 57.0766 198.671 58.0053 197.751 58.2316C196.832 58.4579 195.903 57.8961 195.677 56.9768C195.26 55.2836 194.417 54.3184 193.312 53.846C192.441 53.4739 192.037 52.4664 192.409 51.5959ZM184.652 59.8162C185.587 59.6669 186.466 60.3037 186.615 61.2386C186.653 61.477 186.699 61.7034 186.752 61.9179C187.064 63.1839 187.614 64.0258 188.288 64.5585C188.96 65.0899 189.904 65.4306 191.214 65.4306C191.366 65.4306 191.513 65.426 191.655 65.4171C192.6 65.3576 193.414 66.0754 193.474 67.0203C193.533 67.9653 192.816 68.7794 191.871 68.8389C191.655 68.8526 191.436 68.8592 191.214 68.8592C189.29 68.8592 187.553 68.3474 186.162 67.2485C184.773 66.1507 183.877 64.5839 183.423 62.7374C183.346 62.4262 183.282 62.1066 183.23 61.7794C183.08 60.8445 183.717 59.9655 184.652 59.8162ZM202.684 59.7146C202.019 59.7146 201.36 59.8456 200.746 60.1002C200.131 60.3548 199.573 60.728 199.102 61.1984C198.632 61.6688 198.259 62.2273 198.004 62.842C197.749 63.4566 197.618 64.1154 197.618 64.7807V65.4808C197.618 65.52 197.62 65.5589 197.623 65.5973C196.645 65.7625 195.875 66.5382 195.714 67.5207L195.683 67.7081C195.538 68.5872 195.371 69.6021 195.371 70.6505C195.371 71.6987 195.538 72.7136 195.683 73.5927L195.714 73.7801C195.887 74.8327 196.758 75.648 197.835 75.7294C198.082 75.7481 198.333 75.768 198.588 75.7881C199.879 75.8903 201.267 76 202.685 76C204.103 76 205.491 75.8903 206.782 75.7881C207.037 75.768 207.288 75.7481 207.535 75.7294C208.613 75.648 209.484 74.8327 209.656 73.7801L209.687 73.5927C209.832 72.7136 210 71.6987 210 70.6505C210 69.6021 209.832 68.5872 209.687 67.7081L209.656 67.5207C209.495 66.5377 208.725 65.7617 207.746 65.5971C207.749 65.5587 207.751 65.5199 207.751 65.4808V64.7807C207.751 64.1154 207.619 63.4566 207.365 62.842C207.11 62.2273 206.737 61.6688 206.267 61.1984C205.796 60.728 205.238 60.3548 204.623 60.1002C204.008 59.8456 203.35 59.7146 202.684 59.7146ZM202.685 65.3008C203.433 65.3008 204.172 65.3313 204.893 65.3752V64.7807C204.893 64.4906 204.836 64.2034 204.725 63.9354C204.614 63.6673 204.451 63.4238 204.246 63.2187C204.041 63.0136 203.798 62.8509 203.53 62.7399C203.262 62.6288 202.975 62.5717 202.684 62.5717C202.394 62.5717 202.107 62.6288 201.839 62.7399C201.571 62.8509 201.328 63.0136 201.123 63.2187C200.917 63.4238 200.755 63.6673 200.644 63.9354C200.533 64.2034 200.475 64.4906 200.475 64.7807V65.3753C201.197 65.3314 201.937 65.3008 202.685 65.3008Z" fill="url(#paint9_linear_10142_27985)"/>
</g>
<defs>
<filter id="filter0_dddd_10142_27985" x="29.0132" y="50" width="51.9735" height="55.3993" filterUnits="userSpaceOnUse" color-interpolation-filters="sRGB">
<feFlood flood-opacity="0" result="BackgroundImageFix"/>
<feColorMatrix in="SourceAlpha" type="matrix" values="0 0 0 0 0 0 0 0 0 0 0 0 0 0 0 0 0 0 127 0" result="hardAlpha"/>
<feOffset dy="0.879154"/>
<feGaussianBlur stdDeviation="0.362004"/>
<feColorMatrix type="matrix" values="0 0 0 0 0 0 0 0 0 0 0 0 0 0 0 0 0 0 0.0348411 0"/>
<feBlend mode="normal" in2="BackgroundImageFix" result="effect1_dropShadow_10142_27985"/>
<feColorMatrix in="SourceAlpha" type="matrix" values="0 0 0 0 0 0 0 0 0 0 0 0 0 0 0 0 0 0 127 0" result="hardAlpha"/>
<feOffset dy="2.43075"/>
<feGaussianBlur stdDeviation="1.0009"/>
<feColorMatrix type="matrix" values="0 0 0 0 0 0 0 0 0 0 0 0 0 0 0 0 0 0 0.05 0"/>
<feBlend mode="normal" in2="effect1_dropShadow_10142_27985" result="effect2_dropShadow_10142_27985"/>
<feColorMatrix in="SourceAlpha" type="matrix" values="0 0 0 0 0 0 0 0 0 0 0 0 0 0 0 0 0 0 127 0" result="hardAlpha"/>
<feOffset dy="5.8523"/>
<feGaussianBlur stdDeviation="2.40977"/>
<feColorMatrix type="matrix" values="0 0 0 0 0 0 0 0 0 0 0 0 0 0 0 0 0 0 0.0651589 0"/>
<feBlend mode="normal" in2="effect2_dropShadow_10142_27985" result="effect3_dropShadow_10142_27985"/>
<feColorMatrix in="SourceAlpha" type="matrix" values="0 0 0 0 0 0 0 0 0 0 0 0 0 0 0 0 0 0 127 0" result="hardAlpha"/>
<feOffset dy="19.4125"/>
<feGaussianBlur stdDeviation="7.99339"/>
<feColorMatrix type="matrix" values="0 0 0 0 0 0 0 0 0 0 0 0 0 0 0 0 0 0 0.1 0"/>
<feBlend mode="normal" in2="effect3_dropShadow_10142_27985" result="effect4_dropShadow_10142_27985"/>
<feBlend mode="normal" in="SourceGraphic" in2="effect4_dropShadow_10142_27985" result="shape"/>
</filter>
<filter id="filter1_dddd_10142_27985" x="129.013" y="50" width="51.9735" height="55.3993" filterUnits="userSpaceOnUse" color-interpolation-filters="sRGB">
<feFlood flood-opacity="0" result="BackgroundImageFix"/>
<feColorMatrix in="SourceAlpha" type="matrix" values="0 0 0 0 0 0 0 0 0 0 0 0 0 0 0 0 0 0 127 0" result="hardAlpha"/>
<feOffset dy="0.879154"/>
<feGaussianBlur stdDeviation="0.362004"/>
<feColorMatrix type="matrix" values="0 0 0 0 0 0 0 0 0 0 0 0 0 0 0 0 0 0 0.0348411 0"/>
<feBlend mode="normal" in2="BackgroundImageFix" result="effect1_dropShadow_10142_27985"/>
<feColorMatrix in="SourceAlpha" type="matrix" values="0 0 0 0 0 0 0 0 0 0 0 0 0 0 0 0 0 0 127 0" result="hardAlpha"/>
<feOffset dy="2.43075"/>
<feGaussianBlur stdDeviation="1.0009"/>
<feColorMatrix type="matrix" values="0 0 0 0 0 0 0 0 0 0 0 0 0 0 0 0 0 0 0.05 0"/>
<feBlend mode="normal" in2="effect1_dropShadow_10142_27985" result="effect2_dropShadow_10142_27985"/>
<feColorMatrix in="SourceAlpha" type="matrix" values="0 0 0 0 0 0 0 0 0 0 0 0 0 0 0 0 0 0 127 0" result="hardAlpha"/>
<feOffset dy="5.8523"/>
<feGaussianBlur stdDeviation="2.40977"/>
<feColorMatrix type="matrix" values="0 0 0 0 0 0 0 0 0 0 0 0 0 0 0 0 0 0 0.0651589 0"/>
<feBlend mode="normal" in2="effect2_dropShadow_10142_27985" result="effect3_dropShadow_10142_27985"/>
<feColorMatrix in="SourceAlpha" type="matrix" values="0 0 0 0 0 0 0 0 0 0 0 0 0 0 0 0 0 0 127 0" result="hardAlpha"/>
<feOffset dy="19.4125"/>
<feGaussianBlur stdDeviation="7.99339"/>
<feColorMatrix type="matrix" values="0 0 0 0 0 0 0 0 0 0 0 0 0 0 0 0 0 0 0.1 0"/>
<feBlend mode="normal" in2="effect3_dropShadow_10142_27985" result="effect4_dropShadow_10142_27985"/>
<feBlend mode="normal" in="SourceGraphic" in2="effect4_dropShadow_10142_27985" result="shape"/>
</filter>
<linearGradient id="paint0_linear_10142_27985" x1="0" y1="44" x2="24.0684" y2="56.2513" gradientUnits="userSpaceOnUse">
<stop stop-color="#0DF28F"/>
<stop offset="1" stop-color="#8B33FF"/>
</linearGradient>
<linearGradient id="paint1_linear_10142_27985" x1="0" y1="44" x2="24.0684" y2="56.2513" gradientUnits="userSpaceOnUse">
<stop stop-color="#0DF28F"/>
<stop offset="1" stop-color="#8B33FF"/>
</linearGradient>
<linearGradient id="paint2_linear_10142_27985" x1="0" y1="44" x2="24.0684" y2="56.2513" gradientUnits="userSpaceOnUse">
<stop stop-color="#0DF28F"/>
<stop offset="1" stop-color="#8B33FF"/>
</linearGradient>
<linearGradient id="paint3_linear_10142_27985" x1="17.334" y1="61.332" x2="30.309" y2="69.2651" gradientUnits="userSpaceOnUse">
<stop stop-color="#0DF28F"/>
<stop offset="1" stop-color="#8B33FF"/>
</linearGradient>
<linearGradient id="paint4_linear_10142_27985" x1="78" y1="33" x2="126.112" y2="61.5664" gradientUnits="userSpaceOnUse">
<stop stop-color="#0DF28F"/>
<stop offset="1" stop-color="#8B33FF"/>
</linearGradient>
<linearGradient id="paint5_linear_10142_27985" x1="78" y1="33" x2="126.112" y2="61.5664" gradientUnits="userSpaceOnUse">
<stop stop-color="#0DF28F"/>
<stop offset="1" stop-color="#8B33FF"/>
</linearGradient>
<linearGradient id="paint6_linear_10142_27985" x1="78" y1="33" x2="126.112" y2="61.5664" gradientUnits="userSpaceOnUse">
<stop stop-color="#0DF28F"/>
<stop offset="1" stop-color="#8B33FF"/>
</linearGradient>
<linearGradient id="paint7_linear_10142_27985" x1="78" y1="33" x2="126.112" y2="61.5664" gradientUnits="userSpaceOnUse">
<stop stop-color="#0DF28F"/>
<stop offset="1" stop-color="#8B33FF"/>
</linearGradient>
<linearGradient id="paint8_linear_10142_27985" x1="78" y1="33" x2="126.112" y2="61.5664" gradientUnits="userSpaceOnUse">
<stop stop-color="#0DF28F"/>
<stop offset="1" stop-color="#8B33FF"/>
</linearGradient>
<linearGradient id="paint9_linear_10142_27985" x1="178" y1="44" x2="206.511" y2="60.9283" gradientUnits="userSpaceOnUse">
<stop stop-color="#0DF28F"/>
<stop offset="1" stop-color="#8B33FF"/>
</linearGradient>
<clipPath id="clip0_10142_27985">
<rect width="32" height="32" fill="white" transform="translate(0 44)"/>
</clipPath>
<clipPath id="clip1_10142_27985">
<rect width="32" height="32" fill="white" transform="translate(178 44)"/>
</clipPath>
</defs>
</svg>
