<svg width="120" height="48" viewBox="0 0 120 48" fill="none" xmlns="http://www.w3.org/2000/svg">
<g clip-path="url(#clip0_4590_21454)">
<path d="M27.5022 19.4308V23.0469H26.8893C26.2764 20.4605 25.8474 20.1172 23.7206 20.1172H21.3793V25.6334C24.3212 25.5905 24.7686 25.1247 24.8483 23.4699H25.5164V28.4589H24.8422C24.7687 26.8347 24.2906 26.3628 21.3793 26.3444V32.6758H21.7654C26.3009 32.6758 26.8219 31.6216 27.159 29.1822H27.8332L27.49 33.3622H17.4873V32.6758H19.2647V20.0927H17.4873V19.4308H27.5022ZM94.9897 14.5398H117.508V15.2323H94.9836L94.9897 14.5398ZM92.6668 8L77.0008 14.5765H1V15.2507H77.1418L92.9365 8.64356L92.6668 8.03065M9.65429 32.9638C8.43147 33.2865 7.1666 33.4208 5.90328 33.3622H1V32.6758H2.77744V20.0927H1V19.4308H5.90328C7.16186 19.3706 8.42232 19.5007 9.64203 19.8169C12.4001 20.6382 13.8098 22.8815 13.8098 26.3996C13.8098 29.9177 12.4001 32.1609 9.64203 32.9822M9.1517 20.6014C8.11292 20.2198 7.00901 20.0469 5.90328 20.0927H4.89811V32.6758H5.90328C7.00694 32.7306 8.11063 32.5682 9.1517 32.1977C10.7759 31.4438 11.4624 29.7461 11.4624 26.3934C11.4624 23.0408 10.8066 21.3614 9.16396 20.6014H9.1517ZM73.7218 33.3745L75.9099 24.0092H77.2766V23.3228H73.4766V24.0092H75.1621L73.446 31.2722L73.0414 29.6173L71.4785 24.2728H70.0566L68.0524 31.2906L67.7152 29.6051L66.3852 24.0092H67.8991V23.3228H63.241V24.0092H64.5649L66.8143 33.3684H68.2362L70.2588 26.1789L70.7185 28.0176L72.2937 33.3622H73.7034M113.512 23.1573C116.668 23.1573 118.17 24.7692 118.17 28.367C118.17 31.9648 116.668 33.5767 113.512 33.5767C110.355 33.5767 108.872 31.9035 108.872 28.3364C108.872 24.7692 110.355 23.1266 113.512 23.1266M113.512 23.8008C112.372 23.8008 110.956 24.3402 110.956 28.3364C110.956 32.3325 112.378 32.8719 113.512 32.8719C114.646 32.8719 116.086 32.3203 116.086 28.3364C116.086 24.3524 114.658 23.7702 113.512 23.7702V23.8008ZM107.266 19.8414C106.008 19.3951 104.678 19.1872 103.344 19.2285C98.6856 19.2285 96.3382 21.7292 96.3382 26.3996C96.3382 30.9596 98.6672 33.5706 103.344 33.5706C104.683 33.5866 106.012 33.328 107.248 32.8106L107.554 29.2128H106.88C106.433 31.5235 105.207 32.8412 103.203 32.8412C102.709 32.8766 102.213 32.8136 101.744 32.6558C101.274 32.4979 100.841 32.2485 100.469 31.9219C99.4149 30.9106 98.8511 29.1025 98.8511 26.4057C98.8511 23.7089 99.4272 21.766 100.586 20.7669C101.254 20.2082 102.106 19.9177 102.976 19.9517C105.121 19.9517 106.286 21.2879 106.653 23.0163H107.266V19.8292M40.7656 19.8905C39.6478 19.4608 38.4571 19.2526 37.2598 19.2775C34.3362 19.2775 32.6629 20.6872 32.6629 22.9121C32.6629 24.9041 33.7416 25.9154 35.5926 26.6876L37.4927 27.4844C37.4927 27.4844 39.454 29.0167 39.454 30.3038C39.454 31.9587 38.5224 32.878 36.7572 32.878C34.992 32.878 33.57 31.5725 33.0368 29.2006H32.4239L32.7304 32.8351C33.8878 33.3457 35.143 33.5968 36.4078 33.5706C39.3927 33.5706 41.3846 32.0383 41.3846 29.4028C41.3846 27.1657 40.1588 26.277 38.3201 25.517L36.4814 24.757C35.1942 24.236 34.6426 23.5802 34.6426 22.1705C34.6426 20.7608 35.6846 19.964 37.0146 19.964C38.743 19.964 39.7237 21.0243 40.1159 23.0653H40.7717V19.8782M51.8715 25.9583C51.8715 23.9357 50.5844 23.0776 49.1134 23.0776C48.4446 23.0564 47.7825 23.2161 47.1967 23.5397C46.611 23.8633 46.1234 24.3389 45.7853 24.9163V19.4001H42.494V20.0927H43.8608V32.6819H42.494V33.3684H47.2318V32.6758H45.8037V27.1596C45.7887 26.4994 45.9517 25.8473 46.2757 25.2718C46.489 24.8948 46.7966 24.5796 47.1683 24.3572C47.5401 24.1348 47.9632 24.0128 48.3963 24.0031C49.3954 24.0031 49.947 24.7018 49.947 25.9644V32.7064H48.5189V33.3806H53.2383V32.6696H51.8715V25.9276M62.0458 30.2732V25.8602C62.0458 23.8376 60.5871 23.1144 58.3316 23.1144C56.0761 23.1144 54.5316 23.9111 54.5316 25.3515C54.5331 25.6226 54.6402 25.8824 54.8302 26.0758C55.0201 26.2692 55.278 26.3809 55.549 26.3873H55.6716C55.8477 26.4058 56.0258 26.3822 56.191 26.3182C56.3562 26.2543 56.5038 26.1519 56.6216 26.0196V25.5537C56.6216 24.4015 57.1855 23.7579 58.3071 23.7579C58.5452 23.7272 58.7871 23.7506 59.0148 23.8264C59.2426 23.9023 59.4503 24.0286 59.6224 24.196C59.7944 24.3634 59.9265 24.5674 60.0086 24.793C60.0908 25.0185 60.1209 25.2598 60.0968 25.4986V27.0002L56.7748 28.0605C55.8554 28.3915 54.3232 28.937 54.3232 30.7267C54.3232 32.7248 55.7083 33.589 57.5226 33.589C58.9935 33.589 59.9742 33.0742 60.4768 31.9648C60.7526 33.1906 61.9478 33.6809 63.3207 33.4051V32.7922C62.6342 32.5777 62.0949 31.738 62.0949 30.2793M60.1642 30.2793C60.1642 31.9096 59.5023 32.6696 58.2642 32.6696C57.1609 32.6696 56.548 31.9341 56.548 30.7083C56.548 28.9738 57.449 28.6612 58.6319 28.2567L60.1642 27.7357V30.2793ZM90.4419 31.597C91.0485 30.9559 91.5188 30.1984 91.8243 29.3704C92.1298 28.5424 92.2642 27.661 92.2194 26.7796C92.2051 25.947 92.0688 25.121 91.8149 24.3279H88.5235V24.9408C88.9015 24.9172 89.2804 24.969 89.6381 25.0932C89.9959 25.2173 90.3254 25.4114 90.6074 25.6641C90.862 25.9447 91.0568 26.2741 91.1801 26.6324C91.3033 26.9906 91.3525 27.3701 91.3245 27.748C91.323 29.0028 90.8404 30.2092 89.9761 31.119C89.8352 30.9719 89.59 30.7328 89.449 30.5796C87.4094 28.5333 85.668 26.21 84.2761 23.6782C83.9752 23.1259 83.8074 22.511 83.7858 21.8824C83.7657 21.6138 83.8037 21.344 83.8973 21.0914C83.9908 20.8389 84.1377 20.6094 84.3279 20.4186C84.518 20.2279 84.747 20.0803 84.9993 19.986C85.2516 19.8917 85.5213 19.8528 85.79 19.8721C87.0893 19.8721 88.1006 20.6382 88.5358 22.9366H89.1487V19.8721C88.1687 19.4272 87.0983 19.2174 86.0229 19.2592C83.6938 19.2592 82.0573 20.3624 82.0573 22.5934C82.0809 23.3368 82.2583 24.0672 82.5783 24.7386C81.7719 25.0156 81.0761 25.5448 80.5937 26.248C80.1114 26.9511 79.8681 27.7907 79.8999 28.6428C79.8999 31.0577 81.7386 33.6503 85.4161 33.6503C86.6835 33.6858 87.937 33.3788 89.0445 32.7616C90.0533 33.277 91.1612 33.5696 92.2929 33.6196L92.4891 33.0803C91.7552 32.6858 91.0702 32.2065 90.4481 31.6522M86.4642 32.7861C85.8423 32.7981 85.2242 32.6868 84.6455 32.4585C84.0669 32.2302 83.5393 31.8895 83.0932 31.4561C82.1947 30.5178 81.7054 29.2613 81.7325 27.9625C81.6911 27.4423 81.7629 26.9193 81.9427 26.4295C82.1226 25.9396 82.4063 25.4945 82.7744 25.1247C84.069 27.5479 85.7337 29.7544 87.7084 31.6645C87.9469 31.9054 88.2008 32.1306 88.4684 32.3387C87.8477 32.6373 87.165 32.7843 86.4764 32.7677L86.4642 32.7861Z" fill="black"/>
</g>
<defs>
<clipPath id="clip0_4590_21454">
<rect width="117.17" height="25.589" fill="white" transform="translate(1 8)"/>
</clipPath>
</defs>
</svg>
