<svg width="24" height="24" viewBox="0 0 24 24" fill="none" xmlns="http://www.w3.org/2000/svg">
<g clip-path="url(#clip0_10145_28348)">
<path fill-rule="evenodd" clip-rule="evenodd" d="M14.8863 3.49432C15.5587 3.7225 15.9188 4.45258 15.6907 5.12499L10.7454 19.6985C10.5172 20.3708 9.78713 20.731 9.1147 20.5028C8.44229 20.2746 8.08215 19.5445 8.31033 18.8722L13.2556 4.2987C13.4838 3.62627 14.2139 3.26614 14.8863 3.49432ZM7.22638 6.00279C7.62187 6.59254 7.46439 7.39124 6.87465 7.78673C4.93953 9.08444 3.87015 10.0816 2.61183 11.8731C2.55795 11.9498 2.55795 12.0477 2.61183 12.1244C3.87015 13.9159 4.93953 14.913 6.87465 16.2108C7.46439 16.6062 7.62187 17.4049 7.22638 17.9946C6.8309 18.5845 6.03219 18.7419 5.44245 18.3464C3.28404 16.899 1.9729 15.6886 0.507585 13.6024C-0.169195 12.6388 -0.169195 11.3587 0.507585 10.3951C1.9729 8.30886 3.28404 7.09851 5.44245 5.65105C6.03219 5.25557 6.8309 5.41304 7.22638 6.00279ZM17.1265 7.78673C16.5368 7.39124 16.3793 6.59254 16.7748 6.00279C17.1703 5.41304 17.969 5.25557 18.5587 5.65105C20.7171 7.09851 22.0282 8.30886 23.4936 10.3951C24.1704 11.3587 24.1704 12.6388 23.4936 13.6024C22.0282 15.6886 20.7171 16.899 18.5587 18.3464C17.969 18.7419 17.1703 18.5845 16.7748 17.9946C16.3793 17.4049 16.5368 16.6062 17.1265 16.2108C19.0617 14.913 20.131 13.9159 21.3893 12.1244C21.4431 12.0477 21.4431 11.9498 21.3893 11.8731C20.131 10.0816 19.0617 9.08444 17.1265 7.78673Z" fill="black"/>
</g>
<defs>
<clipPath id="clip0_10145_28348">
<rect width="24" height="24" fill="white"/>
</clipPath>
</defs>
</svg>
