<svg width="110" height="48" viewBox="0 0 110 48" fill="none" xmlns="http://www.w3.org/2000/svg">
<path d="M4.44013 19.2346V23.4691C2.07206 23.4691 0.123337 21.5574 0.123337 19.2346C0.123337 16.9117 2.07206 15 4.44013 15C6.80819 15 8.75691 16.9117 8.75691 19.2346H4.44013Z" fill="black"/>
<path d="M12.3337 28.2792V32.5138C9.96561 32.5138 8.01689 30.6021 8.01689 28.2792C8.01689 25.9564 9.96561 24.0447 12.3337 24.0447C14.7017 24.0447 16.6505 25.9564 16.6505 28.2792H12.3337Z" fill="black"/>
<path d="M12.3337 23.3457L16.7738 15.1233H7.89355L12.3337 23.3457Z" fill="black"/>
<path d="M4.44013 32.3904L8.88025 24.168H0L4.44013 32.3904Z" fill="black"/>
<path d="M31.9426 32.3898H25.4066V15.1243H31.9426C37.1466 15.1243 40.3287 18.3557 40.3287 23.757C40.3287 29.1584 37.1466 32.3898 31.9426 32.3898ZM31.6959 29.6764C35.4207 29.6764 37.1219 27.6043 37.1219 23.757C37.1219 19.9097 35.4199 17.8377 31.6959 17.8377H28.6125V29.6772H31.6959V29.6764Z" fill="black"/>
<path d="M47.7281 32.7597C43.6579 32.7597 41.0687 29.8243 41.0687 25.977C41.0687 22.1298 43.7081 19.1943 47.6541 19.1943C50.9348 19.1943 52.8827 20.9211 53.6967 23.4865C53.9927 24.4485 54.1161 25.5092 54.1161 26.5945V27.0879H44.25C44.324 28.6913 45.5327 30.418 47.7281 30.418C49.4054 30.418 50.2688 29.4806 50.5648 28.6913H53.8702C53.1549 30.936 51.0828 32.7614 47.7289 32.7614L47.7281 32.7597ZM44.25 24.7437H50.934C50.86 23.0416 49.7006 21.5369 47.6532 21.5369C45.6058 21.5369 44.4465 23.0416 44.2491 24.7437H44.25Z" fill="black"/>
<path d="M56.9043 19.5642L58.6804 24.4969C59.2477 25.9769 59.6917 27.679 60.0617 29.0595H60.1604C60.5304 27.6781 60.9744 25.9761 61.5418 24.4969L63.3178 19.5642H66.5739L61.6413 32.3896H58.5825L53.649 19.5642H56.9051H56.9043Z" fill="black"/>
<path d="M87.3759 32.7597C83.3058 32.7597 80.7165 29.8243 80.7165 25.977C80.7165 22.1298 83.356 19.1943 87.3019 19.1943C90.5827 19.1943 92.5314 20.9211 93.3446 23.4865C93.6406 24.4485 93.7639 25.5092 93.7639 26.5945V27.0879H83.8978C83.9718 28.6913 85.1805 30.418 87.3759 30.418C89.0533 30.418 89.9167 29.4806 90.2127 28.6913H93.5181C92.8027 30.936 90.7307 32.7614 87.3767 32.7614L87.3759 32.7597ZM83.8978 24.7437H90.5818C90.5078 23.0416 89.3485 21.5369 87.3011 21.5369C85.2537 21.5369 84.0952 23.0416 83.897 24.7437H83.8978Z" fill="black"/>
<path d="M96.5522 19.5642L98.3282 24.4969C98.8956 25.9769 99.3396 27.679 99.7096 29.0595H99.8083C100.178 27.6781 100.622 25.9761 101.19 24.4969L102.966 19.5642H106.222L101.289 32.3896H98.2304L93.2977 19.5642H96.5538H96.5522Z" fill="black"/>
<path d="M75.6655 25.4574H75.6614C78.7226 25.2099 80.6886 23.1889 80.6886 20.3036C80.6886 17.2202 78.4439 15.1243 75.0159 15.1243H67.6354V32.3898H70.8422V25.4837H72.0229L77.3067 32.3898H81.0939L75.6663 25.4574H75.6655ZM70.8414 22.7703V17.8377H75.0151C76.4951 17.8377 77.4818 18.8244 77.4818 20.3044C77.4818 21.7845 76.4951 22.7712 75.0151 22.7712H70.8414V22.7703Z" fill="black"/>
<path d="M108.551 18.9312C109.345 18.9312 110 19.5865 110 20.3799C110 21.1734 109.345 21.8287 108.551 21.8287C107.758 21.8287 107.102 21.1734 107.102 20.3799C107.102 19.5865 107.758 18.9312 108.551 18.9312ZM108.551 21.5311C109.186 21.5311 109.702 21.0147 109.702 20.3799C109.702 19.7452 109.186 19.2288 108.551 19.2288C107.916 19.2288 107.4 19.7452 107.4 20.3799C107.4 21.0147 107.916 21.5311 108.551 21.5311ZM108.73 20.5378C109.018 20.5148 109.203 20.324 109.203 20.0519C109.203 19.7616 108.992 19.5635 108.669 19.5635H107.973V21.1907H108.276V20.5395H108.387L108.885 21.1907H109.242L108.73 20.537L108.73 20.5378ZM108.275 20.2459V19.7805H108.669C108.809 19.7805 108.901 19.8734 108.901 20.0132C108.901 20.153 108.809 20.2459 108.669 20.2459H108.275Z" fill="black"/>
</svg>
