<svg width="212" height="121" viewBox="0 0 212 121" fill="none" xmlns="http://www.w3.org/2000/svg">
<g clip-path="url(#clip0_10141_27936)">
<path fill-rule="evenodd" clip-rule="evenodd" d="M122.589 32.0119C122.589 35.3256 125.275 38.0119 128.589 38.0119H135.595C138.909 38.0119 141.595 40.6982 141.595 44.0119V51.4409C141.595 54.7546 144.281 57.4409 147.595 57.4409H151.204C155.643 57.4409 160.207 56.6505 164.409 55.2266C164.518 55.1899 164.627 55.1524 164.736 55.1142C168.115 53.9352 168.879 49.797 167.715 46.4127C167.005 44.3518 166.572 42.1886 166.374 40.0408C165.826 34.1103 167.023 26.3919 171.035 21.7505V21.7505C172.15 20.4613 174.086 20.286 175.414 21.3541V21.3541C179.551 24.6776 183.234 28.9131 185.412 33.7408C186.941 37.1331 190.628 39.5773 194.343 39.3664C199.627 39.0665 205.009 40.0918 209.39 42.62V42.62C210.852 43.4635 211.396 45.3054 210.627 46.8075V46.8075C205.946 55.9421 196.823 59.592 187.289 60.0074C184.726 60.119 182.374 61.5929 181.326 63.9347C164.196 102.217 129.301 120.373 87.2841 120.373C64.842 120.373 44.2535 111.984 32.5287 92.0732L32.3367 91.7491L30.6287 88.273C26.6655 79.509 25.3489 69.9079 26.2416 60.3143V60.3143C26.3938 58.6859 27.7605 57.4409 29.396 57.4409H36.7632C40.0769 57.4409 42.7632 54.7546 42.7632 51.4409V44.0119C42.7632 40.6982 45.4495 38.0119 48.7632 38.0119H55.7683C59.082 38.0119 61.7683 35.3256 61.7683 32.0119V25.006C61.7683 21.6922 64.4546 19.006 67.7683 19.006H93.781C97.0947 19.006 99.781 16.3197 99.781 13.006V6.00001C99.781 2.6863 102.467 0 105.781 0H116.589C119.903 0 122.589 2.68629 122.589 6V32.0119Z" fill="#1A1919"/>
<path fill-rule="evenodd" clip-rule="evenodd" d="M191.31 42.9141C188.153 43.4653 184.455 40.825 183.547 37.7509C182.17 33.0845 179.152 29.1928 176.311 26.3859C174.779 24.8728 172.295 25.1243 171.409 27.0867C168.662 33.176 168.49 42.8166 172.534 49.2289C173.85 51.315 173.918 54.2248 171.769 55.4358C166.576 58.3626 158.962 60.6054 151.206 60.6054H33.0446C30.9791 60.6054 29.2374 62.1787 29.1727 64.2432C28.8894 73.2867 30.7517 81.6352 34.4492 88.9032L35.8348 91.4383C36.4 92.3969 36.9989 93.3349 37.6305 94.2507C38.2946 95.2136 39.3786 95.7928 40.5466 95.8569C44.8505 96.0931 48.8541 96.1679 52.5558 96.0863H52.5574C60.8585 95.9035 67.6319 94.9227 72.7653 93.1439C73.1282 93.031 73.5208 93.0637 73.86 93.2351C74.1993 93.4065 74.4585 93.7031 74.583 94.0622C74.7075 94.4213 74.6875 94.8147 74.5271 95.1593C74.3667 95.5038 74.0786 95.7725 73.7237 95.9085C73.0408 96.1461 72.3297 96.367 71.5954 96.5772C71.5946 96.5775 71.5937 96.5776 71.5929 96.5776V96.5776C71.5921 96.5776 71.5913 96.5777 71.5905 96.5779C67.5487 97.7322 63.2144 98.5085 57.6227 98.8534C57.9552 98.8592 57.2769 98.9032 57.2753 98.9032C57.0849 98.9157 56.8455 98.9431 56.6544 98.9531C54.4534 99.077 52.0778 99.1027 49.6491 99.1027C46.9987 99.1027 44.3889 99.0531 41.4721 98.9043C41.459 98.9036 41.4461 98.9071 41.4352 98.9144V98.9144C41.4045 98.9348 41.399 98.9777 41.4235 99.0052C51.5743 110.381 67.4253 117.202 87.287 117.202C128.41 117.202 163.436 99.3943 179.775 59.517C180.463 57.8374 182.163 56.7932 183.977 56.8574C192.701 57.166 200.846 54.8397 205.765 48.5645C207.08 46.887 206.364 44.4854 204.352 43.7827C200.055 42.2824 195.41 42.1985 191.31 42.9141Z" fill="url(#paint0_linear_10141_27936)"/>
<path fill-rule="evenodd" clip-rule="evenodd" d="M45.9297 45.1797C45.9297 42.9705 47.7205 41.1797 49.9297 41.1797H58.4022C60.6113 41.1797 62.4022 42.9705 62.4022 45.1797V53.6522C62.4022 55.8613 60.6113 57.6522 58.4022 57.6522H49.9297C47.7205 57.6522 45.9297 55.8613 45.9297 53.6522V45.1797Z" fill="url(#paint1_linear_10141_27936)"/>
<path fill-rule="evenodd" clip-rule="evenodd" d="M64.9362 26.1756C64.9363 23.9665 66.7271 22.1758 68.9362 22.1758H77.4097C79.6188 22.1758 81.4097 23.9666 81.4097 26.1758V34.6474C81.4097 36.8566 79.6188 38.6474 77.4097 38.6474H68.9357C66.7265 38.6474 64.9356 36.8565 64.9357 34.6472L64.9362 26.1756Z" fill="url(#paint2_linear_10141_27936)"/>
<path fill-rule="evenodd" clip-rule="evenodd" d="M64.9362 45.1795C64.9363 42.9704 66.7271 41.1797 68.9362 41.1797H77.4097C79.6188 41.1797 81.4097 42.9705 81.4097 45.1797V53.6522C81.4097 55.8613 79.6188 57.6522 77.4097 57.6522H68.9357C66.7265 57.6522 64.9356 55.8612 64.9357 53.652L64.9362 45.1795Z" fill="url(#paint3_linear_10141_27936)"/>
<path fill-rule="evenodd" clip-rule="evenodd" d="M83.9434 45.1797C83.9434 42.9705 85.7342 41.1797 87.9434 41.1797H96.4159C98.625 41.1797 100.416 42.9705 100.416 45.1797V53.6522C100.416 55.8613 98.625 57.6522 96.4159 57.6522H87.9434C85.7342 57.6522 83.9434 55.8613 83.9434 53.6522V45.1797Z" fill="url(#paint4_linear_10141_27936)"/>
<path fill-rule="evenodd" clip-rule="evenodd" d="M102.949 45.1797C102.949 42.9705 104.74 41.1797 106.949 41.1797H115.422C117.631 41.1797 119.422 42.9705 119.422 45.1797V53.6522C119.422 55.8613 117.631 57.6522 115.422 57.6522H106.949C104.74 57.6522 102.949 55.8613 102.949 53.6522V45.1797Z" fill="url(#paint5_linear_10141_27936)"/>
<path fill-rule="evenodd" clip-rule="evenodd" d="M83.9434 26.1758C83.9434 23.9666 85.7342 22.1758 87.9434 22.1758H96.4159C98.625 22.1758 100.416 23.9666 100.416 26.1758V34.6474C100.416 36.8566 98.625 38.6474 96.4159 38.6474H87.9434C85.7342 38.6474 83.9434 36.8566 83.9434 34.6474V26.1758Z" fill="url(#paint6_linear_10141_27936)"/>
<path fill-rule="evenodd" clip-rule="evenodd" d="M102.951 26.1758C102.951 23.9666 104.742 22.1758 106.951 22.1758H115.424C117.633 22.1758 119.424 23.9666 119.424 26.1758V34.6474C119.424 36.8566 117.633 38.6474 115.424 38.6474H106.951C104.742 38.6474 102.951 36.8566 102.951 34.6474V26.1758Z" fill="url(#paint7_linear_10141_27936)"/>
<path fill-rule="evenodd" clip-rule="evenodd" d="M102.951 7.16797C102.951 4.95883 104.742 3.16797 106.951 3.16797H115.424C117.633 3.16797 119.424 4.95883 119.424 7.16797V15.6421C119.424 17.8513 117.633 19.6421 115.424 19.6421H106.951C104.742 19.6421 102.951 17.8513 102.951 15.6421V7.16797Z" fill="url(#paint8_linear_10141_27936)"/>
<path fill-rule="evenodd" clip-rule="evenodd" d="M121.955 45.1797C121.955 42.9705 123.746 41.1797 125.955 41.1797H134.428C136.637 41.1797 138.428 42.9705 138.428 45.1797V53.6522C138.428 55.8613 136.637 57.6522 134.428 57.6522H125.955C123.746 57.6522 121.955 55.8613 121.955 53.6522V45.1797Z" fill="url(#paint9_linear_10141_27936)"/>
<path fill-rule="evenodd" clip-rule="evenodd" d="M80.3788 84.3598C80.9808 84.3517 81.5784 84.4634 82.1368 84.6882C82.6953 84.9131 83.2035 85.2466 83.632 85.6695C84.0605 86.0924 84.4007 86.5962 84.6329 87.1516C84.865 87.7071 84.9845 88.3031 84.9844 88.9051C84.9843 89.5072 84.8646 90.1032 84.6322 90.6585C84.3999 91.2139 84.0595 91.7176 83.6308 92.1403C83.2022 92.563 82.6938 92.8964 82.1353 93.121C81.5768 93.3457 80.9792 93.4571 80.3772 93.4488C79.1825 93.4325 78.0424 92.9463 77.2035 92.0957C76.3645 91.245 75.8943 90.0982 75.8945 88.9035C75.8947 87.7087 76.3654 86.5621 77.2046 85.7118C78.0439 84.8614 79.1842 84.3757 80.3788 84.3598Z" fill="#D3ECEC"/>
<path fill-rule="evenodd" clip-rule="evenodd" d="M80.3793 85.648C80.7948 85.648 81.1913 85.7261 81.557 85.8682C81.3047 86.0147 81.1076 86.2403 80.9962 86.51C80.8848 86.7797 80.8654 87.0786 80.9409 87.3605C81.0164 87.6424 81.1826 87.8916 81.4138 88.0695C81.6451 88.2475 81.9285 88.3444 82.2203 88.3452C82.7232 88.3452 83.1596 88.0667 83.3857 87.6544C83.6533 88.2993 83.7065 89.0131 83.5374 89.6905C83.3682 90.3679 82.9857 90.9729 82.4462 91.4162C81.9068 91.8594 81.2392 92.1175 80.5418 92.1521C79.8445 92.1868 79.1545 91.9963 78.5738 91.6087C77.9931 91.2211 77.5524 90.657 77.3169 89.9998C77.0813 89.3425 77.0635 88.6269 77.2658 87.9587C77.4682 87.2905 77.8802 86.7051 78.4408 86.289C79.0015 85.8729 79.6811 85.6482 80.3793 85.648ZM0 74.9414H211.394C206.791 73.7744 196.831 72.1968 198.474 66.1641C190.104 75.8491 169.92 72.959 164.826 68.1839C159.153 76.411 126.13 73.2832 123.827 66.8739C116.715 75.2199 94.6798 75.2199 87.5682 66.8739C85.2633 73.2832 52.241 76.411 46.5682 68.183C41.4746 72.959 21.2917 75.8491 12.9217 66.1649C14.5641 72.1968 4.60395 73.7736 0 74.9414Z" fill="#1A1919"/>
<path fill-rule="evenodd" clip-rule="evenodd" d="M92.4589 117.107C81.2046 111.767 75.028 104.507 71.591 96.582C67.4102 97.7748 62.3856 98.5378 56.5465 98.8653C54.3472 98.9883 52.0332 99.0515 49.6061 99.0515C46.8067 99.0515 43.8568 98.9684 40.7598 98.8046C51.0806 109.12 63.777 117.061 87.2864 117.205C89.0219 117.205 90.7441 117.172 92.4589 117.107Z" fill="#BDD9D7"/>
<path fill-rule="evenodd" clip-rule="evenodd" d="M75.7714 103.896C74.2146 101.783 72.7044 99.1263 71.5939 96.582C67.413 97.7764 62.3868 98.5395 56.5469 98.8678C60.5582 101.045 66.2934 103.062 75.7714 103.896Z" fill="#D3ECEC"/>
</g>
<defs>
<linearGradient id="paint0_linear_10141_27936" x1="39.053" y1="51.2416" x2="112.613" y2="153" gradientUnits="userSpaceOnUse">
<stop stop-color="#0DF28F"/>
<stop offset="0.33" stop-color="#37B3B4"/>
<stop offset="0.675" stop-color="#6271DB"/>
<stop offset="1" stop-color="#8B33FF"/>
</linearGradient>
<linearGradient id="paint1_linear_10141_27936" x1="45.6905" y1="41.1577" x2="65.6082" y2="55.7776" gradientUnits="userSpaceOnUse">
<stop stop-color="#0DF28F"/>
<stop offset="0.33" stop-color="#37B3B4"/>
<stop offset="0.675" stop-color="#6271DB"/>
<stop offset="1" stop-color="#8B33FF"/>
</linearGradient>
<linearGradient id="paint2_linear_10141_27936" x1="64.6963" y1="22.1538" x2="84.6139" y2="36.7759" gradientUnits="userSpaceOnUse">
<stop stop-color="#0DF28F"/>
<stop offset="0.33" stop-color="#37B3B4"/>
<stop offset="0.675" stop-color="#6271DB"/>
<stop offset="1" stop-color="#8B33FF"/>
</linearGradient>
<linearGradient id="paint3_linear_10141_27936" x1="64.6963" y1="41.1577" x2="84.6146" y2="55.7795" gradientUnits="userSpaceOnUse">
<stop stop-color="#0DF28F"/>
<stop offset="0.33" stop-color="#37B3B4"/>
<stop offset="0.675" stop-color="#6271DB"/>
<stop offset="1" stop-color="#8B33FF"/>
</linearGradient>
<linearGradient id="paint4_linear_10141_27936" x1="83.7042" y1="41.1577" x2="103.622" y2="55.7776" gradientUnits="userSpaceOnUse">
<stop stop-color="#0DF28F"/>
<stop offset="0.33" stop-color="#37B3B4"/>
<stop offset="0.675" stop-color="#6271DB"/>
<stop offset="1" stop-color="#8B33FF"/>
</linearGradient>
<linearGradient id="paint5_linear_10141_27936" x1="102.71" y1="41.1577" x2="122.628" y2="55.7776" gradientUnits="userSpaceOnUse">
<stop stop-color="#0DF28F"/>
<stop offset="0.33" stop-color="#37B3B4"/>
<stop offset="0.675" stop-color="#6271DB"/>
<stop offset="1" stop-color="#8B33FF"/>
</linearGradient>
<linearGradient id="paint6_linear_10141_27936" x1="83.7042" y1="22.1538" x2="103.621" y2="36.7739" gradientUnits="userSpaceOnUse">
<stop stop-color="#0DF28F"/>
<stop offset="0.33" stop-color="#37B3B4"/>
<stop offset="0.675" stop-color="#6271DB"/>
<stop offset="1" stop-color="#8B33FF"/>
</linearGradient>
<linearGradient id="paint7_linear_10141_27936" x1="102.712" y1="22.1538" x2="122.629" y2="36.7739" gradientUnits="userSpaceOnUse">
<stop stop-color="#0DF28F"/>
<stop offset="0.33" stop-color="#37B3B4"/>
<stop offset="0.675" stop-color="#6271DB"/>
<stop offset="1" stop-color="#8B33FF"/>
</linearGradient>
<linearGradient id="paint8_linear_10141_27936" x1="102.712" y1="3.14599" x2="122.631" y2="17.7655" gradientUnits="userSpaceOnUse">
<stop stop-color="#0DF28F"/>
<stop offset="0.33" stop-color="#37B3B4"/>
<stop offset="0.675" stop-color="#6271DB"/>
<stop offset="1" stop-color="#8B33FF"/>
</linearGradient>
<linearGradient id="paint9_linear_10141_27936" x1="121.716" y1="41.1577" x2="141.634" y2="55.7776" gradientUnits="userSpaceOnUse">
<stop stop-color="#0DF28F"/>
<stop offset="0.33" stop-color="#37B3B4"/>
<stop offset="0.675" stop-color="#6271DB"/>
<stop offset="1" stop-color="#8B33FF"/>
</linearGradient>
<clipPath id="clip0_10141_27936">
<rect width="212" height="120.373" fill="white"/>
</clipPath>
</defs>
</svg>
