<svg width="120" height="48" viewBox="0 0 120 48" fill="none" xmlns="http://www.w3.org/2000/svg">
<g clip-path="url(#clip0_8089_15620)">
<path d="M60.2495 24.1058V21.7542H56.9877V35.0733H59.1873C59.7736 35.0733 60.2495 34.5992 60.2495 34.015V28.7833C60.2495 26.2467 61.0717 24.475 63.1417 24.475H65.2368V21.7525H63.6711C61.9482 21.7542 60.9128 22.4142 60.2495 24.1058ZM72.7958 21.5417C68.7102 21.5417 65.7929 24.45 65.7929 28.4133C65.7929 32.3767 68.7119 35.2842 72.7958 35.2842C76.8539 35.2842 79.7711 32.3767 79.7711 28.4133C79.7711 24.45 76.8539 21.5417 72.7958 21.5417ZM72.7958 32.4833C70.5677 32.4833 69.0824 30.8183 69.0824 28.4133C69.0824 26.0083 70.5677 24.3433 72.7958 24.3433C74.9971 24.3433 76.4825 26.0083 76.4825 28.4133C76.4825 30.8183 74.9971 32.4833 72.7958 32.4833ZM89.1877 21.5417C87.2783 21.5417 85.767 22.3617 85.0226 23.815V21.7542H81.7608V35.0733H83.9604C84.5476 35.0733 85.0226 34.6 85.0226 34.015V27.8067C85.0226 25.8508 86.2964 24.4233 88.1255 24.4233C89.7974 24.4233 90.9106 25.6925 90.9106 27.5158V35.0742H93.1119C93.6974 35.0742 94.1741 34.6008 94.1741 34.0167V26.8283C94.1741 23.7092 92.2112 21.5417 89.1877 21.5417ZM104.943 23.4183V21.7542H101.23V17.7375H97.9679V20.8817C97.9679 21.515 97.6492 21.7533 97.1189 21.7533H95.3417V24.4758H97.9679V30.4217C97.9679 33.3825 99.8781 35.0733 102.795 35.0733H104.943V32.1392H103.166C101.946 32.1392 101.229 31.4525 101.229 30.1042V24.4758H103.88C104.02 24.4761 104.158 24.4489 104.287 24.3958C104.416 24.3428 104.533 24.2649 104.632 24.1667C104.73 24.0685 104.809 23.9518 104.862 23.8234C104.916 23.695 104.943 23.5573 104.943 23.4183ZM43.912 19.93V35.075H46.3508C46.9363 35.075 47.413 34.6 47.413 34.0167V27.3042H54.5204V24.2908H47.4122V20.5117C47.4122 20.0008 47.8279 19.5867 48.3405 19.5867H55.2096C55.7959 19.5867 56.2718 19.1133 56.2718 18.5283V16.5742H47.28C46.3867 16.5746 45.5301 16.9284 44.8984 17.5578C44.2667 18.1872 43.9116 19.0407 43.9112 19.9308L43.912 19.93ZM13.0602 13.975C13.0602 11.2275 15.3033 9 18.07 9H34.1366V16.08C34.136 16.4072 34.0708 16.7311 33.9446 17.0332C33.8184 17.3353 33.6338 17.6097 33.4012 17.8407C33.1686 18.0716 32.8926 18.2547 32.589 18.3794C32.2854 18.5041 31.9601 18.568 31.6317 18.5675H25.1038C24.7881 18.567 24.4753 18.6284 24.1833 18.7483C23.8914 18.8682 23.626 19.0442 23.4024 19.2663C23.1787 19.4884 23.0011 19.7522 22.8798 20.0426C22.7584 20.3331 22.6957 20.6445 22.6951 20.9592V36.4108C22.6946 36.738 22.6293 37.0619 22.5032 37.364C22.377 37.6661 22.1923 37.9405 21.9597 38.1715C21.7271 38.4025 21.4511 38.5855 21.1475 38.7103C20.8439 38.835 20.5186 38.8989 20.1902 38.8983H13.0602V13.975Z" fill="black"/>
<path fill-rule="evenodd" clip-rule="evenodd" d="M31.1835 18.5675H25.1039C24.7881 18.567 24.4753 18.6284 24.1834 18.7483C23.8914 18.8682 23.626 19.0442 23.4024 19.2663C23.1787 19.4884 23.0011 19.7522 22.8798 20.0426C22.7584 20.3331 22.6957 20.6445 22.6951 20.9592V26.9955C20.3281 26.0298 18.6613 23.7178 18.6613 21.0191C18.6613 17.4523 21.5731 14.5608 25.1649 14.5608C27.8828 14.5608 30.2113 16.2164 31.1835 18.5675Z" fill="url(#paint0_linear_8089_15620)"/>
</g>
<defs>
<linearGradient id="paint0_linear_8089_15620" x1="20.585" y1="16.1775" x2="30.2954" y2="26.0244" gradientUnits="userSpaceOnUse">
<stop stop-color="white" stop-opacity="0.16"/>
<stop offset="0.861" stop-color="white"/>
</linearGradient>
<clipPath id="clip0_8089_15620">
<rect width="92" height="30" fill="white" transform="translate(13 9)"/>
</clipPath>
</defs>
</svg>
