<svg width="120" height="48" viewBox="0 0 120 48" fill="none" xmlns="http://www.w3.org/2000/svg">
<g clip-path="url(#clip0_9014_27785)">
<mask id="mask0_9014_27785" style="mask-type:luminance" maskUnits="userSpaceOnUse" x="5" y="7" width="29" height="34">
<path d="M33.8365 7.76294H5.11499V40.9368H33.8365V7.76294Z" fill="white"/>
</mask>
<g mask="url(#mask0_9014_27785)">
<path fill-rule="evenodd" clip-rule="evenodd" d="M9.21324 18.4218L23.5824 10.1241L19.4842 7.76294L5.11499 16.0606V32.6391L19.4842 40.9368V36.1977L9.21324 30.2611V18.4218Z" fill="black"/>
<path d="M19.4841 24.3416V29.0807L29.7382 23.161V30.2613L19.4841 36.181V40.9201L33.8533 32.6224V16.0608L19.4841 24.3416Z" fill="black" fill-opacity="0.6"/>
<path fill-rule="evenodd" clip-rule="evenodd" d="M9.21324 18.422V30.2613L13.3284 27.9002V20.7999L23.5824 14.8634V10.1243L9.21324 18.422Z" fill="black" fill-opacity="0.6"/>
<path fill-rule="evenodd" clip-rule="evenodd" d="M25.6231 25.5391V27.9003L29.7382 30.2614V23.1611L25.6231 25.5391Z" fill="black"/>
<path d="M15.369 21.9805V26.7196L19.4673 29.0807V24.3416L15.369 21.9805Z" fill="black"/>
<path fill-rule="evenodd" clip-rule="evenodd" d="M9.21324 30.2613L19.4842 36.1978L29.7382 30.2613L25.6231 27.9001L19.4842 31.4587L13.3284 27.9001L9.21324 30.2613Z" fill="black"/>
<path d="M15.369 21.9805L19.4673 24.3417L33.8365 16.044L29.7382 13.6829L15.369 21.9805Z" fill="black"/>
</g>
<path d="M48.3355 32.6461C46.8757 32.6626 45.4379 32.29 44.1698 31.5667C42.9297 30.8609 41.9053 29.8307 41.2065 28.5866C40.4794 27.2889 40.1071 25.8224 40.1272 24.3349C40.1068 22.8469 40.4729 21.379 41.1897 20.0748C41.8648 18.8437 42.8661 17.8225 44.0838 17.1234C45.3505 16.3967 46.7892 16.0239 48.2495 16.044C49.3073 16.0321 50.3569 16.2304 51.3375 16.6275C52.2332 16.9675 53.0486 17.4895 53.7323 18.1606C54.3579 18.7729 54.8375 19.5182 55.1355 20.3412L52.1791 21.7613C51.9052 20.9757 51.3913 20.2961 50.7101 19.8184C49.9933 19.3069 49.1298 19.0417 48.2495 19.0629C47.3681 19.0501 46.5007 19.2837 45.745 19.7375C45.015 20.1794 44.4291 20.8239 44.0585 21.5926C43.6547 22.4494 43.455 23.388 43.4749 24.3349C43.4574 25.2905 43.6648 26.2368 44.0804 27.0974C44.4745 27.8629 45.0721 28.5048 45.8074 28.9526C46.5727 29.4055 47.448 29.6389 48.3372 29.6272C49.0511 29.6341 49.7581 29.4868 50.4099 29.1955C51.0283 28.9303 51.565 28.5054 51.9649 27.9643C52.3551 27.4089 52.5588 26.744 52.5467 26.0653V26.0214H48.2495L46.6877 23.5355H55.8911V24.9168C55.8911 26.5864 55.5313 28.0042 54.8117 29.1702C54.1412 30.2899 53.1662 31.196 52.0003 31.7826C50.8635 32.3545 49.608 32.6503 48.3355 32.6461Z" fill="black"/>
<path d="M60.2052 32.6462C58.9235 32.6462 57.9161 32.3437 57.183 31.7388C56.4493 31.135 56.1711 30.3002 56.1711 29.2343C56.1711 28.2224 56.4325 27.4061 57.1223 26.7737C57.812 26.1412 58.8779 25.6876 60.2744 25.4565L63.5344 24.9387V24.6149C63.5363 24.3989 63.4886 24.1853 63.3951 23.9906C63.3015 23.7959 63.1645 23.6252 62.9947 23.4917C62.5894 23.1748 62.0835 23.0143 61.5696 23.0397C61.0212 23.0309 60.4843 23.1969 60.0366 23.5136C59.5991 23.8241 59.2676 24.2615 59.0871 24.7667L56.4966 23.5356C56.8406 22.5582 57.5177 21.733 58.4091 21.2048C59.4087 20.6154 60.5528 20.3163 61.713 20.3413C62.6131 20.3244 63.5056 20.5088 64.3254 20.881C65.0564 21.2035 65.6784 21.7307 66.1165 22.3988C66.5517 23.0575 66.7774 23.8324 66.7641 24.6217V32.3864H63.7452V31.2851C63.3032 31.7335 62.774 32.0865 62.1903 32.3223C61.5534 32.5485 60.881 32.6582 60.2052 32.6462ZM59.421 29.1264C59.4137 29.2877 59.4451 29.4484 59.5126 29.5951C59.58 29.7418 59.6816 29.8702 59.8089 29.9696C60.1122 30.1813 60.4765 30.2879 60.8461 30.2732C61.1995 30.2881 61.5522 30.2306 61.8826 30.1041C62.2129 29.9776 62.5139 29.785 62.767 29.5379C63.0132 29.2968 63.2073 29.0078 63.3372 28.6887C63.4672 28.3696 63.5303 28.0272 63.5226 27.6827V27.3151L60.8461 27.7907C60.452 27.8407 60.0789 27.997 59.7667 28.2426C59.6496 28.3569 59.5582 28.4949 59.4986 28.6473C59.439 28.7996 59.4125 28.963 59.421 29.1264Z" fill="black"/>
<path d="M67.3881 20.5992H70.4104V22.0463C70.6829 21.4856 71.1403 21.0359 71.7056 20.7729C72.3315 20.4736 73.019 20.3257 73.7126 20.3412C74.448 20.3313 75.1746 20.5016 75.8292 20.837C76.4349 21.1159 76.9456 21.5662 77.2981 22.1323C78.1324 20.9382 79.3484 20.3412 80.9461 20.3412C81.7313 20.3251 82.5067 20.5184 83.1925 20.9011C83.8482 21.2703 84.3866 21.8168 84.7458 22.478C85.1299 23.1939 85.3233 23.9965 85.3074 24.8088V32.3863H82.0693V25.5003C82.0693 24.8088 81.8821 24.2618 81.5077 23.8593C81.1333 23.4568 80.6369 23.2555 80.0185 23.2555C79.737 23.2413 79.4557 23.2878 79.1938 23.392C78.9318 23.4962 78.6954 23.6556 78.5006 23.8593C78.1487 24.2595 77.9727 24.8065 77.9727 25.5003V32.3863H74.7346V25.5003C74.7346 24.8088 74.5474 24.2618 74.173 23.8593C73.7986 23.4568 73.3022 23.2555 72.6838 23.2555C72.4023 23.2413 72.121 23.2878 71.8591 23.392C71.5972 23.4962 71.3608 23.6556 71.1659 23.8593C70.8073 24.2629 70.6274 24.8099 70.6262 25.5003V32.3863H67.3881V20.5992Z" fill="black"/>
<path d="M85.9365 20.5992H88.9587V22.0463C89.2304 21.4849 89.6881 21.035 90.254 20.7729C90.8799 20.4736 91.5673 20.3257 92.2609 20.3412C92.9958 20.3311 93.722 20.5014 94.3758 20.837C94.9833 21.1154 95.4957 21.5657 95.8499 22.1323C96.6841 20.9382 97.9001 20.3412 99.4978 20.3412C100.282 20.3253 101.057 20.5186 101.743 20.9011C102.399 21.2697 102.938 21.8164 103.298 22.478C103.682 23.1939 103.875 23.9965 103.859 24.8088V32.3863H100.621V25.5003C100.621 24.8088 100.434 24.2618 100.059 23.8593C99.8706 23.6557 99.6393 23.4961 99.382 23.3918C99.1246 23.2874 98.8475 23.2409 98.5702 23.2555C98.2887 23.2409 98.0073 23.2873 97.7453 23.3915C97.4833 23.4957 97.247 23.6553 97.0523 23.8593C96.6914 24.2629 96.5115 24.8099 96.5127 25.5003V32.3863H93.2745V25.5003C93.2745 24.8088 93.0873 24.2618 92.7129 23.8593C92.5241 23.6557 92.2928 23.4961 92.0355 23.3918C91.7781 23.2874 91.501 23.2409 91.2237 23.2555C90.9422 23.2409 90.6608 23.2873 90.3988 23.3915C90.1369 23.4957 89.9005 23.6553 89.7059 23.8593C89.3449 24.2629 89.165 24.8099 89.1662 25.5003V32.3863H85.9281L85.9365 20.5992Z" fill="black"/>
<path d="M108.553 32.6461C107.272 32.6461 106.265 32.3437 105.53 31.7388C104.796 31.1339 104.43 30.299 104.431 29.2343C104.414 28.7739 104.498 28.3154 104.676 27.8905C104.855 27.4656 105.123 27.0846 105.463 26.7736C106.168 26.126 107.219 25.687 108.615 25.4565L111.872 24.9387V24.6149C111.874 24.399 111.827 24.1855 111.733 23.9907C111.64 23.796 111.503 23.6253 111.334 23.4917C110.928 23.175 110.423 23.0146 109.909 23.0397C109.36 23.0304 108.823 23.1964 108.376 23.5136C107.938 23.8236 107.606 24.2612 107.426 24.7667L104.836 23.5355C105.182 22.5553 105.864 21.7296 106.762 21.2048C107.761 20.6156 108.904 20.3166 110.064 20.3413C110.964 20.324 111.857 20.5084 112.676 20.8809C113.408 21.203 114.031 21.7302 114.469 22.3988C114.904 23.0576 115.129 23.8325 115.115 24.6216V32.3864H112.094V31.2851C111.652 31.7327 111.123 32.0856 110.539 32.3223C109.902 32.5485 109.229 32.6582 108.553 32.6461ZM107.777 29.1263C107.77 29.2877 107.801 29.4484 107.868 29.5951C107.936 29.7418 108.038 29.8702 108.165 29.9696C108.467 30.1815 108.831 30.2881 109.2 30.2732C109.554 30.2883 109.907 30.2308 110.237 30.1043C110.567 29.9779 110.868 29.7851 111.121 29.5379C111.367 29.2968 111.562 29.0077 111.691 28.6886C111.821 28.3695 111.885 28.0272 111.877 27.6827V27.315L109.2 27.7906C108.806 27.8414 108.434 27.9976 108.121 28.2426C108.004 28.3572 107.914 28.4953 107.854 28.6476C107.795 28.7999 107.769 28.9631 107.777 29.1263Z" fill="black"/>
</g>
<defs>
<clipPath id="clip0_9014_27785">
<rect width="110" height="33.1739" fill="white" transform="translate(5.11499 7.76294)"/>
</clipPath>
</defs>
</svg>
