<svg width="120" height="48" viewBox="0 0 120 48" fill="none" xmlns="http://www.w3.org/2000/svg">
<path d="M43.1996 26.2478L41.4266 20.7872C41.4274 20.7897 41.4277 20.7923 41.4285 20.7947C41.4276 20.7919 41.4271 20.789 41.4263 20.7862C41.4262 20.786 41.4263 20.7859 41.4263 20.7857C41.4263 20.7856 41.4263 20.7855 41.4263 20.7855L37.9065 9.94925C37.714 9.37837 37.1841 8.99523 36.5768 9.00004C35.9677 9.00319 35.4524 9.37886 35.264 9.9576L31.923 20.2433H21.3812L18.034 9.95701C17.8458 9.37886 17.3305 9.00319 16.7214 9.00004C16.7189 9.00004 16.7166 9.00004 16.714 9.00004C16.1143 9.00004 15.5835 9.38083 15.3888 9.95809L11.8788 20.7846L11.8783 20.786C11.8783 20.7861 11.8783 20.7862 11.8783 20.7863C11.8774 20.789 11.877 20.7918 11.8761 20.7945C11.8769 20.7921 11.8772 20.7895 11.878 20.787L10.0984 26.248C9.83074 27.0723 10.1212 27.9683 10.8215 28.4776L26.1868 39.6416C26.1891 39.6433 26.1917 39.6443 26.1939 39.646C26.2005 39.6507 26.2069 39.6555 26.2136 39.6599C26.2073 39.6557 26.2014 39.6511 26.1952 39.6467C26.1952 39.6467 26.1952 39.6466 26.1951 39.6466C26.1961 39.6474 26.1973 39.6479 26.1983 39.6486C26.1992 39.6492 26.2001 39.6496 26.201 39.6502C26.2011 39.6503 26.2012 39.6504 26.2014 39.6505C26.2252 39.667 26.2498 39.6821 26.2754 39.696C26.2789 39.6979 26.282 39.7004 26.2856 39.7022C26.2857 39.7022 26.2857 39.7023 26.2858 39.7023C26.2879 39.7034 26.2899 39.7048 26.2921 39.7059C26.2937 39.7067 26.2955 39.7072 26.2971 39.7079C26.2983 39.7085 26.2995 39.7089 26.3007 39.7094C26.3036 39.7108 26.3067 39.7117 26.3095 39.7132C26.3229 39.7195 26.337 39.7247 26.3507 39.7303C26.3636 39.7357 26.3761 39.7418 26.3892 39.7465C26.3898 39.7467 26.3903 39.747 26.3909 39.7471C26.3931 39.7479 26.395 39.749 26.3973 39.7498C26.4 39.7508 26.4027 39.7519 26.4054 39.7527C26.4065 39.753 26.4076 39.7532 26.4087 39.7535C26.4121 39.7546 26.4158 39.7551 26.4193 39.7561C26.4206 39.7565 26.422 39.7567 26.4234 39.7571C26.4419 39.7627 26.461 39.7667 26.4801 39.7709C26.4876 39.7726 26.4947 39.7749 26.5023 39.7763C26.5034 39.7765 26.5044 39.7769 26.5055 39.7771C26.508 39.7776 26.5103 39.7785 26.5128 39.7789C26.5168 39.7796 26.5208 39.7808 26.5249 39.7814C26.5281 39.7819 26.5315 39.7817 26.5347 39.7822C26.5353 39.7823 26.5358 39.7822 26.5364 39.7823C26.5366 39.7823 26.5367 39.7823 26.5369 39.7823C26.5731 39.7875 26.6099 39.7912 26.6473 39.7912C26.6475 39.7912 26.6477 39.7912 26.648 39.7912C26.6481 39.7912 26.6482 39.7912 26.6482 39.7912H26.6483C26.6484 39.7912 26.6485 39.7912 26.6486 39.7912C26.6861 39.7912 26.7229 39.7875 26.7592 39.7823C26.7593 39.7823 26.7595 39.7823 26.7596 39.7823C26.7602 39.7822 26.7608 39.7823 26.7614 39.7822C26.7646 39.7817 26.768 39.7819 26.7713 39.7814C26.7754 39.7807 26.7793 39.7796 26.7835 39.7789C26.7859 39.7785 26.7882 39.7776 26.7906 39.7771C26.7917 39.7769 26.7927 39.7765 26.7938 39.7763C26.8014 39.7749 26.8088 39.7725 26.8165 39.7708C26.8352 39.7667 26.8541 39.7627 26.8725 39.7572C26.8738 39.7568 26.875 39.7567 26.8763 39.7563C26.8799 39.7552 26.8837 39.7547 26.8873 39.7536C26.8884 39.7532 26.8896 39.7531 26.8906 39.7528C26.8935 39.752 26.8962 39.7508 26.899 39.7498C26.9012 39.749 26.9031 39.7479 26.9053 39.7471C26.9059 39.747 26.9064 39.7467 26.907 39.7465C26.9209 39.7415 26.9341 39.7351 26.9477 39.7295C26.9604 39.7242 26.9734 39.7194 26.9857 39.7135C26.9888 39.7121 26.992 39.7112 26.995 39.7097C26.9962 39.7091 26.9975 39.7087 26.9987 39.7081C27.0004 39.7074 27.0022 39.7069 27.0038 39.706C27.0061 39.7048 27.0082 39.7034 27.0104 39.7023C27.0104 39.7023 27.0105 39.7023 27.0105 39.7022C27.0141 39.7004 27.0174 39.6977 27.021 39.6958C27.0464 39.682 27.0709 39.667 27.0946 39.6506C27.0965 39.6493 27.0986 39.6483 27.1006 39.6469C27.1011 39.6465 27.1017 39.6464 27.1022 39.646C27.1044 39.6443 27.1071 39.6432 27.1093 39.6415L42.4768 28.4772C43.1768 27.9681 43.4672 27.0722 43.1996 26.2478ZM36.5864 10.9645L39.6002 20.2433H33.5726L36.5864 10.9645ZM39.0725 21.8123L37.8427 23.388L28.7723 35.0098L33.0629 21.8122H39.0725V21.8123ZM25.9019 39.2494C25.9019 39.2493 25.9019 39.2493 25.9019 39.2494C25.9027 39.2517 25.904 39.2539 25.9048 39.2563C25.904 39.2539 25.9027 39.2517 25.9019 39.2494ZM24.5259 35.0106L14.2314 21.8123H20.2414L24.5259 35.0106ZM16.7119 10.9644L19.7312 20.2433H13.7035L16.7119 10.9644ZM11.744 27.2083C11.5951 27.0999 11.5334 26.9087 11.5904 26.7331L12.9133 22.6736L22.606 35.1004L11.744 27.2083ZM26.1598 39.6209C26.1568 39.6185 26.1538 39.6158 26.1509 39.6132C26.1503 39.6128 26.1497 39.6121 26.149 39.6116C26.1431 39.6067 26.1373 39.6016 26.1316 39.5965C26.1204 39.5868 26.1094 39.5769 26.0989 39.5665C26.0998 39.5673 26.1008 39.568 26.1017 39.5687C26.1028 39.5698 26.1041 39.5707 26.1053 39.5718C26.1278 39.5933 26.1515 39.6135 26.1762 39.6322C26.1765 39.6324 26.1767 39.6327 26.177 39.6329C26.1782 39.6338 26.1792 39.6349 26.1804 39.6358C26.1735 39.6309 26.1664 39.6261 26.1598 39.6209ZM26.6485 36.4677L24.1273 28.7015L21.8908 21.8123H31.413L26.6485 36.4677ZM27.1644 39.5964C27.1586 39.6016 27.1529 39.6067 27.1469 39.6116C27.1462 39.6122 27.1455 39.6128 27.1448 39.6134C27.1418 39.6159 27.1389 39.6185 27.136 39.621C27.1295 39.6262 27.1224 39.6309 27.1156 39.6359C27.1168 39.6351 27.1178 39.6339 27.1191 39.6331C27.1193 39.6329 27.1195 39.6327 27.1196 39.6325C27.1444 39.6138 27.168 39.5938 27.1903 39.5723C27.1912 39.5714 27.1923 39.5707 27.1931 39.5699C27.1943 39.5688 27.1956 39.568 27.1967 39.5669C27.1863 39.5771 27.1754 39.5868 27.1644 39.5964ZM41.5544 27.2081L30.6939 35.098L40.3898 22.6746L41.7073 26.7323C41.7645 26.9087 41.703 27.1 41.5544 27.2081Z" fill="black"/>
<path d="M80.354 16.4802H78.2123L78.2222 32.4444H86.8969V30.4697H80.3638L80.354 16.4802Z" fill="black"/>
<path d="M95.1519 29.643C94.6115 30.2029 93.7175 30.7629 92.4993 30.7629C90.8685 30.7629 90.2103 29.9573 90.2103 28.9062C90.2103 27.3245 91.3106 26.568 93.6488 26.568C94.0908 26.568 94.7982 26.6171 95.1617 26.6859V29.643H95.1519ZM92.9316 19.9662C91.2025 19.9662 89.611 20.5753 88.3732 21.6068L89.1297 22.9233C90.004 22.4124 91.0748 21.9015 92.6172 21.9015C94.3757 21.9015 95.1519 22.8054 95.1519 24.3183V25.0944C94.808 25.0256 94.1007 24.9765 93.6684 24.9765C89.9156 24.9765 88.0097 26.2929 88.0097 29.0437C88.0097 31.5096 89.5226 32.7474 91.8116 32.7474C93.354 32.7474 94.8375 32.0401 95.3483 30.8906L95.7413 32.4527H97.2542V24.279C97.2444 21.6952 96.1244 19.9662 92.9316 19.9662Z" fill="black"/>
<path d="M104.164 30.8361C103.359 30.8361 102.652 30.7379 102.121 30.4923V23.8806V23.1143C102.848 22.5052 103.752 22.0631 104.901 22.0631C106.974 22.0631 107.77 23.5269 107.77 25.8946C107.77 29.2544 106.483 30.8361 104.164 30.8361ZM105.068 19.9706C103.153 19.9706 102.121 21.2772 102.121 21.2772V19.2141L102.111 16.483H101.148H100.019L100.029 32.0543C101.08 32.4964 102.514 32.7322 104.076 32.7322C108.074 32.7322 110 30.1779 110 25.7668C109.99 22.2793 108.212 19.9706 105.068 19.9706Z" fill="black"/>
<path d="M57.0356 18.2122C58.9317 18.2122 60.1597 18.8409 60.9555 19.4795L61.8789 17.8782C60.6313 16.7779 58.9415 16.1884 57.1339 16.1884C52.5755 16.1884 49.3826 18.9686 49.3826 24.5782C49.3826 30.4531 52.8309 32.7421 56.7704 32.7421C58.745 32.7421 60.425 32.2804 61.5253 31.8186L61.4761 25.541V24.8042V23.5663H55.6308V25.541H59.364L59.4131 30.3057C58.9219 30.5513 58.077 30.7478 56.9276 30.7478C53.7642 30.7478 51.6422 28.7535 51.6422 24.5586C51.6324 20.2851 53.8231 18.2122 57.0356 18.2122Z" fill="black"/>
<path d="M72.1183 16.4779H70.0258L70.0356 19.1599V20.2602V20.8988V22.0187V28.4044V28.4241C70.0356 31.0078 71.1556 32.7369 74.3484 32.7369C74.7905 32.7369 75.2228 32.6976 75.6354 32.619V30.7426C75.3308 30.7917 75.0066 30.8113 74.6628 30.8113C72.9043 30.8113 72.1282 29.9075 72.1282 28.3946V22.0089H75.6354V20.2602H72.1282L72.1183 16.4779Z" fill="black"/>
<path d="M64.7042 32.4444H66.7967V20.2625H64.7042V32.4444Z" fill="black"/>
<path d="M64.7042 18.5825H66.7967V16.4899H64.7042V18.5825Z" fill="black"/>
</svg>
