<svg width="120" height="48" viewBox="0 0 120 48" fill="none" xmlns="http://www.w3.org/2000/svg">
<path fill-rule="evenodd" clip-rule="evenodd" d="M25.3996 35.1389C25.3827 35.1356 25.3659 35.1318 25.3493 35.1274L20.8544 33.953C20.5963 33.8845 20.3744 33.7285 20.2245 33.5122L13.1353 23.266C13.0632 23.162 13.016 23.0388 12.9994 22.9129C12.9827 22.7842 12.9994 22.6528 13.0438 22.5324C13.0882 22.4147 13.1631 22.3052 13.2574 22.2176C13.3601 22.1273 13.4766 22.0643 13.6042 22.0342L14.6558 21.7604L11.6259 20.6189C11.2319 20.4711 10.9017 20.2083 10.6742 19.8579L7.88503 15.5972C6.27458 13.2878 7.26127 10.3648 7.74142 8.94375L7.81078 8.73844L8.51 6.57583C8.57659 6.37052 8.7181 6.20083 8.90955 6.09952C9.10377 5.99552 9.32574 5.9736 9.53384 6.03108L13.0798 7.00562C15.1664 7.58051 17.0143 8.84791 18.2851 10.5752L19.1147 11.703C19.4671 12.1821 19.6252 12.7707 19.5614 13.3592L19.2812 15.9269L19.8611 15.3301C19.9526 15.2344 20.0719 15.1605 20.1996 15.1194C20.3244 15.0783 20.4632 15.0701 20.5991 15.0948C20.724 15.1166 20.8488 15.1714 20.9543 15.2535C21.0625 15.3384 21.1457 15.4452 21.1984 15.5683L27.483 29.9508C27.5885 30.1944 27.6023 30.4682 27.5191 30.72L26.2524 34.564L29.0923 40H28.0796L25.3996 35.1389ZM24.4459 33.4089L20.0886 25.5052C20.0719 25.4752 20.0608 25.4423 20.0581 25.4067C20.0553 25.3711 20.0581 25.3383 20.0664 25.3054C20.0775 25.2726 20.0941 25.2424 20.1136 25.2151C20.1358 25.1877 20.1635 25.1658 20.194 25.1494L20.8461 24.799C20.8766 24.7826 20.9127 24.7716 20.9459 24.7689C20.982 24.7661 21.0181 24.7689 21.0514 24.7798C21.0722 24.7867 21.0931 24.7957 21.1119 24.8069C21.1231 24.8135 21.1336 24.8209 21.143 24.8291C21.1707 24.851 21.1929 24.8784 21.2095 24.9112L25.3164 32.7724L26.0985 30.4025L20.2467 17.0082L19.037 18.2538C18.9232 18.3715 18.7706 18.4563 18.6014 18.4864C18.4294 18.5193 18.2573 18.4974 18.1019 18.4262C17.9493 18.355 17.8217 18.2401 17.7357 18.0922C17.6524 17.9444 17.6164 17.7775 17.6358 17.6104L18.1186 13.2086C18.1436 12.9732 18.0825 12.7378 17.941 12.5489L17.1114 11.4211C16.0321 9.95384 14.4616 8.87531 12.6914 8.38804L9.71142 7.56955L9.11765 9.39814L9.11709 9.39974C8.69577 10.6494 7.93108 12.9174 8.97634 14.6235C8.98293 14.6325 8.98934 14.6418 8.99556 14.6513L9.09883 14.8089C9.11933 14.8378 9.1404 14.8665 9.16204 14.8949L9.15743 14.8983L11.8978 19.0805C11.9561 19.1708 12.0477 19.242 12.1476 19.2803L16.7673 21.0186C17.1364 21.1582 17.3694 21.5114 17.3472 21.9C17.3278 22.2887 17.0559 22.6172 16.6758 22.7158L14.8445 23.1948L21.3538 32.6006L24.4459 33.4089Z" fill="black"/>
<path d="M45.6847 32.8717V18.3359H40.5627V32.7622C40.5627 33.17 40.4462 33.4657 40.2186 33.6491C39.9967 33.838 39.5805 33.9338 38.9673 33.9338C38.8729 33.9338 38.7841 33.9311 38.6981 33.9256C38.6066 33.9202 38.4956 33.9092 38.3735 33.8982V37.6321C38.5511 37.643 38.7259 37.654 38.9034 37.6595C39.0727 37.665 39.2447 37.6677 39.414 37.6677C40.6681 37.6677 41.7669 37.5253 42.7075 37.2379C43.6481 36.9532 44.3778 36.4604 44.8967 35.7652C45.4211 35.0699 45.6847 34.1036 45.6847 32.8717Z" fill="black"/>
<path d="M41.3424 16.1953C41.8362 16.6442 42.43 16.8714 43.1237 16.8714C43.8229 16.8714 44.4167 16.6469 44.905 16.1953C45.3989 15.7436 45.6458 15.2016 45.6458 14.5664C45.6458 13.9314 45.3989 13.3894 44.905 12.9377C44.4167 12.486 43.8173 12.2616 43.1237 12.2616C42.43 12.2616 41.8362 12.486 41.3424 12.9377C40.8457 13.3894 40.5988 13.9314 40.5988 14.5664C40.5988 15.2016 40.8485 15.7436 41.3424 16.1953Z" fill="black"/>
<path fill-rule="evenodd" clip-rule="evenodd" d="M50.6652 31.7904C51.7667 32.3625 53.0791 32.65 54.5996 32.65V32.6527C55.9176 32.6527 57.0691 32.4584 58.0513 32.0669C59.039 31.6727 59.8354 31.117 60.4347 30.4025C61.034 29.6826 61.4141 28.834 61.5751 27.8567H56.8998C56.8027 28.114 56.6445 28.3467 56.4364 28.5328C56.2256 28.7163 55.9731 28.8559 55.6762 28.9544C55.3848 29.0503 55.063 29.0995 54.7106 29.0995C54.2028 29.0995 53.77 29.0009 53.4121 28.7984C53.0597 28.6068 52.7739 28.3166 52.5852 27.9662C52.3938 27.6131 52.2967 27.2107 52.2967 26.759V26.5372H61.5751V25.3657C61.5751 24.2488 61.4058 23.2442 61.0729 22.3545C60.7399 21.4648 60.2627 20.7066 59.6439 20.0852C59.0252 19.4555 58.2788 18.9765 57.4075 18.648C56.5363 18.3168 55.5624 18.1525 54.4858 18.1525C53.0125 18.1525 51.7362 18.4563 50.6541 19.0586C49.572 19.6608 48.734 20.5067 48.1402 21.5935C47.5465 22.6802 47.2496 23.8902 47.2496 25.4012C47.2496 26.9123 47.5437 28.2126 48.1319 29.2993C48.7257 30.3806 49.5692 31.2101 50.6652 31.7904ZM52.2967 23.756C52.3078 23.3482 52.416 22.9895 52.6213 22.6857C52.8322 22.3791 53.1207 22.1328 53.4565 21.9712C53.8033 21.7933 54.1695 21.7057 54.5968 21.7057C55.0241 21.7057 55.4043 21.7933 55.7372 21.9712C56.0674 22.1355 56.3476 22.3846 56.5446 22.6939C56.75 22.9978 56.8554 23.3536 56.861 23.756H52.2967Z" fill="black"/>
<path d="M68.2647 32.3954V24.4869L68.262 24.4842C68.2703 24.0188 68.3563 23.6219 68.5228 23.2934C68.6893 22.9567 68.9279 22.7021 69.2359 22.5242C69.5522 22.3408 69.9184 22.2504 70.3402 22.2504C70.9839 22.2504 71.4861 22.4475 71.844 22.8444C72.2103 23.2414 72.3879 23.7889 72.3823 24.4842V32.3927H77.5043V23.4221C77.5098 22.4038 77.3045 21.4977 76.8911 20.7038C76.4832 19.9099 75.9061 19.2885 75.157 18.8369C74.4161 18.3797 73.5782 18.1498 72.5321 18.1498C71.4861 18.1498 70.5705 18.4043 69.7852 18.9108C69.0056 19.4172 68.459 20.118 68.151 21.0076H68.0039V18.3359H63.1427V32.3954H68.2647Z" fill="black"/>
<path d="M84.6296 32.3954V24.4869L84.6268 24.4842C84.6351 24.0188 84.7211 23.6219 84.8876 23.2934C85.0541 22.9567 85.2927 22.7021 85.6007 22.5242C85.917 22.3408 86.2833 22.2504 86.705 22.2504C87.3487 22.2504 87.851 22.4475 88.2089 22.8444C88.5751 23.2414 88.7527 23.7889 88.7472 24.4842V32.3927H93.8691V23.4221C93.8747 22.4038 93.6694 21.4977 93.256 20.7038C92.8481 19.9099 92.271 19.2885 91.5218 18.8369C90.781 18.3797 89.943 18.1498 88.897 18.1498C87.851 18.1498 86.9353 18.4043 86.1501 18.9108C85.3732 19.4172 84.8266 20.118 84.5186 21.0076H84.3688V18.3359H79.5076V32.3954H84.6296Z" fill="black"/>
<path d="M101 18.3359H95.878V32.3954H101V18.3359Z" fill="black"/>
<path d="M96.6549 16.1953C97.1488 16.6469 97.7426 16.8714 98.4362 16.8714C99.1354 16.8714 99.7292 16.6469 100.218 16.1953C100.711 15.7436 100.958 15.2016 100.958 14.5664C100.958 13.9314 100.711 13.3894 100.218 12.9377C99.7292 12.486 99.1299 12.2616 98.4362 12.2616C97.7426 12.2616 97.1488 12.486 96.6549 12.9377C96.161 13.3894 95.9141 13.9314 95.9141 14.5664C95.9141 15.2016 96.161 15.7436 96.6549 16.1953Z" fill="black"/>
</svg>
