<svg width="120" height="48" viewBox="0 0 120 48" fill="none" xmlns="http://www.w3.org/2000/svg">
<g clip-path="url(#clip0_8878_33694)">
<path d="M9 14.9H13.0821V29.3857H20.5042V33.1H9V14.9Z" fill="black"/>
<path d="M22.1741 20.6571H26.0707V33.1H22.1741V20.6571ZM24.2152 14.5286C25.5141 14.5286 26.4418 15.4571 26.4418 16.7571C26.4418 18.0571 25.3285 18.9857 24.2152 18.9857C23.1019 18.9857 21.9886 18.0571 21.9886 16.7571C21.9886 15.4571 22.9163 14.5286 24.2152 14.5286Z" fill="black"/>
<path d="M42.2137 14.9H45.9247V25.8572L50.3779 20.6572H55.0167L50.0068 26.4143L55.0167 33.1H50.1924L46.1102 26.9715H45.9247V33.1H42.2137V14.9Z" fill="black"/>
<path d="M28.1118 20.6572H31.8228V22.3286C32.565 21.0286 34.0494 20.2858 35.5338 20.2858C39.4304 20.2858 40.1726 22.8858 40.1726 26.2286V33.1001H36.276V27.1572C36.276 25.6715 36.276 23.8143 34.235 23.8143C32.1939 23.8143 32.0083 25.3001 32.0083 26.9715V33.1001H28.1118V20.6572Z" fill="black"/>
<path d="M63.1809 25.4858C63.1809 24.1858 62.2532 23.0715 60.9543 23.0715H60.7688C59.2844 23.0715 58.1711 24.0001 57.9855 25.4858H63.1809ZM66.5209 31.0572C65.222 32.5429 63.3665 33.4715 61.3254 33.4715C57.4289 33.4715 54.46 30.8715 54.46 26.9715C54.46 23.0715 57.2433 20.2858 61.1399 20.2858C64.6654 20.2858 67.0775 22.8858 67.0775 26.7858V28.0858H58.1711C58.3566 29.5715 59.6555 30.5001 61.1399 30.5001C62.2532 30.5001 63.3665 29.9429 63.9231 29.0143L66.5209 31.0572Z" fill="black"/>
<path d="M75.0562 23.8143C73.2007 23.8143 71.9019 25.1143 71.9019 26.9715C71.9019 28.8286 73.0152 30.1286 75.0562 30.1286C77.0973 30.1286 78.2106 28.8286 78.2106 26.9715C78.2106 25.1143 76.9117 23.8143 75.0562 23.8143ZM81.7361 33.1H78.2106V31.4286C77.2828 32.7286 75.984 33.2857 74.314 33.4715C70.603 33.4715 68.1908 30.8715 68.1908 26.9715C68.1908 23.4429 70.2319 20.2857 73.7574 20.2857C75.4273 20.2857 76.9117 20.6572 77.6539 21.9572V14.9H81.5505L81.7361 33.1Z" fill="black"/>
<path d="M109.569 11H87.4881C86.3748 11 85.6326 11.7429 85.6326 12.8571V35.1429C85.6326 36.2571 86.5604 37 87.4881 37H109.569C110.682 37 111.424 36.2571 111.424 35.1429V12.8571C111.424 11.7429 110.682 11 109.569 11ZM93.2402 33.1H89.3437V20.6571H93.2402V33.1ZM91.3847 18.9857C90.0859 18.9857 89.1581 18.0571 89.1581 16.7571C89.1581 15.4571 90.0859 14.5286 91.3847 14.5286C92.6836 14.5286 93.6113 15.4571 93.6113 16.7571C93.6113 18.0571 92.498 18.9857 91.3847 18.9857ZM107.713 33.1H103.817V27.1571C103.817 25.6714 103.817 23.8143 101.776 23.8143C99.7345 23.8143 99.549 25.3 99.549 26.9714V33.1H95.6524V20.6571H99.3634V22.3286C100.106 21.0286 101.59 20.2857 103.074 20.2857C106.971 20.2857 107.713 22.8857 107.713 26.2286V33.1Z" fill="black"/>
</g>
<defs>
<clipPath id="clip0_8878_33694">
<rect width="102.424" height="26" fill="white" transform="translate(9 11)"/>
</clipPath>
</defs>
</svg>
