<svg width="24" height="24" viewBox="0 0 24 24" fill="none" xmlns="http://www.w3.org/2000/svg">
<g clip-path="url(#clip0_10145_28352)">
<path fill-rule="evenodd" clip-rule="evenodd" d="M12.0005 0C8.33511 0 5.28997 1.03487 3.16243 3.16242C1.03487 5.28998 0 8.33512 0 12.0005C0 15.6659 1.03487 18.7111 3.16243 20.8387C5.28997 22.9661 8.33511 24.001 12.0005 24.001C16.6629 24.001 20.2976 22.3179 22.3095 18.944C22.6733 18.3341 22.4738 17.5448 21.8638 17.1812C21.254 16.8175 20.4648 17.0171 20.101 17.627C18.6775 20.0139 16.0302 21.4296 12.0005 21.4296C8.80843 21.4296 6.49618 20.5358 4.9807 19.0203C3.46522 17.5049 2.57143 15.1926 2.57143 12.0005C2.57143 8.80843 3.46522 6.49617 4.9807 4.98069C6.49618 3.46523 8.80843 2.57143 12.0005 2.57143C12.9006 2.57143 13.7324 2.64292 14.4959 2.77943C15.1949 2.90442 15.8628 2.43907 15.9878 1.74009C16.1128 1.04109 15.6475 0.373128 14.9485 0.248144C14.0202 0.0821685 13.0359 0 12.0005 0ZM19.0181 1.73606C18.4114 1.36717 17.6204 1.55998 17.2515 2.16673C16.8827 2.77346 17.0755 3.56437 17.6822 3.93326C18.8237 4.62727 19.7126 5.58373 20.3391 6.80389C20.6635 7.43553 21.4385 7.6846 22.0702 7.36021C22.7018 7.03581 22.9508 6.26078 22.6265 5.62914C21.7868 3.99407 20.5719 2.68074 19.0181 1.73606ZM23.885 9.94789C23.8022 9.24266 23.1632 8.73818 22.458 8.82112C21.7527 8.90404 21.2482 9.54295 21.3312 10.2482C21.3962 10.8004 21.4296 11.3845 21.4296 12.0005C21.4296 12.8742 21.3622 13.6835 21.2335 14.4284C21.1124 15.1281 21.5816 15.7934 22.2814 15.9144C22.981 16.0353 23.6463 15.5662 23.7674 14.8665C23.9235 13.9623 24.001 13.0055 24.001 12.0005C24.001 11.2916 23.9624 10.6069 23.885 9.94789ZM13.2865 8.14319C13.2865 7.4331 12.7109 6.85747 12.0008 6.85747C11.2907 6.85747 10.7151 7.4331 10.7151 8.14319V12.4291C10.7151 12.7363 10.825 13.0333 11.0251 13.2664L14.5595 17.3852C15.0219 17.924 15.8336 17.9861 16.3725 17.5236C16.9114 17.0613 16.9733 16.2495 16.5109 15.7107L13.2865 11.9531V8.14319Z" fill="black"/>
</g>
<defs>
<clipPath id="clip0_10145_28352">
<rect width="24" height="24" fill="white"/>
</clipPath>
</defs>
</svg>
