<svg width="120" height="48" viewBox="0 0 120 48" fill="none" xmlns="http://www.w3.org/2000/svg">
<path d="M59.6633 2C52.6985 2 46.7839 6.69849 44.9598 13.1106C43.3568 9.73869 39.9296 7.36181 35.9497 7.36181C30.4774 7.36181 26 11.8392 26 17.3116C26 22.7839 30.4774 27.2613 35.9497 27.2613C39.9296 27.2613 43.3568 24.8844 44.9598 21.5126C46.7839 27.9246 52.6985 32.6231 59.6633 32.6231C66.5729 32.6231 72.4322 27.9799 74.3116 21.6784C75.9146 24.995 79.3417 27.3166 83.2663 27.3166C88.7387 27.3166 93.2161 22.8392 93.2161 17.3668C93.2161 11.8945 88.7387 7.41709 83.2663 7.41709C79.3417 7.41709 75.9698 9.73869 74.3116 13.0553C72.4322 6.64322 66.5729 2 59.6633 2ZM59.6633 7.80402C64.9146 7.80402 69.1156 12.005 69.1156 17.2563C69.1156 22.5075 64.9146 26.7085 59.6633 26.7085C54.4121 26.7085 50.2111 22.5075 50.2111 17.2563C50.2111 12.005 54.4121 7.80402 59.6633 7.80402ZM35.9497 13.1658C38.2714 13.1658 40.0402 14.9899 40.0402 17.2563C40.0402 19.5779 38.2161 21.3467 35.9497 21.3467C33.6281 21.3467 31.8593 19.5226 31.8593 17.2563C31.8593 14.9899 33.6834 13.1658 35.9497 13.1658ZM83.2663 13.1658C85.5879 13.1658 87.3568 14.9899 87.3568 17.2563C87.3568 19.5779 85.5327 21.3467 83.2663 21.3467C80.9447 21.3467 79.1759 19.5226 79.1759 17.2563C79.1206 14.9899 80.9447 13.1658 83.2663 13.1658Z" fill="black"/>
<path d="M33.0201 37.1558C32.799 37.1558 32.7437 37.2663 32.7437 37.4874V45.5578C32.7437 45.7789 32.8543 45.8342 33.0201 45.8342H33.2412C33.4623 45.8342 33.5176 45.7236 33.5176 45.5578V38.8141L37.8844 45.613C37.8844 45.6683 37.9397 45.6683 37.9397 45.6683C37.9397 45.6683 37.995 45.6683 37.995 45.7236C37.995 45.7236 37.995 45.7236 38.0503 45.7236C38.1056 45.7236 38.1056 45.7236 38.1608 45.7236H38.3819C38.603 45.7236 38.6583 45.613 38.6583 45.4472V37.4874C38.6583 37.2663 38.5478 37.1558 38.3819 37.1558H38.1608C37.9397 37.1558 37.8292 37.2663 37.8292 37.4874V44.1759L33.4623 37.3769L33.4071 37.3216C33.3518 37.2663 33.2965 37.211 33.186 37.211L33.0201 37.1558ZM85.7538 37.2663C85.5327 37.2663 85.6432 37.3769 85.6432 37.598V40.3618C85.6432 40.6382 85.6432 40.8593 85.6432 40.8593C85.6432 40.8593 85.0905 39.6432 83.6533 39.6432C82.0503 39.6432 80.8895 40.9146 80.9448 42.794C80.9448 44.6733 81.995 46 83.598 46C85.201 46 85.6985 44.7286 85.6985 44.7286H85.7538C85.7538 44.7286 85.6985 44.8945 85.6985 45.1156V45.613C85.6985 45.8342 85.8091 45.8894 86.0302 45.8894H86.2513C86.4724 45.8894 86.5277 45.7789 86.5277 45.5578V37.598C86.5277 37.3769 86.196 37.2663 86.0302 37.2663H85.7538ZM64.196 37.3216C63.9749 37.3216 64.1407 37.4321 64.1407 37.6533V44.4522C64.1407 45.7789 65.0252 45.9447 65.5226 45.9447C65.7437 45.9447 65.8543 45.8342 65.8543 45.613V45.3919C65.8543 45.1708 65.7437 45.1156 65.5779 45.1156C65.3015 45.0603 64.9146 45.005 64.9146 44.2311V37.598C64.9146 37.3769 64.5829 37.2663 64.4171 37.2663L64.196 37.3216ZM54.2463 38.0402C54.0252 38.0402 53.9146 38.1507 53.9146 38.3718V39.809V40.5276V43.6784C53.9146 45.1156 54.7437 45.9447 56.0704 45.9447C56.3468 45.9447 56.402 45.8894 56.402 45.6683V45.5025C56.402 45.2814 56.3468 45.2261 56.0704 45.1708C55.5729 45.1156 54.7437 44.9497 54.7437 43.5678V40.5276H56.0151C56.2362 40.5276 56.3468 40.4723 56.3468 40.2512V40.1407C56.3468 39.9196 56.2362 39.809 56.0151 39.809H54.7437V38.3718C54.7437 38.1507 54.6885 38.0402 54.4674 38.0402H54.2463ZM43.191 39.5879C41.5327 39.5879 40.2061 40.804 40.1508 42.794C40.1508 44.6733 41.5327 46 43.3568 46C44.3518 46 45.0704 45.5578 45.402 45.3367C45.5679 45.2261 45.5679 45.0603 45.5126 44.9497L45.402 44.8392C45.2915 44.6734 45.1809 44.6181 45.0151 44.7286C44.7387 44.9497 44.186 45.2814 43.4121 45.2814C42.1407 45.2814 41.0905 44.397 41.0352 42.8492H45.4573C45.6231 42.8492 45.789 42.6834 45.789 42.5176C45.7337 40.7487 44.8493 39.5879 43.191 39.5879ZM60.4372 39.5879C58.6131 39.5879 57.2312 40.9146 57.2312 42.794C57.2312 44.6733 58.6131 46 60.4372 46C61.5427 46 62.3166 45.4472 62.593 45.2261C62.7588 45.0603 62.7588 44.9497 62.6483 44.7839L62.5377 44.6733C62.4272 44.5075 62.3166 44.4522 62.1508 44.5628C61.8744 44.8392 61.3216 45.2261 60.4372 45.2261C59.1106 45.2261 58.0603 44.2311 58.0603 42.794C58.0603 41.3015 59.1106 40.3065 60.4372 40.3065C61.1558 40.3065 61.7086 40.6934 61.985 40.8593C62.1508 40.9698 62.3166 40.9698 62.4272 40.804L62.5377 40.6382C62.7035 40.4723 62.6483 40.3065 62.4824 40.196C62.1508 40.0301 61.4875 39.5879 60.4372 39.5879ZM69.7789 39.5879C68.0101 39.5879 66.5729 40.9698 66.5729 42.7387C66.5729 44.5628 68.0101 45.9447 69.7789 45.9447C71.5478 45.9447 72.985 44.5628 72.985 42.7387C73.0402 40.9698 71.5478 39.5879 69.7789 39.5879ZM51.8694 39.6985C51.8141 39.6985 51.7588 39.7537 51.6483 39.809L50.5427 41.1357L49.7136 42.1306L48.4422 40.6382L47.7236 39.809C47.6684 39.7537 47.6131 39.6985 47.5025 39.6985C47.4473 39.6985 47.3367 39.6985 47.2814 39.809L47.1156 39.9749C46.9498 40.0854 46.9498 40.2512 47.1156 40.3618L48.2211 41.6884L49.1608 42.794L47.7789 44.397L47.1156 45.2261C47.0051 45.3919 47.0051 45.5578 47.1709 45.6683L47.3367 45.8342C47.5025 45.9447 47.6131 45.9447 47.7236 45.7789L48.8292 44.4522L49.6583 43.4573L50.9297 44.9497L51.593 45.7789C51.7035 45.9447 51.8694 45.9447 52.0352 45.8342L52.201 45.6683C52.3669 45.5578 52.3669 45.3919 52.201 45.2814L51.0955 43.9548L50.1558 42.8492L51.5377 41.2462L52.201 40.4171C52.3116 40.2512 52.3116 40.0854 52.1458 39.9749L51.9799 39.809C51.9799 39.6985 51.9247 39.6432 51.8694 39.6985ZM74.6432 39.6985C74.4221 39.6985 74.3669 39.809 74.3669 40.0301V43.6231C74.3669 45.2261 75.5277 46 76.9649 46C78.402 46 79.5628 45.2261 79.5628 43.6231V40.0301C79.6181 39.809 79.5076 39.6985 79.2865 39.6985H79.0654C78.8442 39.6985 78.7337 39.809 78.7337 40.0301V43.402C78.7337 44.3417 78.1257 45.2261 76.9096 45.2261C75.7488 45.2261 75.0855 44.3417 75.0855 43.402V40.0301C75.0855 39.809 74.9749 39.6985 74.7538 39.6985H74.6432ZM43.191 40.2512C44.0754 40.2512 44.8493 40.9146 44.9046 42.1859H41.0905C41.2563 40.9698 42.1407 40.2512 43.191 40.2512ZM69.7789 40.3065C71.1056 40.3065 72.1558 41.3568 72.1558 42.7387C72.1558 44.1759 71.1056 45.2261 69.7789 45.2261C68.4523 45.2261 67.402 44.1206 67.402 42.7387C67.402 41.412 68.5076 40.3065 69.7789 40.3065ZM83.7086 40.3065C85.0352 40.3065 85.6432 41.5226 85.6432 42.7387C85.6432 44.5075 84.7035 45.2261 83.6533 45.2261C82.4925 45.2261 81.7186 44.2311 81.7186 42.7387C81.7186 41.2462 82.603 40.3065 83.7086 40.3065Z" fill="black"/>
</svg>
