<svg width="120" height="48" viewBox="0 0 120 48" fill="none" xmlns="http://www.w3.org/2000/svg">
<g clip-path="url(#clip0_8878_33800)">
<path fill-rule="evenodd" clip-rule="evenodd" d="M21 11.592H25.6194L35.5696 24.526V11.592H41.2552V35.0457H36.6358L26.6856 22.1463V35.0457H21V11.592ZM48.0069 8.38809C48.6396 8.38809 49.258 8.57568 49.7839 8.92714C50.3099 9.27859 50.7199 9.77813 50.962 10.3626C51.2041 10.947 51.2674 11.5901 51.144 12.2106C51.0205 12.831 50.7159 13.4009 50.2686 13.8482C49.8213 14.2956 49.2514 14.6002 48.6309 14.7236C48.0105 14.847 47.3674 14.7836 46.7829 14.5416C46.1985 14.2995 45.699 13.8895 45.3475 13.3636C44.9961 12.8376 44.8085 12.2192 44.8085 11.5866C44.8066 11.166 44.8879 10.7492 45.048 10.3603C45.2081 9.97137 45.4436 9.618 45.741 9.32061C46.0384 9.02322 46.3918 8.78769 46.7807 8.62764C47.1696 8.46758 47.5864 8.38617 48.0069 8.38809ZM50.8488 17.2722V35.0402H45.1633V17.2776L50.8488 17.2722ZM57.6006 37.1344C58.2326 37.1355 58.8502 37.3238 59.3753 37.6756C59.9004 38.0273 60.3096 38.5269 60.551 39.111C60.7924 39.695 60.8554 40.3376 60.732 40.9575C60.6085 41.5774 60.3042 42.1468 59.8574 42.5939C59.4106 43.041 58.8414 43.3456 58.2216 43.4694C57.6017 43.5932 56.9592 43.5306 56.3749 43.2894C55.7906 43.0483 55.2909 42.6395 54.9388 42.1146C54.5867 41.5897 54.3981 40.9722 54.3967 40.3401C54.3937 39.9185 54.4746 39.5005 54.6346 39.1103C54.7945 38.7202 55.0304 38.3657 55.3285 38.0675C55.6265 37.7693 55.9809 37.5332 56.3709 37.373C56.761 37.2128 57.1789 37.1317 57.6006 37.1344ZM54.7605 17.2776H60.4461V35.0457H54.7605V17.2776ZM72.5632 16.9137C77.1462 16.9137 79.8826 19.1879 81.0907 22.4574L75.476 24.1258C75.0503 22.9541 74.0205 22.2427 72.565 22.2427C70.4673 22.2427 69.0827 23.8074 69.0827 26.1526C69.0827 28.4977 70.4673 30.0606 72.565 30.0606C73.986 30.0606 75.0521 29.493 75.658 28.3195L80.7397 30.6301C79.566 33.0808 76.8297 35.3914 72.4959 35.3914C66.8813 35.3914 63.1497 31.6599 63.217 26.1526C63.2861 20.578 66.9104 16.9228 72.5614 16.9228L72.5632 16.9137ZM91.6448 16.9137C97.3307 16.9137 100.6 21.3184 100.6 26.5073C100.602 26.9946 100.566 27.4812 100.493 27.9629H87.9827C88.3737 29.9169 89.6197 30.7702 91.9976 30.7702C93.7391 30.7702 94.9469 30.2007 95.6585 29.4966L99.2824 32.3039C97.5779 34.2216 94.9833 35.3969 91.8233 35.3969C85.9594 35.3969 82.2281 31.7362 82.2281 26.158C82.2334 20.7599 85.8501 16.9228 91.643 16.9228L91.6448 16.9137ZM94.8782 24.1622C94.594 22.5993 93.3498 21.5331 91.4669 21.5331C89.6907 21.5331 88.483 22.3137 88.0209 24.1622H94.8782Z" fill="black"/>
</g>
<defs>
<clipPath id="clip0_8878_33800">
<rect width="80" height="36" fill="white" transform="translate(21 8)"/>
</clipPath>
</defs>
</svg>
