<svg width="120" height="48" viewBox="0 0 120 48" fill="none" xmlns="http://www.w3.org/2000/svg">
<path fill-rule="evenodd" clip-rule="evenodd" d="M105.032 13.7451H102.809C102.274 13.7451 101.842 14.1499 101.842 14.6503V31.2093C101.842 31.71 102.274 32.1151 102.809 32.1151H105.032C105.567 32.1151 106 31.71 106 31.2093V14.6503C106 14.1499 105.567 13.7451 105.032 13.7451Z" fill="black"/>
<path fill-rule="evenodd" clip-rule="evenodd" d="M57.7924 17.824C53.6351 17.824 50.2642 21.0543 50.2642 25.0366C50.2642 29.0217 53.6351 32.2514 57.7924 32.2514C61.949 32.2514 65.3189 29.0217 65.3189 25.0366C65.3189 21.0543 61.949 17.824 57.7924 17.824ZM57.7924 28.4175C55.8443 28.4175 54.2649 26.9033 54.2656 25.0366C54.2649 23.1708 55.8443 21.6576 57.7924 21.6576C59.7398 21.6576 61.3185 23.1708 61.3185 25.0366C61.3185 26.9033 59.7398 28.4175 57.7924 28.4175Z" fill="black"/>
<path fill-rule="evenodd" clip-rule="evenodd" d="M74.728 17.1967C70.6577 17.1967 67.3437 20.3485 67.2066 24.2851L67.2008 35.1066C67.2008 35.6086 67.6182 36.0151 68.1311 36.0151H70.2692C70.7828 36.0151 71.2009 35.6086 71.2009 35.1066V30.4549C72.648 31.9378 74.9287 31.8757 74.9287 31.8757C78.9922 31.7715 82.2555 28.5281 82.2555 24.5375C82.2555 20.4844 78.885 17.1967 74.728 17.1967ZM76.7631 27.3548C75.1659 28.4488 72.9336 28.0999 71.8119 26.5406C70.6895 24.9801 71.1005 22.8052 72.6987 21.7102C74.2969 20.6155 76.5019 20.991 77.6243 22.5503C78.7469 24.1093 78.3623 26.2602 76.7631 27.3548Z" fill="black"/>
<path fill-rule="evenodd" clip-rule="evenodd" d="M91.6655 17.824C87.5068 17.824 84.1374 21.044 84.1374 25.0162C84.1374 28.9262 87.3996 32.1039 91.4648 32.206C91.4648 32.206 93.7069 32.2655 95.1568 30.8475L95.1928 31.3619C95.236 31.8711 95.6103 32.2514 96.1229 32.2514H98.2617C98.7753 32.2514 99.1921 31.8535 99.1921 31.3619L99.1863 24.769C99.0492 20.9121 95.735 17.824 91.6655 17.824ZM94.5814 26.9789C93.4591 28.5066 91.2273 28.8485 89.63 27.7766C88.0311 26.7041 87.6455 24.5967 88.7685 23.0693C89.8909 21.5415 92.0953 21.1737 93.6946 22.2462C95.2932 23.319 95.7025 25.4499 94.5814 26.9789Z" fill="black"/>
<mask id="mask0_8087_14995" style="mask-type:luminance" maskUnits="userSpaceOnUse" x="12" y="26" width="14" height="3">
<path d="M12 26.8148H25.0135V28.4637H12V26.8148Z" fill="#2A70EA"/>
</mask>
<g mask="url(#mask0_8087_14995)">
<path fill-rule="evenodd" clip-rule="evenodd" d="M24.3098 28.4637H12.7038C12.3151 28.4637 11.9999 28.0948 11.9999 27.6391C11.9999 27.1837 12.3151 26.8148 12.7038 26.8148H24.3098C24.6986 26.8148 25.0134 27.1837 25.0134 27.6391C25.0134 28.0948 24.6986 28.4637 24.3098 28.4637Z" fill="black"/>
</g>
<path fill-rule="evenodd" clip-rule="evenodd" d="M42.6606 28.4877H30.8946C30.5061 28.4877 30.1912 28.2071 30.1912 27.8603C30.1912 27.5138 30.5061 27.2332 30.8946 27.2332H42.6606C43.0491 27.2332 43.3641 27.5138 43.3641 27.8603C43.3641 28.2071 43.0491 28.4877 42.6606 28.4877Z" fill="black"/>
<path fill-rule="evenodd" clip-rule="evenodd" d="M33.2599 31.6242H14.5768C14.193 31.6242 13.8819 31.3436 13.8819 30.9972C13.8819 30.6508 14.193 30.3696 14.5768 30.3696H33.2599C33.6437 30.3696 33.9549 30.6508 33.9549 30.9972C33.9549 31.3436 33.6437 31.6242 33.2599 31.6242Z" fill="black"/>
<path fill-rule="evenodd" clip-rule="evenodd" d="M42.0407 31.6242H36.5327C36.1483 31.6242 35.8367 31.3436 35.8367 30.9972C35.8367 30.6508 36.1483 30.3696 36.5327 30.3696H42.0407C42.4251 30.3696 42.7368 30.6508 42.7368 30.9972C42.7368 31.3436 42.4251 31.6242 42.0407 31.6242Z" fill="black"/>
<path fill-rule="evenodd" clip-rule="evenodd" d="M15.1368 34.7605C15.0956 34.7605 15.0544 34.7565 15.014 34.7485C14.974 34.7405 14.9345 34.7285 14.8964 34.7133C14.8592 34.697 14.8228 34.678 14.7888 34.6548C14.7547 34.6328 14.7224 34.6056 14.6932 34.5772C14.664 34.5483 14.6379 34.5159 14.6147 34.4815C14.5927 34.4475 14.5735 34.4111 14.5575 34.3727C14.5423 34.3357 14.53 34.2965 14.5223 34.2561C14.5131 34.216 14.5091 34.1745 14.5091 34.1335C14.5091 34.092 14.5131 34.0507 14.5223 34.0106C14.53 33.9702 14.5423 33.931 14.5575 33.8938C14.5735 33.8554 14.5927 33.8193 14.6147 33.7849C14.6379 33.7508 14.664 33.7185 14.6932 33.6892C14.7224 33.6612 14.7547 33.6337 14.7888 33.6116C14.8228 33.5887 14.8592 33.5695 14.8964 33.5543C14.9345 33.5383 14.974 33.526 15.014 33.5182C15.0948 33.5019 15.1781 33.5019 15.2596 33.5182C15.2988 33.526 15.3392 33.5383 15.3764 33.5543C15.4145 33.5695 15.4508 33.5887 15.4849 33.6116C15.5192 33.6337 15.5513 33.6612 15.5805 33.6892C15.6088 33.7185 15.6349 33.7508 15.6581 33.7849C15.6801 33.8193 15.7004 33.8554 15.7153 33.8938C15.7316 33.931 15.7437 33.9702 15.7517 34.0106C15.7597 34.0507 15.7637 34.092 15.7637 34.1335C15.7637 34.1745 15.7597 34.216 15.7517 34.2561C15.7437 34.2965 15.7316 34.3357 15.7153 34.3727C15.7004 34.4111 15.6801 34.4475 15.6581 34.4815C15.6349 34.5159 15.6088 34.5483 15.5805 34.5772C15.5513 34.6056 15.5192 34.6328 15.4849 34.6548C15.4508 34.678 15.4145 34.697 15.3764 34.7133C15.3392 34.7285 15.2988 34.7405 15.2596 34.7485C15.2184 34.7565 15.1772 34.7605 15.1368 34.7605Z" fill="black"/>
<path fill-rule="evenodd" clip-rule="evenodd" d="M28.8792 34.7605H18.9571C18.579 34.7605 18.2728 34.4797 18.2728 34.1333C18.2728 33.7868 18.579 33.506 18.9571 33.506H28.8792C29.2573 33.506 29.5639 33.7868 29.5639 34.1333C29.5639 34.4797 29.2573 34.7605 28.8792 34.7605Z" fill="black"/>
<path fill-rule="evenodd" clip-rule="evenodd" d="M40.1547 34.7605H32.146C31.7592 34.7605 31.4457 34.4797 31.4457 34.1333C31.4457 33.7868 31.7592 33.506 32.146 33.506H40.1547C40.5414 33.506 40.8549 33.7868 40.8549 34.1333C40.8549 34.4797 40.5414 34.7605 40.1547 34.7605Z" fill="black"/>
<path fill-rule="evenodd" clip-rule="evenodd" d="M24.4644 37.8969H18.354C17.9624 37.8969 17.6455 37.616 17.6455 37.2696C17.6455 36.9232 17.9624 36.6423 18.354 36.6423H24.4644C24.8557 36.6423 25.1729 36.9232 25.1729 37.2696C25.1729 37.616 24.8557 37.8969 24.4644 37.8969Z" fill="black"/>
<path fill-rule="evenodd" clip-rule="evenodd" d="M37.6264 37.8969H27.7742C27.3769 37.8969 27.0547 37.616 27.0547 37.2696C27.0547 36.9232 27.3769 36.6423 27.7742 36.6423H37.6264C38.0237 36.6423 38.3458 36.9232 38.3458 37.2696C38.3458 37.616 38.0237 37.8969 37.6264 37.8969Z" fill="black"/>
<path fill-rule="evenodd" clip-rule="evenodd" d="M26.9947 41.0334H24.6057C24.2258 41.0334 23.9184 40.7525 23.9184 40.4061C23.9184 40.0597 24.2258 39.7788 24.6057 39.7788H26.9947C27.3743 39.7788 27.682 40.0597 27.682 40.4061C27.682 40.7525 27.3743 41.0334 26.9947 41.0334Z" fill="black"/>
<path fill-rule="evenodd" clip-rule="evenodd" d="M30.1907 41.0334C30.0256 41.0334 29.8647 40.9661 29.7479 40.849C29.719 40.8212 29.6927 40.7889 29.6695 40.7545C29.6475 40.7205 29.6271 40.6841 29.6122 40.6457C29.5959 40.6077 29.5839 40.5684 29.5762 40.5281C29.5679 40.488 29.5639 40.4468 29.5639 40.4067C29.5639 40.2412 29.6303 40.0795 29.7471 39.9627C29.7763 39.9335 29.8083 39.9071 29.8427 39.8842C29.8767 39.8619 29.9131 39.843 29.9511 39.8267C29.9884 39.8115 30.0287 39.7995 30.0679 39.7915C30.1492 39.7746 30.2328 39.7746 30.3135 39.7915C30.3536 39.7995 30.3928 39.8115 30.4312 39.8267C30.4684 39.843 30.5056 39.8619 30.5388 39.8842C30.5728 39.9071 30.6052 39.9335 30.6344 39.9627C30.7512 40.0795 30.8184 40.2412 30.8184 40.4067C30.8184 40.4468 30.8136 40.488 30.8053 40.5281C30.7975 40.5684 30.7852 40.6077 30.7701 40.6457C30.754 40.6841 30.7349 40.7205 30.712 40.7545C30.6896 40.7889 30.6636 40.8212 30.6344 40.849C30.6052 40.8785 30.5728 40.9045 30.5388 40.9277C30.5047 40.9498 30.4684 40.9698 30.4312 40.985C30.3928 41.0013 30.3536 41.0133 30.3135 41.0213C30.2732 41.0294 30.2319 41.0334 30.1907 41.0334Z" fill="black"/>
<path fill-rule="evenodd" clip-rule="evenodd" d="M20.3519 24.1841C20.4493 22.8293 20.9217 21.4706 21.8365 20.261C23.711 17.7823 27.0469 16.7477 29.992 17.7421C32.985 18.7529 34.8042 21.3723 35.0128 24.187C35.0346 24.4831 35.3142 24.724 35.6114 24.724H42.7566C43.0959 24.724 43.3771 24.4436 43.3636 24.1044C43.1274 18.2628 39.6315 12.7307 33.7389 10.2504C26.8325 7.34326 18.6671 9.83159 14.5677 16.1021C12.9278 18.6103 12.1058 21.3704 12.0004 24.1054C11.9876 24.4446 12.2691 24.724 12.6081 24.724H19.7533C20.0518 24.724 20.3304 24.4818 20.3519 24.1841Z" fill="black"/>
<path fill-rule="evenodd" clip-rule="evenodd" d="M27.0547 27.8603C27.0547 27.5138 27.3356 27.2332 27.682 27.2332C28.0285 27.2332 28.3093 27.5138 28.3093 27.8603C28.3093 28.2068 28.0285 28.4877 27.682 28.4877C27.3356 28.4877 27.0547 28.2068 27.0547 27.8603Z" fill="black"/>
</svg>
