<svg width="120" height="48" viewBox="0 0 120 48" fill="none" xmlns="http://www.w3.org/2000/svg">
<path fill-rule="evenodd" clip-rule="evenodd" d="M75.496 11C75.496 11 75.0217 22.8064 67.5345 36.0344H0C7.4873 22.7929 7.96117 11 7.96117 11H75.496ZM16.4775 18.5957C17.9533 18.5957 19.0365 18.8529 19.727 19.3675C20.4175 19.8819 20.6477 20.735 20.4175 21.9129C20.1873 23.1043 19.6187 23.9573 18.7115 24.4853C17.8044 25.0134 16.6129 25.2842 15.1371 25.2842H14.4331L13.7831 28.6013H11.5627L13.4582 18.8529C13.9592 18.7582 14.4872 18.6905 15.0423 18.6499C15.5974 18.6092 16.0713 18.5957 16.4775 18.5957ZM16.2473 20.4913C16.0848 20.4913 15.9224 20.4913 15.7599 20.5048C15.6867 20.5109 15.619 20.5142 15.5568 20.5173L15.5568 20.5173H15.5568H15.5568C15.4809 20.5211 15.4132 20.5244 15.3537 20.5319L14.7986 23.3887H15.5027C16.2744 23.3887 16.8701 23.2804 17.3034 23.0773C17.7366 22.8742 18.0075 22.4815 18.1158 21.9129C18.1699 21.6421 18.1699 21.4119 18.1023 21.2224C18.0345 21.0464 17.9262 20.8974 17.7638 20.7891C17.6013 20.6808 17.3846 20.5996 17.1274 20.5589C16.8701 20.5048 16.5723 20.4913 16.2473 20.4913ZM27.7423 26.6787L27.3767 28.5877H20.7695L22.6921 18.6904H24.9126L23.3555 26.6651H27.7423V26.6787ZM35.7406 27.7041L35.7407 27.7044C35.7867 28.0132 35.8312 28.3122 35.866 28.6013H38.276C38.1135 27.5453 37.951 26.5568 37.7885 25.6498C37.6261 24.7426 37.4636 23.8896 37.3011 23.0908C37.1387 22.2919 36.9626 21.5338 36.7866 20.8162C36.6106 20.0986 36.4211 19.408 36.2315 18.7175H34.1194C33.6454 19.3945 33.1851 20.0986 32.7384 20.8162C32.2915 21.5338 31.8312 22.2919 31.3573 23.0908C30.8834 23.8896 30.396 24.7426 29.8815 25.6498C29.367 26.5568 28.8254 27.5317 28.2432 28.6013H30.5585C30.6414 28.4419 30.7273 28.2794 30.8148 28.114L30.815 28.1136C30.9132 27.928 31.0134 27.7385 31.1136 27.5453C31.2082 27.3628 31.3062 27.1837 31.4042 27.0047L31.4042 27.0045L31.4043 27.0044L31.4044 27.0043C31.5026 26.8247 31.6009 26.6451 31.6958 26.4621H35.5545C35.5816 26.6447 35.6086 26.824 35.6357 27.0032L35.6357 27.0035C35.6628 27.183 35.6899 27.3624 35.717 27.5453L35.7406 27.7041ZM34.3496 21.5338C34.4985 21.2901 34.6068 21.1005 34.688 20.9516L34.7017 21.0191C34.7278 21.1479 34.762 21.3167 34.7963 21.5338C34.8291 21.6812 34.8618 21.8435 34.8976 22.0207L34.8978 22.0214C34.9211 22.1368 34.9456 22.2586 34.9723 22.3867C35.0017 22.5627 35.035 22.7467 35.0701 22.9408C35.0998 23.105 35.1309 23.2764 35.1619 23.4564C35.2296 23.849 35.2973 24.2551 35.365 24.6884H32.5353C32.779 24.2551 33.0091 23.849 33.2393 23.4564C33.3818 23.2133 33.5139 22.9858 33.6388 22.7707C33.7157 22.6383 33.7899 22.5105 33.8621 22.3867C34.0381 22.0618 34.2006 21.7775 34.3496 21.5338ZM46.1559 28.6012C45.7362 27.4639 45.2623 26.3536 44.7343 25.2434C44.2062 24.1332 43.624 23.1042 42.9742 22.1158L41.715 28.6012H39.5216L41.4442 18.7039H43.2585C43.5158 19.0152 43.7865 19.4079 44.0708 19.8547C44.3687 20.315 44.653 20.8025 44.9509 21.3169C45.2488 21.8315 45.5331 22.373 45.8175 22.9281C46.1018 23.4832 46.359 24.0248 46.6027 24.5393L47.74 18.7039H49.9469L48.0244 28.6012H46.1559ZM50.3152 28.5876L50.3126 28.6012V28.5876H50.3152ZM50.3152 28.5876L52.2352 18.7039H58.9101L58.5446 20.5723H54.0901L53.711 22.5084H57.6645L57.3125 24.3363H53.3589L52.8986 26.7192H57.678L57.3125 28.5876H50.3152ZM68.2251 18.7039L67.8594 20.5993H64.8811L63.3239 28.5876H61.1035L62.6605 20.5993H59.6818L60.0474 18.7039H68.2251Z" fill="black"/>
<path fill-rule="evenodd" clip-rule="evenodd" d="M120 11C120 11 119.526 22.8064 112.039 36.0344H67.5345C75.0217 22.7929 75.496 11 75.496 11H120ZM105.946 26.8952C106.257 26.8952 106.528 26.8682 106.745 26.8141C106.961 26.7599 107.138 26.6922 107.273 26.5974C107.408 26.5026 107.517 26.3943 107.598 26.2725C107.666 26.1506 107.72 26.0152 107.747 25.8527C107.814 25.5278 107.706 25.257 107.449 25.0404C107.192 24.8237 106.704 24.5935 106.014 24.3498C105.716 24.2415 105.418 24.1061 105.12 23.9572C104.823 23.8082 104.565 23.6187 104.362 23.4021C104.145 23.1719 103.997 22.9012 103.888 22.5897C103.793 22.2648 103.78 21.8857 103.875 21.4254C103.969 20.965 104.132 20.5588 104.376 20.1932C104.619 19.8277 104.917 19.5163 105.283 19.259C105.649 19.0018 106.068 18.7987 106.541 18.6633C107.016 18.5279 107.53 18.4602 108.099 18.4602C108.762 18.4602 109.331 18.5279 109.778 18.6768C110.238 18.8258 110.604 18.9747 110.888 19.1507L109.9 20.9108C109.656 20.7619 109.372 20.6401 109.047 20.5317C108.735 20.4234 108.329 20.3693 107.855 20.3693C107.327 20.3693 106.921 20.4369 106.663 20.5859C106.406 20.7348 106.244 20.965 106.176 21.2628C106.136 21.4389 106.149 21.6013 106.217 21.7232C106.284 21.845 106.379 21.9534 106.515 22.0617C106.65 22.1565 106.813 22.2512 107.002 22.3325C107.192 22.4137 107.395 22.495 107.625 22.5762C108.099 22.7657 108.518 22.9553 108.857 23.1449C109.196 23.3344 109.48 23.551 109.683 23.7947C109.886 24.0384 110.021 24.3363 110.076 24.6613C110.13 24.9998 110.116 25.3924 110.021 25.8798C109.845 26.8005 109.385 27.5181 108.627 28.0326C107.882 28.5471 106.853 28.7908 105.553 28.7908C105.12 28.7908 104.727 28.7637 104.389 28.7095C104.051 28.6554 103.753 28.5877 103.496 28.52C103.238 28.4388 103.021 28.3575 102.846 28.2763C102.67 28.1951 102.521 28.1138 102.399 28.0326L103.374 26.2589C103.631 26.4214 103.969 26.5703 104.376 26.6922C104.809 26.8276 105.323 26.8952 105.946 26.8952ZM101.194 25.8798C101.586 25.2434 101.87 24.4987 102.033 23.6458C102.209 22.7522 102.223 21.9805 102.06 21.3305C101.911 20.6942 101.641 20.1662 101.221 19.7599C100.815 19.3538 100.273 19.0559 99.623 18.8663C98.9732 18.6768 98.2283 18.582 97.3755 18.582C97.0358 18.582 96.6481 18.601 96.1973 18.623L95.9266 18.6362C95.3719 18.6633 94.8166 18.7309 94.2887 18.8257L92.4204 28.4658C92.9075 28.5606 93.4219 28.6419 93.9504 28.6689C94.4783 28.7095 94.9385 28.7231 95.3445 28.7231C96.2113 28.7231 97.0238 28.6147 97.7681 28.4117C98.513 28.1951 99.1762 27.8836 99.7449 27.4639C100.327 27.0442 100.801 26.5161 101.194 25.8798ZM95.1629 26.8014C95.0972 26.7976 95.0382 26.7943 94.9794 26.7869L96.1979 20.5588C96.3466 20.5317 96.4953 20.5182 96.6581 20.5182C96.8202 20.5046 96.983 20.5046 97.1317 20.5046C98.2423 20.5046 99.014 20.7754 99.42 21.3035C99.826 21.8315 99.9345 22.6168 99.7315 23.6593C99.5419 24.6477 99.1219 25.433 98.4721 25.9881C97.8223 26.5432 96.9421 26.8276 95.8321 26.8276C95.7294 26.8276 95.6345 26.8236 95.5476 26.8199C95.4742 26.8169 95.4064 26.814 95.3445 26.814C95.2769 26.8079 95.2176 26.8045 95.1629 26.8014L95.1629 26.8014ZM81.5751 28.7232C81.0332 28.7232 80.4919 28.7097 79.964 28.6691C79.4355 28.642 78.8942 28.5607 78.3389 28.4389L80.2079 18.8529C80.6815 18.7717 81.1959 18.704 81.7372 18.6634C82.2925 18.6228 82.7936 18.5957 83.2672 18.5957C83.8902 18.5957 84.4589 18.6364 84.9734 18.7311C85.4879 18.8259 85.9079 18.9749 86.2462 19.1914C86.5845 19.4081 86.8283 19.6924 86.9636 20.058C87.0989 20.4235 87.1264 20.8568 87.0313 21.3848C86.8825 22.1701 86.3815 22.793 85.5287 23.2533C86.1108 23.497 86.4766 23.8084 86.6253 24.2281C86.774 24.6343 86.8015 25.0947 86.693 25.6091C86.49 26.6517 85.9621 27.4234 85.1087 27.9515C84.256 28.4795 83.0642 28.7232 81.5751 28.7232ZM81.3045 24.2823L80.8034 26.8412C80.9655 26.8548 81.1283 26.8683 81.3179 26.8818C81.5074 26.8954 81.7104 26.8954 81.9408 26.8954C82.604 26.8954 83.1594 26.8006 83.6062 26.6111C84.053 26.4215 84.3236 26.0695 84.4181 25.555C84.5132 25.0947 84.4047 24.7697 84.0932 24.5801C83.7957 24.3906 83.3215 24.2823 82.6851 24.2823H81.3045ZM81.6428 22.5899H82.726C83.4166 22.5899 83.9176 22.5086 84.2425 22.3191C84.5674 22.143 84.7704 21.8587 84.8515 21.4661C84.9325 21.0599 84.8381 20.7891 84.554 20.6266C84.2828 20.4641 83.85 20.3829 83.2538 20.3829C83.0642 20.3829 82.8613 20.3829 82.6449 20.3965C82.4279 20.3965 82.2249 20.41 82.0487 20.4371L81.6428 22.5899ZM89.8206 18.7039H92.0413L90.1187 28.6012H87.8981L89.8206 18.7039Z" fill="black" fill-opacity="0.6"/>
</svg>
