<svg width="120" height="48" viewBox="0 0 120 48" fill="none" xmlns="http://www.w3.org/2000/svg">
<g clip-path="url(#clip0_8983_37369)">
<path d="M8.32463 26.1508C8.04298 26.7142 7.23904 26.7142 6.95737 26.1508L6.28371 24.8036C6.17612 24.5884 6.17612 24.3351 6.28371 24.1199L6.95737 22.7726C7.23904 22.2093 8.04298 22.2093 8.32463 22.7726L8.99831 24.1199C9.10585 24.3351 9.10585 24.5884 8.99831 24.8036L8.32463 26.1508Z" fill="black"/>
<path d="M8.32463 33.7917C8.04298 34.3551 7.23904 34.3551 6.95737 33.7917L6.28371 32.4444C6.17612 32.2293 6.17612 31.976 6.28371 31.7608L6.95737 30.4135C7.23904 29.8501 8.04298 29.8501 8.32463 30.4135L8.99831 31.7608C9.10585 31.976 9.10585 32.2293 8.99831 32.4444L8.32463 33.7917Z" fill="black"/>
<path d="M0 30.8916C0 30.2107 0.823292 29.8697 1.3048 30.3512L4.80802 33.8544C5.28952 34.3359 4.9485 35.1592 4.26756 35.1592H0.76433C0.342203 35.1592 0 34.817 0 34.3949V30.8916ZM0 27.2016C0 27.4043 0.0805276 27.5988 0.223867 27.7421L7.41715 34.9353C7.56049 35.0786 7.7549 35.1592 7.9576 35.1592H11.9086C12.5895 35.1592 12.9306 34.3359 12.449 33.8544L1.3048 22.7102C0.823292 22.2286 0 22.5697 0 23.2506V27.2016ZM0 19.5606C0 19.7633 0.0805276 19.9577 0.223867 20.101L15.0582 34.9353C15.2015 35.0786 15.3959 35.1592 15.5986 35.1592H19.5496C20.2305 35.1592 20.5716 34.3359 20.0901 33.8544L1.3048 15.0692C0.823299 14.5877 0 14.9287 0 15.6096V19.5606ZM7.64102 19.5606C7.64102 19.7633 7.72158 19.9577 7.86489 20.101L21.6183 33.8544C22.0998 34.3359 22.9231 33.9949 22.9231 33.314V29.363C22.9231 29.1603 22.8425 28.9658 22.6992 28.8225L8.94581 15.0691C8.46428 14.5876 7.64102 14.9287 7.64102 15.6096V19.5606ZM16.5868 15.0692C16.1053 14.5876 15.282 14.9287 15.282 15.6096V19.5606C15.282 19.7633 15.3626 19.9577 15.5059 20.101L21.6183 26.2134C22.0998 26.6949 22.9231 26.3539 22.9231 25.6729V21.722C22.9231 21.5193 22.8425 21.3248 22.6992 21.1815L16.5868 15.0692Z" fill="black"/>
<path d="M32.503 30.9853L25.3086 23.7908C24.8271 23.3093 24.0038 23.6504 24.0038 24.3313V34.3948C24.0038 34.8169 24.346 35.1591 24.7681 35.1591H35.9126C36.3347 35.1591 36.6769 34.8169 36.6769 34.3948V33.4784C36.6769 33.0562 36.3332 32.7191 35.9146 32.6647C34.63 32.4973 33.4284 31.9106 32.503 30.9853ZM27.6715 32.714C26.9966 32.714 26.4489 32.1663 26.4489 31.4915C26.4489 30.8166 26.9966 30.2689 27.6715 30.2689C28.3464 30.2689 28.8941 30.8166 28.8941 31.4915C28.8941 32.1663 28.3464 32.714 27.6715 32.714Z" fill="black"/>
<path d="M0 34.3948C0 34.817 0.342203 35.1592 0.764331 35.1592H4.26756C4.9485 35.1592 5.28952 34.3359 4.80803 33.8544L1.3048 30.3511C0.823292 29.8696 0 30.2107 0 30.8916V34.3948Z" fill="black"/>
<path d="M7.64102 21.4054L1.3048 15.0692C0.823292 14.5876 0 14.9287 0 15.6096V19.5606C0 19.7633 0.0805276 19.9577 0.223867 20.101L7.64102 27.5182V21.4054Z" fill="black"/>
<path d="M1.3048 22.7103C0.823292 22.2287 0 22.5698 0 23.2507V27.2017C0 27.4044 0.0805276 27.5988 0.223867 27.7422L7.64102 35.1593V29.0465L1.3048 22.7103Z" fill="black"/>
<path d="M15.282 21.722C15.282 21.5193 15.2015 21.3248 15.0582 21.1815L8.9458 15.0692C8.46435 14.5876 7.64102 14.9287 7.64102 15.6096V19.5606C7.64102 19.7633 7.72157 19.9577 7.86489 20.101L15.282 27.5182V21.722Z" fill="black"/>
<path d="M7.64102 35.1592H11.9086C12.5895 35.1592 12.9306 34.3359 12.449 33.8544L7.64102 29.0464V35.1592Z" fill="black"/>
<path d="M7.64102 21.4055V27.2017C7.64102 27.4044 7.72157 27.5988 7.86489 27.7422L15.282 35.1593V29.3631C15.282 29.1604 15.2015 28.966 15.0582 28.8227L7.64102 21.4055Z" fill="black"/>
<path d="M45.5921 32.1083H48.7319V26.9017H51.3551C54.2366 26.9017 56.0848 25.1927 56.0848 22.5496C56.0848 19.9066 54.2366 18.1975 51.3551 18.1975H45.5921V32.1083ZM48.7319 24.2189V20.8804H51.0371C52.2295 20.8804 52.9449 21.5162 52.9449 22.5496C52.9449 23.583 52.2295 24.2189 51.0371 24.2189H48.7319Z" fill="black"/>
<path d="M61.7652 32.2674C64.8256 32.2674 67.0513 30.0814 67.0513 27.1005C67.0513 24.1196 64.8256 21.9336 61.7652 21.9336C58.6651 21.9336 56.4791 24.1196 56.4791 27.1005C56.4791 30.0814 58.6651 32.2674 61.7652 32.2674ZM59.3805 27.1005C59.3805 25.5107 60.3344 24.4177 61.7652 24.4177C63.1762 24.4177 64.1301 25.5107 64.1301 27.1005C64.1301 28.6903 63.1762 29.7833 61.7652 29.7833C60.3344 29.7833 59.3805 28.6903 59.3805 27.1005Z" fill="black"/>
<path d="M72.076 32.2674C74.421 32.2674 76.0108 30.7968 76.0108 29.0679C76.0108 25.0138 70.6253 26.3254 70.6253 24.7356C70.6253 24.2985 71.0824 24.0203 71.7382 24.0203C72.4139 24.0203 73.2287 24.4375 73.487 25.3517L75.832 24.3779C75.3749 22.9272 73.6857 21.9336 71.6388 21.9336C69.433 21.9336 68.0618 23.2452 68.0618 24.8151C68.0618 28.6108 73.3678 27.5575 73.3678 29.1275C73.3678 29.6839 72.8511 30.0616 72.076 30.0616C70.9632 30.0616 70.1881 29.2865 69.9497 28.3525L67.6047 29.2666C68.1214 30.7769 69.6317 32.2674 72.076 32.2674Z" fill="black"/>
<path d="M83.5643 32.009L83.3656 29.4852C83.0278 29.6641 82.5906 29.7236 82.2329 29.7236C81.5174 29.7236 81.0405 29.207 81.0405 28.3127V24.517H83.465V22.0925H81.0405V19.1912H78.1192V22.0925H76.5294V24.517H78.1192V28.6902C78.1192 31.1148 79.7687 32.2673 81.9348 32.2673C82.5309 32.2673 83.0874 32.168 83.5643 32.009Z" fill="black"/>
<path d="M93.7498 18.1975V23.6028H88.2252V18.1975H85.0854V32.1083H88.2252V26.2856H93.7498V32.1083H96.9096V18.1975H93.7498Z" fill="black"/>
<path d="M103.879 32.2674C106.939 32.2674 109.165 30.0814 109.165 27.1005C109.165 24.1196 106.939 21.9336 103.879 21.9336C100.779 21.9336 98.5926 24.1196 98.5926 27.1005C98.5926 30.0814 100.779 32.2674 103.879 32.2674ZM101.494 27.1005C101.494 25.5107 102.448 24.4177 103.879 24.4177C105.29 24.4177 106.244 25.5107 106.244 27.1005C106.244 28.6903 105.29 29.7833 103.879 29.7833C102.448 29.7833 101.494 28.6903 101.494 27.1005Z" fill="black"/>
<path d="M114.803 31.7904C115.896 31.7904 116.87 31.4128 117.387 30.757V31.7109C117.387 32.8238 116.492 33.5989 115.121 33.5989C114.148 33.5989 113.293 33.1219 113.154 32.3071L110.491 32.7244C110.849 34.6123 112.776 35.8842 115.121 35.8842C118.202 35.8842 120.248 34.0758 120.248 31.393V22.0926H117.367V22.9471C116.83 22.331 115.916 21.9336 114.744 21.9336C111.962 21.9336 110.213 23.8414 110.213 26.862C110.213 29.8826 111.962 31.7904 114.803 31.7904ZM113.055 26.862C113.055 25.3716 113.929 24.4177 115.28 24.4177C116.651 24.4177 117.526 25.3716 117.526 26.862C117.526 28.3524 116.651 29.3063 115.28 29.3063C113.929 29.3063 113.055 28.3524 113.055 26.862Z" fill="black"/>
</g>
<defs>
<clipPath id="clip0_8983_37369">
<rect width="120" height="22.9299" fill="white" transform="translate(0 13)"/>
</clipPath>
</defs>
</svg>
