<svg width="120" height="48" viewBox="0 0 120 48" fill="none" xmlns="http://www.w3.org/2000/svg">
<g clip-path="url(#clip0_8702_23686)">
<path d="M6.49252 24.609L12.985 31.0003H0L6.49252 24.609Z" fill="black" fill-opacity="0.5"/>
<path d="M0 18.2178L6.49252 24.6091L12.985 18.2178H0Z" fill="black" fill-opacity="0.5"/>
<path d="M6.49356 24.6091L12.9861 31.0004L19.4786 24.6091L12.9861 18.2178L6.49356 24.6091Z" fill="black"/>
<path d="M117.498 21.247C117.498 21.3398 117.369 21.3805 117.309 21.3096C116.834 20.7576 116.049 20.3391 114.976 20.3391C112.652 20.3391 111.331 22.2153 111.331 24.487C111.331 26.744 112.652 28.6191 114.976 28.6191C116.064 28.6191 116.914 28.2383 117.442 27.5809C117.502 27.5078 117.634 27.5475 117.634 27.6414V28.3437C117.634 28.3958 117.676 28.4376 117.727 28.4376H119.211C119.263 28.4376 119.305 28.3958 119.305 28.3437V17.0939C119.305 17.069 119.295 17.0451 119.278 17.0275C119.26 17.0099 119.236 17 119.211 17H117.591C117.566 17.0003 117.542 17.0103 117.525 17.0279C117.507 17.0455 117.498 17.0692 117.498 17.0939V21.247ZM117.573 24.487C117.573 25.9061 116.738 27.0184 115.355 27.0184C113.989 27.0184 113.138 25.905 113.138 24.487C113.138 23.0386 113.989 21.9409 115.355 21.9409C116.738 21.9409 117.573 23.0386 117.573 24.487ZM110.88 20.5478C110.88 20.5244 110.871 20.5018 110.855 20.4846C110.84 20.4674 110.818 20.4568 110.794 20.455C110.737 20.4505 110.679 20.4477 110.621 20.4466C109.505 20.4466 108.855 20.8943 108.497 21.3325C108.436 21.4056 108.297 21.3659 108.297 21.2699V20.6157C108.297 20.5909 108.288 20.5672 108.27 20.5496C108.253 20.532 108.229 20.522 108.205 20.5217H106.72C106.695 20.522 106.671 20.532 106.654 20.5496C106.637 20.5672 106.627 20.5909 106.627 20.6157V28.3437C106.627 28.3958 106.669 28.4376 106.72 28.4376H108.341C108.366 28.4373 108.39 28.4273 108.407 28.4097C108.424 28.3921 108.434 28.3684 108.434 28.3437V24.32C108.434 22.7944 109.194 22.1235 110.47 22.1235C110.578 22.1235 110.693 22.1339 110.773 22.1412C110.786 22.1427 110.799 22.1413 110.812 22.1373C110.825 22.1333 110.837 22.1266 110.847 22.1178C110.857 22.109 110.865 22.0982 110.871 22.086C110.877 22.0739 110.88 22.0607 110.88 22.0473V20.5478ZM103.226 24.7322C103.239 24.7302 103.253 24.7312 103.266 24.7349C103.279 24.7387 103.291 24.7452 103.301 24.754C103.311 24.7629 103.319 24.7738 103.325 24.786C103.331 24.7983 103.334 24.8116 103.334 24.825V25.2195C103.334 26.287 102.62 27.2021 101.161 27.2021C100.295 27.2021 99.7628 26.912 99.7628 26.1649C99.7628 25.616 100.128 25.2049 101.237 25.0358L103.226 24.7322ZM100.797 28.6202C101.921 28.6202 102.766 28.2925 103.314 27.6497C103.373 27.5788 103.504 27.6184 103.508 27.7123C103.53 28.1663 103.594 28.4365 103.607 28.4365H105.182C105.248 28.4365 105.295 28.3677 105.274 28.304C105.165 27.9576 105.095 27.3962 105.095 26.9423V23.2974C105.095 21.4828 104.001 20.3391 101.693 20.3391C99.3673 20.3391 98.4146 21.5579 98.2268 22.905C98.2253 22.918 98.2266 22.9311 98.2305 22.9435C98.2345 22.956 98.241 22.9674 98.2496 22.9772C98.2583 22.9869 98.2689 22.9947 98.2808 23.0001C98.2927 23.0055 98.3056 23.0083 98.3186 23.0083H99.8974C99.9433 23.0083 99.9809 22.975 99.9913 22.9301C100.138 22.2445 100.696 21.8344 101.647 21.8344C102.725 21.8344 103.334 22.3217 103.334 23.2828V23.3235C103.334 23.346 103.325 23.3678 103.311 23.3849C103.296 23.4019 103.276 23.4131 103.253 23.4163L101.055 23.7252C98.9739 24.0143 98.0327 24.8835 98.0327 26.2254C98.0327 27.5819 98.8372 28.6202 100.797 28.6202ZM93.2483 28.6202C95.7694 28.6202 97.3492 26.7137 97.3492 24.488C97.3492 22.2612 95.7694 20.3391 93.2483 20.3391C90.7419 20.3391 89.1631 22.2612 89.1631 24.487C89.1631 26.7137 90.7419 28.6202 93.2483 28.6202ZM90.9704 24.488C90.9704 22.9468 91.9419 21.9409 93.2483 21.9409C94.5704 21.9409 95.5419 22.9468 95.5419 24.487C95.5419 26.0125 94.5704 27.0184 93.2483 27.0184C91.9419 27.0184 90.9704 26.0136 90.9704 24.488ZM82.5068 21.3096C82.4463 21.3805 82.319 21.3398 82.319 21.247V17.0939C82.319 17.069 82.3091 17.0451 82.2914 17.0275C82.2738 17.0099 82.25 17 82.225 17H80.6045C80.5796 17 80.5557 17.0099 80.5381 17.0275C80.5205 17.0451 80.5106 17.069 80.5106 17.0939V28.3426C80.5106 28.3948 80.5523 28.4365 80.6045 28.4365H82.0883C82.1405 28.4365 82.1823 28.3948 82.1823 28.3426V27.633C82.1823 27.5391 82.3117 27.4995 82.3701 27.5725C82.9096 28.2351 83.761 28.6202 84.84 28.6202C87.1784 28.6202 88.5005 26.744 88.5005 24.488C88.5005 22.2153 87.1784 20.3391 84.84 20.3391C83.7788 20.3391 82.9847 20.7576 82.5068 21.3096ZM82.2574 24.487C82.2574 23.0386 83.0922 21.9409 84.4748 21.9409C85.8417 21.9409 86.6932 23.0386 86.6932 24.487C86.6932 25.9061 85.8417 27.0184 84.4748 27.0184C83.0932 27.0184 82.2574 25.905 82.2574 24.487ZM78.9756 26.9454C78.9752 26.9307 78.9715 26.9163 78.9649 26.9032C78.9583 26.8901 78.9489 26.8786 78.9374 26.8696C78.9258 26.8605 78.9124 26.8541 78.8981 26.8508C78.8838 26.8475 78.869 26.8474 78.8546 26.8504C78.7503 26.8713 78.5896 26.8974 78.4143 26.8974C77.7913 26.8974 77.5336 26.5917 77.5336 25.9666V22.064C77.5338 22.0393 77.5439 22.0157 77.5614 21.9983C77.579 21.9809 77.6027 21.9711 77.6275 21.9711H78.913C78.9652 21.9711 79.007 21.9294 79.007 21.8772V20.6177C79.007 20.5928 78.9971 20.5689 78.9794 20.5513C78.9618 20.5337 78.9379 20.5238 78.913 20.5238H77.6264C77.6141 20.5238 77.6019 20.5214 77.5905 20.5167C77.5791 20.512 77.5687 20.505 77.56 20.4963C77.5513 20.4876 77.5444 20.4772 77.5397 20.4659C77.535 20.4545 77.5325 20.4422 77.5325 20.4299V18.559C77.5325 18.5342 77.5228 18.5105 77.5054 18.4929C77.488 18.4753 77.4644 18.4653 77.4396 18.465H75.8191C75.7942 18.465 75.7703 18.4749 75.7527 18.4926C75.7351 18.5102 75.7252 18.534 75.7252 18.559V20.431C75.7252 20.4433 75.7228 20.4555 75.7181 20.4669C75.7133 20.4783 75.7064 20.4886 75.6977 20.4974C75.689 20.5061 75.6786 20.513 75.6672 20.5177C75.6558 20.5224 75.6436 20.5249 75.6313 20.5249H74.6191C74.5944 20.5249 74.5707 20.5346 74.5531 20.552C74.5355 20.5694 74.5255 20.593 74.5252 20.6177V21.8793C74.5252 21.9315 74.567 21.9732 74.6191 21.9732H75.6313C75.6835 21.9732 75.7252 22.015 75.7252 22.0661V26.1513C75.7252 27.6456 76.4243 28.4845 78.0344 28.4845C78.481 28.4845 78.7795 28.4344 78.9068 28.4083C78.9266 28.404 78.9444 28.3929 78.9569 28.3769C78.9695 28.3609 78.9761 28.341 78.9756 28.3207V26.9454ZM66.2264 24.487C66.2264 26.7743 67.8365 28.6191 70.1603 28.6191C72.4414 28.6191 73.6247 27.0685 73.8793 25.6765C73.8816 25.6634 73.881 25.6499 73.8775 25.637C73.8739 25.6241 73.8676 25.6121 73.8589 25.6019C73.8503 25.5918 73.8395 25.5837 73.8273 25.5781C73.8151 25.5726 73.8019 25.5699 73.7885 25.5701H72.1169C72.0959 25.5703 72.0756 25.5773 72.059 25.5901C72.0424 25.6029 72.0305 25.6208 72.025 25.641C71.7913 26.456 71.0901 27.0184 70.1447 27.0184C68.8539 27.0184 68.0337 25.9666 68.0337 24.487C68.0337 22.9927 68.8539 21.9409 70.1447 21.9409C71.0901 21.9409 71.7913 22.5033 72.025 23.3183C72.0365 23.36 72.0741 23.3892 72.1169 23.3892H73.7885C73.8019 23.3894 73.8151 23.3867 73.8273 23.3812C73.8395 23.3757 73.8503 23.3675 73.8589 23.3574C73.8676 23.3472 73.8739 23.3352 73.8775 23.3223C73.881 23.3095 73.8816 23.2959 73.8793 23.2828C73.6247 21.8908 72.4414 20.3402 70.1603 20.3402C67.8365 20.3402 66.2264 22.185 66.2264 24.487ZM63.1826 25.0817C63.1826 26.3777 62.4845 27.0643 61.3607 27.0643C60.2671 27.0643 59.8268 26.3475 59.8268 25.2654V20.6157C59.8268 20.5907 59.8169 20.5669 59.7993 20.5492C59.7817 20.5316 59.7578 20.5217 59.7329 20.5217H58.1123C58.0874 20.5217 58.0636 20.5316 58.0459 20.5492C58.0283 20.5669 58.0184 20.5907 58.0184 20.6157V25.5096C58.0184 27.3544 59.0066 28.6191 60.9193 28.6191C61.9816 28.6191 62.7068 28.2195 63.1127 27.7238C63.1743 27.6487 63.3203 27.6915 63.3203 27.7885V28.3437C63.3203 28.3958 63.3621 28.4376 63.4143 28.4376H64.897C64.9492 28.4376 64.991 28.3958 64.991 28.3437V20.6157C64.991 20.5907 64.9811 20.5669 64.9634 20.5492C64.9458 20.5316 64.9219 20.5217 64.897 20.5217H63.2765C63.2516 20.5217 63.2277 20.5316 63.2101 20.5492C63.1925 20.5669 63.1826 20.5907 63.1826 20.6157V25.0817ZM54.8243 21.247C54.8243 21.3398 54.696 21.3805 54.6355 21.3096C54.1607 20.7576 53.376 20.3391 52.3023 20.3391C49.9784 20.3391 48.6563 22.2153 48.6563 24.487C48.6563 26.744 49.9784 28.6191 52.3023 28.6191C53.3896 28.6191 54.24 28.2383 54.769 27.5809C54.8285 27.5078 54.96 27.5475 54.96 27.6414V28.3437C54.96 28.3958 55.0017 28.4376 55.0539 28.4376H56.5377C56.5899 28.4376 56.6316 28.3958 56.6316 28.3437V17.0939C56.6316 17.069 56.6218 17.0451 56.6041 17.0275C56.5865 17.0099 56.5626 17 56.5377 17H54.9172C54.8923 17 54.8684 17.0099 54.8508 17.0275C54.8332 17.0451 54.8233 17.069 54.8233 17.0939L54.8243 21.247ZM54.8995 24.487C54.8995 25.9061 54.0647 27.0184 52.6821 27.0184C51.3151 27.0184 50.4637 25.905 50.4637 24.487C50.4637 23.0386 51.3151 21.9409 52.6821 21.9409C54.0636 21.9409 54.8995 23.0386 54.8995 24.487ZM43.8261 28.6202C46.3482 28.6202 47.927 26.7137 47.927 24.488C47.927 22.2602 46.3492 20.3391 43.8261 20.3391C41.3207 20.3391 39.7409 22.2612 39.7409 24.487C39.7409 26.7137 41.3207 28.6202 43.8261 28.6202ZM41.5482 24.488C41.5482 22.9468 42.5197 21.9409 43.8261 21.9409C45.1482 21.9409 46.1197 22.9468 46.1197 24.487C46.1197 26.0125 45.1482 27.0184 43.8261 27.0184C42.5197 27.0184 41.5482 26.0136 41.5482 24.488ZM39.5332 20.5478C39.5333 20.5244 39.5245 20.5018 39.5086 20.4846C39.4928 20.4674 39.471 20.4568 39.4477 20.455C39.3904 20.4505 39.3329 20.4477 39.2755 20.4466C38.159 20.4466 37.5078 20.8943 37.1499 21.3325C37.0894 21.4056 36.9516 21.3659 36.9516 21.2699V20.6157C36.9516 20.5907 36.9418 20.5669 36.9241 20.5492C36.9065 20.5316 36.8826 20.5217 36.8577 20.5217H35.3739C35.349 20.5217 35.3251 20.5316 35.3075 20.5492C35.2899 20.5669 35.28 20.5907 35.28 20.6157V28.3437C35.28 28.3958 35.3217 28.4376 35.3739 28.4376H36.9944C37.0466 28.4376 37.0883 28.3958 37.0883 28.3437V24.32C37.0883 22.7944 37.847 22.1235 39.1231 22.1235C39.2327 22.1235 39.3464 22.1339 39.4257 22.1412C39.4391 22.1427 39.4526 22.1413 39.4653 22.1373C39.4781 22.1333 39.49 22.1266 39.5001 22.1178C39.5102 22.109 39.5183 22.0982 39.524 22.086C39.5297 22.0739 39.5329 22.0607 39.5332 22.0473V20.5478ZM27.9819 27.7186C27.9819 27.6247 28.1113 27.584 28.1729 27.656C28.6497 28.2143 29.4438 28.6202 30.504 28.6202C32.8424 28.6202 34.1645 26.744 34.1645 24.488C34.1645 22.2153 32.8424 20.3391 30.504 20.3391C29.424 20.3391 28.5725 20.7367 28.033 21.393C27.9746 21.465 27.8452 21.4243 27.8452 21.3304V20.6157C27.8452 20.5907 27.8353 20.5669 27.8177 20.5492C27.8001 20.5316 27.7762 20.5217 27.7513 20.5217H26.2685C26.2436 20.5217 26.2197 20.5316 26.2021 20.5492C26.1845 20.5669 26.1746 20.5907 26.1746 20.6157V31.5148C26.1746 31.567 26.2163 31.6087 26.2685 31.6087H27.889C27.9412 31.6087 27.983 31.567 27.983 31.5148L27.9819 27.7186ZM27.9214 24.487C27.9214 23.023 28.7562 21.9096 30.1388 21.9096C31.5057 21.9096 32.3572 23.023 32.3572 24.487C32.3572 25.9061 31.5057 27.0184 30.1388 27.0184C28.7572 27.0184 27.9214 25.905 27.9214 24.487Z" fill="black"/>
</g>
<defs>
<clipPath id="clip0_8702_23686">
<rect width="120" height="14.6087" fill="white" transform="translate(0 17)"/>
</clipPath>
</defs>
</svg>
