<svg width="105" height="48" viewBox="0 0 105 48" fill="none" xmlns="http://www.w3.org/2000/svg">
<path d="M96.4583 25.3079H102.416C102.248 23.6595 101.291 22.5605 99.4972 22.5605C97.8222 22.5605 96.7694 23.6356 96.4583 25.3079ZM99.4972 32.4033C95.8604 32.4033 93.9944 29.7276 93.9944 26.4546C93.9944 23.1816 96.1472 20.5059 99.5444 20.5059C102.942 20.5059 104.832 23.1338 104.832 26.144C104.832 26.5024 104.808 27.0041 104.76 27.2191H96.3868C96.5062 29.0587 97.5354 30.3488 99.3771 30.3488C100.885 30.3488 101.794 29.6559 102.176 28.3181H104.617C104.067 30.731 102.44 32.4033 99.4972 32.4033ZM81.0278 26.359C81.0278 22.9188 83.1326 20.5059 86.243 20.5059C88.3722 20.5059 89.7597 21.7482 90.2861 23.4205C90.3097 23.4922 90.3819 23.4922 90.3819 23.4205V20.697H92.6305V30.7788C92.6305 34.3623 90.6451 36.7753 86.6972 36.7753C83.6354 36.7753 81.6972 35.2224 81.4104 32.9289H83.8507C84.0417 33.8845 84.7597 34.7207 86.7451 34.7207C89.2576 34.7207 90.334 33.1439 90.3819 30.8504L90.4055 29.3931C90.4055 29.3215 90.334 29.3215 90.3097 29.3931C89.7597 31.1371 88.2048 32.2122 86.243 32.2122C83.1326 32.2122 81.0278 29.7992 81.0278 26.359ZM90.0944 26.359C90.0944 24.1611 88.7792 22.5605 86.7451 22.5605C84.4722 22.5605 83.4201 24.1611 83.4201 26.359C83.4201 28.557 84.4722 30.1576 86.7451 30.1576C88.7792 30.1576 90.0944 28.5331 90.0944 26.359ZM74.3528 20.697H76.4819L76.4576 23.4205C76.4576 23.4922 76.5299 23.4922 76.5535 23.4205C77.1521 21.7004 77.9174 20.5059 80.5965 20.5059V22.7755C77.5583 22.6799 76.6493 24.3761 76.6493 26.7651V32.2361H74.3528V20.697ZM64.0653 26.4546C64.0653 28.6525 65.1419 30.3488 67.2711 30.3488C69.4003 30.3488 70.4771 28.6525 70.4771 26.4546C70.4771 24.2567 69.4003 22.5605 67.2711 22.5605C65.1419 22.5605 64.0653 24.2567 64.0653 26.4546ZM72.9174 26.4546C72.9174 29.7515 70.7882 32.4033 67.2711 32.4033C63.7543 32.4033 61.625 29.7515 61.625 26.4546C61.625 23.1577 63.7543 20.5059 67.2711 20.5059C70.7882 20.5059 72.9174 23.1577 72.9174 26.4546ZM55.7396 32.2361V22.6799H53.9693V20.697H55.7876V20.4104C55.7876 17.6391 57.3187 15.9906 61.2422 16.1817V18.3558C58.8019 18.1169 58.0364 18.9769 58.0364 20.697H61.2422V22.6799H58.0364V32.2361H55.7396ZM44.9514 25.3079H50.9085C50.741 23.6595 49.7841 22.5605 47.9898 22.5605C46.3151 22.5605 45.2624 23.6356 44.9514 25.3079ZM47.9898 32.4033C44.3533 32.4033 42.4872 29.7276 42.4872 26.4546C42.4872 23.1816 44.6404 20.5059 48.0376 20.5059C51.4349 20.5059 53.3249 23.1338 53.3249 26.144C53.3249 26.5024 53.3009 27.0041 53.253 27.2191H44.8797C44.9992 29.0587 46.028 30.3488 47.8701 30.3488C49.3774 30.3488 50.2865 29.6559 50.6692 28.3181H53.1095C52.5593 30.731 50.9324 32.4033 47.9898 32.4033ZM31.8888 24.2806H35.1903C37.5349 24.2806 38.8508 23.2772 38.8508 21.3421C38.8508 19.5981 37.8937 18.5947 35.3578 18.5947H31.8888V24.2806ZM29.4247 32.2361V16.4923H35.286C39.5206 16.4923 41.3149 18.308 41.3149 21.1031C41.3149 23.1816 39.9991 25.1645 36.7454 25.3079C36.6737 25.3079 36.6737 25.4034 36.7454 25.4034C40.1187 25.7857 41.8891 28.6764 41.8891 32.2361H39.3053C39.3053 29.0826 37.9177 26.3829 34.5444 26.3829H31.8888V32.2361H29.4247Z" fill="black"/>
<path d="M3.37369 16.3165C3.31317 16.2912 3.32809 16.2023 3.39368 16.1987C4.98786 16.1061 6.59331 16.2243 7.54367 16.4311C9.23103 16.7986 10.7503 17.4565 11.7973 19.0639C12.2468 19.7541 12.5737 20.5152 12.677 21.2971C12.6837 21.3476 12.6446 21.3924 12.5934 21.3924H6.89085C6.8461 21.3924 6.80978 21.3581 6.80669 21.3141C6.68535 19.4858 5.69444 17.2852 3.37369 16.3165Z" fill="black"/>
<path d="M18.2839 32.0825C18.3444 32.1078 18.3295 32.1967 18.2639 32.2003C16.6698 32.2928 15.0643 32.1747 14.1139 31.9679C12.4266 31.6003 10.9073 30.9424 9.86034 29.3351C9.41082 28.6449 9.08395 27.8838 8.98061 27.1019C8.97388 27.0515 9.01304 27.0066 9.06423 27.0066H14.7671C14.8118 27.0066 14.8481 27.0408 14.8512 27.0849C14.9726 28.9132 15.9635 31.1138 18.2839 32.0825Z" fill="black"/>
<path d="M6.43507 21.9308C6.47111 21.8806 6.41903 21.8151 6.3616 21.8383C4.98841 22.3956 -0.989134 25.2266 0.233174 29.0727C1.30797 32.4225 7.01924 32.2821 8.33667 32.2035C8.40222 32.1996 8.41687 32.111 8.35639 32.0859C5.99902 31.1041 5.01233 28.8525 4.9155 27.02C4.8454 25.6928 5.19137 23.6621 6.43507 21.9308Z" fill="black"/>
<path d="M15.2356 26.4677C15.1996 26.5178 15.2517 26.5833 15.3091 26.5602C16.6823 26.0031 22.6601 23.1719 21.4378 19.3257C20.363 15.9759 14.6515 16.1163 13.334 16.1946C13.2687 16.1985 13.2538 16.2869 13.3143 16.3122C15.6719 17.294 16.6586 19.5456 16.7555 21.3783C16.8256 22.7056 16.4793 24.7363 15.2356 26.4677Z" fill="black"/>
</svg>
