<svg width="120" height="48" viewBox="0 0 120 48" fill="none" xmlns="http://www.w3.org/2000/svg">
<path fill-rule="evenodd" clip-rule="evenodd" d="M1.24996 28.1638C0.694411 28.4846 0.694412 29.2864 1.24996 29.6072L9.58333 34.4186C9.84116 34.5674 10.1588 34.5674 10.4167 34.4186L18.75 29.6072C19.3056 29.2864 19.3056 28.4846 18.75 28.1637L10.4167 23.3524C10.1588 23.2035 9.84116 23.2035 9.58333 23.3524L1.24996 28.1638Z" fill="black" fill-opacity="0.7"/>
<path fill-rule="evenodd" clip-rule="evenodd" d="M0.749973 18.3483C0.340518 18.5847 0.209545 19.1141 0.461514 19.5141L9.57266 33.9804C9.81124 34.3592 10.3067 34.4818 10.6944 34.2579L19.25 29.3182C19.6595 29.0818 19.7904 28.5525 19.5385 28.1525L10.4273 13.6862C10.1887 13.3073 9.69333 13.1847 9.30558 13.4086L0.749973 18.3483Z" fill="url(#paint0_linear_9511_27636)"/>
<path fill-rule="evenodd" clip-rule="evenodd" d="M1.24996 18.0595C0.694411 18.3803 0.694412 19.1821 1.24996 19.5029L9.58333 24.3143C9.84116 24.4632 10.1588 24.4632 10.4167 24.3143L18.75 19.5029C19.3056 19.1821 19.3056 18.3803 18.75 18.0595L10.4167 13.2481C10.1588 13.0993 9.84116 13.0993 9.58333 13.2481L1.24996 18.0595Z" fill="black"/>
<path d="M32.2067 30.5076C31.2187 30.5076 30.3188 30.3259 29.5073 29.9624C28.6957 29.5989 28.037 29.0887 27.5312 28.432C27.0372 27.7753 26.749 27.0189 26.6667 26.1629L28.678 25.8111C28.7133 26.3739 28.8898 26.8782 29.2073 27.3239C29.5249 27.7694 29.9483 28.1213 30.4777 28.3793C31.0069 28.6372 31.5951 28.7662 32.242 28.7662C32.7948 28.7662 33.2771 28.6783 33.6888 28.5024C34.1122 28.3148 34.4357 28.0684 34.6591 27.7636C34.8943 27.4587 35.012 27.1128 35.012 26.7258C35.012 26.2684 34.8238 25.899 34.4474 25.6176C34.071 25.3244 33.4712 25.084 32.6478 24.8964L30.7953 24.4918C29.5837 24.2221 28.6898 23.8175 28.1134 23.2781C27.5488 22.7387 27.2665 22.0174 27.2665 21.1145C27.2665 20.3523 27.4548 19.6721 27.8312 19.074C28.2193 18.4643 28.7545 17.9952 29.4367 17.6668C30.1189 17.3385 30.9011 17.1743 31.7833 17.1743C32.5831 17.1743 33.3065 17.3209 33.9534 17.6141C34.6121 17.9072 35.1532 18.3235 35.5766 18.863C36 19.3907 36.2647 20.0005 36.3705 20.6923L34.4121 21.1673C34.3768 20.7217 34.2416 20.3347 34.0063 20.0063C33.7711 19.6662 33.4593 19.4024 33.0713 19.2148C32.6831 19.0154 32.2538 18.9157 31.7833 18.9157C31.301 18.9157 30.8776 18.9978 30.5129 19.162C30.1483 19.3262 29.866 19.5548 29.666 19.848C29.4778 20.1412 29.3838 20.4637 29.3838 20.8155C29.3838 21.2845 29.5425 21.6598 29.8601 21.9413C30.1895 22.2109 30.707 22.422 31.4128 22.5745L33.3006 22.979C34.5709 23.2254 35.5178 23.6358 36.1412 24.2104C36.7763 24.785 37.0939 25.5238 37.0939 26.4267C37.0939 27.2242 36.8881 27.9336 36.4764 28.5551C36.0765 29.1649 35.506 29.6457 34.765 29.9975C34.0239 30.3376 33.1712 30.5076 32.2067 30.5076Z" fill="black"/>
<path d="M45.8753 30.5076C44.5227 30.5076 43.3405 30.2379 42.329 29.6985C41.3174 29.1474 40.5411 28.3734 40.0001 27.3766C39.459 26.3681 39.1885 25.1895 39.1885 23.8409C39.1885 22.4924 39.4413 21.3197 39.9472 20.3229C40.4647 19.3144 41.1998 18.5405 42.1526 18.001C43.1053 17.4499 44.2228 17.1743 45.5048 17.1743C46.4458 17.1743 47.3044 17.3561 48.0808 17.7196C48.857 18.0714 49.504 18.5815 50.0215 19.2499C50.539 19.9066 50.8919 20.6806 51.0801 21.5719L49.0864 22.0468C48.9805 21.4253 48.7629 20.8858 48.4336 20.4285C48.1043 19.9711 47.6867 19.6252 47.1809 19.3907C46.6869 19.1444 46.1282 19.0213 45.5048 19.0213C44.6579 19.0213 43.9169 19.2148 43.2818 19.6017C42.6466 19.9887 42.1584 20.5458 41.8173 21.2728C41.4763 21.9999 41.3057 22.8559 41.3057 23.8409C41.3057 24.826 41.4938 25.6821 41.8703 26.4091C42.2467 27.1362 42.7759 27.6991 43.4582 28.0978C44.1522 28.4848 44.9578 28.6783 45.8753 28.6783C46.6163 28.6783 47.2868 28.5259 47.8867 28.2209C48.4983 27.9043 48.9982 27.4704 49.3863 26.9193C49.7863 26.3564 50.0392 25.6997 50.145 24.9492L52.1563 25.3714C52.0034 26.4033 51.6447 27.3063 51.0801 28.0802C50.5155 28.8542 49.7863 29.4523 48.8923 29.8744C47.9984 30.2965 46.9928 30.5076 45.8753 30.5076Z" fill="black"/>
<path d="M54.696 17.6143H56.8132V30.068H54.696V17.6143Z" fill="black"/>
<path d="M64.9143 30.5076C63.9263 30.5076 63.0265 30.3259 62.2149 29.9624C61.4033 29.5989 60.7447 29.0887 60.2388 28.432C59.7448 27.7753 59.4567 27.0189 59.3743 26.1629L61.3857 25.8111C61.421 26.3739 61.5974 26.8782 61.915 27.3239C62.2326 27.7694 62.656 28.1213 63.1853 28.3793C63.7146 28.6372 64.3028 28.7662 64.9497 28.7662C65.5025 28.7662 65.9848 28.6783 66.3964 28.5024C66.8198 28.3148 67.1433 28.0684 67.3668 27.7636C67.602 27.4587 67.7197 27.1128 67.7197 26.7258C67.7197 26.2684 67.5315 25.899 67.1551 25.6176C66.7787 25.3244 66.1788 25.084 65.3554 24.8964L63.5029 24.4918C62.2914 24.2221 61.3974 23.8175 60.8211 23.2781C60.2565 22.7387 59.9743 22.0174 59.9743 21.1145C59.9743 20.3523 60.1624 19.6721 60.5388 19.074C60.9269 18.4643 61.4622 17.9952 62.1443 17.6668C62.8266 17.3385 63.6088 17.1743 64.4909 17.1743C65.2908 17.1743 66.0142 17.3209 66.6611 17.6141C67.3198 17.9072 67.8608 18.3235 68.2843 18.863C68.7077 19.3907 68.9723 20.0005 69.0782 20.6923L67.1198 21.1673C67.0845 20.7217 66.9493 20.3347 66.714 20.0063C66.4788 19.6662 66.1671 19.4024 65.7789 19.2148C65.3908 19.0154 64.9614 18.9157 64.4909 18.9157C64.0087 18.9157 63.5853 18.9978 63.2206 19.162C62.856 19.3262 62.5737 19.5548 62.3738 19.848C62.1855 20.1412 62.0914 20.4637 62.0914 20.8155C62.0914 21.2845 62.2503 21.6598 62.5678 21.9413C62.8972 22.2109 63.4147 22.422 64.1204 22.5745L66.0083 22.979C67.2786 23.2254 68.2254 23.6358 68.8488 24.2104C69.484 24.785 69.8016 25.5238 69.8016 26.4267C69.8016 27.2242 69.5958 27.9336 69.1841 28.5551C68.7842 29.1649 68.2137 29.6457 67.4727 29.9975C66.7317 30.3376 65.8788 30.5076 64.9143 30.5076Z" fill="black"/>
<path d="M72.3372 17.6143H77.6832C78.5888 17.6143 79.3946 17.7843 80.1003 18.1244C80.8178 18.4527 81.3765 18.9159 81.7764 19.514C82.1763 20.1121 82.3763 20.7864 82.3763 21.5369C82.3763 22.2874 82.1763 22.9616 81.7764 23.5597C81.3765 24.1578 80.8178 24.6269 80.1003 24.967C79.3946 25.2953 78.5888 25.4595 77.6832 25.4595H74.4015V30.068H72.3372V17.6143ZM77.5597 23.7005C78.0772 23.7005 78.5418 23.6066 78.9535 23.419C79.3652 23.2314 79.6887 22.9734 79.9239 22.645C80.1591 22.3167 80.2767 21.9473 80.2767 21.5369C80.2767 20.9036 80.018 20.3818 79.5004 19.9713C78.9947 19.5609 78.3477 19.3557 77.5597 19.3557H74.4015V23.7005H77.5597Z" fill="black"/>
<path d="M87.3908 17.6143H89.9308L94.6417 30.068H92.4008L91.4133 27.3065H85.9258L84.9025 30.068H82.662L87.3908 17.6143ZM90.8842 25.6002L88.6783 19.5316H88.6433L86.4375 25.6002H90.8842Z" fill="black"/>
<path d="M102.375 30.5076C101.023 30.5076 99.8408 30.2379 98.8292 29.6985C97.8175 29.1474 97.0408 28.3734 96.5 27.3766C95.9592 26.3681 95.6883 25.1895 95.6883 23.8409C95.6883 22.4924 95.9417 21.3197 96.4475 20.3229C96.965 19.3144 97.7 18.5405 98.6525 18.001C99.605 17.4499 100.723 17.1743 102.005 17.1743C102.946 17.1743 103.804 17.3561 104.581 17.7196C105.357 18.0714 106.004 18.5815 106.522 19.2499C107.039 19.9066 107.392 20.6806 107.58 21.5719L105.587 22.0468C105.481 21.4253 105.263 20.8858 104.933 20.4285C104.604 19.9711 104.187 19.6252 103.681 19.3907C103.187 19.1444 102.628 19.0213 102.005 19.0213C101.158 19.0213 100.417 19.2148 99.7817 19.6017C99.1467 19.9887 98.6583 20.5458 98.3175 21.2728C97.9758 21.9999 97.8058 22.8559 97.8058 23.8409C97.8058 24.826 97.9942 25.6821 98.37 26.4091C98.7467 27.1362 99.2758 27.6991 99.9583 28.0978C100.652 28.4848 101.458 28.6783 102.375 28.6783C103.117 28.6783 103.787 28.5259 104.387 28.2209C104.998 27.9043 105.498 27.4704 105.887 26.9193C106.286 26.3564 106.539 25.6997 106.645 24.9492L108.657 25.3714C108.503 26.4033 108.145 27.3063 107.58 28.0802C107.016 28.8542 106.286 29.4523 105.393 29.8744C104.498 30.2965 103.493 30.5076 102.375 30.5076Z" fill="black"/>
<path d="M111.196 17.6143H119.823V19.4085H113.243V22.8385H119.117V24.5096H113.243V28.2739H120V30.068H111.196V17.6143Z" fill="black"/>
<defs>
<linearGradient id="paint0_linear_9511_27636" x1="7.05846" y1="14.6919" x2="17.4742" y2="30.0662" gradientUnits="userSpaceOnUse">
<stop/>
<stop offset="1" stop-opacity="0.3"/>
</linearGradient>
</defs>
</svg>
