<svg width="120" height="48" viewBox="0 0 120 48" fill="none" xmlns="http://www.w3.org/2000/svg">
<path d="M100.45 23.7158C101.398 23.7158 102.174 23.3862 102.778 22.7265C103.381 22.0669 103.682 21.2196 103.682 20.1841C103.682 19.1489 103.381 18.3087 102.778 17.6631C102.174 17.0179 101.398 16.6951 100.45 16.6951H95.6613C95.5663 16.6951 95.4894 16.7754 95.4894 16.8745V23.5364C95.4894 23.6355 95.5663 23.7158 95.6613 23.7158H100.45ZM93.4563 14.9996C93.4563 14.8821 93.5476 14.7869 93.6592 14.7869H100.45C101.412 14.7869 102.297 15.0315 103.103 15.5208C103.91 16.0102 104.546 16.6664 105.014 17.4889C105.481 18.3115 105.716 19.2121 105.716 20.1907C105.716 21.3682 105.373 22.4352 104.689 23.3926C104.048 24.289 103.238 24.9274 102.258 25.3076C102.156 25.3474 102.117 25.4787 102.177 25.5742L105.959 31.5515C105.986 31.6084 106 31.6508 106 31.6791C106 31.7077 105.986 31.736 105.959 31.7642C105.932 31.7929 105.891 31.8067 105.837 31.8067H103.926C103.831 31.8067 103.751 31.7642 103.682 31.6791L99.931 25.7177C99.8993 25.6674 99.8458 25.6371 99.7885 25.6371H95.6613C95.5663 25.6371 95.4894 25.7174 95.4894 25.8164V31.5941C95.4894 31.7115 95.3981 31.8067 95.2858 31.8067H93.6592C93.5476 31.8067 93.4563 31.7115 93.4563 31.5941V14.9996ZM82.1395 14.9996C82.1395 14.8821 82.2308 14.7869 82.3428 14.7869H83.9698C84.0818 14.7869 84.173 14.8821 84.173 14.9996V29.7128C84.173 29.8117 84.2497 29.8921 84.3444 29.8921H91.228C91.3396 29.8921 91.4301 29.9873 91.4301 30.1048V31.5941C91.4301 31.7115 91.3396 31.8067 91.228 31.8067H82.3428C82.2308 31.8067 82.1395 31.7115 82.1395 31.5941V14.9996ZM74.9632 23.7223C75.9115 23.7223 76.6875 23.3926 77.2913 22.733C77.8942 22.0735 78.1956 21.2261 78.1956 20.1907C78.1956 19.1555 77.8942 18.3151 77.2913 17.6696C76.6875 17.0243 75.9115 16.7016 74.9632 16.7016H70.1744C70.0797 16.7016 70.0021 16.7821 70.0021 16.8813V23.5426C70.0021 23.6418 70.0797 23.7223 70.1744 23.7223H74.9632ZM67.9695 14.9996C67.9695 14.8821 68.0608 14.7869 68.1727 14.7869H74.9632C75.9253 14.7869 76.8098 15.0315 77.616 15.5208C78.4222 16.0102 79.0595 16.6664 79.5271 17.4889C79.9948 18.3115 80.2283 19.2121 80.2283 20.1907C80.2283 21.1555 79.9948 22.0558 79.5271 22.8925C79.0595 23.7295 78.4222 24.396 77.616 24.8925C76.8098 25.3891 75.9253 25.6371 74.9632 25.6371H70.1744C70.0797 25.6371 70.0021 25.7174 70.0021 25.8168V31.5941C70.0021 31.7115 69.9116 31.8067 69.7988 31.8067H68.1727C68.0608 31.8067 67.9695 31.7115 67.9695 31.5941V14.9996ZM60.8539 23.7223C61.8024 23.7223 62.5785 23.3926 63.1817 22.733C63.7844 22.0735 64.0867 21.2261 64.0867 20.1907C64.0867 19.1555 63.7844 18.3151 63.1817 17.6696C62.5785 17.0243 61.8024 16.7016 60.8539 16.7016H56.0657C55.9705 16.7016 55.8934 16.7823 55.8934 16.8819V23.5419C55.8934 23.6415 55.9705 23.7223 56.0657 23.7223H60.8539ZM53.8603 34.8917C53.8603 34.7497 53.9278 34.6789 54.0637 34.6789H91.228C91.3622 34.6789 91.4301 34.7497 91.4301 34.8917V36.3808C91.4301 36.5225 91.3622 36.5937 91.228 36.5937H54.0637C53.9278 36.5937 53.8603 36.5225 53.8603 36.3808V34.8917ZM53.8603 14.9996C53.8603 14.8821 53.9515 14.7869 54.0637 14.7869H60.8539C61.8162 14.7869 62.7004 15.0315 63.5071 15.5208C64.3132 16.0102 64.9506 16.6664 65.4183 17.4889C65.886 18.3115 66.1194 19.2121 66.1194 20.1907C66.1194 21.1555 65.886 22.0558 65.4183 22.8925C64.9506 23.7295 64.3132 24.396 63.5071 24.8925C62.7004 25.3891 61.8162 25.6371 60.8539 25.6371H56.0653C55.9704 25.6371 55.8934 25.7177 55.8934 25.8171V31.5941C55.8934 31.7115 55.8023 31.8067 55.6901 31.8067H54.0637C53.9515 31.8067 53.8603 31.7115 53.8603 31.5941V14.9996ZM53.8603 10.2128C53.8603 10.0712 53.9278 10 54.0637 10H91.228C91.3622 10 91.4301 10.0712 91.4301 10.2128V11.7019C91.4301 11.8439 91.3622 11.9147 91.228 11.9147H54.0637C53.9278 11.9147 53.8603 11.8439 53.8603 11.7019V10.2128ZM34.1957 14.9996C34.1957 14.8821 34.2868 14.7869 34.399 14.7869H38.0992C38.2076 14.7869 38.2822 14.8436 38.3227 14.957L42.4141 29.7625C42.4354 29.8393 42.5024 29.8921 42.5787 29.8921H42.8089C42.8852 29.8921 42.9524 29.8393 42.9735 29.7625L47.0647 14.957C47.1055 14.8436 47.1799 14.7869 47.2885 14.7869H50.9887C51.101 14.7869 51.192 14.8821 51.192 14.9996V31.5941C51.192 31.7115 51.101 31.8067 50.9887 31.8067H49.3622C49.2499 31.8067 49.159 31.7115 49.159 31.5941V16.8816C49.159 16.7822 49.0819 16.7016 48.9868 16.7016H48.7188C48.6422 16.7016 48.5749 16.7546 48.5536 16.8317L44.4625 31.6367C44.4218 31.7502 44.3472 31.8067 44.239 31.8067H41.1487C41.0401 31.8067 40.9657 31.7502 40.9252 31.6367L36.8339 16.8317C36.8127 16.7546 36.7452 16.7016 36.6686 16.7016H36.4008C36.3057 16.7016 36.2287 16.7822 36.2287 16.8816V31.5941C36.2287 31.7115 36.1378 31.8067 36.0254 31.8067H34.399C34.2868 31.8067 34.1957 31.7115 34.1957 31.5941V14.9996ZM29.6012 14.7869H31.2276C31.3628 14.7869 31.4308 14.858 31.4308 14.9996V31.5941C31.4308 31.736 31.3628 31.8067 31.2276 31.8067H29.6012C29.4655 31.8067 29.3979 31.736 29.3979 31.5941V14.9996C29.3979 14.858 29.4655 14.7869 29.6012 14.7869ZM14.2034 26.5093H15.8298C15.9652 26.5093 16.0331 26.5805 16.0331 26.7221C16.0871 27.9703 16.5378 28.8463 17.3851 29.3495C18.2319 29.8531 19.4079 30.1048 20.9124 30.1048C22.2406 30.1048 23.2841 29.8461 24.0433 29.3282C24.8022 28.8105 25.1818 28.0766 25.1818 27.1263C25.1818 26.4455 25.0462 25.9174 24.7752 25.5413C24.5038 25.1657 24.0499 24.8642 23.413 24.637C22.7758 24.4104 21.8202 24.1903 20.5465 23.9776C19.1096 23.7366 17.9508 23.4351 17.0698 23.0735C16.1887 22.7118 15.5248 22.226 15.0775 21.6161C14.6301 21.0064 14.4066 20.2192 14.4066 19.2546C14.4066 18.5313 14.6168 17.8115 15.0368 17.0952C15.4569 16.3791 16.1246 15.7798 17.0395 15.2974C17.9544 14.8154 19.1096 14.5741 20.5058 14.5741C21.9014 14.5741 23.0673 14.8294 24.0026 15.34C24.9377 15.8506 25.6323 16.4924 26.0865 17.2653C26.5404 18.0385 26.7879 18.8364 26.8284 19.6589C26.8284 19.8008 26.7606 19.8716 26.6251 19.8716H24.9987C24.8631 19.8716 24.7954 19.8008 24.7954 19.6589C24.7412 18.7653 24.3818 18.0137 23.7179 17.4037C23.0539 16.7941 21.9828 16.4888 20.5058 16.4888C19.0419 16.4888 17.9982 16.7584 17.3748 17.2973C16.7514 17.8365 16.4397 18.4887 16.4397 19.2546C16.4397 19.8647 16.5616 20.3538 16.8056 20.7225C17.0496 21.0916 17.4832 21.3965 18.1068 21.6374C18.73 21.8787 19.6518 22.1053 20.8716 22.3181C22.3625 22.5734 23.5517 22.868 24.4396 23.2011C25.3272 23.5345 26.0118 24.0096 26.4931 24.6265C26.9739 25.2435 27.2148 26.0768 27.2148 27.1263C27.2148 28.1049 26.9301 28.9666 26.3609 29.7112C25.7917 30.4557 25.0292 31.027 24.0737 31.4239C23.1181 31.8207 22.0643 32.0195 20.9124 32.0195C19.7465 32.0195 18.6522 31.8526 17.629 31.5195C16.6055 31.1864 15.7551 30.6228 15.0775 29.8283C14.3997 29.034 14.0407 27.9985 14 26.7221C14 26.5805 14.0678 26.5093 14.2034 26.5093Z" fill="black"/>
</svg>
