<svg width="120" height="48" viewBox="0 0 120 48" fill="none" xmlns="http://www.w3.org/2000/svg">
<path d="M20.22 28.22H28.83V36.83H20.22V28.22Z" fill="black" fill-opacity="0.37"/>
<path d="M11.61 28.22H20.22V36.83H11.61V28.22Z" fill="black" fill-opacity="0.49"/>
<path d="M3 28.22H11.61V36.83H3V28.22Z" fill="black" fill-opacity="0.6"/>
<path d="M28.83 19.61V28.22H20.22V19.61H28.83Z" fill="black" fill-opacity="0.3"/>
<path d="M20.22 19.61V28.22H11.61V19.61H20.22Z" fill="black" fill-opacity="0.55"/>
<path d="M11.61 19.61V28.22H3V19.61H11.61Z" fill="black" fill-opacity="0.5"/>
<path d="M20.22 11H28.83V19.61H20.22V11Z" fill="black" fill-opacity="0.2"/>
<path d="M11.61 11H20.22V19.61H11.61V11Z" fill="black" fill-opacity="0.48"/>
<path d="M3 11H11.61V19.61H3V11Z" fill="black" fill-opacity="0.6"/>
<path fill-rule="evenodd" clip-rule="evenodd" d="M116.843 16.8953C116.727 16.8696 116.591 16.8437 116.435 16.8176C116.292 16.7919 116.127 16.7725 115.939 16.7594C115.751 16.7466 115.547 16.74 115.327 16.74C114.627 16.74 114.037 16.8371 113.558 17.0312C113.078 17.2253 112.686 17.4941 112.382 17.8369C112.077 18.18 111.857 18.578 111.721 19.0308C111.585 19.484 111.517 19.9693 111.517 20.4868V20.9916H110.234V23.4377H111.517V30.5432H114.861V23.4377H116.493V20.9916H114.861V20.7004C114.861 20.2864 114.974 19.9918 115.201 19.8171C115.427 19.6423 115.696 19.555 116.007 19.555C116.137 19.555 116.25 19.5616 116.348 19.5744C116.445 19.5875 116.532 19.6004 116.61 19.6132C116.688 19.6263 116.766 19.6393 116.843 19.6521V16.8953ZM102.274 24.5734C102.397 24.2822 102.546 24.0462 102.721 23.8648C102.896 23.6838 103.087 23.5542 103.295 23.4766C103.502 23.3989 103.696 23.3601 103.878 23.3601C104.098 23.3601 104.36 23.3989 104.665 23.4766C104.969 23.5542 105.219 23.6838 105.413 23.8648V27.3205C105.232 27.5923 105.008 27.7767 104.743 27.8738C104.477 27.9709 104.215 28.0194 103.955 28.0194C103.722 28.0194 103.495 27.9775 103.275 27.8932C103.055 27.8092 102.857 27.6766 102.682 27.4952C102.507 27.3142 102.365 27.0715 102.255 26.7672C102.144 26.4632 102.089 26.0911 102.089 25.6509C102.089 25.2238 102.151 24.8647 102.274 24.5734ZM99.9608 29.4948C99.5654 29.0677 99.2513 28.5372 99.018 27.9029C98.7848 27.2689 98.6681 26.5312 98.6681 25.6897C98.6681 24.8486 98.8042 24.1109 99.0764 23.4766C99.3485 22.8425 99.6984 22.3117 100.126 21.8846C100.554 21.4575 101.027 21.1372 101.545 20.9237C102.063 20.7101 102.569 20.6033 103.061 20.6033C103.606 20.6033 104.053 20.6682 104.403 20.7975C104.753 20.9271 105.076 21.1406 105.375 21.4381V17.0312H108.718V30.5432H105.686V29.6696C105.349 30.0062 104.934 30.2748 104.442 30.4752C103.949 30.6757 103.489 30.7761 103.061 30.7761C102.452 30.7761 101.882 30.6694 101.351 30.4558C100.819 30.2423 100.356 29.9219 99.9608 29.4948ZM91.1453 24.059C91.3655 23.8003 91.6118 23.6191 91.884 23.5154C92.1561 23.412 92.4216 23.3601 92.681 23.3601C92.9143 23.3601 93.1378 23.3989 93.3516 23.4766C93.5655 23.5542 93.7532 23.6804 93.9154 23.8551C94.0772 24.0299 94.21 24.2598 94.3139 24.5443C94.4174 24.8292 94.4694 25.1722 94.4694 25.5733C94.4694 26.0392 94.4077 26.4275 94.2847 26.7381C94.1614 27.0487 94.0092 27.3011 93.8279 27.4952C93.6463 27.6894 93.4454 27.8252 93.2253 27.9029C93.0048 27.9806 92.7976 28.0194 92.6032 28.0194C92.3828 28.0194 92.1333 27.9806 91.8548 27.9029C91.576 27.8252 91.3397 27.696 91.1453 27.5146V24.059ZM92.2436 30.6014C91.8611 30.4849 91.508 30.2651 91.1841 29.9414V33.96H87.8406V20.8363H90.8731V21.7099C91.2358 21.3736 91.6732 21.105 92.1852 20.9042C92.697 20.7038 93.1992 20.6033 93.6918 20.6033C94.2618 20.6033 94.8029 20.7101 95.3149 20.9237C95.8267 21.1372 96.2738 21.4512 96.6562 21.8652C97.0384 22.2796 97.3397 22.794 97.5601 23.4086C97.7803 24.0236 97.8906 24.7322 97.8906 25.5344C97.8906 26.4147 97.7545 27.1846 97.4824 27.8447C97.2102 28.5047 96.8603 29.0517 96.4327 29.4851C96.005 29.9189 95.5254 30.2423 94.9942 30.4558C94.4627 30.6694 93.9378 30.7761 93.4196 30.7761C93.0177 30.7761 92.6257 30.7179 92.2436 30.6014ZM82.2424 30.5432H85.5859V17.0312H82.2424V30.5432ZM79.9875 30.5432H76.644V17.0312H79.9875V30.5432ZM64.7184 27.9029C64.945 28.5372 65.2561 29.0677 65.6515 29.4948C66.0466 29.9219 66.5068 30.2423 67.0317 30.4558C67.5565 30.6694 68.1233 30.7761 68.7326 30.7761C69.1602 30.7761 69.6201 30.6791 70.1127 30.4849C70.605 30.2908 71.0197 30.0256 71.3568 29.689V30.5432H74.3893V20.8363H71.3957V21.7682C71.0197 21.3411 70.6115 21.0401 70.1711 20.8654C69.7303 20.6907 69.2769 20.6033 68.8103 20.6033C68.3177 20.6033 67.8092 20.7101 67.2844 20.9237C66.7595 21.1372 66.2833 21.4575 65.8556 21.8846C65.4279 22.3117 65.0746 22.8425 64.7962 23.4766C64.5174 24.1109 64.3782 24.8486 64.3782 25.6897C64.3782 26.5312 64.4915 27.2689 64.7184 27.9029ZM68.4118 23.8648C68.2369 24.0462 68.0911 24.2822 67.9745 24.5734C67.8578 24.8647 67.7995 25.2238 67.7995 25.6509C67.7995 26.0911 67.8512 26.4632 67.955 26.7672C68.0585 27.0715 68.198 27.3142 68.373 27.4952C68.5479 27.6766 68.7423 27.8092 68.9561 27.8932C69.17 27.9775 69.3935 28.0194 69.6268 28.0194C69.8858 28.0194 70.1482 27.9709 70.4141 27.8738C70.6796 27.7767 70.9031 27.5923 71.0847 27.3205V23.8843C70.8903 23.6773 70.6407 23.5382 70.3363 23.4669C70.0316 23.3958 69.7692 23.3601 69.549 23.3601C69.3674 23.3601 69.1763 23.3989 68.9756 23.4766C68.7745 23.5542 68.5868 23.6838 68.4118 23.8648ZM48.2827 30.5432H51.6262V24.1755C51.7688 23.9297 51.9534 23.7453 52.1802 23.6222C52.4068 23.4994 52.6241 23.4377 52.8314 23.4377C53.1941 23.4377 53.4729 23.5348 53.6673 23.7289C53.8617 23.9231 53.9589 24.3308 53.9589 24.952V30.5432H57.3024V24.1755C57.445 23.9297 57.6296 23.7453 57.8564 23.6222C58.083 23.4994 58.3003 23.4377 58.5076 23.4377C58.8703 23.4377 59.1491 23.5348 59.3435 23.7289C59.5379 23.9231 59.6351 24.3308 59.6351 24.952V30.5432H62.9786V24.4084C62.9786 23.192 62.7193 22.2535 62.2011 21.5934C61.6827 20.9334 60.892 20.6033 59.8295 20.6033C59.1686 20.6033 58.5919 20.7586 58.0994 21.0693C57.6068 21.3799 57.2117 21.7424 56.9136 22.1564C56.3693 21.1212 55.4491 20.6033 54.1533 20.6033C53.4923 20.6033 52.9286 20.7459 52.4621 21.0304C51.9955 21.3153 51.6132 21.6454 51.3152 22.0205H51.2374L51.1208 20.8363H48.2827V30.5432ZM37.7079 29.9996C37.2283 29.7666 36.8201 29.5015 36.4833 29.2036L38.1162 26.1557C38.44 26.4406 38.7771 26.6929 39.127 26.9128C39.4249 27.1069 39.7651 27.2817 40.1475 27.437C40.5297 27.5923 40.9282 27.6699 41.343 27.6699C41.9779 27.6699 42.4833 27.5666 42.8593 27.3593C43.235 27.1524 43.423 26.8871 43.423 26.5634C43.423 26.3692 43.3647 26.2108 43.2481 26.0877C43.1314 25.9649 42.937 25.845 42.6649 25.7286C42.3928 25.6121 42.0331 25.4925 41.586 25.3694C41.1389 25.2466 40.5849 25.0879 39.924 24.8938C38.9389 24.5963 38.1776 24.1269 37.6399 23.4863C37.1019 22.8456 36.8332 22.0142 36.8332 20.9916C36.8332 20.448 36.9401 19.9208 37.1539 19.4094C37.3678 18.8983 37.6885 18.4453 38.1162 18.0504C38.5438 17.6558 39.0784 17.3388 39.7199 17.0992C40.3614 16.8599 41.1098 16.74 41.9651 16.74C42.626 16.74 43.2447 16.8177 43.8215 16.973C44.3981 17.1283 44.9004 17.2967 45.3281 17.4777C45.8335 17.6979 46.3 17.9437 46.7277 18.2154L45.2503 21.2052C44.9004 20.9594 44.5374 20.7329 44.1617 20.5257C43.8376 20.3576 43.4844 20.2023 43.1023 20.0597C42.7198 19.9175 42.3408 19.8462 41.9651 19.8462C41.4208 19.8462 40.9931 19.953 40.6821 20.1665C40.3711 20.3801 40.2156 20.6553 40.2156 20.9916C40.2156 21.173 40.2705 21.325 40.3808 21.4478C40.4908 21.5709 40.6724 21.6874 40.9251 21.7973C41.1778 21.9075 41.5083 22.0205 41.9165 22.137C42.3247 22.2535 42.8204 22.396 43.4036 22.5641C44.4661 22.8747 45.3052 23.3376 45.9209 23.9522C46.5364 24.5671 46.8443 25.4179 46.8443 26.5051C46.8443 27.0875 46.734 27.6377 46.5138 28.1553C46.2934 28.6731 45.9598 29.126 45.5127 29.5142C45.0656 29.9025 44.5019 30.2101 43.8215 30.4364C43.1412 30.6627 42.3472 30.7761 41.4402 30.7761C40.5977 30.7761 39.8688 30.6951 39.2533 30.5335C38.6376 30.3718 38.1225 30.1937 37.7079 29.9996Z" fill="black"/>
</svg>
