<svg width="110" height="48" viewBox="0 0 110 48" fill="none" xmlns="http://www.w3.org/2000/svg">
<g clip-path="url(#clip0_10492_29516)">
<path fill-rule="evenodd" clip-rule="evenodd" d="M106.055 13.9465C106.431 11.9916 105.652 11.0159 103.72 11.0159H43.467C41.534 11.0159 40.3803 11.9933 40.0041 13.9465L37.4133 27.8544C37.0372 29.8093 37.8165 30.7868 39.7798 30.7868H100.033C101.934 30.7868 103.088 29.8093 103.464 27.8544L106.055 13.9465ZM101.447 17.5032H102.924L102.314 20.9934H100.802L99.7481 26.8718H96.1469L97.1691 20.9934H95.6999L96.3105 17.5032H97.8117L98.2233 15.1133H101.858L101.447 17.5032ZM46.9029 23.3816H51.3794L50.7267 26.8548H42.3082L44.6899 14.0523H52.7204L52.1098 17.5152H47.9874L47.7175 18.7775H51.6139L51.0269 22.0084H47.1306L46.9012 23.3816H46.9029ZM58.0015 17.5152L58.9528 19.5434L60.3832 17.5152H65.1819L60.9415 22.2813L63.8713 26.8735H59.2328L58.1331 24.9766L56.6572 26.8735H51.6645L56.1107 22.2813L53.3293 17.5152H57.9998H58.0015ZM70.3079 18.8406C72.2527 16.5343 76.2368 17.1894 76.2266 21.164C76.2199 24.1987 74.1773 26.7831 71.7045 26.7831C70.706 26.7831 69.8677 26.3618 69.1609 25.2854L68.5352 29.1679H64.7164L66.8029 17.5084H70.5744L70.3079 18.8389V18.8406ZM71.8901 20.6386C72.5647 20.9013 72.892 21.7133 72.6187 22.4536C72.3455 23.194 71.578 23.5829 70.9016 23.3202C70.2269 23.0575 69.8997 22.2455 70.173 21.5052C70.4462 20.7648 71.2137 20.3759 71.8901 20.6386ZM82.2719 17.4708C84.7598 17.5578 86.821 18.989 86.5562 22.4332L80.7437 22.4417C80.2276 24.8777 82.6902 24.5843 82.9854 23.4703L86.2424 23.8831C85.2287 26.2372 83.5791 26.8172 81.4015 26.8172C79.4078 26.8172 77.0514 25.6027 77.0582 22.7317C77.0666 19.2227 79.757 17.4691 82.2719 17.4691V17.4708ZM83.0258 20.9286H80.9124C81.0524 20.2394 81.3745 19.569 82.169 19.569C82.8774 19.569 83.1102 20.2446 83.0258 20.9286ZM91.7327 19.1477C92.6469 17.7677 93.2204 17.5049 95.3002 17.5084L94.6896 20.9883C92.5862 20.8962 91.7243 21.5547 91.4898 23.0029L90.8286 26.8735H86.8125L88.4723 17.5442L92.0701 17.5118L91.7344 19.1477H91.7327Z" fill="black"/>
<path fill-rule="evenodd" clip-rule="evenodd" d="M6.14476 9.51147C4.21177 9.51147 3.05805 10.4889 2.6819 12.4421L0.0910898 26.3517C-0.285051 28.3066 0.494218 29.2841 2.45757 29.2841H35.9273C37.8283 29.2841 38.982 28.3066 39.3581 26.3517L41.9489 12.4438C42.3251 10.4889 41.5458 9.51318 39.6145 9.51318H6.14476V9.51147ZM10.8035 17.4795C12.47 18.3495 13.3909 19.5692 13.3758 21.1778C13.3488 24.1699 11.0447 26.0685 8.27341 26.0685C6.37247 26.0685 4.64188 25.2651 3.01419 23.6564L5.09561 20.2976C5.93392 21.3928 8.9987 23.23 9.02232 21.6811C8.96665 21.3297 8.60907 21.1454 7.80787 20.7428C5.88332 19.8387 4.92863 18.5662 4.94549 16.8586C4.9573 15.4854 5.41947 14.3459 6.29656 13.4759C7.20571 12.6059 8.4016 12.1368 9.85219 12.1368C11.5271 12.1368 12.9389 12.7065 14.1196 13.8119L12.4582 17.0104C11.4377 16.0193 10.7209 15.6884 10.0445 15.6884C9.62617 15.6884 9.39846 15.8897 9.39508 16.2581C9.39002 16.891 10.3582 17.2731 10.8035 17.4829V17.4795ZM37.3408 16.8774H38.8201L38.2415 20.1953H36.7302L35.676 26.0736H32.0748L33.097 20.1953H31.6279L32.2064 16.8774H33.7076L34.1512 14.3152H37.7861L37.3425 16.8774H37.3408ZM31.8353 12.4609L31.2956 15.6457C30.0137 15.4922 29.6173 16.05 29.6038 16.8893H31.0527L30.4741 20.2021H28.9932L27.971 26.0736H24.1067L25.1289 20.2021H23.8234L24.434 16.8893H25.7057C26.3113 13.3189 28.2291 11.6267 31.8353 12.4609ZM22.221 17.7337C22.9867 18.5235 23.3629 19.5658 23.3494 20.8281C23.3376 22.0273 22.9732 23.1327 22.1906 24.0812C21.1786 25.4067 19.8208 26.0395 18.1779 26.0395C16.9533 26.0395 15.9598 25.6608 15.162 24.871C14.3962 24.1136 14.0201 23.1344 14.0319 21.9352C14.0471 20.4511 14.5092 19.2195 15.4218 18.2096C16.4625 17.1367 17.6921 16.5993 19.141 16.5993C20.4297 16.5993 21.4569 16.978 22.221 17.7354V17.7337ZM19.6689 20.3232C19.8815 20.5415 19.9861 20.8298 19.981 21.1812C19.9776 21.5139 19.8764 21.8192 19.6605 22.0819C19.3805 22.4487 19.0044 22.6244 18.549 22.6244C18.2099 22.6244 17.935 22.5186 17.714 22.3003C17.5015 22.0905 17.3969 21.8192 17.4003 21.4866C17.4037 21.0755 17.5319 20.7343 17.7849 20.4545C18.0733 20.1577 18.414 20.0076 18.8155 20.0076C19.173 20.0076 19.4564 20.1134 19.6689 20.3232Z" fill="black"/>
<path fill-rule="evenodd" clip-rule="evenodd" d="M1.76263 35.495C1.26842 35.3449 0.919264 35.1589 0.71517 34.9406C0.511075 34.7222 0.431799 34.451 0.477341 34.1303C0.529629 33.7669 0.716856 33.4667 1.03733 33.2279C1.3595 32.9908 1.74913 32.8714 2.20792 32.8714C2.52166 32.8714 2.79322 32.9328 3.02093 33.0556C3.25032 33.1784 3.41562 33.3473 3.51851 33.5622C3.62309 33.7772 3.65682 34.0126 3.61972 34.2685H3.01587C3.05466 33.9887 2.999 33.7704 2.84719 33.61C2.6937 33.4514 2.45756 33.3712 2.13708 33.3712C1.84022 33.3712 1.6007 33.4377 1.41516 33.5691C1.22962 33.7021 1.12167 33.8846 1.08794 34.1201C1.06095 34.3077 1.11661 34.468 1.25661 34.5977C1.39492 34.7273 1.64624 34.8467 2.01058 34.9542C2.37322 35.0617 2.65491 35.1811 2.84888 35.3107C3.04454 35.4404 3.18117 35.5922 3.26044 35.7662C3.33972 35.9385 3.36165 36.1432 3.32791 36.3786C3.27394 36.7522 3.0884 37.0524 2.76792 37.2776C2.44744 37.5028 2.046 37.6154 1.56359 37.6154C1.24986 37.6154 0.966492 37.5539 0.711796 37.4328C0.458787 37.31 0.273247 37.1445 0.155176 36.933C0.0371048 36.7215 -0.00168996 36.4827 0.0371048 36.2131H0.640954C0.602159 36.4912 0.671315 36.7113 0.853481 36.8716C1.03396 37.032 1.29372 37.1138 1.63444 37.1138C1.95154 37.1138 2.20455 37.0473 2.39178 36.9177C2.58069 36.7863 2.69033 36.6089 2.72238 36.3837C2.75442 36.1568 2.70045 35.9828 2.56214 35.8583C2.42383 35.7355 2.15564 35.6127 1.76094 35.4933L1.76263 35.495ZM3.85923 35.8054C3.90646 35.4694 4.01441 35.1675 4.18308 34.8996C4.35176 34.6301 4.5626 34.4237 4.81729 34.277C5.0703 34.1303 5.34693 34.0586 5.64548 34.0586C6.10764 34.0586 6.45848 34.219 6.69799 34.5431C6.93582 34.8672 7.01679 35.2971 6.94088 35.8327L6.93582 35.8737C6.8886 36.208 6.78233 36.5083 6.61872 36.7727C6.45511 37.0371 6.24427 37.2435 5.98788 37.3919C5.73319 37.5403 5.4515 37.6137 5.14621 37.6137C4.68573 37.6137 4.33658 37.4533 4.09875 37.1292C3.85923 36.8051 3.77827 36.3769 3.85417 35.8447L3.85923 35.8037V35.8054ZM4.43103 35.8737C4.37706 36.2541 4.42091 36.5594 4.56091 36.7897C4.7026 37.02 4.92018 37.1343 5.21199 37.1343C5.50379 37.1343 5.7568 37.0183 5.96258 36.7846C6.16836 36.5509 6.30161 36.2251 6.36234 35.8037C6.41631 35.4267 6.37077 35.1231 6.2274 34.8894C6.08403 34.6557 5.86644 34.5397 5.57295 34.5397C5.27946 34.5397 5.03994 34.654 4.83247 34.8843C4.62501 35.1146 4.49007 35.4438 4.42935 35.8737H4.43103ZM7.62907 37.5505L8.05244 34.5789H7.51606L7.58015 34.1252H8.11653L8.16714 33.7738C8.21942 33.4053 8.35774 33.1221 8.58038 32.9208C8.80303 32.7213 9.09146 32.6206 9.44736 32.6206C9.58061 32.6206 9.71049 32.6394 9.837 32.6752L9.73917 33.1494C9.64302 33.1307 9.54013 33.1221 9.4305 33.1221C9.24158 33.1221 9.08978 33.1767 8.9717 33.2893C8.85363 33.4002 8.77942 33.5605 8.74906 33.7669L8.69846 34.1286H9.42206L9.35797 34.5823H8.63436L8.21099 37.5539H7.63076L7.62907 37.5505ZM10.8861 33.2927H10.3059L10.1878 34.1235H9.57049L9.5064 34.5772H10.1237L9.82182 36.7027C9.77965 36.9944 9.81338 37.2179 9.92302 37.3765C10.0327 37.5352 10.2165 37.6137 10.4746 37.6137C10.6196 37.6137 10.7698 37.5915 10.9283 37.5505L10.9958 37.0763C10.876 37.1019 10.7816 37.1138 10.7141 37.1138C10.5775 37.1138 10.4864 37.0797 10.4408 37.0115C10.3936 36.9415 10.3801 36.8392 10.4004 36.7027L10.7023 34.5772H11.3348L11.3989 34.1235H10.7664L10.8845 33.2927H10.8861ZM14.6239 36.742L15.6495 34.1235H16.2297L14.7555 37.5505H14.2866L13.8312 34.9542L12.6606 37.5505H12.19L11.6941 34.1235H12.2709L12.5729 36.6891L13.7266 34.1235H14.1921L14.6256 36.742H14.6239ZM18.3465 37.5505C18.3229 37.484 18.3128 37.3629 18.3162 37.1906C18.0058 37.4738 17.6651 37.6154 17.2907 37.6154C16.9567 37.6154 16.6952 37.5198 16.5097 37.3288C16.3225 37.1377 16.2499 36.8955 16.2921 36.6021C16.3427 36.2456 16.5164 35.9675 16.8116 35.7696C17.1085 35.5717 17.4998 35.4728 17.9856 35.4728H18.549L18.5877 35.2033C18.6164 34.9986 18.5793 34.8348 18.4764 34.7137C18.3718 34.5926 18.2015 34.5312 17.967 34.5312C17.7596 34.5312 17.5791 34.584 17.4239 34.6898C17.2687 34.7956 17.181 34.9235 17.1591 35.0719H16.5755C16.5991 34.9013 16.6834 34.7359 16.8251 34.5755C16.9685 34.4169 17.149 34.2906 17.3682 34.1968C17.5875 34.103 17.8186 34.0569 18.0665 34.0569C18.4562 34.0569 18.748 34.1559 18.942 34.3538C19.1359 34.5499 19.2118 34.8229 19.1697 35.1692L18.9453 36.7471C18.8998 37.0627 18.9065 37.3117 18.9588 37.4977L18.9521 37.5488H18.3432L18.3465 37.5505ZM17.4458 37.1155C17.628 37.1155 17.8068 37.0678 17.9822 36.9722C18.1593 36.8767 18.2943 36.7522 18.3887 36.5987L18.4899 35.889H18.0362C17.3261 35.889 16.9415 36.1006 16.8808 36.5253C16.8538 36.7095 16.8943 36.8545 17.0005 36.9586C17.1068 37.0627 17.2552 37.1155 17.4458 37.1155ZM21.7149 34.6455C21.6289 34.6301 21.5361 34.6233 21.4333 34.6233C21.0521 34.6233 20.7721 34.787 20.5899 35.1146L20.2441 37.5505H19.6639L20.1513 34.1235H20.7147L20.6675 34.5175C20.9019 34.2122 21.1921 34.0586 21.5412 34.0586C21.6542 34.0586 21.7386 34.074 21.7908 34.103L21.7133 34.6455H21.7149ZM23.1537 37.6154C23.7221 37.6154 24.1792 37.3953 24.5267 36.9535L24.213 36.6737C24.0865 36.8119 23.9465 36.9228 23.793 37.0081C23.6395 37.0917 23.459 37.1343 23.2549 37.1343C22.9665 37.1343 22.7438 37.0302 22.5853 36.8221C22.4284 36.614 22.3694 36.3411 22.4082 36.005H24.7055L24.7409 35.7611C24.8185 35.2135 24.7561 34.7939 24.5537 34.4988C24.3513 34.2053 24.0291 34.0586 23.5889 34.0586C23.319 34.0586 23.0576 34.1337 22.8063 34.2855C22.5532 34.4356 22.3441 34.6455 22.1788 34.9133C22.0118 35.1811 21.9055 35.4847 21.8566 35.8242L21.8414 35.9317C21.7689 36.4434 21.8549 36.8511 22.0995 37.1565C22.3441 37.4618 22.6983 37.6137 23.1571 37.6137L23.1537 37.6154ZM23.5197 34.5397C23.7609 34.5397 23.9431 34.6216 24.0612 34.787C24.1792 34.9525 24.2265 35.1828 24.2012 35.483L24.1944 35.5274H22.4959C22.5769 35.2152 22.7101 34.973 22.894 34.8007C23.0778 34.6284 23.2853 34.5414 23.5197 34.5414V34.5397ZM26.8696 37.5505L27.2929 34.5789H26.7566L26.8207 34.1252H27.357L27.4076 33.7738C27.4599 33.4053 27.5982 33.1221 27.8209 32.9208C28.0435 32.7213 28.332 32.6206 28.6879 32.6206C28.8211 32.6206 28.951 32.6394 29.0775 32.6752L28.9797 33.1494C28.8835 33.1307 28.7806 33.1221 28.671 33.1221C28.4821 33.1221 28.3303 33.1767 28.2122 33.2893C28.0941 33.4002 28.0199 33.5605 27.9896 33.7669L27.939 34.1286H28.6626L28.5985 34.5823H27.8749L27.4515 37.5539H26.8713L26.8696 37.5505ZM28.8279 35.8054L28.8228 35.8464C28.7469 36.3786 28.8279 36.8068 29.0674 37.1309C29.3052 37.455 29.6544 37.6154 30.1148 37.6154C30.4201 37.6154 30.7001 37.542 30.9565 37.3936C31.2129 37.2452 31.4237 37.0388 31.5874 36.7744C31.751 36.51 31.8572 36.2097 31.9045 35.8754L31.9095 35.8344C31.9854 35.2988 31.9045 34.8672 31.6666 34.5448C31.4271 34.2207 31.0763 34.0603 30.6141 34.0603C30.3156 34.0603 30.0389 34.132 29.7859 34.2787C29.5312 34.4254 29.3204 34.6318 29.1517 34.9013C28.9831 35.1692 28.8751 35.4711 28.8279 35.8071V35.8054ZM29.4014 35.8737C29.4621 35.4438 29.597 35.1146 29.8045 34.8843C30.012 34.654 30.2599 34.5397 30.545 34.5397C30.83 34.5397 31.056 34.6557 31.1994 34.8894C31.3428 35.1231 31.3866 35.4267 31.3344 35.8037C31.2753 36.2251 31.1421 36.5509 30.9346 36.7846C30.7288 37.0183 30.4775 37.1343 30.184 37.1343C29.8905 37.1343 29.6746 37.02 29.5329 36.7897C29.3912 36.5594 29.3491 36.2524 29.403 35.8737H29.4014ZM34.3637 34.6455C34.2777 34.6301 34.1849 34.6233 34.082 34.6233C33.7008 34.6233 33.4208 34.787 33.2387 35.1146L32.8929 37.5505H32.3127L32.8001 34.1235H33.3635L33.3163 34.5175C33.5507 34.2122 33.8408 34.0586 34.19 34.0586C34.303 34.0586 34.3873 34.074 34.4396 34.103L34.362 34.6455H34.3637ZM36.8634 35.7457L36.6071 37.5505H36.0066L36.6627 32.9362H38.3444C38.8437 32.9362 39.2164 33.0641 39.4627 33.3234C39.709 33.581 39.8017 33.9222 39.741 34.3469C39.6769 34.7956 39.4897 35.1402 39.1793 35.3824C38.8673 35.6246 38.454 35.7457 37.9379 35.7457H36.8634ZM36.9343 35.2459H38.0155C38.3376 35.2459 38.594 35.1692 38.788 35.0156C38.9803 34.8638 39.0984 34.642 39.1388 34.352C39.1776 34.0774 39.1237 33.8574 38.9752 33.6919C38.8268 33.5281 38.6041 33.4428 38.3073 33.436H37.1924L36.9343 35.2459ZM41.281 37.6154C40.8222 37.6154 40.4697 37.4635 40.2234 37.1582C39.9788 36.8528 39.8928 36.4451 39.9653 35.9334L39.9805 35.8259C40.0294 35.4864 40.1357 35.1828 40.3027 34.915C40.4697 34.6472 40.6788 34.4373 40.9301 34.2872C41.1832 34.1354 41.4429 34.0603 41.7128 34.0603C42.153 34.0603 42.4752 34.2071 42.6776 34.5005C42.88 34.7939 42.9424 35.2152 42.8648 35.7628L42.8294 36.0067H40.5321C40.4933 36.3445 40.5506 36.6174 40.7092 36.8238C40.8661 37.032 41.0887 37.136 41.3788 37.136C41.5829 37.136 41.7617 37.0934 41.9169 37.0098C42.0704 36.9262 42.2104 36.8136 42.3369 36.6754L42.6506 36.9552C42.3031 37.397 41.846 37.6171 41.2776 37.6171L41.281 37.6154ZM41.647 34.5397C41.4126 34.5397 41.2051 34.6267 41.0212 34.799C40.8391 34.9713 40.7058 35.2135 40.6232 35.5257H42.3217L42.3284 35.4813C42.3537 35.1811 42.3082 34.9508 42.1884 34.7853C42.0687 34.6199 41.8882 34.538 41.647 34.538V34.5397ZM45.2532 34.6455C45.1672 34.6301 45.0744 34.6233 44.9715 34.6233C44.5903 34.6233 44.3104 34.787 44.1282 35.1146L43.7824 37.5505H43.2022L43.6896 34.1235H44.253L44.2058 34.5175C44.4402 34.2122 44.7303 34.0586 45.0795 34.0586C45.1925 34.0586 45.2768 34.074 45.3291 34.103L45.2515 34.6455H45.2532ZM45.626 37.5505L46.0494 34.5789H45.513L45.5771 34.1252H46.1135L46.1641 33.7738C46.2164 33.4053 46.3547 33.1221 46.5773 32.9208C46.8 32.7213 47.0884 32.6206 47.4443 32.6206C47.5775 32.6206 47.7074 32.6394 47.8339 32.6752L47.7361 33.1494C47.64 33.1307 47.5371 33.1221 47.4274 33.1221C47.2385 33.1221 47.0867 33.1767 46.9686 33.2893C46.8506 33.4002 46.7764 33.5605 46.746 33.7669L46.6954 34.1286H47.419L47.3549 34.5823H46.6313L46.2079 37.5539H45.6277L45.626 37.5505ZM47.5843 35.8054L47.5792 35.8464C47.5033 36.3786 47.5843 36.8068 47.8238 37.1309C48.0616 37.455 48.4108 37.6154 48.8713 37.6154C49.1766 37.6154 49.4566 37.542 49.7129 37.3936C49.9693 37.2452 50.1802 37.0388 50.3438 36.7744C50.5074 36.51 50.6137 36.2097 50.6609 35.8754L50.6659 35.8344C50.7418 35.2988 50.6609 34.8672 50.4231 34.5448C50.1835 34.2207 49.8327 34.0603 49.3705 34.0603C49.072 34.0603 48.7954 34.132 48.5424 34.2787C48.2877 34.4254 48.0768 34.6318 47.9081 34.9013C47.7395 35.1692 47.6315 35.4711 47.5843 35.8071V35.8054ZM48.1578 35.8737C48.2185 35.4438 48.3534 35.1146 48.5609 34.8843C48.7684 34.654 49.0163 34.5397 49.3014 34.5397C49.5864 34.5397 49.8125 34.6557 49.9558 34.8894C50.0992 35.1231 50.1431 35.4267 50.0908 35.8037C50.0317 36.2251 49.8985 36.5509 49.691 36.7846C49.4852 37.0183 49.2339 37.1343 48.9404 37.1343C48.6469 37.1343 48.431 37.02 48.2893 36.7897C48.1477 36.5594 48.1055 36.2524 48.1595 35.8737H48.1578ZM53.1218 34.6455C53.0358 34.6301 52.943 34.6233 52.8401 34.6233C52.4589 34.6233 52.1789 34.787 51.9968 35.1146L51.651 37.5505H51.0708L51.5582 34.1235H52.1216L52.0744 34.5175C52.3088 34.2122 52.5989 34.0586 52.9481 34.0586C53.0611 34.0586 53.1454 34.074 53.1977 34.103L53.1201 34.6455H53.1218ZM54.1946 34.1235H53.6464L53.1589 37.5505H53.7392L54.0951 35.0497C54.2823 34.7222 54.5657 34.5585 54.9452 34.5585C55.4276 34.5585 55.6334 34.8075 55.5625 35.3056L55.2437 37.5505H55.8273L56.1512 35.2766C56.2052 35.0566 56.3131 34.8826 56.4734 34.7529C56.6336 34.6233 56.8225 34.5585 57.0367 34.5585C57.2982 34.5585 57.4753 34.6199 57.5697 34.741C57.6625 34.8621 57.6929 35.0463 57.6574 35.2903L57.3353 37.5505H57.9155L58.2427 35.2527C58.3439 34.4561 58.0218 34.0586 57.2796 34.0586C57.0333 34.0586 56.8107 34.1098 56.6167 34.2105C56.4211 34.3111 56.2558 34.4442 56.1191 34.6096C56.0011 34.2412 55.7042 34.0586 55.2302 34.0586C54.8086 34.0586 54.4527 34.2071 54.1608 34.5022L54.1996 34.1235H54.1946ZM60.7998 37.5505C60.7762 37.484 60.7661 37.3629 60.7694 37.1906C60.4591 37.4738 60.1184 37.6154 59.7439 37.6154C59.4099 37.6154 59.1485 37.5198 58.963 37.3288C58.7757 37.1377 58.7032 36.8955 58.7454 36.6021C58.796 36.2456 58.9697 35.9675 59.2649 35.7696C59.5617 35.5717 59.9531 35.4728 60.4389 35.4728H61.0022L61.041 35.2033C61.0697 34.9986 61.0326 34.8348 60.9297 34.7137C60.8251 34.5926 60.6547 34.5312 60.4203 34.5312C60.2128 34.5312 60.0323 34.584 59.8772 34.6898C59.722 34.7956 59.6343 34.9235 59.6124 35.0719H59.0287C59.0524 34.9013 59.1367 34.7359 59.2784 34.5755C59.4218 34.4169 59.6022 34.2906 59.8215 34.1968C60.0408 34.103 60.2719 34.0569 60.5198 34.0569C60.9094 34.0569 61.2012 34.1559 61.3952 34.3538C61.5892 34.5499 61.6651 34.8229 61.6229 35.1692L61.3986 36.7471C61.3531 37.0627 61.3598 37.3117 61.4121 37.4977L61.4053 37.5488H60.7964L60.7998 37.5505ZM59.9008 37.1155C60.083 37.1155 60.2617 37.0678 60.4372 36.9722C60.6143 36.8767 60.7492 36.7522 60.8437 36.5987L60.9449 35.889H60.4911C59.781 35.889 59.3965 36.1006 59.3357 36.5253C59.3087 36.7095 59.3492 36.8545 59.4555 36.9586C59.5617 37.0627 59.7102 37.1155 59.9008 37.1155ZM63.1562 34.1235L63.114 34.5533C63.4193 34.2241 63.7819 34.0586 64.1986 34.0586C64.9154 34.0586 65.219 34.468 65.1094 35.2852L64.7872 37.5505H64.207L64.5292 35.2834C64.5629 35.0361 64.5325 34.8536 64.4398 34.7359C64.347 34.6182 64.1851 34.5585 63.9523 34.5585C63.7651 34.5585 63.5913 34.6096 63.4362 34.7103C63.281 34.8126 63.1511 34.9457 63.0482 35.1095L62.7008 37.5505H62.1205L62.608 34.1235H63.1562ZM66.9985 37.1343C67.206 37.1343 67.3949 37.0712 67.567 36.945C67.7407 36.8187 67.8486 36.6601 67.8908 36.4707H68.439C68.4002 36.6669 68.3074 36.8545 68.159 37.032C68.0106 37.2094 67.825 37.3509 67.6041 37.4567C67.3831 37.5625 67.1588 37.6154 66.9277 37.6154C66.4672 37.6154 66.1214 37.4601 65.892 37.1479C65.6643 36.8358 65.5884 36.4093 65.666 35.8686L65.6795 35.7696C65.7267 35.437 65.8296 35.1385 65.9882 34.8792C66.1467 34.6199 66.3491 34.4169 66.5954 34.2736C66.8434 34.1303 67.12 34.0586 67.4287 34.0586C67.8099 34.0586 68.1084 34.1729 68.3277 34.4032C68.547 34.6335 68.638 34.9337 68.6026 35.3005H68.0544C68.0696 35.0787 68.0123 34.8962 67.8824 34.7529C67.7542 34.6096 67.5788 34.538 67.3595 34.538C67.066 34.538 66.8231 34.6455 66.6291 34.8587C66.4369 35.0736 66.312 35.3841 66.2547 35.7901L66.2395 35.901C66.1838 36.295 66.221 36.6004 66.3508 36.8136C66.4807 37.0268 66.6949 37.1343 66.9935 37.1343H66.9985ZM70.259 37.6154C69.8002 37.6154 69.4477 37.4635 69.2014 37.1582C68.9568 36.8528 68.8708 36.4451 68.9433 35.9334L68.9585 35.8259C69.0074 35.4864 69.1137 35.1828 69.2807 34.915C69.4477 34.6472 69.6568 34.4373 69.9081 34.2872C70.1612 34.1354 70.4209 34.0603 70.6908 34.0603C71.131 34.0603 71.4532 34.2071 71.6556 34.5005C71.858 34.7939 71.9204 35.2152 71.8428 35.7628L71.8074 36.0067H69.5101C69.4713 36.3445 69.5286 36.6174 69.6872 36.8238C69.844 37.032 70.0667 37.136 70.3568 37.136C70.5609 37.136 70.7397 37.0934 70.8949 37.0098C71.0484 36.9262 71.1884 36.8136 71.3149 36.6754L71.6286 36.9552C71.2811 37.397 70.824 37.6171 70.2556 37.6171L70.259 37.6154ZM70.625 34.5397C70.3905 34.5397 70.1831 34.6267 69.9992 34.799C69.8171 34.9713 69.6838 35.2135 69.6012 35.5257H71.2997L71.3064 35.4813C71.3317 35.1811 71.2862 34.9508 71.1664 34.7853C71.0467 34.6199 70.8662 34.538 70.625 34.538V34.5397ZM76.6618 35.4216H74.685L74.4539 37.0507H76.7495L76.6787 37.5505H73.7809L74.437 32.9362H77.3044L77.2336 33.436H74.9683L74.7575 34.9218H76.7343L76.6635 35.4216H76.6618ZM78.7044 35.3739L78.1394 34.1235H77.4681L78.3367 35.8174L76.9452 37.5505H77.6182L78.583 36.2677L79.1851 37.5505H79.8565L78.9591 35.8174L80.3102 34.1235H79.6338L78.7044 35.3739ZM81.7119 37.1343C81.9193 37.1343 82.1082 37.0712 82.2803 36.945C82.454 36.8187 82.562 36.6601 82.6041 36.4707H83.1523C83.1135 36.6669 83.0208 36.8545 82.8723 37.032C82.7239 37.2094 82.5384 37.3509 82.3174 37.4567C82.0964 37.5625 81.8721 37.6154 81.641 37.6154C81.1805 37.6154 80.8348 37.4601 80.6054 37.1479C80.3777 36.8358 80.3018 36.4093 80.3794 35.8686L80.3928 35.7696C80.4401 35.437 80.543 35.1385 80.7015 34.8792C80.8601 34.6199 81.0625 34.4169 81.3087 34.2736C81.5567 34.1303 81.8333 34.0586 82.142 34.0586C82.5232 34.0586 82.8217 34.1729 83.041 34.4032C83.2603 34.6335 83.3514 34.9337 83.3159 35.3005H82.7678C82.7829 35.0787 82.7256 34.8962 82.5957 34.7529C82.4675 34.6096 82.2921 34.538 82.0728 34.538C81.7793 34.538 81.5364 34.6455 81.3425 34.8587C81.1502 35.0736 81.0254 35.3841 80.968 35.7901L80.9528 35.901C80.8972 36.295 80.9343 36.6004 81.0642 36.8136C81.194 37.0268 81.4083 37.1343 81.7068 37.1343H81.7119ZM84.974 37.6154C84.5152 37.6154 84.1627 37.4635 83.9164 37.1582C83.6718 36.8528 83.5858 36.4451 83.6584 35.9334L83.6735 35.8259C83.7225 35.4864 83.8287 35.1828 83.9957 34.915C84.1627 34.6472 84.3718 34.4373 84.6232 34.2872C84.8762 34.1354 85.1359 34.0603 85.4058 34.0603C85.846 34.0603 86.1682 34.2071 86.3706 34.5005C86.573 34.7939 86.6354 35.2152 86.5578 35.7628L86.5224 36.0067H84.2251C84.1863 36.3445 84.2437 36.6174 84.4022 36.8238C84.5591 37.032 84.7817 37.136 85.0718 37.136C85.2759 37.136 85.4547 37.0934 85.6099 37.0098C85.7634 36.9262 85.9034 36.8136 86.0299 36.6754L86.3436 36.9552C85.9962 37.397 85.5391 37.6171 84.9706 37.6171L84.974 37.6154ZM85.3383 34.5397C85.1039 34.5397 84.8964 34.6267 84.7126 34.799C84.5304 34.9713 84.3971 35.2135 84.3145 35.5257H86.013L86.0198 35.4813C86.0451 35.1811 85.9995 34.9508 85.8798 34.7853C85.76 34.6199 85.5795 34.538 85.3383 34.538V34.5397ZM87.526 37.5505H86.9458L87.6373 32.6837H88.2176L87.526 37.5505ZM89.0036 37.5505H88.4234L89.1149 32.6837H89.6952L89.0036 37.5505ZM91.2503 37.6154C90.7915 37.6154 90.439 37.4635 90.1927 37.1582C89.9482 36.8528 89.8621 36.4451 89.9347 35.9334L89.9499 35.8259C89.9988 35.4864 90.105 35.1828 90.272 34.915C90.439 34.6472 90.6482 34.4373 90.8995 34.2872C91.1525 34.1354 91.4122 34.0603 91.6821 34.0603C92.1224 34.0603 92.4445 34.2071 92.6469 34.5005C92.8493 34.7939 92.9117 35.2152 92.8342 35.7628L92.7987 36.0067H90.5014C90.4626 36.3445 90.52 36.6174 90.6785 36.8238C90.8354 37.032 91.058 37.136 91.3481 37.136C91.5522 37.136 91.731 37.0934 91.8862 37.0098C92.0397 36.9262 92.1797 36.8136 92.3062 36.6754L92.6199 36.9552C92.2725 37.397 91.8154 37.6171 91.2469 37.6171L91.2503 37.6154ZM91.6147 34.5397C91.3802 34.5397 91.1727 34.6267 90.9889 34.799C90.8067 34.9713 90.6735 35.2135 90.5908 35.5257H92.2893L92.2961 35.4813C92.3214 35.1811 92.2758 34.9508 92.1561 34.7853C92.038 34.6216 91.8559 34.538 91.6147 34.538V34.5397ZM94.2088 34.1235L94.1667 34.5533C94.472 34.2241 94.8346 34.0586 95.2512 34.0586C95.9681 34.0586 96.2717 34.468 96.1621 35.2852L95.8399 37.5505H95.2597L95.5818 35.2834C95.6156 35.0361 95.5852 34.8536 95.4924 34.7359C95.3997 34.6182 95.2377 34.5585 95.005 34.5585C94.8177 34.5585 94.644 34.6096 94.4888 34.7103C94.3337 34.8126 94.2038 34.9457 94.1009 35.1095L93.7534 37.5505H93.1732L93.6607 34.1235H94.2088ZM98.0512 37.1343C98.2587 37.1343 98.4476 37.0712 98.6196 36.945C98.7934 36.8187 98.9013 36.6601 98.9435 36.4707H99.4917C99.4529 36.6669 99.3601 36.8545 99.2117 37.032C99.0632 37.2094 98.8777 37.3509 98.6567 37.4567C98.4358 37.5625 98.2114 37.6154 97.9804 37.6154C97.5199 37.6154 97.1741 37.4601 96.9447 37.1479C96.717 36.8358 96.6411 36.4093 96.7187 35.8686L96.7322 35.7696C96.7794 35.437 96.8823 35.1385 97.0409 34.8792C97.1994 34.6199 97.4018 34.4169 97.6481 34.2736C97.896 34.1303 98.1726 34.0586 98.4813 34.0586C98.8625 34.0586 99.1611 34.1729 99.3803 34.4032C99.5996 34.6335 99.6907 34.9337 99.6553 35.3005H99.1071C99.1223 35.0787 99.0649 34.8962 98.9351 34.7529C98.8069 34.6096 98.6314 34.538 98.4122 34.538C98.1187 34.538 97.8758 34.6455 97.6818 34.8587C97.4895 35.0736 97.3647 35.3841 97.3074 35.7901L97.2922 35.901C97.2365 36.295 97.2736 36.6004 97.4035 36.8136C97.5334 37.0268 97.7476 37.1343 98.0462 37.1343H98.0512ZM101.312 37.6154C100.853 37.6154 100.5 37.4635 100.254 37.1582C100.009 36.8528 99.9235 36.4451 99.996 35.9334L100.011 35.8259C100.06 35.4864 100.166 35.1828 100.333 34.915C100.5 34.6472 100.709 34.4373 100.961 34.2872C101.214 34.1354 101.474 34.0603 101.743 34.0603C102.184 34.0603 102.506 34.2071 102.708 34.5005C102.911 34.7939 102.973 35.2152 102.895 35.7628L102.86 36.0067H100.563C100.524 36.3445 100.581 36.6174 100.74 36.8238C100.897 37.032 101.119 37.136 101.409 37.136C101.614 37.136 101.792 37.0934 101.948 37.0098C102.101 36.9262 102.241 36.8136 102.368 36.6754L102.681 36.9552C102.334 37.397 101.877 37.6171 101.308 37.6171L101.312 37.6154ZM101.678 34.5397C101.443 34.5397 101.236 34.6267 101.052 34.799C100.87 34.9713 100.736 35.2135 100.654 35.5257H102.352L102.359 35.4813C102.384 35.1811 102.339 34.9508 102.219 34.7853C102.099 34.6199 101.919 34.538 101.678 34.538V34.5397Z" fill="black"/>
<path fill-rule="evenodd" clip-rule="evenodd" d="M108.02 10.3011H107.623L107.483 11.108H107.131L107.492 9.00806H108.146C108.372 9.00806 108.544 9.06435 108.664 9.17352C108.784 9.28441 108.836 9.43623 108.819 9.6324C108.809 9.76887 108.764 9.88657 108.684 9.98551C108.605 10.0845 108.495 10.1629 108.352 10.2192L108.659 11.0858V11.108H108.283L108.018 10.3011H108.02ZM107.671 10.006L108.011 10.0094C108.134 10.0094 108.236 9.97698 108.318 9.91216C108.401 9.84734 108.448 9.76034 108.463 9.64775C108.479 9.54028 108.458 9.4567 108.406 9.3987C108.354 9.3407 108.274 9.30999 108.168 9.30488H107.792L107.671 10.006Z" fill="black"/>
<path fill-rule="evenodd" clip-rule="evenodd" d="M107.956 8C109.084 8 110 8.92628 110 10.0675C110 11.2087 109.084 12.135 107.956 12.135C106.827 12.135 105.911 11.2087 105.911 10.0675C105.911 8.92628 106.827 8 107.956 8ZM107.956 8.41452C107.053 8.41452 106.321 9.15487 106.321 10.0675C106.321 10.9801 107.053 11.7205 107.956 11.7205C108.858 11.7205 109.59 10.9801 109.59 10.0675C109.59 9.15487 108.858 8.41452 107.956 8.41452Z" fill="black"/>
</g>
<defs>
<clipPath id="clip0_10492_29516">
<rect width="110" height="48" fill="white"/>
</clipPath>
</defs>
</svg>
