<svg width="120" height="48" viewBox="0 0 120 48" fill="none" xmlns="http://www.w3.org/2000/svg">
<g clip-path="url(#clip0_8369_36653)">
<path d="M15.359 14.4843C16.9881 14.4843 18.6171 14.9205 20.1051 15.8055L21.157 16.3058L23.9662 15.7799L23.5172 18.6532C25.9159 22.3988 25.6594 27.9146 22.4269 31.2497C20.5028 33.2508 17.9245 34.2513 15.359 34.2513C12.7935 34.2513 10.4461 33.3406 8.53483 31.4934C4.63531 27.7222 4.51986 21.5009 8.29111 17.6014C10.2665 15.5618 12.7935 14.4972 15.3462 14.4972M15.359 12.355C12.165 12.355 9.11206 13.689 6.77748 16.1006C2.19811 20.8339 2.32638 28.4148 7.07251 32.9942C9.3173 35.162 12.2548 36.355 15.3718 36.355C18.6428 36.355 21.6957 35.0594 23.9662 32.712C27.5835 28.9792 28.2761 22.8862 25.7363 18.2171L26.0698 16.1006L26.5316 13.1246L23.5685 13.689L21.4392 14.0867L21.0928 13.9199C19.3355 12.8937 17.3472 12.355 15.3462 12.355" fill="black"/>
<path d="M15.2564 32.3913C12.7807 32.3913 10.4333 31.1855 8.99661 29.1588L10.7283 27.9274C11.7802 29.3897 13.4734 30.2748 15.2564 30.2748C17.0394 30.2748 18.7454 29.4025 19.7844 27.9274L21.5161 29.1588C20.0795 31.1855 17.732 32.3913 15.2564 32.3913Z" fill="black"/>
<path d="M41.5268 20.3977C40.9881 19.705 39.9362 19.1791 38.9357 19.1791C37.7812 19.1791 36.4343 19.7307 36.4343 21.1161C36.4343 22.4116 37.5375 22.7964 39.1281 23.2967C40.9496 23.8611 43.2585 24.6564 43.2585 27.4271C43.2585 30.4544 40.8854 31.9424 38.1019 31.9424C36.2676 31.9424 34.3691 31.2497 33.2532 29.9285L35.049 28.2481C35.7545 29.2101 37.0244 29.8002 38.1404 29.8002C39.3205 29.8002 40.693 29.223 40.693 27.6965C40.693 26.17 39.2179 25.798 37.4349 25.2465C35.716 24.7077 33.856 23.8739 33.856 21.2315C33.856 18.3582 36.4728 17.0754 39.0255 17.0754C40.4365 17.0754 42.0656 17.5757 43.1431 18.5891L41.5012 20.3849L41.5268 20.3977Z" fill="black"/>
<path d="M44.1564 23.9125V22.0012H45.8368V19.2305H48.197V22.0012H50.5958V23.9125H48.197V28.3636C48.197 29.223 48.4023 29.8387 49.4541 29.8387C49.7748 29.8387 50.1981 29.7746 50.4675 29.6335L50.5444 31.5063C50.1211 31.6602 49.4926 31.7628 48.9539 31.7628C46.414 31.7628 45.8368 30.2107 45.8368 28.3636V23.8868H44.1564V23.9125Z" fill="black"/>
<path d="M58.2793 30.3646H58.2152C57.7406 31.1984 56.599 31.827 55.2393 31.827C53.7 31.827 51.6476 31.0958 51.6476 28.851C51.6476 26.0033 55.2393 25.5929 58.2409 25.5929V25.3491C58.2409 24.169 57.2403 23.5918 56.0474 23.5918C55.034 23.5918 54.0463 24.0664 53.4306 24.6949L52.1863 23.2326C53.2638 22.2321 54.7775 21.719 56.2398 21.719C59.6775 21.719 60.5113 23.8355 60.5113 25.7468V31.5704H58.2793V30.3518V30.3646ZM58.2409 27.2091H57.7021C56.1885 27.2091 54.0463 27.3887 54.0463 28.7997C54.0463 29.7233 54.9057 29.9926 55.7267 29.9926C57.3686 29.9926 58.2409 29.0562 58.2409 27.5426V27.1963V27.2091Z" fill="black"/>
<path d="M63.6925 23.9125H61.871V22.0012H63.6925V20.5902C63.6925 18.2941 64.5904 16.2545 67.5664 16.2545C68.0795 16.2545 68.4258 16.293 68.785 16.3956L68.631 18.4352C68.3745 18.3582 68.0538 18.2941 67.7203 18.2941C66.3478 18.2941 66.104 19.487 66.104 20.4491V22.0012H68.3232V23.9125H66.104V31.5832H63.7053V23.9125H63.6925Z" fill="black"/>
<path d="M69.7342 23.9125H67.9127V22.0012H69.7342V20.5902C69.7342 18.2941 70.6321 16.2545 73.6081 16.2545C74.1211 16.2545 74.4675 16.293 74.8267 16.3956L74.6727 18.4352C74.4162 18.3582 74.0955 18.2941 73.7492 18.2941C72.3766 18.2941 72.1329 19.487 72.1329 20.4491V22.0012H74.352V23.9125H72.1329V31.5832H69.7342V23.9125Z" fill="black"/>
<path d="M78.2644 16.4855V23.2198H78.3285C78.8288 22.6041 79.7908 21.719 81.5482 21.719C84.2804 21.719 86.2045 23.9125 86.2045 26.7474C86.2045 29.5822 84.4087 31.8527 81.4969 31.8527C80.1628 31.8527 78.8544 31.2369 78.2003 30.1338H78.1618V31.5705H75.8913V16.4855H78.29H78.2644ZM80.9966 23.6688C79.2393 23.6688 78.1874 25.285 78.1874 26.7858C78.1874 28.2866 79.2393 29.8644 80.9966 29.8644C82.8566 29.8644 83.7545 28.2482 83.7545 26.7474C83.7545 25.2466 82.8566 23.6688 80.9966 23.6688Z" fill="black"/>
<path d="M94.4525 30.3646H94.3884C93.9138 31.1984 92.7721 31.827 91.4124 31.827C89.8732 31.827 87.8208 31.0958 87.8208 28.851C87.8208 26.0033 91.4124 25.5929 94.414 25.5929V25.3491C94.414 24.169 93.4135 23.5918 92.2206 23.5918C91.2072 23.5918 90.2195 24.0664 89.6038 24.6949L88.3595 23.2326C89.437 22.2321 90.9507 21.719 92.413 21.719C95.8507 21.719 96.6845 23.8355 96.6845 25.7468V31.5704H94.4525V30.3518V30.3646ZM94.414 27.2091H93.8753C92.3617 27.2091 90.2195 27.3887 90.2195 28.7997C90.2195 29.7233 91.0789 29.9926 91.8999 29.9926C93.5418 29.9926 94.414 29.0562 94.414 27.5426V27.1963V27.2091Z" fill="black"/>
<path d="M104.74 24.5539C104.317 23.9894 103.521 23.5148 102.649 23.5148C101.892 23.5148 101.11 23.797 101.11 24.5539C101.11 25.3107 101.854 25.4902 103.188 25.8109C104.599 26.1444 106.279 26.7858 106.279 28.6586C106.279 30.9932 104.381 31.8526 102.29 31.8526C100.815 31.8526 99.2756 31.2882 98.352 30.2749L99.9298 28.7997C100.443 29.4796 101.341 29.9927 102.38 29.9927C103.073 29.9927 103.919 29.7105 103.919 28.851C103.919 28.0557 103.175 27.812 101.726 27.4785C100.302 27.1322 98.8908 26.5549 98.8908 24.7591C98.8908 22.6169 100.802 21.7062 102.701 21.7062C104.073 21.7062 105.523 22.1808 106.292 23.1685L104.74 24.541V24.5539Z" fill="black"/>
<path d="M117.478 27.5426H110.192C110.294 28.9023 111.526 29.9029 112.924 29.9029C114.117 29.9029 114.925 29.4282 115.464 28.6714L117.067 29.9542C116.131 31.2369 114.771 31.8654 112.95 31.8654C109.999 31.8654 107.806 29.967 107.806 26.8499C107.806 23.7329 109.986 21.719 112.873 21.719C115.554 21.719 117.503 23.4507 117.503 26.9141C117.503 27.1321 117.503 27.3374 117.478 27.5554M115.092 25.8238C115.092 24.5795 114.399 23.5148 112.834 23.5148C111.41 23.5148 110.281 24.4897 110.179 25.8238H115.092Z" fill="black"/>
</g>
<defs>
<clipPath id="clip0_8369_36653">
<rect width="114.061" height="24" fill="white" transform="translate(3.42953 12.355)"/>
</clipPath>
</defs>
</svg>
