<svg width="120" height="48" viewBox="0 0 120 48" fill="none" xmlns="http://www.w3.org/2000/svg">
<g clip-path="url(#clip0_2354_8118)">
<path d="M34.484 30.539C33.6193 30.5426 32.7595 30.4088 31.9367 30.1425C31.1476 29.8865 30.4225 29.4643 29.8101 28.9046L30.9228 27.0225C31.4892 27.4133 32.0942 27.7451 32.7281 28.0129C33.2585 28.2438 33.8311 28.362 34.4096 28.36C34.8045 28.36 35.1266 28.2856 35.3491 28.1367C35.5716 28.0129 35.6704 27.7904 35.6704 27.5177C35.6704 27.2701 35.5473 27.0225 35.2504 26.8737C34.7857 26.6507 34.2958 26.4844 33.7914 26.3785L32.0597 25.8089C31.5904 25.6106 31.2197 25.4124 30.9228 25.1899C30.6446 25.0055 30.4223 24.7483 30.2802 24.4463C30.1458 24.1337 30.0785 23.7963 30.0828 23.4559C30.0755 22.9748 30.1762 22.4982 30.3773 22.0611C30.5783 21.624 30.8748 21.2374 31.2448 20.9299C31.5904 20.6329 32.0354 20.4096 32.5299 20.2365C33.0251 20.0633 33.5689 19.9889 34.1377 19.9889C34.9048 19.9889 35.621 20.0876 36.2886 20.2858C36.957 20.5091 37.5995 20.8805 38.2177 21.4251L37.0063 23.2828C36.5276 22.9399 36.0136 22.6494 35.4729 22.4162C35.0517 22.2333 34.5969 22.1401 34.1377 22.1428C33.8165 22.1428 33.5195 22.1929 33.297 22.3418C33.0494 22.4656 32.9506 22.6881 32.9506 22.9858C32.9506 23.282 33.0744 23.481 33.3213 23.6291C33.5689 23.778 34.0633 23.9268 34.7309 24.1C35.3506 24.2565 35.9613 24.4463 36.5613 24.6696C37.0549 24.8671 37.4514 25.0904 37.7727 25.3137C38.3802 25.7618 38.7167 26.4909 38.6628 27.2451C38.6628 28.2605 38.2921 29.0527 37.5251 29.6473C36.7838 30.242 35.7942 30.539 34.484 30.539ZM46.724 29.8205C46.304 29.9944 45.8096 30.1676 45.2658 30.3165C44.7213 30.4646 44.1775 30.564 43.6086 30.564C43.2129 30.564 42.8666 30.5147 42.5202 30.4152C42.1838 30.3168 41.8721 30.148 41.6058 29.92C41.3582 29.7218 41.1608 29.4248 41.0119 29.1028C40.8446 28.7029 40.7606 28.2732 40.7651 27.8397V22.5149H39.4785V20.1871H40.7886V16.9418H43.8547V20.162H45.9319V22.5142H43.8547V26.7742C43.8547 27.0962 43.9291 27.3438 44.1023 27.517C44.2754 27.6408 44.498 27.7144 44.7456 27.7144C44.9924 27.7144 45.2392 27.6901 45.4625 27.5914C45.7094 27.517 45.9319 27.4425 46.1051 27.3438L46.699 29.8197H46.7233L46.724 29.8205ZM52.5106 30.539C51.7237 30.5528 50.9419 30.4098 50.2109 30.1182C49.5743 29.8659 48.9984 29.4816 48.521 28.9907C48.0436 28.4999 47.6755 27.9135 47.441 27.2701C46.9551 25.9768 46.9551 24.551 47.441 23.2577C47.6755 22.6144 48.0436 22.028 48.521 21.5371C48.9984 21.0462 49.5743 20.662 50.2109 20.4096C50.8792 20.1377 51.6448 19.9889 52.5106 19.9889C53.2549 19.9539 53.9979 20.0796 54.6892 20.3574C55.3805 20.6353 56.0039 21.0587 56.517 21.599C56.9863 22.0691 57.3327 22.6387 57.5802 23.2577C58.0864 24.5557 58.0864 25.9965 57.5802 27.2944C57.3443 27.9302 56.9783 28.5098 56.5057 28.9962C56.0331 29.4825 55.4642 29.8649 54.8354 30.119C54.0966 30.4138 53.3059 30.5569 52.5106 30.5397V30.539ZM50.2853 25.2886C50.2853 26.0815 50.4828 26.7248 50.9035 27.1957C51.3486 27.6909 51.8924 27.9385 52.5357 27.9385C52.8423 27.9444 53.1463 27.8806 53.4246 27.7519C53.703 27.6232 53.9486 27.433 54.1428 27.1957C54.3402 26.9481 54.4891 26.7005 54.6129 26.3534C54.7359 26.0314 54.7853 25.66 54.7853 25.2886C54.7853 24.4714 54.5628 23.8273 54.1428 23.3572C53.9487 23.1197 53.7031 22.9294 53.4247 22.8006C53.1464 22.6718 52.8424 22.6079 52.5357 22.6137C52.2297 22.613 51.9273 22.6792 51.6496 22.8077C51.3718 22.9361 51.1255 23.1237 50.9278 23.3572C50.7304 23.6048 50.5572 23.8524 50.4342 24.1987C50.3225 24.5508 50.2721 24.9195 50.2853 25.2886ZM65.9385 22.837C65.1964 22.837 64.5038 22.9608 63.8856 23.2084C63.341 23.3923 62.8775 23.7602 62.5747 24.2489V30.3658H59.4835V20.1871H62.3278V22.218C62.6742 21.5246 63.1192 20.98 63.6873 20.6078C64.2319 20.2114 64.8008 20.0132 65.419 19.9889H65.7402L65.9377 20.0132V22.837H65.9385ZM67.298 31.8765C67.7279 32.0261 68.1781 32.1096 68.6332 32.1241C69.0045 32.1241 69.3015 32.0003 69.524 31.7519C69.7215 31.5051 69.8947 31.0099 70.0678 30.3658L66.2096 20.1871H69.3995L71.7494 27.6909L73.8015 20.1871H76.6952L72.8127 32.0003C72.5199 32.9674 71.8745 33.7893 71.0043 34.3031C70.1341 34.8168 69.1027 34.9848 68.1144 34.7739C67.8338 34.7223 67.56 34.6393 67.298 34.5263V31.8765ZM84.0144 30.5397C83.2473 30.5397 82.5562 30.3901 81.9866 30.0438C81.4085 29.7256 80.9295 29.2541 80.602 28.6813V30.3658H77.9066V16.1997H81.022V21.8466C81.3535 21.2651 81.8371 20.7849 82.4209 20.4576C83.0047 20.1303 83.6667 19.9682 84.3357 19.9889C84.979 19.9889 85.5721 20.1127 86.1167 20.4096C86.6605 20.6572 87.1056 21.0537 87.5256 21.5246C88.1257 22.3588 88.5194 23.3235 88.6743 24.3395C88.8291 25.3555 88.7408 26.3937 88.4164 27.3689C88.1832 27.9871 87.8396 28.5579 87.4025 29.0534C86.9734 29.5246 86.4501 29.9004 85.8664 30.1563C85.2827 30.4123 84.6517 30.5426 84.0144 30.539V30.5397ZM83.1486 27.9385C83.6385 27.9393 84.1164 27.7869 84.5154 27.5027C84.9144 27.2185 85.2146 26.8167 85.3739 26.3534C85.5523 25.8628 85.6028 25.3348 85.5207 24.8192C85.4386 24.3037 85.2265 23.8175 84.9045 23.4066C84.7142 23.1552 84.4671 22.9524 84.1835 22.8146C83.8998 22.6768 83.5877 22.608 83.2724 22.6137C82.803 22.6137 82.358 22.7876 81.9372 23.1096C81.5304 23.4619 81.2091 23.9021 80.9977 24.397V26.5273C81.1929 26.94 81.5007 27.2892 81.8857 27.5345C82.2707 27.7799 82.7172 27.9115 83.1737 27.9142L83.1486 27.9385ZM90.2704 16.1997H93.3615V26.724C93.3615 27.517 93.6835 27.8884 94.3511 27.8884C94.7035 27.8891 95.0521 27.8048 95.3651 27.6408L95.785 29.9443C94.9191 30.324 93.9857 30.526 93.0402 30.5382C92.1501 30.5382 91.4575 30.2906 90.9881 29.8448C90.4929 29.3496 90.2461 28.7056 90.2461 27.8139V16.1997H90.2704ZM101.621 30.539C100.834 30.5528 100.052 30.4098 99.3213 30.1182C98.6809 29.8674 98.1008 29.484 97.6191 28.9932C97.1374 28.5023 96.765 27.9151 96.5263 27.2701C96.1752 26.3144 96.0864 25.282 96.2691 24.2804C96.4519 23.2787 96.8994 22.3442 97.5653 21.5739C98.0601 21.0755 98.6486 20.6798 99.297 20.4096C99.9638 20.1377 100.731 19.9889 101.596 19.9889C102.34 19.9539 103.083 20.0796 103.775 20.3574C104.466 20.6353 105.089 21.0587 105.602 21.599C106.097 22.0691 106.418 22.6387 106.666 23.2577C107.03 24.2114 107.126 25.2468 106.943 26.2512C106.76 27.2555 106.304 28.1904 105.627 28.9539C105.143 29.4656 104.552 29.8633 103.896 30.1182C103.165 30.4098 102.383 30.5528 101.596 30.539H101.621ZM99.3706 25.2886C99.3706 26.0815 99.5681 26.7248 99.9888 27.1957C100.434 27.6909 100.978 27.9385 101.621 27.9385C101.927 27.9426 102.231 27.878 102.509 27.7495C102.787 27.6209 103.033 27.4317 103.228 27.1957C103.426 26.9481 103.574 26.7005 103.698 26.3534C103.822 26.0314 103.871 25.66 103.871 25.2886C103.871 24.4714 103.649 23.8273 103.228 23.3572C103.034 23.1197 102.788 22.9294 102.51 22.8006C102.232 22.6718 101.928 22.6079 101.621 22.6137C101.315 22.6131 101.013 22.6794 100.735 22.8078C100.458 22.9363 100.212 23.1238 100.014 23.3572C99.8164 23.6048 99.6425 23.8524 99.5187 24.1987C99.3957 24.5458 99.3706 24.8922 99.3706 25.2886ZM115.419 30.3658L112.773 26.2547L111.685 27.3939V30.3658H108.594V16.1997H111.685V24.397L115.123 20.1871H118.411L114.752 24.5701L118.709 30.3651H115.419L115.419 30.3658Z" fill="black"/>
<path d="M12.363 24.5542H7.45291V26.8646H12.2453C12.5286 26.8646 12.7884 26.7491 13.001 26.5646C13.1894 26.3792 13.3078 26.102 13.3078 25.7557C13.3144 25.4576 13.2232 25.1655 13.0481 24.924C12.859 24.6924 12.6463 24.5542 12.363 24.5542ZM12.5286 21.7577C12.7413 21.6195 12.8354 21.3187 12.8354 20.9261C12.8354 20.5797 12.7413 20.3253 12.5757 20.1635C12.4048 20.0166 12.1874 19.9348 11.962 19.9327H7.45215V22.0121H11.8678C12.1033 22.0121 12.3395 21.8967 12.5286 21.7577Z" fill="black"/>
<path d="M20.337 13H1.10278C0.489873 13 0 13.4884 0 14.0747V33.2747C0 33.8618 0.489873 34.2278 1.07848 34.2278H3.92051V38.0633L7.44911 34.2522H20.3377C20.9256 34.2522 21.2932 33.8861 21.2932 33.2754V14.099C21.2932 13.5127 20.9256 13.0243 20.3134 13.0243L20.3362 13H20.337ZM17.1038 28.5605C16.8513 29.0039 16.4884 29.3744 16.0504 29.636C15.5848 29.9284 15.0706 30.198 14.482 30.3195C13.8942 30.4661 13.257 30.5884 12.5954 30.5884H3.92051V16.9084H13.7711C14.261 16.9084 14.6772 17.0063 15.0699 17.2258C15.4367 17.4218 15.78 17.6899 16.0496 18.0081C16.5984 18.6748 16.8935 19.5143 16.8828 20.3777C16.8828 21.0127 16.7111 21.6233 16.3922 22.2096C16.0616 22.7997 15.5448 23.2637 14.9225 23.5289C15.7063 23.7484 16.3192 24.1395 16.7841 24.7008C17.2253 25.2871 17.4463 26.0451 17.4463 26.9975C17.4463 27.6081 17.3233 28.1215 17.0787 28.5605H17.103H17.1038Z" fill="black"/>
</g>
<defs>
<clipPath id="clip0_2354_8118">
<rect width="120" height="25.0633" fill="white" transform="translate(0 13)"/>
</clipPath>
</defs>
</svg>
