<svg width="120" height="48" viewBox="0 0 120 48" fill="none" xmlns="http://www.w3.org/2000/svg">
<path d="M36.8786 32.799C36.9 32.789 36.9214 32.7795 36.9429 32.7695C36.9429 32.7624 36.9433 32.7552 36.9438 32.7481C36.8519 32.7481 36.7595 32.7533 36.6676 32.7471C35.5081 32.6738 34.4947 32.2785 33.7242 31.3766C33.2199 30.7861 32.959 30.0785 32.789 29.3318C32.6109 28.5504 32.5561 27.7566 32.5547 26.9584C32.5509 24.4798 32.5537 22.0012 32.5509 19.5226C32.5509 19.4159 32.5752 19.3802 32.688 19.3812C33.3385 19.3869 33.9895 19.3869 34.64 19.3821C34.7481 19.3812 34.7704 19.4159 34.7704 19.5183C34.7666 22.1198 34.7657 24.7217 34.7662 27.3232C34.7662 27.9532 34.8281 28.5751 35.0704 29.1647C35.4343 30.0485 36.1157 30.5523 37.0391 30.6995C37.74 30.8109 38.4424 30.749 39.1029 30.4547C39.8824 30.1075 40.2982 29.4685 40.5006 28.6675C40.592 28.3047 40.6415 27.9356 40.642 27.5618C40.6444 24.8889 40.6448 22.216 40.641 19.5426C40.641 19.4097 40.6763 19.3797 40.8053 19.3812C41.4439 19.3883 42.083 19.3869 42.7215 19.3831C42.8235 19.3826 42.8568 19.4073 42.8568 19.515C42.8539 23.7941 42.8539 28.0732 42.8563 32.3528C42.8563 32.4509 42.8392 32.4905 42.7277 32.4895C42.0772 32.4843 41.4263 32.4857 40.7758 32.49C40.6739 32.4909 40.6391 32.4662 40.642 32.3585C40.6501 32.0257 40.6458 31.6923 40.6467 31.359C40.6467 31.3247 40.6467 31.2909 40.6467 31.2223C40.5858 31.288 40.5448 31.3285 40.5082 31.3719C39.8824 32.1124 39.091 32.5671 38.1381 32.7409C38.061 32.7552 37.98 32.7486 37.901 32.7552C37.8657 32.7581 37.8162 32.7381 37.8076 32.8C37.4981 32.8 37.1886 32.8 36.8791 32.8L36.8786 32.799Z" fill="black"/>
<path d="M63.0681 32.7989C63.1105 32.7884 63.1524 32.7779 63.2148 32.7622C62.9948 32.7508 62.791 32.7589 62.5938 32.727C61.1095 32.487 59.8423 31.8431 58.8476 30.6979C58.7828 30.6231 58.7728 30.586 58.8585 30.5145C59.3271 30.1231 59.7904 29.725 60.2519 29.3245C60.3162 29.2688 60.3452 29.2626 60.4086 29.3288C60.9662 29.9074 61.5952 30.3874 62.3734 30.6245C63.3138 30.9107 64.2448 30.9084 65.1558 30.4812C66.1649 30.0079 66.2015 28.8202 65.651 28.1583C65.2491 27.6754 64.7391 27.3454 64.1643 27.0997C63.4172 26.7802 62.6448 26.5235 61.9076 26.1806C61.3205 25.9073 60.7586 25.5911 60.2419 25.1968C59.4571 24.5978 59.009 23.813 58.939 22.8258C58.8714 21.8653 59.1252 21.0077 59.8228 20.3186C60.3386 19.8091 60.9648 19.4738 61.6638 19.2953C63.09 18.9305 64.4934 18.9938 65.852 19.5938C66.5711 19.9115 67.1715 20.3924 67.6892 20.9805C67.732 21.0291 67.7254 21.0539 67.6787 21.0924C67.2111 21.4796 66.7444 21.8672 66.2806 22.2582C66.2039 22.3229 66.1772 22.2606 66.1391 22.2225C65.6282 21.7058 65.0253 21.341 64.3162 21.1777C63.5553 21.002 62.7948 20.9715 62.0491 21.2744C61.5186 21.4896 61.1633 21.8353 61.1262 22.4382C61.0871 23.0715 61.4019 23.4987 61.921 23.8068C62.6776 24.2563 63.4929 24.5744 64.3129 24.8849C65.1605 25.2059 65.9668 25.6059 66.7115 26.1325C67.6596 26.803 68.0992 27.7259 68.1558 28.8636C68.1925 29.6026 68.0716 30.3017 67.6758 30.9374C67.1925 31.7141 66.4796 32.1917 65.6282 32.4789C65.111 32.6531 64.5801 32.7589 64.0305 32.7584C63.9886 32.7584 63.9234 32.7212 63.902 32.7993H63.0686L63.0681 32.7989Z" fill="black"/>
<path d="M25.2836 32.7991C25.3069 32.7881 25.3303 32.7772 25.3931 32.7476C24.805 32.7767 24.2817 32.6529 23.7688 32.4848C22.7064 32.1362 21.7911 31.5605 21.0578 30.7076C20.9859 30.6243 20.9797 30.5819 21.0711 30.5057C21.534 30.1195 21.9916 29.7266 22.4469 29.3319C22.5207 29.2676 22.5616 29.2728 22.6283 29.3419C23.1764 29.9133 23.7983 30.3809 24.5626 30.62C25.4774 30.9057 26.3841 30.9009 27.2827 30.5219C28.4241 30.04 28.4032 28.7266 27.7903 28.0799C27.3993 27.6671 26.9527 27.3423 26.426 27.128C25.7069 26.8351 24.9812 26.557 24.2698 26.2461C23.4383 25.8827 22.6402 25.4546 22.0007 24.7918C21.4497 24.2203 21.1683 23.5284 21.144 22.7336C21.1302 22.2827 21.1645 21.8398 21.3226 21.4112C21.6126 20.626 22.1692 20.086 22.8869 19.6907C23.6002 19.2978 24.3721 19.1293 25.1779 19.0878C26.1169 19.0397 27.0293 19.1602 27.9022 19.5236C28.6665 19.8417 29.3099 20.3283 29.8608 20.9426C29.9251 21.0141 29.9313 21.0555 29.8518 21.1207C29.3975 21.4927 28.9465 21.8684 28.497 22.246C28.4384 22.2955 28.4117 22.2893 28.3579 22.236C27.6089 21.4903 26.7088 21.0917 25.6469 21.0555C25.0731 21.036 24.5274 21.1203 24.0126 21.3884C23.2788 21.7708 23.0869 22.7617 23.6255 23.3922C23.864 23.6717 24.1798 23.8351 24.4907 24.0103C25.1917 24.4056 25.9541 24.656 26.6969 24.9532C27.5798 25.3065 28.426 25.7275 29.1689 26.3332C29.9161 26.9418 30.2727 27.7437 30.3461 28.6876C30.3789 29.108 30.3865 29.5295 30.288 29.9419C30.0422 30.969 29.4265 31.7105 28.4979 32.1948C27.8241 32.5462 27.1027 32.73 26.3412 32.7548C26.2579 32.7576 26.165 32.7295 26.0926 32.7995C25.8226 32.7995 25.5531 32.7995 25.2831 32.7995L25.2836 32.7991Z" fill="black"/>
<path d="M96.924 32.7991C96.9517 32.7871 96.9793 32.7748 97.045 32.7462C96.5221 32.781 96.0526 32.6933 95.5935 32.5481C94.3597 32.1567 93.4625 31.3562 92.8254 30.2476C92.3292 29.3847 92.0792 28.4428 91.9544 27.4637C91.8182 26.3956 91.823 25.3275 91.9787 24.2622C92.1639 22.9936 92.5706 21.8146 93.4087 20.816C94.1697 19.9093 95.1411 19.3683 96.3035 19.1716C97.3283 18.9983 98.345 19.0402 99.3341 19.3783C100.644 19.8259 101.462 20.7664 101.946 22.0312C101.974 22.1031 101.953 22.1274 101.887 22.1508C101.257 22.3784 100.628 22.6065 99.9998 22.8398C99.915 22.8712 99.8855 22.8527 99.8541 22.7736C99.6755 22.3279 99.4141 21.9403 99.035 21.6388C98.636 21.3217 98.1717 21.1741 97.6702 21.1431C96.9655 21.0998 96.2926 21.2103 95.6959 21.6184C95.1769 21.9731 94.8445 22.4736 94.6068 23.0441C94.3154 23.7441 94.1849 24.4798 94.1464 25.2318C94.0944 26.2413 94.1178 27.2466 94.3973 28.228C94.5816 28.8761 94.8568 29.479 95.3511 29.9571C95.8388 30.4285 96.424 30.6838 97.1021 30.7104C97.6169 30.7304 98.125 30.6885 98.6055 30.4776C99.2841 30.1795 99.7007 29.6476 99.9541 28.9699C100.03 28.7661 100.029 28.7656 100.239 28.8356C100.814 29.0276 101.388 29.2223 101.965 29.409C102.069 29.4423 102.078 29.4828 102.046 29.5771C101.479 31.2662 100.302 32.2719 98.5836 32.6743C98.3664 32.7252 98.1474 32.7548 97.9245 32.7581C97.8898 32.7586 97.8402 32.7371 97.8283 32.7986H96.9236L96.924 32.7991Z" fill="black"/>
<path d="M74.2345 32.799C74.2326 32.7833 74.2945 32.7709 74.2402 32.7557C74.1993 32.7447 74.1536 32.7514 74.1098 32.749C73.2031 32.6995 72.5245 32.2938 72.1197 31.4676C71.934 31.089 71.8526 30.6818 71.8092 30.2656C71.7797 29.9809 71.7816 29.6956 71.7816 29.4099C71.7816 26.7765 71.7816 24.1431 71.7807 21.5102C71.7807 21.3002 71.7964 21.3207 71.5854 21.3207C70.9826 21.3207 70.3792 21.3217 69.7763 21.3221C69.6473 21.3221 69.6468 21.3226 69.6468 21.1907C69.6468 20.6316 69.6468 20.0721 69.6468 19.5131C69.6468 19.384 69.6468 19.3835 69.7792 19.3835C70.3983 19.3835 71.0168 19.3835 71.6359 19.3835C71.7807 19.3835 71.7816 19.3826 71.7816 19.2392C71.7816 17.9425 71.7821 16.6454 71.7778 15.3487C71.7778 15.2454 71.815 15.1939 71.9007 15.1463C72.5493 14.7868 73.195 14.4234 73.8417 14.061C73.8626 14.0496 73.8836 14.0387 73.904 14.0263C73.9745 13.9839 73.9907 14.0125 73.9902 14.0839C73.9888 14.3653 73.9917 14.6472 73.9917 14.9287C73.9917 16.3325 73.9917 17.7364 73.9917 19.1402C73.9917 19.1797 73.9955 19.2197 73.9917 19.2592C73.9831 19.3497 74.015 19.3873 74.1121 19.3845C74.3102 19.3783 74.5088 19.3835 74.7074 19.3835C75.505 19.3835 76.3022 19.3835 77.0998 19.3835C77.2298 19.3835 77.2303 19.3845 77.2303 19.5145C77.2303 20.0778 77.2274 20.6407 77.2317 21.204C77.2327 21.2993 77.2055 21.3226 77.1122 21.3221C76.1246 21.3188 75.1365 21.3198 74.1488 21.3198C73.9931 21.3198 73.9926 21.3198 73.9926 21.4721C73.9926 23.915 73.994 26.3579 73.9907 28.8009C73.9902 29.139 73.9883 29.4747 74.0864 29.8023C74.1331 29.9585 74.1874 30.1123 74.2674 30.2537C74.4269 30.5361 74.6922 30.6599 74.9984 30.7076C75.5236 30.789 76.0236 30.6861 76.507 30.4818C76.6317 30.429 76.6303 30.4266 76.6751 30.5576C76.8508 31.0709 77.0246 31.5847 77.2051 32.0966C77.2322 32.1738 77.2093 32.1971 77.1446 32.2271C76.5827 32.4876 75.995 32.6576 75.3822 32.74C75.2493 32.7576 75.1126 32.7509 74.9784 32.759C74.9583 32.76 74.9012 32.7314 74.926 32.7985H74.2355L74.2345 32.799Z" fill="black"/>
<path d="M113.503 19.3912C113.337 19.5688 113.191 19.7302 113.04 19.8864C112.345 20.6045 111.648 21.3212 110.952 22.0393C110.685 22.3155 110.421 22.596 110.151 22.8703C110.095 22.9274 110.098 22.9708 110.131 23.0351C110.44 23.6255 110.745 24.217 111.051 24.8084C111.491 25.6608 111.93 26.5137 112.371 27.3661C112.862 28.3171 113.353 29.2676 113.845 30.2181C114.208 30.9185 114.571 31.619 114.933 32.3195C114.94 32.3338 114.947 32.3481 114.954 32.3624C115.009 32.4786 115.005 32.4862 114.875 32.4862C114.157 32.4862 113.439 32.4852 112.72 32.4881C112.637 32.4881 112.593 32.4614 112.555 32.3876C111.434 30.1876 110.31 27.989 109.187 25.7903C108.994 25.4127 108.801 25.0351 108.606 24.6584C108.544 24.5379 108.541 24.5389 108.445 24.6384C107.862 25.2446 107.281 25.8518 106.696 26.4561C106.631 26.5237 106.603 26.5913 106.603 26.6861C106.606 28.5704 106.605 30.4542 106.606 32.3386C106.606 32.4862 106.606 32.4862 106.458 32.4862C105.811 32.4862 105.164 32.4871 104.517 32.4871C104.381 32.4871 104.381 32.4871 104.381 32.3519C104.381 26.7075 104.381 21.0631 104.379 15.4187C104.379 15.332 104.406 15.2873 104.484 15.2449C105.129 14.8887 105.772 14.5268 106.415 14.1663C106.607 14.0592 106.606 14.0582 106.606 14.2777C106.606 17.3992 106.606 20.5212 106.606 23.6427C106.606 23.6984 106.603 23.7536 106.605 23.8094C106.606 23.8317 106.607 23.8651 106.62 23.8732C106.651 23.8922 106.668 23.857 106.686 23.8389C106.805 23.716 106.922 23.5927 107.039 23.4689C107.535 22.9436 108.03 22.4184 108.525 21.8926C109.248 21.1245 109.974 20.3588 110.691 19.585C110.825 19.4407 110.956 19.3745 111.16 19.3788C111.898 19.3936 112.636 19.3845 113.374 19.385C113.409 19.385 113.443 19.3883 113.503 19.3916V19.3912Z" fill="black"/>
<path fill-rule="evenodd" clip-rule="evenodd" d="M51.3943 32.7786C51.3775 32.7872 51.3658 32.7932 51.3541 32.7991H51.3546H51.9974C51.959 32.7356 52.0028 32.7485 52.0276 32.7559C52.0335 32.7576 52.0384 32.7591 52.0408 32.7591C52.2708 32.7524 52.4993 32.7424 52.727 32.7C53.7417 32.5119 54.6113 32.06 55.3175 31.3009C56.0161 30.5495 56.4342 29.6528 56.6823 28.6694C56.967 27.5409 57.0299 26.3923 56.9713 25.2341C56.9156 24.1279 56.7151 23.0541 56.2313 22.0484C55.8113 21.1745 55.2251 20.4355 54.4108 19.8936C53.5279 19.3059 52.5512 19.0512 51.4931 19.074C50.3083 19.0993 49.2864 19.5016 48.4493 20.3488C48.4163 20.3824 48.3883 20.4209 48.3582 20.4623C48.3435 20.4826 48.3282 20.5036 48.3116 20.525C48.2632 20.4506 48.2659 20.3961 48.2683 20.3474C48.2688 20.3372 48.2693 20.3272 48.2693 20.3174C48.2683 18.255 48.2683 16.1921 48.2683 14.1296C48.2683 13.9739 48.2659 13.9734 48.1302 14.0496C47.978 14.1348 47.8259 14.2202 47.6739 14.3055C47.1792 14.583 46.6846 14.8604 46.1878 15.1339C46.0845 15.1911 46.0468 15.2535 46.0468 15.3739C46.0498 19.4425 46.0497 23.5111 46.0497 27.5796C46.0497 28.0883 46.0497 28.597 46.0497 29.1056C46.0497 29.2612 46.0497 29.4168 46.0497 29.5723C46.0498 30.5038 46.0498 31.435 46.0478 32.3662C46.0478 32.4548 46.0659 32.49 46.1645 32.489C46.8235 32.4843 47.4821 32.4843 48.1407 32.4871C48.2307 32.4876 48.2693 32.4657 48.2678 32.37C48.2641 32.1448 48.2645 31.9196 48.2648 31.6944C48.2649 31.6301 48.265 31.5658 48.265 31.5014C48.265 31.4912 48.2629 31.4799 48.2608 31.4685C48.2552 31.4383 48.2495 31.4071 48.2816 31.3933C48.3135 31.3793 48.3349 31.4058 48.3548 31.4305C48.3614 31.4386 48.3679 31.4466 48.3745 31.4528C48.9512 32.0014 49.6164 32.3929 50.3841 32.6124C50.7231 32.7095 51.0655 32.769 51.4465 32.7519C51.4242 32.7633 51.4076 32.7717 51.3943 32.7786ZM48.2678 25.9036V25.9094C48.2677 26.2009 48.2677 26.4924 48.2676 26.784C48.2676 27.4641 48.2676 28.1443 48.2659 28.8242C48.2654 28.9323 48.2935 29.0233 48.3531 29.1128C48.7597 29.7247 49.2978 30.1866 49.9769 30.46C50.8831 30.8247 51.8046 30.8781 52.7141 30.4614C53.4993 30.1019 53.9732 29.458 54.2851 28.6775C54.5846 27.928 54.6975 27.1423 54.7251 26.3418C54.7579 25.3903 54.7051 24.447 54.4294 23.5284C54.2146 22.8112 53.8741 22.1679 53.2651 21.705C52.4789 21.1079 51.5765 20.9993 50.6407 21.1774C49.654 21.365 48.9002 21.9303 48.3293 22.7474C48.2783 22.8203 48.2669 22.8974 48.2669 22.9827C48.2678 23.9565 48.2678 24.9298 48.2678 25.9036Z" fill="black"/>
<path fill-rule="evenodd" clip-rule="evenodd" d="M83.2604 32.7982C83.2596 32.7985 83.2588 32.7988 83.258 32.7991L83.2585 32.7982H83.2604ZM83.3084 32.7793C83.289 32.7869 83.2746 32.7925 83.2604 32.7982H84.0204C84.0056 32.747 84.0349 32.7527 84.0585 32.7573C84.0653 32.7586 84.0715 32.7598 84.0762 32.7596C84.0852 32.7592 84.0942 32.7588 84.1033 32.7584C84.2723 32.7508 84.4413 32.7431 84.6085 32.7115C85.6357 32.5172 86.5376 32.0753 87.3 31.3558C87.3053 31.3508 87.3104 31.345 87.3158 31.339C87.3351 31.3172 87.356 31.2936 87.3862 31.3067C87.416 31.3196 87.412 31.349 87.4082 31.3769C87.407 31.3861 87.4057 31.3951 87.4057 31.4034C87.4059 31.4669 87.4062 31.5304 87.4065 31.5939C87.4078 31.8479 87.409 32.1016 87.4029 32.3553C87.4005 32.4601 87.4296 32.4901 87.5348 32.4891C88.1339 32.4839 88.7329 32.482 89.332 32.4886C89.461 32.4905 89.4953 32.4586 89.4953 32.3267C89.491 29.6062 89.4915 26.8857 89.4924 24.1651C89.4924 23.7485 89.4886 23.3327 89.4429 22.918C89.3639 22.2013 89.1896 21.5146 88.8129 20.8913C88.2958 20.0355 87.5191 19.5365 86.5695 19.287C85.6995 19.0589 84.8147 19.0331 83.9242 19.1179C82.5785 19.246 81.3342 19.6712 80.1913 20.3951C80.1127 20.4446 80.097 20.487 80.1275 20.5741C80.3142 21.1046 80.4985 21.636 80.6742 22.1703C80.7151 22.2951 80.748 22.2865 80.8442 22.2199C82.1852 21.2903 83.6595 20.8617 85.2947 21.0622C85.66 21.107 86.0033 21.2256 86.3248 21.4089C86.9438 21.7618 87.2086 22.3365 87.3319 23.0004C87.4126 23.4358 87.4091 23.875 87.4056 24.3144C87.4042 24.4896 87.4028 24.6649 87.4067 24.8399C87.4081 24.9061 87.3834 24.9118 87.3272 24.8804C87.2062 24.8133 87.0834 24.7485 86.9576 24.6904C86.1048 24.2961 85.2086 24.097 84.2681 24.0604C83.1395 24.0166 82.0775 24.2275 81.0894 24.7871C80.1404 25.3242 79.5027 26.0995 79.2489 27.17C79.0756 27.9014 79.0765 28.6381 79.1899 29.3786C79.4418 31.0253 80.5951 32.2605 82.2195 32.6305C82.5909 32.7148 82.9633 32.7658 83.3828 32.7501C83.3505 32.7628 83.3271 32.772 83.3084 32.7793ZM87.4062 29.018V27.9947L87.4057 27.9951H87.4048C87.4048 27.9009 87.4045 27.8067 87.4043 27.7125C87.4038 27.4615 87.4032 27.2105 87.4067 26.9599C87.4081 26.8699 87.3852 26.8123 87.3009 26.7708C87.2285 26.7353 87.1579 26.6963 87.0872 26.6573C87.012 26.6158 86.9368 26.5743 86.8595 26.537C86.0576 26.1494 85.2109 25.9675 84.3195 25.9589C83.7266 25.9532 83.1604 26.0446 82.6161 26.2799C82.0913 26.507 81.6575 26.8342 81.3989 27.3613C81.2037 27.7589 81.1665 28.1804 81.198 28.6137C81.2608 29.479 81.6737 30.1157 82.4428 30.5199C82.767 30.6899 83.1171 30.7695 83.478 30.8104C84.3761 30.9123 85.2233 30.76 86.0109 30.308C86.529 30.0104 86.9714 29.6233 87.3605 29.1718C87.4014 29.1242 87.4062 29.0742 87.4062 29.018Z" fill="black"/>
<g clip-path="url(#clip0_4403_20533)">
<path d="M16.9995 22.1016H5V23.7225H16.9995V22.1016Z" fill="black"/>
<path d="M5 25.1909V32.7269L10.9995 29.3613L17 32.7269V25.1909H5Z" fill="black"/>
<path d="M16.9995 19.0123H5V20.6329H16.9995V19.0123Z" fill="black"/>
</g>
<defs>
<clipPath id="clip0_4403_20533">
<rect width="12" height="13.7143" fill="white" transform="translate(5 19.0123)"/>
</clipPath>
</defs>
</svg>
