<svg width="100" height="48" viewBox="0 0 100 48" fill="none" xmlns="http://www.w3.org/2000/svg">
<path d="M40.6309 26.7424V29.8884H42.4382C43.5092 29.8884 44.1116 29.286 44.1116 28.3488C44.1116 27.4117 43.4422 26.8093 42.4382 26.8093L40.6309 26.7424ZM38.4219 24.9351H42.572C44.8479 24.9351 46.3205 26.2738 46.3205 28.2819C46.3205 29.5537 45.6511 30.6247 44.5801 31.1602L46.5883 35.0425H44.1785L42.4382 31.6288H40.5639V35.0425H38.355L38.4219 24.9351Z" fill="black"/>
<path d="M52.5456 30.4909C52.4118 29.5538 51.7424 29.0852 50.8053 29.0852C49.8682 29.0852 49.2657 29.6207 49.1319 30.4909H52.5456ZM46.9229 31.3611C46.9229 29.0183 48.4625 27.5457 50.8053 27.5457C53.1481 27.5457 54.5537 28.9513 54.6207 31.0933C54.6207 31.2941 54.6207 31.5619 54.5538 31.7627H49.0649V31.8966C49.1319 32.9676 49.8012 33.57 50.8053 33.57C51.6085 33.57 52.211 33.2353 52.4118 32.499H54.4199C54.1521 33.9716 52.8803 35.1095 50.8722 35.1095C48.4625 35.1765 46.9229 33.7039 46.9229 31.3611Z" fill="black"/>
<path d="M60.5781 27.6125H62.6531V35.0426H60.8458L60.645 34.1724C60.1765 34.7748 59.5071 35.1764 58.4361 35.1764C56.8965 35.1764 55.4239 34.4401 55.4239 31.7626V27.6125H57.499V31.428C57.499 32.7667 57.9675 33.4361 58.9716 33.4361C59.9756 33.4361 60.5781 32.6998 60.5781 31.2941V27.6125Z" fill="black"/>
<path d="M63.858 25.5374H65.9331V27.6124H67.6734V29.3528H65.9331V32.6327C65.9331 33.1682 66.1339 33.369 66.6694 33.369H67.7404V35.1093H66C64.5943 35.1093 63.858 34.373 63.858 32.9674V25.5374Z" fill="black"/>
<path d="M73.6977 30.4909C73.5639 29.5538 72.8945 29.0852 71.9574 29.0852C71.0203 29.0852 70.4178 29.6207 70.284 30.4909H73.6977ZM68.075 31.3611C68.075 29.0183 69.6146 27.5457 71.9574 27.5457C74.3002 27.5457 75.7058 28.9513 75.7728 31.0933C75.7728 31.2941 75.7728 31.5619 75.7058 31.7627H70.217V31.8966C70.2839 32.9676 70.9533 33.57 71.9574 33.57C72.7606 33.57 73.363 33.2353 73.5639 32.499H75.572C75.3042 33.9716 74.0324 35.1095 72.0243 35.1095C69.6146 35.1765 68.075 33.7039 68.075 31.3611Z" fill="black"/>
<path d="M81.2616 27.6125V29.4868H80.4584C79.2535 29.4868 78.785 30.29 78.785 31.428V35.0426H76.7099V27.6125H78.5842L78.785 28.7505C79.1866 28.0811 79.789 27.6125 80.927 27.6125H81.2616Z" fill="black"/>
<path d="M83.5375 32.6328C83.6044 33.3022 84.2068 33.7038 85.2109 33.7038C86.0811 33.7038 86.6166 33.4361 86.6166 32.9006C86.6166 32.2981 86.0811 32.2312 84.8762 32.0973C83.1358 31.8965 81.7302 31.4949 81.7302 29.9553C81.7302 28.4158 83.0689 27.4787 84.9431 27.5456C86.9512 27.5456 88.3569 28.4158 88.4908 29.9553H86.4827C86.4158 29.3529 85.8803 29.0182 85.0101 29.0182C84.2068 29.0182 83.6713 29.286 83.6713 29.7545C83.6713 30.29 84.3407 30.357 85.4117 30.4908C87.1521 30.6916 88.5577 31.0263 88.5577 32.7667C88.5577 34.2393 87.1521 35.1764 85.144 35.1764C83.1358 35.1764 81.5963 34.2393 81.5294 32.6328H83.5375Z" fill="black"/>
<path d="M37.6187 13.2881H45.7181V15.1623H42.7728V23.3956H40.5639V15.1623H37.6187V13.2881Z" fill="black"/>
<path d="M53.6836 19.3124V23.4625H51.6085V19.5132C51.6085 18.3084 51.14 17.639 50.069 17.639C49.0649 17.5721 48.3956 18.3084 48.3956 19.5802V23.3956H46.3875V13.2881H48.3956V16.9027C48.8641 16.3003 49.5335 15.8986 50.6045 15.8986C52.3448 15.8986 53.6836 16.7688 53.6836 19.3124Z" fill="black"/>
<path d="M60.3104 19.7141C60.3104 18.4423 59.574 17.5721 58.4361 17.5721C57.2982 17.5721 56.5619 18.4423 56.5619 19.7141C56.5619 20.9859 57.2982 21.8561 58.4361 21.8561C59.574 21.8561 60.3104 20.9859 60.3104 19.7141ZM54.4868 19.7141C54.4868 17.4382 56.0264 15.8987 58.4361 15.8987C60.8458 15.8987 62.3854 17.4382 62.3854 19.7141C62.3854 21.99 60.8458 23.5295 58.4361 23.5295C56.0264 23.5295 54.4868 21.99 54.4868 19.7141Z" fill="black"/>
<path d="M75.1703 19.1786V23.4626H73.0953V19.3125C73.0953 18.1745 72.6937 17.639 71.8235 17.639C70.9533 17.639 70.3509 18.3084 70.3509 19.4463V23.5295H68.2758V19.3794C68.2758 18.2415 67.8742 17.706 66.9371 17.706C66 17.706 65.4645 18.3754 65.4645 19.5133V23.5964H63.3894V15.9656H65.1298L65.3306 16.9027C65.7992 16.3003 66.4685 15.8987 67.5395 15.8987C68.4766 15.8987 69.3468 16.2334 69.8154 17.1705C70.3509 16.3672 71.2211 15.8987 72.359 15.8987C73.8985 15.8987 75.1703 16.7689 75.1703 19.1786Z" fill="black"/>
<path d="M77.9148 20.9858C77.9817 21.6552 78.5842 22.0568 79.5882 22.0568C80.4584 22.0568 80.9939 21.7891 80.9939 21.2536C80.9939 20.6512 80.4584 20.5842 79.2535 20.4503C77.5132 20.2495 76.1075 19.8479 76.1075 18.3084C76.1075 16.7688 77.3793 15.8317 79.3205 15.8986C81.3286 15.8986 82.7343 16.7688 82.8681 18.3084H80.86C80.7931 17.7059 80.2576 17.3712 79.3874 17.3712C78.5842 17.3712 78.0487 17.639 78.0487 18.1075C78.0487 18.643 78.718 18.71 79.789 18.8439C81.5294 19.0447 82.9351 19.3793 82.9351 21.1197C82.9351 22.5923 81.5294 23.5294 79.5213 23.5294C77.5132 23.5294 75.9736 22.5923 75.9067 20.9858H77.9148Z" fill="black"/>
<path d="M89.361 19.7141C89.361 18.4423 88.6247 17.5721 87.4868 17.5721C86.3488 17.5721 85.6125 18.4423 85.6125 19.7141C85.6125 20.9859 86.3488 21.8561 87.4868 21.8561C88.6247 21.8561 89.361 20.9859 89.361 19.7141ZM83.4705 19.7141C83.4705 17.4382 85.0101 15.8987 87.4198 15.8987C89.8296 15.8987 91.3691 17.4382 91.3691 19.7141C91.3691 21.99 89.8296 23.5295 87.4198 23.5295C85.077 23.5295 83.4705 21.99 83.4705 19.7141Z" fill="black"/>
<path d="M99.6693 19.3125V23.4626H97.5943V19.5133C97.5943 18.2415 97.1257 17.5721 96.0547 17.5721C94.9837 17.5721 94.3813 18.3084 94.3813 19.5802V23.3956H92.3062V15.9656H94.1135L94.3143 16.9027C94.7829 16.3003 95.5192 15.8987 96.6571 15.8987C98.2636 15.8987 99.6693 16.7689 99.6693 19.3125Z" fill="black"/>
<path d="M28.5199 12.3712C28.957 12.8083 29.1755 13.3547 29.1755 14.0103C29.1755 14.5566 28.957 15.2123 28.5199 15.5401C27.6457 16.4143 26.2252 16.4143 25.351 15.5401C25.0232 15.103 24.8047 14.5566 24.8047 14.0103C24.8047 13.4639 25.0232 12.8083 25.4603 12.4805C25.8974 11.9341 26.4437 11.7156 26.9901 11.7156C27.5365 11.7156 28.0828 11.9341 28.5199 12.3712Z" fill="black"/>
<path d="M4.37089 36.5201C3.49671 35.6459 3.49671 34.2254 4.37089 33.3512C4.80797 32.9141 5.35433 32.6956 5.90069 32.6956C6.44705 32.6956 7.10268 32.9141 7.43049 33.3512C8.30466 34.2254 8.30466 35.6459 7.43049 36.5201C6.9934 36.9571 6.44705 37.1757 5.90069 37.1757C5.35433 37.1757 4.80797 36.9571 4.37089 36.5201Z" fill="black"/>
<path d="M21.4173 12.5894C20.9802 12.3709 20.5431 12.043 20.3245 11.4967C20.106 11.0596 20.106 10.5132 20.3245 9.96688C20.5431 9.52979 20.8709 9.09271 21.4173 8.87416C21.6358 8.76489 21.9636 8.76489 22.1822 8.76489C22.4007 8.76489 22.7285 8.76489 22.9471 8.87416C23.9305 9.31125 24.3676 10.404 24.0398 11.3874C23.6027 12.4801 22.4007 13.0265 21.4173 12.5894Z" fill="black"/>
<path d="M10.8179 36.3015C11.0364 36.3015 11.3643 36.3015 11.5828 36.4108C12.5662 36.8479 13.0033 37.9406 12.6755 38.924C12.457 39.3611 12.1292 39.7982 11.5828 40.0167C11.1457 40.2353 10.5994 40.2353 10.053 40.0167C9.06956 39.5797 8.63247 38.4869 8.96029 37.5035C9.17883 37.0664 9.50664 36.6293 10.053 36.4108C10.2715 36.3015 10.5994 36.3015 10.8179 36.3015Z" fill="black"/>
<path d="M18.1391 9.63907C18.1391 10.5132 17.3742 11.2781 16.5 11.2781H16.3907C15.5166 11.2781 14.7517 10.5132 14.7517 9.63907C14.7517 8.7649 15.5166 8 16.3907 8C17.3742 8 18.1391 8.7649 18.1391 9.63907Z" fill="black"/>
<path d="M16.5 41.0001C17.4053 41.0001 18.1391 40.2662 18.1391 39.361C18.1391 38.4558 17.4053 37.7219 16.5 37.7219C15.5948 37.7219 14.8609 38.4558 14.8609 39.361C14.8609 40.2662 15.5948 41.0001 16.5 41.0001Z" fill="black"/>
<path d="M11.3642 12.0428C11.0364 12.1521 10.5993 12.1521 10.2715 12.0428C9.94372 11.9336 9.6159 11.6057 9.50663 11.2779C9.17881 10.513 9.50663 9.74812 10.2715 9.42031C10.4901 9.31104 10.5993 9.31104 10.8179 9.31104C11.3642 9.31104 11.9106 9.63885 12.1291 10.1852C12.2384 10.513 12.2384 10.9501 12.1291 11.2779C11.9106 11.6057 11.6921 11.9336 11.3642 12.0428Z" fill="black"/>
<path d="M21.6358 36.9572C21.8544 36.8479 21.9636 36.8479 22.1822 36.8479C22.4007 36.8479 22.51 36.8479 22.7285 36.9572C23.0563 37.0664 23.3842 37.3943 23.4934 37.7221C23.6027 38.0499 23.6027 38.487 23.4934 38.8148C23.3842 39.1426 23.0563 39.4704 22.7285 39.5797C22.4007 39.689 21.9636 39.689 21.6358 39.5797C21.308 39.4704 20.9802 39.1426 20.8709 38.8148C20.7616 38.487 20.7616 38.0499 20.8709 37.7221C20.9802 37.285 21.308 37.0664 21.6358 36.9572Z" fill="black"/>
<path d="M6.77485 13.2451C7.21194 13.6821 7.21194 14.3378 6.77485 14.7749C6.33777 15.2119 5.68214 15.2119 5.24505 14.7749C4.80796 14.3378 4.80796 13.6821 5.24505 13.2451C5.46359 13.0265 5.79141 12.9172 6.00995 12.9172C6.2285 12.9172 6.55631 13.0265 6.77485 13.2451Z" fill="black"/>
<path d="M26.2252 34.225C26.4437 34.0065 26.7716 33.8972 26.9901 33.8972C27.3179 33.8972 27.5365 34.0065 27.755 34.225C27.9735 34.4436 28.0828 34.6621 28.0828 34.9899C28.0828 35.3177 27.9735 35.5363 27.755 35.7548C27.3179 36.1919 26.6623 36.1919 26.2252 35.7548C26.0067 35.5363 25.8974 35.2085 25.8974 34.9899C25.8974 34.7714 26.0067 34.4436 26.2252 34.225Z" fill="black"/>
<path d="M2.18544 20.1293C1.42054 19.8014 1.09272 19.0365 1.42054 18.2716C1.63908 17.9438 1.85763 17.616 2.18544 17.5067C2.40398 17.3975 2.51326 17.3975 2.7318 17.3975C2.95034 17.3975 3.05961 17.3975 3.27816 17.5067C4.04306 17.8345 4.37087 18.5994 4.04306 19.3644C3.93379 19.6922 3.60597 20.02 3.27816 20.1293C2.95034 20.2385 2.62253 20.2385 2.18544 20.1293Z" fill="black"/>
<path d="M30.7053 28.8707C31.0331 28.98 31.361 29.3078 31.4702 29.6356C31.5795 29.9635 31.5795 30.4005 31.4702 30.7284C31.1424 31.4933 30.3775 31.8211 29.6126 31.4933C29.2848 31.384 28.957 31.0562 28.8477 30.7284C28.7384 30.4005 28.7384 29.9635 28.8477 29.6356C29.0663 29.0893 29.6126 28.7615 30.159 28.7615C30.3775 28.7615 30.5961 28.7615 30.7053 28.8707Z" fill="black"/>
<path d="M1.63907 26.1392C2.54431 26.1392 3.27815 25.4054 3.27815 24.5002C3.27815 23.5949 2.54431 22.8611 1.63907 22.8611C0.733839 22.8611 0 23.5949 0 24.5002C0 25.4054 0.733839 26.1392 1.63907 26.1392Z" fill="black"/>
<path d="M31.361 26.1392C32.2662 26.1392 33 25.4054 33 24.5002C33 23.5949 32.2662 22.8611 31.361 22.8611C30.4557 22.8611 29.7219 23.5949 29.7219 24.5002C29.7219 25.4054 30.4557 26.1392 31.361 26.1392Z" fill="black"/>
<path d="M0.983458 30.9472C0.546371 29.9637 1.09273 28.7617 2.07617 28.4339C2.51326 28.2154 3.05962 28.2154 3.60598 28.4339C4.04306 28.6525 4.48015 28.9803 4.69869 29.5266C4.91724 29.9637 4.91724 30.5101 4.69869 31.0564C4.48015 31.4935 4.15233 31.9306 3.60598 32.1492C3.16889 32.3677 2.62253 32.3677 2.07617 32.1492C1.52982 31.8213 1.202 31.3843 0.983458 30.9472Z" fill="black"/>
<path d="M28.4106 19.5829C28.1921 19.1458 28.1921 18.5994 28.4106 18.0531C28.6292 17.616 28.957 17.1789 29.5033 16.9603C29.7219 16.8511 30.0497 16.8511 30.2682 16.8511C31.0331 16.8511 31.798 17.2882 32.1259 18.0531C32.5629 19.0365 32.0166 20.2385 31.0331 20.5663C30.5961 20.7849 30.0497 20.7849 29.5033 20.5663C28.957 20.457 28.6292 20.02 28.4106 19.5829Z" fill="black"/>
<path d="M21.308 29.3078C20.7616 29.8542 20.7616 30.8376 21.308 31.384C21.8543 31.9304 22.8378 31.9304 23.3841 31.384C23.712 31.0562 23.8212 30.7284 23.8212 30.2913C23.8212 29.8542 23.712 29.5264 23.3841 29.1986C23.0563 28.8707 22.7285 28.7615 22.2914 28.7615C21.9636 28.8707 21.6358 28.98 21.308 29.3078ZM21.1987 29.1986C20.5431 29.8542 20.5431 30.8376 21.1987 31.384C21.8543 32.0396 22.8378 32.0396 23.3841 31.384C23.712 31.0562 23.8212 30.7284 23.8212 30.2913C23.8212 29.8542 23.712 29.5264 23.3841 29.1986C23.0563 28.8707 22.7285 28.7615 22.2914 28.7615C21.8543 28.7615 21.5265 28.98 21.1987 29.1986Z" fill="black"/>
<path d="M8.19538 23.5167C7.53975 23.2981 7.10266 22.6425 7.32121 21.9869C7.43048 21.659 7.64902 21.4405 7.86757 21.222C8.08611 21.1127 8.30465 21.0034 8.5232 21.0034C8.63247 21.0034 8.74174 21.0034 8.85101 21.0034C9.17883 21.1127 9.39737 21.3312 9.61591 21.5498C9.83446 21.8776 9.83445 22.2054 9.72518 22.5332C9.50664 23.2981 8.85101 23.7352 8.19538 23.5167Z" fill="black"/>
<path d="M24.149 27.7781C23.8212 27.6689 23.6027 27.4503 23.3841 27.2318C23.1656 26.904 23.1656 26.5762 23.2749 26.2483C23.3841 25.9205 23.6027 25.702 23.8212 25.4834C24.0398 25.3742 24.2583 25.2649 24.4769 25.2649C24.5861 25.2649 24.6954 25.2649 24.6954 25.2649H24.8047C25.4603 25.4834 25.8974 26.1391 25.6788 26.7947C25.5696 27.1225 25.351 27.3411 25.1325 27.5596C24.8047 27.8874 24.4769 27.8874 24.149 27.7781Z" fill="black"/>
<path d="M7.53974 26.9038C7.43047 26.3575 7.64901 25.8111 8.19537 25.7018H8.30464C8.851 25.5926 9.39736 25.9204 9.50663 26.3575C9.6159 26.576 9.50663 26.9038 9.39736 27.1224C9.28808 27.3409 9.06954 27.5595 8.74173 27.5595C8.52318 27.6687 8.19537 27.5595 7.97683 27.4502C7.75828 27.3409 7.53974 27.1224 7.53974 26.9038Z" fill="black"/>
<path d="M24.0398 23.1889C23.8212 23.0796 23.6027 22.861 23.6027 22.5332C23.4934 21.9869 23.8212 21.4405 24.2583 21.3312C24.8047 21.222 25.351 21.5498 25.4603 21.9869C25.5696 22.5332 25.2418 23.0796 24.8047 23.1889C24.4768 23.4074 24.2583 23.2981 24.0398 23.1889Z" fill="black"/>
<path d="M11.1457 30.8378C10.8179 31.1657 10.3808 31.1657 10.053 30.8378C9.72518 30.51 9.72518 30.0729 10.053 29.7451C10.3808 29.4173 10.8179 29.4173 11.1457 29.7451C11.255 29.8544 11.3642 30.0729 11.3642 30.2915C11.3642 30.51 11.255 30.7286 11.1457 30.8378Z" fill="black"/>
<path d="M22.8378 18.0528C22.9471 18.162 23.0563 18.3806 23.0563 18.5991C23.0563 18.8177 22.9471 19.0362 22.8378 19.1455C22.51 19.4733 22.0729 19.4733 21.7451 19.1455C21.6358 19.0362 21.5265 18.8177 21.5265 18.5991C21.5265 18.3806 21.6358 18.162 21.7451 18.0528C21.8543 17.9435 22.0729 17.8342 22.2914 17.8342C22.51 17.8342 22.7285 17.9435 22.8378 18.0528Z" fill="black"/>
<path d="M15.1888 32.0397C15.298 32.2583 15.4073 32.5861 15.298 32.8046C15.1888 33.0232 15.0795 33.2417 14.8609 33.4603C14.6424 33.5695 14.3146 33.6788 14.096 33.5695C13.5497 33.4603 13.2219 32.9139 13.4404 32.3675C13.5497 32.149 13.659 31.9305 13.8775 31.7119C14.096 31.6026 14.4239 31.4934 14.6424 31.6026C14.8609 31.6026 15.0795 31.7119 15.1888 32.0397Z" fill="black"/>
<path d="M17.8113 16.9605C17.702 16.7419 17.5928 16.4141 17.702 16.1956C17.8113 15.977 17.9206 15.7585 18.1391 15.5399C18.2484 15.5399 18.4669 15.4307 18.5762 15.4307C18.6855 15.4307 18.7947 15.4307 18.7947 15.4307C19.0133 15.5399 19.2318 15.6492 19.4504 15.8678C19.5596 16.0863 19.6689 16.4141 19.5596 16.6327C19.4504 17.179 18.904 17.5068 18.3577 17.2883C18.1391 17.3976 17.9206 17.179 17.8113 16.9605Z" fill="black"/>
<path d="M19.2318 31.3842C19.5596 31.6027 19.7782 31.8213 19.7782 32.1491C19.9967 32.8047 19.5596 33.4603 18.904 33.6789C18.5762 33.7882 18.2484 33.6789 17.9206 33.5696C17.5927 33.3511 17.3742 33.1325 17.3742 32.8047C17.2649 32.4769 17.3742 32.1491 17.4835 31.8213C17.702 31.4934 17.9206 31.2749 18.2484 31.2749C18.3576 31.2749 18.4669 31.2749 18.5762 31.2749C18.904 31.2749 19.1225 31.2749 19.2318 31.3842Z" fill="black"/>
<path d="M14.6424 17.725C13.9868 17.9436 13.3312 17.5065 13.1126 16.8508C12.8941 16.1952 13.3312 15.5396 13.9868 15.321C14.0961 15.321 14.2053 15.321 14.3146 15.321C14.861 15.321 15.4073 15.6489 15.5166 16.1952C15.7351 16.8508 15.2981 17.5065 14.6424 17.725Z" fill="black"/>
<path d="M10.5994 20.1292C11.4443 20.1292 12.1292 19.4443 12.1292 18.5994C12.1292 17.7545 11.4443 17.0696 10.5994 17.0696C9.75448 17.0696 9.06956 17.7545 9.06956 18.5994C9.06956 19.4443 9.75448 20.1292 10.5994 20.1292Z" fill="black"/>
</svg>
