<svg width="120" height="48" viewBox="0 0 120 48" fill="none" xmlns="http://www.w3.org/2000/svg">
<g clip-path="url(#clip0_8087_15114)">
<mask id="mask0_8087_15114" style="mask-type:luminance" maskUnits="userSpaceOnUse" x="15" y="12" width="90" height="24">
<path d="M105 12H15V36H105V12Z" fill="white"/>
</mask>
<g mask="url(#mask0_8087_15114)">
<path d="M59.5042 35.4298C59.0281 35.4319 58.5569 35.3365 58.1225 35.1501C57.6881 34.9635 57.3005 34.6904 56.9858 34.3488C56.1997 35.0283 55.1167 35.4298 54.1545 35.4298C53.067 35.4298 52.1573 34.9896 51.549 34.2828C51.2667 33.9539 51.0559 33.5744 50.929 33.1665C50.8022 32.7587 50.7618 32.3307 50.8102 31.9078C49.6103 34.0677 48.4853 35.4269 47.1697 35.4269C46.7883 35.431 46.4108 35.3523 46.0659 35.1965C45.721 35.0408 45.4175 34.8122 45.1785 34.5279C44.5403 33.7939 44.22 32.6505 44.22 31.1587C44.22 25.3951 46.7078 21.3677 50.1247 21.3677C52.8937 21.3677 52.3747 23.79 51.4058 24.3972C51.4058 24.0093 50.9025 23.6036 50.1247 23.6036C48.3802 23.6036 46.2427 26.9837 46.2427 30.8777C46.2427 32.2304 46.4895 33.5724 47.4885 33.5724C48.3382 33.5724 49.2285 32.1214 50.8897 28.3263C51.9465 25.9127 52.0898 24.909 52.9493 24.909C53.094 24.9091 53.2369 24.9396 53.3678 24.9984C53.4988 25.0572 53.6147 25.1429 53.7072 25.2493C53.7996 25.3557 53.8665 25.4802 53.903 25.614C53.9394 25.7479 53.9447 25.8878 53.9182 26.0238C53.8972 26.1327 53.0227 30.5013 52.758 31.953C52.5067 33.3322 53.0475 34.133 54.0097 34.133C55.2517 34.133 55.98 32.9079 56.1038 32.2856C56.4555 30.5264 56.814 26.8296 57.2595 24.489C57.5595 22.919 57.8745 21.7182 58.9785 21.7182C59.8785 21.7182 60.1718 22.3943 60.1718 23.2516C60.1718 25.4933 58.488 29.9034 58.0305 32.2541C57.813 33.3709 58.5172 33.9745 59.3475 33.9745C60.2362 33.9745 61.6905 33.2577 62.4045 29.5823L64.344 29.9271C63.3517 35.0326 60.3885 35.4298 59.5042 35.4298Z" fill="black"/>
<path d="M95.8063 35.4298C94.7179 35.4298 93.8087 34.9896 93.2001 34.2828C92.9179 33.9539 92.7074 33.5743 92.58 33.1665C92.4534 32.7587 92.413 32.3307 92.4618 31.9078C91.2615 34.0677 90.1365 35.4269 88.821 35.4269C88.4395 35.4309 88.0621 35.3521 87.7171 35.1964C87.3722 35.0407 87.0687 34.8121 86.8297 34.5279C86.1914 33.7939 85.8712 32.6505 85.8712 31.1587C85.8712 25.395 88.359 21.3677 91.7761 21.3677C94.5447 21.3677 94.0261 23.79 93.0567 24.3972C93.0567 24.0093 92.5548 23.6036 91.7761 23.6036C90.0315 23.6036 87.894 26.9837 87.894 30.8777C87.894 32.2304 88.1415 33.5724 89.1397 33.5724C89.9894 33.5724 90.8804 32.1214 92.5419 28.3263C93.5975 25.9127 93.7416 24.909 94.6004 24.909C94.7453 24.9092 94.888 24.9397 95.0192 24.9985C95.1503 25.0573 95.2663 25.1429 95.3586 25.2492C95.4508 25.3557 95.518 25.4802 95.5546 25.614C95.5912 25.7478 95.5965 25.8877 95.5706 26.0238C95.5485 26.1327 94.6706 30.5013 94.4097 31.953C94.1588 33.3322 94.6988 34.133 95.6606 34.133L95.8063 35.4298Z" fill="black"/>
<path d="M95.6614 34.1364C96.8504 34.1364 97.3447 33.0052 97.4881 32.2891C97.6421 31.5184 97.932 29.2846 98.0883 28.0947C99.0211 21.0593 100.289 12.925 102.53 12.925C105.133 12.925 103.176 19.2027 100.683 27.7936C100.052 29.9657 99.5161 31.8589 99.4124 32.4926C99.314 33.3099 99.8113 33.9687 100.546 33.9687C102.003 33.9687 103.13 31.8088 103.13 29.5858C104.05 29.5858 104.998 30.6087 104.998 31.4395C104.998 33.1773 103.006 35.4304 100.885 35.4304C100.428 35.4323 99.9745 35.3442 99.5535 35.1715C99.1325 34.9989 98.7534 34.7454 98.4399 34.4268C97.7909 35.0512 96.7711 35.4304 95.804 35.4304L94.9284 34.7465L95.6614 34.1364Z" fill="black"/>
<path d="M74.0003 31.5989C73.65 32.8606 73.0808 34.0506 71.8058 34.0506C70.9291 34.0506 70.4423 33.4714 70.4423 32.7724C70.4423 31.4147 71.9423 27.568 71.9423 25.1736C71.9423 23.0983 70.8346 21.7183 68.9018 21.7183C67.7701 21.7183 66.5018 22.8123 65.1323 24.9736L65.4226 23.3012C65.604 22.2696 64.6493 21.405 63.2325 21.405C63.4898 22.2423 63.4358 23.142 63.0878 24.9736C62.3813 28.687 61.3118 34.3072 61.311 34.3122C61.2838 34.4353 61.2826 34.5623 61.3075 34.6858C61.3325 34.8093 61.383 34.9268 61.4561 35.0313C61.5292 35.1359 61.6235 35.2254 61.7333 35.2946C61.8433 35.3637 61.9665 35.4112 62.0959 35.4342C62.2252 35.4571 62.3581 35.4552 62.4867 35.4282C62.6152 35.4014 62.7368 35.3502 62.8444 35.2777C62.9519 35.2053 63.0432 35.1129 63.1128 35.0062C63.1824 34.8995 63.229 34.7805 63.2498 34.6563C63.6645 32.5258 64.5301 29.1494 65.7061 26.7501C66.9061 24.3055 68.0963 23.1291 68.7728 23.1291C69.3398 23.1291 69.6878 23.8252 69.6878 25.026C69.6878 26.7501 68.2576 30.2297 68.2576 32.366C68.2576 34.5022 69.8423 35.427 71.7555 35.427C73.0891 35.427 74.4038 34.7639 75.0315 33.7782C74.829 33.4749 74.1383 32.0169 74.0003 31.5989Z" fill="black"/>
<path d="M86.1172 31.069C86.0018 31.6646 85.524 33.9945 83.901 33.9945C83.028 33.9945 82.4272 33.2368 82.6395 32.1306C83.5095 27.6044 84.471 22.8415 84.4718 22.8371C84.4954 22.7154 84.4937 22.5905 84.4668 22.4693C84.4399 22.3482 84.3883 22.2334 84.315 22.1313C84.2417 22.0293 84.148 21.9421 84.0394 21.8746C83.9308 21.8072 83.8093 21.7608 83.682 21.7382C83.5547 21.7156 83.4239 21.7172 83.2972 21.7429C83.1705 21.7686 83.0503 21.818 82.9436 21.888C82.8368 21.9581 82.7455 22.0476 82.675 22.1514C82.6043 22.2553 82.5559 22.3713 82.5323 22.493C82.2157 24.1204 81.2572 27.0258 80.037 29.4302C78.4964 32.4647 77.2268 33.9214 76.299 33.9214C75.462 33.9214 75.4192 33.1264 75.5978 32.3873C76.3927 29.0947 78.2317 25.2759 78.2317 23.4042C78.2317 22.2464 77.5103 21.2615 76.2217 21.2615C75.4485 21.2615 74.7788 21.8837 74.7788 22.8307C75.3517 22.8307 75.861 23.2608 75.861 23.921C75.861 25.1125 74.5372 28.4768 73.7865 31.5872C73.5098 32.7342 73.692 33.7988 74.286 34.5128C74.6348 34.9314 75.2857 35.4311 76.4092 35.4311C77.8597 35.4311 79.296 34.3486 80.6932 32.2052C80.6832 32.6273 80.7619 33.047 80.9247 33.4394C81.0875 33.8319 81.3311 34.1892 81.641 34.49C81.9509 34.7909 82.3208 35.0291 82.7289 35.1908C83.1369 35.3525 83.5748 35.4341 84.0165 35.4311C85.6665 35.4311 87.1365 34.2899 87.507 32.7557C87.3322 32.6009 86.481 31.4876 86.1172 31.069Z" fill="black"/>
<path d="M33.15 13.0753C33.15 12.8043 32.7443 12 31.9133 12C30.3262 12 29.7502 13.4875 28.725 18.897C27.9428 23.019 27.3975 25.8277 27.0435 27.6514C26.3273 31.3396 24.8205 33.3713 22.2113 33.3713C20.2275 33.3713 19.0425 32.0021 19.0425 31.2472L19.0358 31.2529C18.6225 31.2529 18.2295 31.8013 18.2295 32.7038C18.2295 34.5476 19.713 36.0014 21.9473 36.0014C25.2473 36.0014 27.8197 34.1433 29.0918 27.5897C29.4667 25.6628 30.2445 21.4533 30.87 18.1557C31.425 15.2195 31.8593 13.0753 33.15 13.0753Z" fill="black"/>
<path d="M25.0455 15.6419C30.4455 15.6419 35.0467 17.7043 38.3423 17.7043C40.2495 17.7043 42.6173 16.629 42.6173 15.1988C37.206 16.2333 31.7107 14.2024 25.9673 14.2024C18.6547 14.2024 15 16.9724 15 20.8177C15 23.8472 17.4307 24.9525 18.9 24.9525C20.64 24.9525 21.543 23.4773 21.021 22.503C19.6605 23.169 17.7563 22.4801 17.7563 20.4478C17.7555 17.6369 20.9558 15.6419 25.0455 15.6419Z" fill="black"/>
<path d="M44.4967 31.3738C44.1285 32.8076 43.356 34.0435 42.1575 34.0435C41.2785 34.0435 40.6373 33.4033 40.9208 31.8764C41.5387 28.5444 42.5543 24.4131 42.9818 22.2947C43.1625 21.403 41.97 20.7571 41.3407 21.4345C39.6315 23.2683 37.5157 23.9823 36.411 23.9823C35.4495 23.9823 34.7722 23.5772 34.7722 22.7528C34.7722 21.9829 35.3152 21.5736 35.7472 21.5736V19.6882C34.215 19.6882 32.7285 20.856 32.7285 22.8697C32.7285 24.7171 33.966 25.7164 35.667 25.7164C37.1805 25.7164 39.132 24.8948 40.4595 23.8855C40.4595 23.8855 39.3397 29.6254 38.9505 31.6276C38.5612 33.6298 40.116 35.4271 42.2303 35.4271C43.4527 35.4271 44.5793 34.8106 45.4132 33.7431C45.2948 33.0226 44.4967 31.3738 44.4967 31.3738Z" fill="black"/>
<path d="M31.4017 35.4666C30.2805 35.4666 29.85 34.4042 29.85 33.5454C33.0638 33.5454 36.8452 26.4097 36.8452 23.1566C36.8452 22.1716 36.4073 21.5716 35.715 21.5716L34.9387 20.7458L35.715 19.6891C36.0938 19.6854 36.4675 19.7725 36.802 19.9424C37.1365 20.1124 37.4211 20.3597 37.6297 20.6619C38.7435 22.2139 38.2935 25.2592 37.353 27.5876C35.1802 32.9662 33.1988 35.4666 31.4017 35.4666Z" fill="black"/>
<path d="M60.765 19.6531C61.3719 19.073 61.3719 18.1325 60.765 17.5525C60.1582 16.9724 59.1742 16.9724 58.5673 17.5525C57.9604 18.1325 57.9604 19.073 58.5673 19.6531C59.1742 20.2331 60.1582 20.2331 60.765 19.6531Z" fill="black"/>
</g>
</g>
<defs>
<clipPath id="clip0_8087_15114">
<rect width="90" height="24" fill="white" transform="translate(15 12)"/>
</clipPath>
</defs>
</svg>
