<svg width="212" height="121" viewBox="0 0 212 121" fill="none" xmlns="http://www.w3.org/2000/svg">
<circle cx="106" cy="60" r="30" fill="black" fill-opacity="0.2" style="mix-blend-mode:soft-light"/>
<circle cx="106" cy="60" r="30" stroke="url(#paint0_linear_10144_28062)" stroke-width="1.2097" stroke-linecap="round" stroke-dasharray="3.23 6.45"/>
<path fill-rule="evenodd" clip-rule="evenodd" d="M101.423 49.8996C102.639 48.6833 104.289 48 106.009 48C107.729 48 109.379 48.6833 110.595 49.8996C111.097 50.4017 111.097 51.2158 110.595 51.7179C110.093 52.22 109.279 52.22 108.777 51.7179C108.043 50.9838 107.047 50.5714 106.009 50.5714C104.971 50.5714 103.975 50.9838 103.241 51.7179C102.507 52.452 102.095 53.4476 102.095 54.4857V55.4902C103.346 55.4495 104.631 55.4285 106.008 55.4285C107.574 55.4285 109.022 55.4557 110.435 55.5081C113.329 55.6155 115.751 57.849 116.095 60.7238C116.211 61.6907 116.296 62.6911 116.296 63.7142C116.296 64.7374 116.211 65.7377 116.095 66.7046C115.751 69.5794 113.329 71.813 110.435 71.9205C109.022 71.9727 107.574 72 106.008 72C104.442 72 102.994 71.9727 101.581 71.9205C98.6869 71.813 96.2652 69.5794 95.9209 66.7046C95.8051 65.7377 95.7207 64.7374 95.7207 63.7142C95.7207 62.6911 95.8051 61.6907 95.9209 60.7238C96.1791 58.568 97.6055 56.7728 99.5234 55.9644V54.4857C99.5234 52.7656 100.207 51.1159 101.423 49.8996ZM107.294 62.6744C107.294 61.9643 106.718 61.3887 106.008 61.3887C105.298 61.3887 104.722 61.9643 104.722 62.6744V64.4571C104.722 65.1672 105.298 65.7429 106.008 65.7429C106.718 65.7429 107.294 65.1672 107.294 64.4571V62.6744Z" fill="url(#paint1_linear_10144_28062)"/>
<path d="M176.334 88.0013C176.334 90.9468 173.946 93.3346 171.001 93.3346C168.055 93.3346 165.667 90.9468 165.667 88.0013C165.667 85.0558 168.055 82.668 171.001 82.668C173.946 82.668 176.334 85.0558 176.334 88.0013Z" fill="url(#paint2_linear_10144_28062)"/>
<path d="M167.001 92.668C167.001 95.6135 164.613 98.0013 161.667 98.0013C158.722 98.0013 156.334 95.6135 156.334 92.668C156.334 89.7224 158.722 87.3346 161.667 87.3346C164.613 87.3346 167.001 89.7224 167.001 92.668Z" fill="url(#paint3_linear_10144_28062)"/>
<path d="M167.001 103.335C167.001 106.28 164.613 108.668 161.667 108.668C158.722 108.668 156.334 106.28 156.334 103.335C156.334 100.389 158.722 98.0013 161.667 98.0013C164.613 98.0013 167.001 100.389 167.001 103.335Z" fill="url(#paint4_linear_10144_28062)"/>
<path d="M176.334 108.001C176.334 110.947 173.946 113.335 171.001 113.335C168.055 113.335 165.667 110.947 165.667 108.001C165.667 105.056 168.055 102.668 171.001 102.668C173.946 102.668 176.334 105.056 176.334 108.001Z" fill="url(#paint5_linear_10144_28062)"/>
<path d="M185.667 103.335C185.667 106.28 183.28 108.668 180.334 108.668C177.388 108.668 175.001 106.28 175.001 103.335C175.001 100.389 177.388 98.0013 180.334 98.0013C183.28 98.0013 185.667 100.389 185.667 103.335Z" fill="url(#paint6_linear_10144_28062)"/>
<path d="M185.667 92.668C185.667 95.6135 183.28 98.0013 180.334 98.0013C177.388 98.0013 175.001 95.6135 175.001 92.668C175.001 89.7224 177.388 87.3346 180.334 87.3346C183.28 87.3346 185.667 89.7224 185.667 92.668Z" fill="url(#paint7_linear_10144_28062)"/>
<path fill-rule="evenodd" clip-rule="evenodd" d="M183.201 10.8018C184.467 12.0018 184.601 13.8685 184.667 17.6685C184.701 18.9018 184.717 20.1185 184.734 21.3352C184.751 22.5518 184.767 23.7685 184.801 25.0018C184.801 28.8018 184.667 30.6685 183.467 31.8685C182.201 33.1352 180.267 33.2018 176.467 33.2685H167.667C166.201 33.2685 165.467 33.2685 164.801 33.4685C164.134 33.7352 163.534 34.1352 162.467 35.0685C162.134 35.3352 161.801 35.6185 161.467 35.9018C161.134 36.1852 160.801 36.4685 160.467 36.7352C160.201 36.9352 159.801 37.0685 159.401 37.0685C158.467 37.0018 157.667 36.2018 157.601 35.2685C157.267 29.4018 157.201 23.5352 157.334 17.6685C157.467 13.9352 157.601 12.0685 158.801 10.8018C160.001 9.53516 161.867 9.40182 165.667 9.33516C169.201 9.26849 172.801 9.26849 176.334 9.33516C180.067 9.46849 181.934 9.53516 183.201 10.8018ZM165.667 19.6018C164.934 19.6685 164.267 20.2685 164.201 21.0018C164.001 24.6685 167.401 27.7351 171.001 27.8018C174.601 27.7351 178.001 24.6685 177.801 21.0018C177.734 20.2685 177.067 19.6018 176.334 19.6018C172.801 19.4685 169.201 19.4685 165.667 19.6018Z" fill="url(#paint8_linear_10144_28062)"/>
<path d="M39.5 82.9C39.9 81.7 41.5667 81.7 42.0333 82.9C42.1667 83.3 42.3 83.7 42.4333 84.0333C44.4333 89.6333 48.9 94.1667 54.5 96.1C54.9 96.2333 55.3 96.3667 55.6333 96.5C56.8333 96.9 56.8333 98.5667 55.6333 99.0333C55.2333 99.1667 54.8333 99.3 54.5 99.4333C48.9 101.433 44.3667 105.9 42.4333 111.5C42.3 111.9 42.1667 112.3 42.0333 112.633C41.6333 113.833 39.9667 113.833 39.5 112.633C39.3667 112.233 39.2333 111.833 39.1 111.5C37.1 105.9 32.6333 101.367 27.0333 99.4333C26.6333 99.3 26.2333 99.1667 25.9 99.0333C24.7 98.6333 24.7 96.9667 25.9 96.5C26.3 96.3667 26.7 96.2333 27.0333 96.1C32.6333 94.1 37.1667 89.6333 39.1 84.0333C39.2333 83.7 39.3667 83.3 39.5 82.9Z" fill="url(#paint9_linear_10144_28062)"/>
<path fill-rule="evenodd" clip-rule="evenodd" d="M55.7 20.4833C52.0333 16.55 48.3 12.75 44.3667 9.15C42.7 7.61667 40.0333 7.61667 38.3667 9.15C34.5 12.75 30.7 16.55 27.1 20.4833C25.6333 22.0833 25.6333 24.8167 27.1 26.4167C30.7 30.2833 34.5 34.0833 38.4333 37.75C40.0333 39.2167 42.7667 39.2167 44.3667 37.75C48.3 34.0833 52.1 30.35 55.7 26.4167C57.1667 24.8167 57.1667 22.0833 55.7 20.4833ZM43.3667 19.3508C42.0333 19.2841 40.7 19.2841 39.3667 19.3508C38.3 19.3508 37.3 20.3508 37.3 21.4174C37.2333 22.7508 37.2333 24.0841 37.3 25.4174C37.3 26.4841 38.3 27.4174 39.3667 27.4841C40.7 27.5508 42.0333 27.5508 43.3667 27.4841C44.4333 27.4841 45.3667 26.4841 45.4333 25.4174C45.5 24.0841 45.5 22.7508 45.4333 21.4174C45.4333 20.3508 44.4333 19.4174 43.3667 19.3508Z" fill="url(#paint10_linear_10144_28062)"/>
<defs>
<linearGradient id="paint0_linear_10144_28062" x1="81.5961" y1="33.0144" x2="132.435" y2="89.8468" gradientUnits="userSpaceOnUse">
<stop stop-color="#0DF28F"/>
<stop offset="1" stop-color="#8B33FF"/>
</linearGradient>
<linearGradient id="paint1_linear_10144_28062" x1="95.7207" y1="48" x2="115.413" y2="58.0235" gradientUnits="userSpaceOnUse">
<stop stop-color="#0DF28F"/>
<stop offset="1" stop-color="#8B33FF"/>
</linearGradient>
<linearGradient id="paint2_linear_10144_28062" x1="156.334" y1="82.668" x2="183.062" y2="97.8477" gradientUnits="userSpaceOnUse">
<stop stop-color="#0DF28F"/>
<stop offset="1" stop-color="#8B33FF"/>
</linearGradient>
<linearGradient id="paint3_linear_10144_28062" x1="156.334" y1="82.668" x2="183.062" y2="97.8477" gradientUnits="userSpaceOnUse">
<stop stop-color="#0DF28F"/>
<stop offset="1" stop-color="#8B33FF"/>
</linearGradient>
<linearGradient id="paint4_linear_10144_28062" x1="156.334" y1="82.668" x2="183.062" y2="97.8477" gradientUnits="userSpaceOnUse">
<stop stop-color="#0DF28F"/>
<stop offset="1" stop-color="#8B33FF"/>
</linearGradient>
<linearGradient id="paint5_linear_10144_28062" x1="156.334" y1="82.668" x2="183.062" y2="97.8477" gradientUnits="userSpaceOnUse">
<stop stop-color="#0DF28F"/>
<stop offset="1" stop-color="#8B33FF"/>
</linearGradient>
<linearGradient id="paint6_linear_10144_28062" x1="156.334" y1="82.668" x2="183.062" y2="97.8477" gradientUnits="userSpaceOnUse">
<stop stop-color="#0DF28F"/>
<stop offset="1" stop-color="#8B33FF"/>
</linearGradient>
<linearGradient id="paint7_linear_10144_28062" x1="156.334" y1="82.668" x2="183.062" y2="97.8477" gradientUnits="userSpaceOnUse">
<stop stop-color="#0DF28F"/>
<stop offset="1" stop-color="#8B33FF"/>
</linearGradient>
<linearGradient id="paint8_linear_10144_28062" x1="157.27" y1="9.28516" x2="181.915" y2="23.7856" gradientUnits="userSpaceOnUse">
<stop stop-color="#0DF28F"/>
<stop offset="1" stop-color="#8B33FF"/>
</linearGradient>
<linearGradient id="paint9_linear_10144_28062" x1="25" y1="82" x2="53.0954" y2="98.6816" gradientUnits="userSpaceOnUse">
<stop stop-color="#0DF28F"/>
<stop offset="1" stop-color="#8B33FF"/>
</linearGradient>
<linearGradient id="paint10_linear_10144_28062" x1="26" y1="8" x2="53.4652" y2="24.281" gradientUnits="userSpaceOnUse">
<stop stop-color="#0DF28F"/>
<stop offset="1" stop-color="#8B33FF"/>
</linearGradient>
</defs>
</svg>
