<svg width="120" height="48" viewBox="0 0 120 48" fill="none" xmlns="http://www.w3.org/2000/svg">
<g clip-path="url(#clip0_8087_14958)">
<path fill-rule="evenodd" clip-rule="evenodd" d="M52.2278 31.5756V15.7879C52.2278 13.1457 50.098 11 47.4755 11H4.75223C2.1298 11 0 13.1457 0 15.7879V31.5756C0 34.2178 2.1298 36.3635 4.75223 36.3635H35.6664L44.0432 42L42.3584 36.3635H47.4762C50.0987 36.3635 52.2278 34.2178 52.2278 31.5756ZM9.01977 26.8697C9.26562 27.3073 9.59446 27.6399 10.0063 27.8676C10.4182 28.0952 10.8758 28.2089 11.3792 28.2087C11.8825 28.2087 12.3431 28.0877 12.7609 27.8458C13.1788 27.6038 13.5091 27.261 13.7518 26.8176C13.9948 26.3743 14.1164 25.8674 14.1166 25.2969V18.2113C14.1166 18.1078 14.148 18.0242 14.2109 17.9607C14.2738 17.8972 14.3567 17.8655 14.4598 17.8656H16.1758C16.2845 17.8656 16.3702 17.8987 16.433 17.9649C16.4641 17.9977 16.4885 18.0363 16.5047 18.0786C16.5208 18.1209 16.5286 18.166 16.5275 18.2113V25.2881C16.5275 26.423 16.2972 27.3721 15.8368 28.1354C15.3763 28.8987 14.7585 29.463 13.9835 29.8282C13.2085 30.194 12.3405 30.377 11.3796 30.377C10.4244 30.377 9.55777 30.1898 8.77977 29.8154C8.00169 29.4411 7.38245 28.871 6.92197 28.1051C6.46149 27.339 6.2313 26.3914 6.23139 25.2622V18.2026C6.22957 18.1154 6.26004 18.0307 6.31686 17.9649C6.34298 17.9332 6.37582 17.9078 6.41298 17.8906C6.45013 17.8735 6.49065 17.8649 6.53153 17.8656H8.33331C8.44731 17.8656 8.52877 17.8943 8.57792 17.9517C8.627 18.0091 8.65138 18.0926 8.651 18.2022V25.2964C8.651 25.9075 8.77392 26.4319 9.01977 26.8697ZM18.1419 28.0922C18.1421 28.1456 18.1522 28.1984 18.1717 28.2479C18.1981 28.3119 18.2312 28.3728 18.2705 28.4295C18.6588 29.0353 19.1756 29.5113 19.821 29.8575C20.4664 30.2038 21.2004 30.3769 22.023 30.3769C22.6644 30.3788 23.3001 30.2553 23.8951 30.0135C24.4919 29.7711 24.9775 29.4062 25.3515 28.9186C25.7256 28.4311 25.9127 27.844 25.9127 27.1574C25.9131 26.4245 25.6845 25.7668 25.2271 25.1842C24.7696 24.6016 24.0726 24.1689 23.1361 23.8859C23.0164 23.8459 22.905 23.8113 22.8019 23.7824C22.6988 23.7535 22.6046 23.7274 22.5193 23.7043C22.0622 23.5772 21.7222 23.4704 21.4995 23.3843C21.2768 23.2975 21.0997 23.1865 20.9684 23.0509C20.837 22.9154 20.7714 22.7351 20.7714 22.5101C20.7712 22.216 20.8926 21.9765 21.1355 21.7917C21.3784 21.607 21.7168 21.5146 22.1507 21.5146C22.5623 21.5145 22.9079 21.588 23.1875 21.7353C23.4672 21.8825 23.7327 22.1032 23.9842 22.3973C24.0755 22.5069 24.1611 22.5617 24.241 22.5617C24.3042 22.5616 24.3785 22.527 24.4638 22.458L25.4406 21.6443C25.5491 21.5578 25.6033 21.4742 25.6033 21.3934C25.6033 21.3239 25.5606 21.2316 25.4753 21.1166C25.1097 20.6494 24.6484 20.2544 24.0914 19.9312C23.5343 19.608 22.8676 19.4464 22.0911 19.4464C21.3716 19.4464 20.7362 19.5921 20.185 19.8834C19.6338 20.1749 19.2097 20.5513 18.9128 21.0128C18.6158 21.4741 18.4674 21.9443 18.4674 22.4232C18.4673 23.0176 18.5801 23.5239 18.8056 23.9421C19.0314 24.3602 19.3741 24.7164 19.8338 25.0107C20.2935 25.3049 20.8975 25.5674 21.6458 25.7982C21.9717 25.8964 22.1631 25.9513 22.22 25.9628C22.5912 26.0727 22.8652 26.1636 23.0423 26.2358C23.2195 26.3077 23.3595 26.4115 23.4622 26.5473C23.565 26.683 23.6164 26.872 23.6164 27.1142C23.6166 27.3506 23.5281 27.5626 23.3508 27.7501C23.1736 27.9376 22.9465 28.0819 22.6696 28.183C22.4021 28.2823 22.1194 28.3334 21.8344 28.3343C21.3776 28.334 20.9936 28.2244 20.6822 28.0054C20.3708 27.7864 20.0837 27.4895 19.821 27.1147C19.7296 26.9877 19.6297 26.9242 19.5213 26.9242C19.4548 26.9235 19.3905 26.9482 19.3412 26.9934L18.2875 27.798C18.1905 27.8904 18.1419 27.9885 18.1419 28.0922ZM35.5345 27.2033C35.6199 27.2033 35.6856 27.2378 35.7317 27.3069L36.5711 28.3445C36.6395 28.4306 36.6737 28.5141 36.6738 28.5952C36.6738 28.6814 36.6312 28.7649 36.5458 28.846C35.9344 29.388 35.3246 29.7786 34.7164 30.0179C34.1082 30.2571 33.4555 30.3768 32.7584 30.3768C31.8157 30.3768 30.9302 30.1318 30.1019 29.6419C29.2737 29.1521 28.6124 28.4907 28.1182 27.6578C27.624 26.8252 27.3769 25.9217 27.377 24.9472C27.377 23.9559 27.6069 23.0437 28.0668 22.2107C28.5267 21.3776 29.1622 20.7162 29.9732 20.2263C30.7844 19.7366 31.6927 19.4916 32.6982 19.4914C33.5149 19.4914 34.3218 19.6918 35.1187 20.0925C35.9157 20.4933 36.5755 21.1042 37.0982 21.9253C37.6211 22.7467 37.8825 23.7539 37.8825 24.9472C37.8825 25.218 37.851 25.4142 37.7882 25.5357C37.7253 25.6573 37.641 25.7303 37.5354 25.7546C37.4295 25.7806 37.2653 25.7935 37.0428 25.7934H29.6735C29.7874 26.2893 29.993 26.7247 30.2904 27.0996C30.5835 27.4712 30.9573 27.7699 31.3828 27.9728C31.8142 28.1802 32.2784 28.2839 32.7755 28.2839C33.1583 28.2839 33.4895 28.2451 33.7693 28.1673C34.0492 28.0896 34.2791 27.9975 34.4592 27.8907C34.6689 27.7636 34.8707 27.6234 35.0634 27.4713L35.3118 27.2811C35.386 27.2294 35.4603 27.2034 35.5345 27.2033ZM31.4473 21.8168C31.0542 22.0176 30.7057 22.2971 30.423 22.6382C30.1363 22.9808 29.9141 23.3735 29.7675 23.7969H35.6372C35.3913 23.111 35.0099 22.5591 34.493 22.1412C33.9762 21.7233 33.3834 21.5143 32.7148 21.5142C32.2744 21.5118 31.8398 21.6156 31.4473 21.8168ZM41.3227 19.5827H40.1368C39.9195 19.5827 39.8106 19.7012 39.8104 19.9382V29.8351C39.8104 30.0659 39.9192 30.1812 40.1368 30.1812H41.8295C42.0585 30.1814 42.1703 30.066 42.1648 29.8351V24.0298C42.1647 23.5048 42.2635 23.0636 42.4612 22.706C42.6589 22.3484 42.9138 22.0831 43.2257 21.9102C43.5318 21.7386 43.8765 21.6492 44.2268 21.6505C44.582 21.6506 44.9084 21.714 45.2061 21.8408C45.5134 21.973 45.807 22.1353 46.0828 22.3253C46.1801 22.3944 46.2659 22.429 46.3404 22.429C46.4264 22.4292 46.5009 22.383 46.5639 22.2908L47.3371 21.1919C47.4002 21.1111 47.4317 21.0332 47.4317 20.9583C47.4316 20.8544 47.3686 20.7421 47.2427 20.621C46.928 20.3498 46.5299 20.0887 46.0484 19.8379C45.5669 19.5869 45.0456 19.4615 44.4845 19.4615C43.9632 19.4617 43.4863 19.5857 43.0539 19.8335C42.6215 20.0814 42.2678 20.4304 41.9929 20.8804L41.8295 19.972C41.8017 19.8049 41.7459 19.6981 41.6622 19.6519C41.5785 19.6058 41.4654 19.5827 41.3227 19.5827Z" fill="black"/>
<path d="M55.2591 17.8656H64.075C64.2865 17.8656 64.3924 17.975 64.3925 18.1938V19.7568C64.3925 19.9814 64.2867 20.0936 64.075 20.0934H60.8302V29.8531C60.8302 30.0719 60.7215 30.1813 60.5041 30.1813H58.7358C58.5182 30.1813 58.4095 30.0719 58.4096 29.8531V20.0937H55.2591C55.0418 20.0937 54.9332 19.9815 54.9332 19.7571V18.1941C54.9332 17.9753 55.0418 17.8658 55.2591 17.8656Z" fill="black"/>
<path d="M72.2485 27.2044C72.334 27.2044 72.3998 27.2389 72.4459 27.3081L73.2865 28.3456C73.3551 28.4317 73.3894 28.5153 73.3894 28.5963C73.3894 28.6825 73.3466 28.7661 73.2612 28.8471C72.649 29.3891 72.0383 29.7796 71.429 30.0189C70.8198 30.2581 70.166 30.3774 69.4678 30.3767C68.5237 30.3767 67.6369 30.1319 66.8073 29.642C65.9778 29.1521 65.3157 28.4907 64.8209 27.6577C64.326 26.8252 64.0785 25.9217 64.0786 24.9472C64.0786 23.9559 64.3089 23.0437 64.7695 22.2107C65.23 21.3776 65.8664 20.7162 66.6785 20.2264C67.4909 19.7365 68.4005 19.4915 69.4075 19.4913C70.2253 19.4913 71.0333 19.6917 71.8315 20.0925C72.6297 20.4933 73.2905 21.1043 73.8138 21.9253C74.3374 22.7466 74.5992 23.754 74.5991 24.9472C74.5991 25.218 74.5676 25.4142 74.5048 25.5357C74.4419 25.6572 74.3575 25.7308 74.2515 25.7562C74.1455 25.7823 73.981 25.7953 73.7581 25.7951H66.3782C66.4922 26.2909 66.6982 26.7263 66.996 27.1014C67.2896 27.4729 67.6639 27.7717 68.0901 27.9746C68.5219 28.1821 68.9868 28.2858 69.4848 28.2856C69.8681 28.2856 70.1998 28.2467 70.48 28.169C70.7602 28.0914 70.9905 27.9991 71.1707 27.8924C71.3808 27.7653 71.5828 27.6252 71.7758 27.473L72.0247 27.283C72.0995 27.2306 72.1741 27.2044 72.2485 27.2044ZM68.1554 21.818C67.7617 22.0188 67.4127 22.2982 67.1296 22.6393C66.8425 22.9819 66.62 23.3746 66.4731 23.798H72.3512C72.1052 23.1119 71.7235 22.5598 71.2059 22.1416C70.6884 21.7234 70.0948 21.5144 69.4251 21.5146C68.9839 21.5122 68.5487 21.6159 68.1554 21.8172V21.818Z" fill="black"/>
<path d="M75.3312 28.2475C75.3118 28.1979 75.3017 28.1451 75.3015 28.0918C75.3015 27.988 75.35 27.89 75.447 27.7975L76.5007 26.9929C76.5499 26.9477 76.6143 26.923 76.6808 26.9238C76.7892 26.9238 76.8891 26.9873 76.9808 27.1142C77.2431 27.4891 77.53 27.786 77.8415 28.005C78.1531 28.2239 78.5369 28.3336 78.9939 28.3339C79.2785 28.333 79.5615 28.2818 79.8292 28.1826C80.1062 28.0816 80.3331 27.9373 80.51 27.7496C80.6869 27.562 80.7762 27.35 80.7754 27.1138C80.7754 26.8715 80.7246 26.6825 80.6215 26.5469C80.5185 26.4113 80.3785 26.3074 80.2015 26.2353C80.0246 26.1631 79.7508 26.0722 79.3792 25.9623C79.3223 25.9508 79.1308 25.896 78.8054 25.7978C78.0569 25.5669 77.4531 25.3043 76.9931 25.0102C76.5337 24.716 76.191 24.3598 75.9652 23.9416C75.7396 23.5238 75.6269 23.0176 75.6269 22.4232C75.6269 21.9443 75.7752 21.4741 76.0722 21.0127C76.3691 20.5513 76.7932 20.1749 77.3446 19.8834C77.8954 19.592 78.5308 19.4463 79.25 19.4463C80.0269 19.4463 80.6939 19.6079 81.2508 19.9311C81.8077 20.2543 82.2685 20.6495 82.6346 21.1166C82.72 21.2315 82.7623 21.3238 82.7623 21.3935C82.7623 21.4742 82.7085 21.5579 82.6 21.6445L81.6231 22.4579C81.5377 22.5271 81.4631 22.5616 81.4 22.5617C81.32 22.5617 81.2346 22.5069 81.1431 22.3973C80.8915 22.1033 80.6262 21.8826 80.3469 21.7353C80.0669 21.5879 79.7215 21.5144 79.3108 21.5146C78.8769 21.5146 78.5385 21.607 78.2954 21.7917C78.0531 21.9765 77.9315 22.216 77.9315 22.5101C77.9315 22.7352 77.9969 22.9154 78.1285 23.051C78.26 23.1864 78.4369 23.2976 78.66 23.3843C78.8823 23.471 79.2223 23.5778 79.6792 23.7045C79.7646 23.7275 79.8592 23.7535 79.9623 23.7824C80.0654 23.8113 80.1762 23.8459 80.2962 23.8861C81.2323 24.1689 81.9292 24.6017 82.3869 25.1845C82.8446 25.7672 83.0731 26.4248 83.0723 27.1573C83.0723 27.8439 82.8854 28.4309 82.5108 28.9185C82.1369 29.406 81.6515 29.771 81.0546 30.0133C80.46 30.2553 79.8239 30.3787 79.1831 30.3768C78.36 30.3768 77.6262 30.2038 76.9808 29.8576C76.3355 29.5114 75.8188 29.0354 75.4305 28.4295C75.3911 28.3727 75.3579 28.3116 75.3312 28.2475Z" fill="black"/>
<path d="M88.7192 19.6644C88.9539 19.6644 89.0708 19.7853 89.0715 20.0271V21.3999C89.0715 21.5146 89.0339 21.6038 88.9592 21.6675C88.8854 21.7313 88.7931 21.7629 88.6846 21.7625H87.4985V26.9256C87.4985 27.2998 87.5646 27.5977 87.6962 27.8193C87.8277 28.041 88.06 28.1604 88.3923 28.1777L88.6585 28.1949C88.8477 28.2064 88.9654 28.2569 89.0108 28.3462C89.0585 28.4411 89.0823 28.5463 89.08 28.6524V29.8267C89.08 30.1031 88.8677 30.2413 88.4438 30.2411C87.8023 30.2411 87.2308 30.1174 86.7292 29.87C86.2277 29.6226 85.8369 29.2672 85.5562 28.8036C85.2754 28.3402 85.1346 27.7976 85.1346 27.176V21.7625H84.1808C84.0892 21.7625 84 21.7287 83.9315 21.6675C83.8569 21.6044 83.82 21.5151 83.82 21.3999V20.0525C83.82 19.9258 83.8554 19.8294 83.9269 19.7632C83.9962 19.6983 84.0869 19.6627 84.1808 19.6639H85.1346V17.9291C85.1346 17.8081 85.1577 17.7204 85.2039 17.6658C85.2492 17.6112 85.3385 17.5666 85.47 17.5318L87.1546 17.0395C87.1854 17.0306 87.2169 17.0247 87.2492 17.0222C87.2862 17.0211 87.3231 17.0301 87.3562 17.0484C87.3885 17.0667 87.4154 17.0935 87.4339 17.126C87.4769 17.195 87.4985 17.2842 87.4985 17.3936V19.6641L88.7192 19.6644Z" fill="black"/>
<path d="M91.3262 15.8029H92.7523C93.0654 15.8029 93.2223 15.9784 93.2223 16.3294V17.7802C93.2223 17.9533 93.1838 18.0742 93.1069 18.1431C93.03 18.2119 92.9115 18.2464 92.7523 18.2466H91.3262C90.9846 18.2466 90.8138 18.0911 90.8138 17.7802V16.3294C90.8138 15.9785 90.9846 15.8029 91.3262 15.8029ZM90.9761 19.6801C91.0392 19.6225 91.1215 19.5916 91.2069 19.5941H92.9485C93.0454 19.5941 93.1223 19.6243 93.1792 19.6847C93.2362 19.7452 93.2646 19.8281 93.2646 19.931V29.8446C93.2646 30.069 93.1592 30.1812 92.9485 30.1812H91.2062C90.99 30.1812 90.8823 30.069 90.8823 29.8446V19.9306C90.8823 19.8213 90.9131 19.7378 90.9761 19.6801Z" fill="black"/>
<path d="M97.3438 30.0858C97.2462 30.1503 97.1308 30.1835 97.0138 30.181H95.4977C95.2639 30.181 95.1469 30.0628 95.1469 29.8266V19.9386C95.1469 19.7023 95.2639 19.5841 95.4977 19.5841H96.6123C96.7262 19.5841 96.8362 19.6273 96.9208 19.7051C97.0108 19.7842 97.0739 19.89 97.1008 20.0076L97.2377 21.2005C97.6315 20.6302 98.1154 20.2052 98.6892 19.9258C99.2569 19.6479 99.8792 19.5044 100.51 19.5065C101.144 19.5065 101.762 19.6678 102.365 19.9906C102.967 20.3132 103.464 20.8116 103.855 21.4857C104.246 22.16 104.442 22.9927 104.442 23.9837V29.8352C104.442 30.0657 104.333 30.181 104.116 30.181H102.462C102.228 30.181 102.111 30.0657 102.111 29.8352V24.0615C102.111 23.664 102.011 23.2852 101.812 22.9249C101.616 22.5698 101.332 22.2719 100.988 22.0607C100.64 21.8444 100.252 21.7362 99.8238 21.7363C99.4523 21.7363 99.0854 21.8358 98.7231 22.0345C98.36 22.2333 98.0631 22.5186 97.8323 22.8904C97.6008 23.2621 97.4854 23.6899 97.4854 24.1739V29.8266C97.4854 29.9361 97.4385 30.0225 97.3438 30.0858Z" fill="black"/>
<path d="M115.864 31.1869C115.409 32.0316 114.782 32.6674 113.982 33.0944C113.182 33.5213 112.262 33.7346 111.221 33.7344C110.535 33.7344 109.856 33.6176 109.184 33.3841C108.512 33.1505 107.936 32.829 107.456 32.4197C107.359 32.3387 107.311 32.2579 107.311 32.1772C107.311 32.1197 107.345 32.0391 107.413 31.9351L108.099 30.9316C108.174 30.8166 108.271 30.7592 108.391 30.7592C108.482 30.7592 108.58 30.7938 108.683 30.8631C109.403 31.3705 110.306 31.6243 111.392 31.6243C111.941 31.6243 112.432 31.5017 112.867 31.2567C113.295 31.0183 113.647 30.663 113.883 30.2317C114.126 29.7933 114.248 29.2945 114.248 28.735V28.7005C113.779 29.1964 113.288 29.5669 112.778 29.812C112.266 30.0571 111.67 30.1796 110.989 30.1795C110.075 30.1795 109.22 29.9545 108.425 29.5045C107.631 29.0545 106.995 28.4245 106.518 27.6143C106.04 26.8042 105.802 25.8887 105.802 24.8678C105.802 23.9047 106.04 23.0094 106.518 22.1821C106.995 21.3547 107.632 20.6944 108.43 20.2011C109.227 19.708 110.08 19.4614 110.989 19.4614C112.304 19.4614 113.428 19.9689 114.359 20.9838L114.505 20.0062C114.528 19.8506 114.568 19.7412 114.625 19.6777C114.682 19.6142 114.777 19.5824 114.908 19.5823H116.238C116.443 19.5823 116.546 19.7035 116.546 19.9459V28.0943C116.546 29.3111 116.318 30.342 115.864 31.1869ZM113.918 23.2497C113.646 22.7479 113.273 22.3485 112.798 22.0516C112.324 21.7547 111.793 21.6063 111.204 21.6064C110.592 21.6064 110.051 21.7548 109.579 22.0516C109.108 22.3485 108.74 22.7493 108.477 23.2542C108.214 23.7589 108.082 24.3111 108.082 24.9109C108.082 25.5456 108.221 26.1108 108.498 26.6065C108.775 27.1022 109.155 27.4886 109.638 27.7658C110.122 28.0422 110.658 28.1805 111.247 28.1805C111.83 28.1805 112.355 28.0334 112.825 27.7393C113.293 27.4451 113.661 27.0457 113.926 26.5411C114.192 26.0365 114.325 25.4871 114.325 24.8929C114.325 24.2987 114.189 23.751 113.918 23.2497Z" fill="black"/>
<path d="M118.671 19.5969C118.012 19.5969 117.468 20.1325 117.468 20.8089C117.468 21.4723 118.012 22.0209 118.671 22.0209C119.329 22.0209 119.874 21.4853 119.874 20.8089C119.874 20.1455 119.342 19.5969 118.671 19.5969ZM118.671 21.7653C118.165 21.7653 117.735 21.3316 117.735 20.8089C117.735 20.2862 118.165 19.8525 118.671 19.8525C119.177 19.8525 119.608 20.2733 119.608 20.8089C119.608 21.3316 119.177 21.7653 118.671 21.7653Z" fill="black"/>
<path d="M118.206 20.1491C118.212 20.1432 118.221 20.1388 118.233 20.1388H118.795C118.873 20.1388 118.943 20.1594 119.008 20.1992C119.071 20.2405 119.12 20.2935 119.157 20.3597C119.194 20.4261 119.211 20.4968 119.211 20.5734C119.211 20.647 119.191 20.7178 119.149 20.7841C119.108 20.8504 119.055 20.9034 118.987 20.9418L119.228 21.4235C119.23 21.4279 119.232 21.4323 119.232 21.4368C119.232 21.4441 119.228 21.45 119.224 21.4544C119.22 21.4589 119.214 21.4618 119.205 21.4618H118.977C118.967 21.4618 118.959 21.4603 118.954 21.4559C118.948 21.4515 118.942 21.4427 118.936 21.4309L118.725 21.0036H118.456V21.4265C118.456 21.45 118.445 21.4618 118.422 21.4618H118.233C118.209 21.4618 118.199 21.45 118.199 21.4265V20.1741C118.199 20.1638 118.202 20.155 118.206 20.1491ZM118.456 20.7767H118.732C118.772 20.7767 118.809 20.7679 118.841 20.7487C118.873 20.7296 118.899 20.7045 118.918 20.6736C118.938 20.6411 118.946 20.6073 118.946 20.569C118.946 20.5307 118.938 20.4968 118.918 20.4644C118.899 20.432 118.875 20.4069 118.841 20.3878C118.809 20.3687 118.772 20.3597 118.732 20.3597H118.456V20.7767Z" fill="black"/>
</g>
<defs>
<clipPath id="clip0_8087_14958">
<rect width="120" height="31" fill="white" transform="translate(0 11)"/>
</clipPath>
</defs>
</svg>
