<svg width="120" height="48" viewBox="0 0 120 48" fill="none" xmlns="http://www.w3.org/2000/svg">
<g clip-path="url(#clip0_7678_30444)">
<path d="M117.691 26.312C117.691 25.6177 117.691 25.1252 117.691 24.6303C117.691 23.0846 117.665 21.5389 117.707 19.9956C117.728 19.2239 118.208 18.7947 118.869 18.8064C119.551 18.8181 119.988 19.2403 119.993 20.0097C120.009 23.101 119.998 26.19 120 29.2814C120 29.8326 119.809 30.2595 119.258 30.4729C118.645 30.7098 118.203 30.4401 117.811 30.0038C116.123 28.1227 114.434 26.2416 112.741 24.3652C112.387 23.9735 112.016 23.5983 111.652 23.2159C111.577 23.2464 111.504 23.2769 111.428 23.3074C111.428 23.9524 111.428 24.5974 111.428 25.2401C111.428 26.3988 111.435 27.5575 111.423 28.7161C111.419 29.0609 111.404 29.4151 111.317 29.7458C111.173 30.2947 110.717 30.5949 110.188 30.562C109.659 30.5269 109.241 30.161 109.156 29.6215C109.121 29.394 109.133 29.1594 109.133 28.9272C109.133 26.0681 109.133 23.2089 109.133 20.3498C109.133 20.1949 109.14 20.0401 109.138 19.8853C109.128 19.4022 109.381 19.0574 109.801 18.8862C110.262 18.6985 110.727 18.7431 111.093 19.1442C111.617 19.7188 112.146 20.2888 112.668 20.8658C114.104 22.4513 115.532 24.0416 116.97 25.6248C117.145 25.8171 117.348 25.9836 117.693 26.3097L117.691 26.312Z" fill="black"/>
<path d="M74.6658 25.803C75.0814 27.1118 75.9173 27.7896 77.0508 28.1485C77.4546 28.2775 77.8986 28.2798 78.3165 28.369C78.8998 28.4909 79.2162 28.8685 79.228 29.4104C79.2398 30.0038 78.8974 30.4799 78.2717 30.5245C77.7356 30.5643 77.1736 30.4987 76.647 30.372C73.6693 29.6566 71.714 26.7834 72.2005 23.7882C72.7176 20.6241 75.5938 18.6422 78.4535 18.804C81.3509 18.9682 83.88 21.3254 84.1043 24.201C84.187 25.2729 83.7312 25.7889 82.6237 25.7983C80.3898 25.8147 78.1559 25.803 75.9221 25.803C75.5419 25.803 75.1617 25.803 74.6682 25.803H74.6658ZM74.6847 23.4035C76.1299 23.6193 80.6897 23.5724 81.5564 23.3355C80.9235 21.8625 79.7759 21.0815 78.2079 21.0393C76.5738 20.9971 75.4049 21.7969 74.6847 23.4012V23.4035Z" fill="black"/>
<path d="M45.9488 25.803C46.4258 27.0461 47.1838 27.7639 48.2866 28.1204C48.655 28.24 49.0493 28.2846 49.4342 28.3479C50.2277 28.4792 50.6055 28.8874 50.5417 29.5629C50.4803 30.2079 49.9656 30.6324 49.2099 30.5738C45.7575 30.304 43.4882 27.7967 43.4599 24.6678C43.4316 21.546 46.0976 18.8791 49.2477 18.8158C52.2325 18.7548 54.6411 20.5984 55.3023 23.4599C55.3708 23.7578 55.4109 24.0697 55.4157 24.377C55.4275 25.3668 55.0237 25.7913 54.0083 25.8007C51.8499 25.8195 49.694 25.8054 47.5357 25.8077C47.0681 25.8077 46.5982 25.8077 45.9512 25.8077L45.9488 25.803ZM46.0456 23.4716H52.7921C52.419 22.0971 51.1958 21.1472 49.7152 21.037C48.0788 20.915 46.7682 21.7547 46.0433 23.4716H46.0456Z" fill="black"/>
<path d="M32.1771 26.6451C32.6848 26.1666 33.0745 25.857 33.3932 25.4887C34.5574 24.1377 36.8527 23.8516 38.3687 25.5075C38.697 25.8664 39.0724 26.1854 39.6226 26.7061C39.6226 25.0337 39.6226 23.6522 39.6226 22.2731C39.6226 21.4991 39.5966 20.725 39.6344 19.9557C39.6699 19.2216 40.0618 18.8369 40.7018 18.8205C41.3394 18.8041 41.7502 19.1653 41.8707 19.8783C41.9085 20.1058 41.9014 20.3404 41.9014 20.5726C41.9014 23.3168 41.9014 26.061 41.9014 28.8053C41.9014 28.9601 41.9085 29.1149 41.8966 29.2697C41.8565 29.7927 41.7195 30.2595 41.1504 30.4706C40.5908 30.6793 40.1539 30.4612 39.7714 30.0906C38.8504 29.1946 37.9413 28.2846 37.0204 27.3886C36.0357 26.4316 35.6744 26.434 34.6826 27.398C33.79 28.2658 32.9021 29.143 32.0189 30.0202C31.608 30.4284 31.1735 30.7098 30.5596 30.4635C29.9291 30.2079 29.8795 29.6778 29.8795 29.1172C29.8795 26.1408 29.8795 23.1644 29.8795 20.1903C29.8795 20.0355 29.8818 19.8783 29.9102 19.7282C30.0306 19.0996 30.4273 18.7924 31.0625 18.8205C31.6175 18.8463 31.9929 19.17 32.085 19.7493C32.1275 20.0144 32.1086 20.2888 32.1086 20.5585C32.1086 22.1816 32.1086 23.8047 32.1134 25.4278C32.1134 25.7561 32.1464 26.0845 32.1795 26.6427L32.1771 26.6451Z" fill="black"/>
<path d="M101.85 18.8134C105.126 18.8017 107.784 21.377 107.818 24.5927C107.853 27.867 105.225 30.5385 101.916 30.5901C98.6931 30.6394 95.9349 28.0007 95.9042 24.8366C95.8712 21.445 98.4569 18.8275 101.848 18.8157L101.85 18.8134ZM101.871 28.3572C103.912 28.3291 105.636 26.5911 105.581 24.6162C105.529 22.6741 103.808 21.0275 101.831 21.0299C99.8029 21.0299 98.0649 22.7867 98.1334 24.7663C98.1995 26.7271 99.9281 28.3854 101.871 28.3596V28.3572Z" fill="black"/>
<path d="M88.8602 21.0369C87.9558 21.0275 87.1434 21.0205 86.3311 21.0088C85.2284 20.9947 84.7136 20.6617 84.6852 19.9486C84.6545 19.1816 85.2 18.7923 86.3571 18.7899C88.7893 18.7829 91.2239 18.7829 93.6562 18.7899C94.7472 18.7923 95.2407 19.1465 95.2478 19.8876C95.2549 20.6617 94.8015 20.9924 93.6822 21.0064C92.9029 21.0182 92.1236 21.0064 91.2499 21.0064C91.2145 21.431 91.1649 21.7617 91.1625 22.0924C91.1555 24.2948 91.1649 26.4972 91.1531 28.6997C91.1531 29.082 91.1224 29.4784 91.0091 29.8396C90.8556 30.3368 90.4376 30.5643 89.9181 30.5526C89.3891 30.5409 88.9665 30.1562 88.8862 29.6168C88.846 29.3517 88.8602 29.0773 88.8602 28.8076C88.8602 26.6427 88.8602 24.4801 88.8602 22.3152V21.0322V21.0369Z" fill="black"/>
<path d="M64.3276 22.5521C64.3276 21.7031 64.3016 20.8516 64.3347 20.0026C64.3654 19.2004 64.7786 18.7923 65.4563 18.8017C66.1388 18.8111 66.5497 19.2168 66.5686 20.019C66.5993 21.4099 66.552 22.8031 66.5945 24.1916C66.6134 24.7991 66.689 25.4347 66.8944 26.0023C67.3171 27.1657 68.1814 27.9163 69.4282 28.1907C69.7706 28.2657 70.1272 28.2822 70.4696 28.3572C70.956 28.4675 71.3976 28.9929 71.4 29.4268C71.4 29.9029 71.0269 30.44 70.4908 30.4869C69.9194 30.5385 69.3125 30.4987 68.7552 30.3626C66.3041 29.7669 64.4905 27.5879 64.3536 25.0993C64.3063 24.2526 64.3465 23.3988 64.3465 22.5498C64.3418 22.5498 64.3347 22.5498 64.3299 22.5498L64.3276 22.5521Z" fill="black"/>
<path d="M56.313 22.6835C56.313 21.7945 56.287 20.9056 56.3201 20.019C56.3508 19.2074 56.7522 18.797 57.4229 18.7993C58.11 18.7993 58.5351 19.2028 58.5516 19.9979C58.5847 21.5037 58.5516 23.0118 58.5705 24.5176C58.5847 25.8827 59.116 27.0062 60.3203 27.7333C60.743 27.989 61.253 28.1156 61.7301 28.2728C61.9119 28.3314 62.1197 28.3009 62.3133 28.3361C62.9627 28.4581 63.4114 28.9717 63.3618 29.5253C63.3122 30.0999 62.8068 30.6112 62.1457 30.5503C61.3758 30.4799 60.5612 30.365 59.8716 30.0507C57.7605 29.0867 56.4972 27.4566 56.339 25.1157C56.2847 24.3089 56.3295 23.495 56.3295 22.6835C56.3224 22.6835 56.3177 22.6835 56.3106 22.6835H56.313Z" fill="black"/>
</g>
<g clip-path="url(#clip1_7678_30444)">
<path d="M0.695798 33.0005L5.72919 35.5172C5.90402 35.6042 6.09655 35.6495 6.29191 35.6495C6.48692 35.6495 6.6798 35.6042 6.85428 35.5172L11.3253 33.2811L15.7963 35.5158C15.9704 35.6042 16.1633 35.6503 16.3587 35.6506C16.554 35.651 16.7469 35.6049 16.9214 35.5172L21.9548 33.0005C22.3813 32.7867 22.6506 32.3514 22.6506 31.8743V25.5831C22.6506 25.1064 22.3813 24.6711 21.9548 24.4573L17.6172 22.2892V16.7756C17.6172 16.2988 17.3479 15.8635 16.9214 15.6494L11.8877 13.1331C11.7128 13.0457 11.5203 13 11.3246 13C11.1292 13 10.9363 13.0457 10.7615 13.1331L5.72812 15.6494C5.30272 15.8635 5.03339 16.2988 5.03339 16.7756V22.2892L0.695798 24.4584C0.486634 24.5624 0.310738 24.7231 0.187929 24.9217C0.0647666 25.1206 0 25.3495 0 25.5831V31.8743C0 32.3514 0.26933 32.7867 0.695798 33.0005ZM6.29191 24.4736L9.14093 25.8977L5.47507 27.731L2.62605 26.3069L6.29191 24.4736ZM11.3253 21.328L15.1005 19.4406V22.2892L11.3253 24.1767V21.328ZM19.2077 25.8977L15.5811 27.7109L12.7321 26.2867L16.3587 24.4736L19.2077 25.8977ZM6.29191 32.9842L6.2137 32.9453V30.1759L10.0668 28.2481V31.0968L6.29191 32.9842ZM16.3587 32.9842V30.1355L20.1339 28.2481V31.0968L16.3587 32.9842ZM11.3253 15.6657L14.1743 17.0902L10.5477 18.9033L7.69873 17.4788L11.3253 15.6657Z" fill="#0F0F0F"/>
</g>
<defs>
<clipPath id="clip0_7678_30444">
<rect width="90.1205" height="11.8072" fill="white" transform="translate(29.8795 18.783)"/>
</clipPath>
<clipPath id="clip1_7678_30444">
<rect width="22.6506" height="22.6506" fill="white" transform="translate(0 13)"/>
</clipPath>
</defs>
</svg>
