<svg width="120" height="48" viewBox="0 0 120 48" fill="none" xmlns="http://www.w3.org/2000/svg">
<g clip-path="url(#clip0_4403_20157)">
<path fill-rule="evenodd" clip-rule="evenodd" d="M23.9401 36H0V12H23.9401V36ZM12.9426 30.525V25.1925L18.0973 17.475H15.6359L11.9401 23.175L8.22942 17.475H5.76807L10.9227 25.1925V30.525H12.9426Z" fill="#202020"/>
<path fill-rule="evenodd" clip-rule="evenodd" d="M37.9791 20.0488C35.7646 20.0488 34.1038 21.7663 34.1038 23.9863C34.1038 26.2063 35.7646 27.9388 37.9791 27.9388C39.4005 27.9388 40.6349 27.2038 41.3008 25.9663L43.201 27.0988C42.1387 28.9213 40.1487 30.1063 37.9791 30.1063C34.5676 30.0988 31.8594 27.3838 31.8594 23.9863C31.8594 20.5813 34.5676 17.8663 37.9791 17.8663C40.1711 17.8663 42.1387 19.0363 43.201 20.8738L41.3008 22.0063C40.6275 20.7688 39.4005 20.0488 37.9791 20.0488Z" fill="#202020"/>
<path fill-rule="evenodd" clip-rule="evenodd" d="M50.5028 25.5313C50.5028 24.1438 49.4928 23.0938 48.1911 23.0938C46.8519 23.0938 45.8419 24.1438 45.8419 25.5313C45.8419 26.9188 46.8519 27.9688 48.1911 27.9688C49.4704 27.9688 50.5028 26.9188 50.5028 25.5313ZM43.6649 25.5313C43.6649 23.0263 45.6699 21.0163 48.1911 21.0163C50.6749 21.0163 52.6798 23.0263 52.6798 25.5313C52.6798 28.0363 50.6749 30.0463 48.1911 30.0463C45.6699 30.0463 43.6649 28.0363 43.6649 25.5313Z" fill="#202020"/>
<path fill-rule="evenodd" clip-rule="evenodd" d="M66.8045 24.8113V29.8513H64.635V25.1938C64.635 23.8888 63.999 23.0638 63.0414 23.0638C62.0614 23.0638 61.3432 23.8888 61.3432 25.1938V29.8513H59.2484V25.1938C59.2484 23.8888 58.5901 23.0638 57.625 23.0638C56.6599 23.0638 55.9567 23.8888 55.9567 25.1938V29.8513H53.7871V21.2263H55.9567V22.3288C56.4878 21.5038 57.3108 20.9863 58.3207 20.9863C59.4205 20.9863 60.2883 21.6088 60.8195 22.5763C61.3656 21.7138 62.3756 20.9863 63.6474 20.9863C65.5552 20.9863 66.8045 22.6738 66.8045 24.8113Z" fill="#202020"/>
<path fill-rule="evenodd" clip-rule="evenodd" d="M74.5177 25.6213C74.5177 24.1813 73.6275 23.1463 72.3781 23.1463C71.1586 23.1463 70.2384 24.1288 70.2384 25.5988C70.2384 27.0613 71.1811 28.0513 72.4155 28.0513C73.6275 28.0438 74.5177 27.0313 74.5177 25.6213ZM72.8344 30.0763C71.6374 30.0763 70.7546 29.5288 70.2459 28.7713V29.8513H68.0763V17.8513H70.2459V22.2763C70.7696 21.5713 71.6524 21.0613 72.797 21.0613C75.019 21.0613 76.7172 22.9813 76.7546 25.5688C76.7921 28.1863 75.0564 30.0763 72.8344 30.0763Z" fill="#202020"/>
<path fill-rule="evenodd" clip-rule="evenodd" d="M77.6524 29.8513H79.822V21.2263H77.6524V29.8513ZM77.3756 18.7813C77.3756 18.0463 77.9891 17.4913 78.7297 17.4913C79.4479 17.4913 80.0464 18.0388 80.0464 18.7813C80.0464 19.5163 79.4479 20.0713 78.7297 20.0713C77.9966 20.0638 77.3756 19.5163 77.3756 18.7813Z" fill="#202020"/>
<path fill-rule="evenodd" clip-rule="evenodd" d="M89.1736 24.8488V29.8513H87.0788V25.3138C87.0788 23.9263 86.3532 23.0638 85.3058 23.0638C84.1537 23.0638 83.3382 24.1138 83.3382 25.3513V29.8513H81.2434V21.2263H83.3382V22.3138C83.9217 21.5038 84.8569 20.9863 85.9492 20.9863C87.8794 20.9863 89.1736 22.6363 89.1736 24.8488Z" fill="#202020"/>
<path fill-rule="evenodd" clip-rule="evenodd" d="M95.7571 26.0263V25.8388L93.5651 26.2663C92.8319 26.4388 92.3831 26.8138 92.3831 27.3163C92.3831 27.8488 92.8694 28.2463 93.6698 28.2238C94.822 28.1863 95.7571 27.1813 95.7571 26.0263ZM97.8519 24.6463V29.8513H95.7571V28.8538C95.1212 29.5438 94.1262 30.0538 93.0265 30.0763C91.5676 30.0763 90.2808 29.1163 90.2808 27.4663C90.2808 25.9063 91.4479 25.0138 93.1836 24.6688L95.7048 24.1888C95.5327 23.4688 94.9866 22.9213 94.1561 22.9213C93.3332 22.9213 92.5626 23.4388 92.0988 24.0913L90.5202 22.9438C91.3282 21.8113 92.7496 21.0538 94.1636 21.0538C96.2733 21.0388 97.8519 22.5013 97.8519 24.6463Z" fill="#202020"/>
<path fill-rule="evenodd" clip-rule="evenodd" d="M102.266 23.1763V26.7913C102.266 27.4963 102.573 27.8188 103.209 27.8188H104.286V29.8438H102.909C101.076 29.8438 100.171 28.9438 100.171 27.0538V23.1763H98.6001V21.2263H100.096V19.0963L102.266 18.4288V21.2263H104.286V23.1763H102.266Z" fill="#202020"/>
<path fill-rule="evenodd" clip-rule="evenodd" d="M111.834 25.5313C111.834 24.1438 110.824 23.0938 109.523 23.0938C108.184 23.0938 107.174 24.1438 107.174 25.5313C107.174 26.9188 108.184 27.9688 109.523 27.9688C110.802 27.9688 111.834 26.9188 111.834 25.5313ZM104.997 25.5313C104.997 23.0263 107.002 21.0163 109.523 21.0163C112.007 21.0163 114.012 23.0263 114.012 25.5313C114.012 28.0363 112.007 30.0463 109.523 30.0463C107.002 30.0463 104.997 28.0363 104.997 25.5313Z" fill="#202020"/>
<path fill-rule="evenodd" clip-rule="evenodd" d="M119.997 21.0388V23.1313C118.059 23.1313 117.228 24.0763 117.228 25.3138V29.8513H115.134V21.2263H117.228V22.3063C117.82 21.5338 118.77 21.0388 119.997 21.0388Z" fill="#202020"/>
</g>
<defs>
<clipPath id="clip0_4403_20157">
<rect width="120" height="24" fill="white" transform="translate(0 12)"/>
</clipPath>
</defs>
</svg>
